G04 #@! TF.GenerationSoftware,KiCad,Pcbnew,(5.1.9)-1*
G04 #@! TF.CreationDate,2021-12-17T16:24:56-06:00*
G04 #@! TF.ProjectId,DEVLPR,4445564c-5052-42e6-9b69-6361645f7063,rev?*
G04 #@! TF.SameCoordinates,Original*
G04 #@! TF.FileFunction,Paste,Top*
G04 #@! TF.FilePolarity,Positive*
%FSLAX46Y46*%
G04 Gerber Fmt 4.6, Leading zero omitted, Abs format (unit mm)*
G04 Created by KiCad (PCBNEW (5.1.9)-1) date 2021-12-17 16:24:56*
%MOMM*%
%LPD*%
G01*
G04 APERTURE LIST*
%ADD10R,1.300000X1.550000*%
%ADD11R,0.800000X0.600000*%
%ADD12R,1.450000X0.450000*%
%ADD13R,1.220000X0.650000*%
%ADD14R,1.200000X1.200000*%
%ADD15R,1.500000X1.600000*%
%ADD16R,2.800000X2.800000*%
%ADD17R,2.200000X2.800000*%
G04 APERTURE END LIST*
D10*
X134366000Y-114808000D03*
X134366000Y-122758000D03*
X129866000Y-114808000D03*
X129866000Y-122758000D03*
G36*
G01*
X165248000Y-99397000D02*
X164698000Y-99397000D01*
G75*
G02*
X164498000Y-99197000I0J200000D01*
G01*
X164498000Y-98797000D01*
G75*
G02*
X164698000Y-98597000I200000J0D01*
G01*
X165248000Y-98597000D01*
G75*
G02*
X165448000Y-98797000I0J-200000D01*
G01*
X165448000Y-99197000D01*
G75*
G02*
X165248000Y-99397000I-200000J0D01*
G01*
G37*
G36*
G01*
X165248000Y-101047000D02*
X164698000Y-101047000D01*
G75*
G02*
X164498000Y-100847000I0J200000D01*
G01*
X164498000Y-100447000D01*
G75*
G02*
X164698000Y-100247000I200000J0D01*
G01*
X165248000Y-100247000D01*
G75*
G02*
X165448000Y-100447000I0J-200000D01*
G01*
X165448000Y-100847000D01*
G75*
G02*
X165248000Y-101047000I-200000J0D01*
G01*
G37*
D11*
X163195000Y-100395000D03*
X163195000Y-98995000D03*
G36*
G01*
X150678000Y-113034000D02*
X150678000Y-113534000D01*
G75*
G02*
X150453000Y-113759000I-225000J0D01*
G01*
X150003000Y-113759000D01*
G75*
G02*
X149778000Y-113534000I0J225000D01*
G01*
X149778000Y-113034000D01*
G75*
G02*
X150003000Y-112809000I225000J0D01*
G01*
X150453000Y-112809000D01*
G75*
G02*
X150678000Y-113034000I0J-225000D01*
G01*
G37*
G36*
G01*
X152228000Y-113034000D02*
X152228000Y-113534000D01*
G75*
G02*
X152003000Y-113759000I-225000J0D01*
G01*
X151553000Y-113759000D01*
G75*
G02*
X151328000Y-113534000I0J225000D01*
G01*
X151328000Y-113034000D01*
G75*
G02*
X151553000Y-112809000I225000J0D01*
G01*
X152003000Y-112809000D01*
G75*
G02*
X152228000Y-113034000I0J-225000D01*
G01*
G37*
G36*
G01*
X166209000Y-93740000D02*
X166209000Y-93540000D01*
G75*
G02*
X166309000Y-93440000I100000J0D01*
G01*
X167584000Y-93440000D01*
G75*
G02*
X167684000Y-93540000I0J-100000D01*
G01*
X167684000Y-93740000D01*
G75*
G02*
X167584000Y-93840000I-100000J0D01*
G01*
X166309000Y-93840000D01*
G75*
G02*
X166209000Y-93740000I0J100000D01*
G01*
G37*
G36*
G01*
X166209000Y-94390000D02*
X166209000Y-94190000D01*
G75*
G02*
X166309000Y-94090000I100000J0D01*
G01*
X167584000Y-94090000D01*
G75*
G02*
X167684000Y-94190000I0J-100000D01*
G01*
X167684000Y-94390000D01*
G75*
G02*
X167584000Y-94490000I-100000J0D01*
G01*
X166309000Y-94490000D01*
G75*
G02*
X166209000Y-94390000I0J100000D01*
G01*
G37*
G36*
G01*
X166209000Y-95040000D02*
X166209000Y-94840000D01*
G75*
G02*
X166309000Y-94740000I100000J0D01*
G01*
X167584000Y-94740000D01*
G75*
G02*
X167684000Y-94840000I0J-100000D01*
G01*
X167684000Y-95040000D01*
G75*
G02*
X167584000Y-95140000I-100000J0D01*
G01*
X166309000Y-95140000D01*
G75*
G02*
X166209000Y-95040000I0J100000D01*
G01*
G37*
G36*
G01*
X166209000Y-95690000D02*
X166209000Y-95490000D01*
G75*
G02*
X166309000Y-95390000I100000J0D01*
G01*
X167584000Y-95390000D01*
G75*
G02*
X167684000Y-95490000I0J-100000D01*
G01*
X167684000Y-95690000D01*
G75*
G02*
X167584000Y-95790000I-100000J0D01*
G01*
X166309000Y-95790000D01*
G75*
G02*
X166209000Y-95690000I0J100000D01*
G01*
G37*
G36*
G01*
X160484000Y-95690000D02*
X160484000Y-95490000D01*
G75*
G02*
X160584000Y-95390000I100000J0D01*
G01*
X161859000Y-95390000D01*
G75*
G02*
X161959000Y-95490000I0J-100000D01*
G01*
X161959000Y-95690000D01*
G75*
G02*
X161859000Y-95790000I-100000J0D01*
G01*
X160584000Y-95790000D01*
G75*
G02*
X160484000Y-95690000I0J100000D01*
G01*
G37*
G36*
G01*
X160484000Y-95040000D02*
X160484000Y-94840000D01*
G75*
G02*
X160584000Y-94740000I100000J0D01*
G01*
X161859000Y-94740000D01*
G75*
G02*
X161959000Y-94840000I0J-100000D01*
G01*
X161959000Y-95040000D01*
G75*
G02*
X161859000Y-95140000I-100000J0D01*
G01*
X160584000Y-95140000D01*
G75*
G02*
X160484000Y-95040000I0J100000D01*
G01*
G37*
G36*
G01*
X160484000Y-94390000D02*
X160484000Y-94190000D01*
G75*
G02*
X160584000Y-94090000I100000J0D01*
G01*
X161859000Y-94090000D01*
G75*
G02*
X161959000Y-94190000I0J-100000D01*
G01*
X161959000Y-94390000D01*
G75*
G02*
X161859000Y-94490000I-100000J0D01*
G01*
X160584000Y-94490000D01*
G75*
G02*
X160484000Y-94390000I0J100000D01*
G01*
G37*
G36*
G01*
X160484000Y-93740000D02*
X160484000Y-93540000D01*
G75*
G02*
X160584000Y-93440000I100000J0D01*
G01*
X161859000Y-93440000D01*
G75*
G02*
X161959000Y-93540000I0J-100000D01*
G01*
X161959000Y-93740000D01*
G75*
G02*
X161859000Y-93840000I-100000J0D01*
G01*
X160584000Y-93840000D01*
G75*
G02*
X160484000Y-93740000I0J100000D01*
G01*
G37*
D12*
X148250000Y-82210000D03*
X148250000Y-82860000D03*
X148250000Y-83510000D03*
X148250000Y-84160000D03*
X143850000Y-84160000D03*
X143850000Y-83510000D03*
X143850000Y-82860000D03*
X143850000Y-82210000D03*
X148803000Y-111465000D03*
X148803000Y-110815000D03*
X148803000Y-110165000D03*
X148803000Y-109515000D03*
X153203000Y-109515000D03*
X153203000Y-110165000D03*
X153203000Y-110815000D03*
X153203000Y-111465000D03*
X145247000Y-92796000D03*
X145247000Y-92146000D03*
X145247000Y-91496000D03*
X145247000Y-90846000D03*
X149647000Y-90846000D03*
X149647000Y-91496000D03*
X149647000Y-92146000D03*
X149647000Y-92796000D03*
D13*
X169251000Y-104963000D03*
X169251000Y-104013000D03*
X169251000Y-103063000D03*
X171871000Y-103063000D03*
X171871000Y-104013000D03*
X171871000Y-104963000D03*
D12*
X153203000Y-105578000D03*
X153203000Y-106228000D03*
X153203000Y-106878000D03*
X153203000Y-107528000D03*
X148803000Y-107528000D03*
X148803000Y-106878000D03*
X148803000Y-106228000D03*
X148803000Y-105578000D03*
G36*
G01*
X168762000Y-95167000D02*
X169312000Y-95167000D01*
G75*
G02*
X169512000Y-95367000I0J-200000D01*
G01*
X169512000Y-95767000D01*
G75*
G02*
X169312000Y-95967000I-200000J0D01*
G01*
X168762000Y-95967000D01*
G75*
G02*
X168562000Y-95767000I0J200000D01*
G01*
X168562000Y-95367000D01*
G75*
G02*
X168762000Y-95167000I200000J0D01*
G01*
G37*
G36*
G01*
X168762000Y-93517000D02*
X169312000Y-93517000D01*
G75*
G02*
X169512000Y-93717000I0J-200000D01*
G01*
X169512000Y-94117000D01*
G75*
G02*
X169312000Y-94317000I-200000J0D01*
G01*
X168762000Y-94317000D01*
G75*
G02*
X168562000Y-94117000I0J200000D01*
G01*
X168562000Y-93717000D01*
G75*
G02*
X168762000Y-93517000I200000J0D01*
G01*
G37*
G36*
G01*
X171090000Y-94317000D02*
X170540000Y-94317000D01*
G75*
G02*
X170340000Y-94117000I0J200000D01*
G01*
X170340000Y-93717000D01*
G75*
G02*
X170540000Y-93517000I200000J0D01*
G01*
X171090000Y-93517000D01*
G75*
G02*
X171290000Y-93717000I0J-200000D01*
G01*
X171290000Y-94117000D01*
G75*
G02*
X171090000Y-94317000I-200000J0D01*
G01*
G37*
G36*
G01*
X171090000Y-95967000D02*
X170540000Y-95967000D01*
G75*
G02*
X170340000Y-95767000I0J200000D01*
G01*
X170340000Y-95367000D01*
G75*
G02*
X170540000Y-95167000I200000J0D01*
G01*
X171090000Y-95167000D01*
G75*
G02*
X171290000Y-95367000I0J-200000D01*
G01*
X171290000Y-95767000D01*
G75*
G02*
X171090000Y-95967000I-200000J0D01*
G01*
G37*
G36*
G01*
X163532000Y-97134000D02*
X163532000Y-97684000D01*
G75*
G02*
X163332000Y-97884000I-200000J0D01*
G01*
X162932000Y-97884000D01*
G75*
G02*
X162732000Y-97684000I0J200000D01*
G01*
X162732000Y-97134000D01*
G75*
G02*
X162932000Y-96934000I200000J0D01*
G01*
X163332000Y-96934000D01*
G75*
G02*
X163532000Y-97134000I0J-200000D01*
G01*
G37*
G36*
G01*
X165182000Y-97134000D02*
X165182000Y-97684000D01*
G75*
G02*
X164982000Y-97884000I-200000J0D01*
G01*
X164582000Y-97884000D01*
G75*
G02*
X164382000Y-97684000I0J200000D01*
G01*
X164382000Y-97134000D01*
G75*
G02*
X164582000Y-96934000I200000J0D01*
G01*
X164982000Y-96934000D01*
G75*
G02*
X165182000Y-97134000I0J-200000D01*
G01*
G37*
G36*
G01*
X146133000Y-99039000D02*
X146133000Y-99589000D01*
G75*
G02*
X145933000Y-99789000I-200000J0D01*
G01*
X145533000Y-99789000D01*
G75*
G02*
X145333000Y-99589000I0J200000D01*
G01*
X145333000Y-99039000D01*
G75*
G02*
X145533000Y-98839000I200000J0D01*
G01*
X145933000Y-98839000D01*
G75*
G02*
X146133000Y-99039000I0J-200000D01*
G01*
G37*
G36*
G01*
X147783000Y-99039000D02*
X147783000Y-99589000D01*
G75*
G02*
X147583000Y-99789000I-200000J0D01*
G01*
X147183000Y-99789000D01*
G75*
G02*
X146983000Y-99589000I0J200000D01*
G01*
X146983000Y-99039000D01*
G75*
G02*
X147183000Y-98839000I200000J0D01*
G01*
X147583000Y-98839000D01*
G75*
G02*
X147783000Y-99039000I0J-200000D01*
G01*
G37*
G36*
G01*
X157120000Y-106255000D02*
X156570000Y-106255000D01*
G75*
G02*
X156370000Y-106055000I0J200000D01*
G01*
X156370000Y-105655000D01*
G75*
G02*
X156570000Y-105455000I200000J0D01*
G01*
X157120000Y-105455000D01*
G75*
G02*
X157320000Y-105655000I0J-200000D01*
G01*
X157320000Y-106055000D01*
G75*
G02*
X157120000Y-106255000I-200000J0D01*
G01*
G37*
G36*
G01*
X157120000Y-107905000D02*
X156570000Y-107905000D01*
G75*
G02*
X156370000Y-107705000I0J200000D01*
G01*
X156370000Y-107305000D01*
G75*
G02*
X156570000Y-107105000I200000J0D01*
G01*
X157120000Y-107105000D01*
G75*
G02*
X157320000Y-107305000I0J-200000D01*
G01*
X157320000Y-107705000D01*
G75*
G02*
X157120000Y-107905000I-200000J0D01*
G01*
G37*
G36*
G01*
X160126000Y-111423000D02*
X160676000Y-111423000D01*
G75*
G02*
X160876000Y-111623000I0J-200000D01*
G01*
X160876000Y-112023000D01*
G75*
G02*
X160676000Y-112223000I-200000J0D01*
G01*
X160126000Y-112223000D01*
G75*
G02*
X159926000Y-112023000I0J200000D01*
G01*
X159926000Y-111623000D01*
G75*
G02*
X160126000Y-111423000I200000J0D01*
G01*
G37*
G36*
G01*
X160126000Y-109773000D02*
X160676000Y-109773000D01*
G75*
G02*
X160876000Y-109973000I0J-200000D01*
G01*
X160876000Y-110373000D01*
G75*
G02*
X160676000Y-110573000I-200000J0D01*
G01*
X160126000Y-110573000D01*
G75*
G02*
X159926000Y-110373000I0J200000D01*
G01*
X159926000Y-109973000D01*
G75*
G02*
X160126000Y-109773000I200000J0D01*
G01*
G37*
G36*
G01*
X165248000Y-102572000D02*
X164698000Y-102572000D01*
G75*
G02*
X164498000Y-102372000I0J200000D01*
G01*
X164498000Y-101972000D01*
G75*
G02*
X164698000Y-101772000I200000J0D01*
G01*
X165248000Y-101772000D01*
G75*
G02*
X165448000Y-101972000I0J-200000D01*
G01*
X165448000Y-102372000D01*
G75*
G02*
X165248000Y-102572000I-200000J0D01*
G01*
G37*
G36*
G01*
X165248000Y-104222000D02*
X164698000Y-104222000D01*
G75*
G02*
X164498000Y-104022000I0J200000D01*
G01*
X164498000Y-103622000D01*
G75*
G02*
X164698000Y-103422000I200000J0D01*
G01*
X165248000Y-103422000D01*
G75*
G02*
X165448000Y-103622000I0J-200000D01*
G01*
X165448000Y-104022000D01*
G75*
G02*
X165248000Y-104222000I-200000J0D01*
G01*
G37*
G36*
G01*
X169945000Y-101542001D02*
X169945000Y-100641999D01*
G75*
G02*
X170194999Y-100392000I249999J0D01*
G01*
X170720001Y-100392000D01*
G75*
G02*
X170970000Y-100641999I0J-249999D01*
G01*
X170970000Y-101542001D01*
G75*
G02*
X170720001Y-101792000I-249999J0D01*
G01*
X170194999Y-101792000D01*
G75*
G02*
X169945000Y-101542001I0J249999D01*
G01*
G37*
G36*
G01*
X168120000Y-101542001D02*
X168120000Y-100641999D01*
G75*
G02*
X168369999Y-100392000I249999J0D01*
G01*
X168895001Y-100392000D01*
G75*
G02*
X169145000Y-100641999I0J-249999D01*
G01*
X169145000Y-101542001D01*
G75*
G02*
X168895001Y-101792000I-249999J0D01*
G01*
X168369999Y-101792000D01*
G75*
G02*
X168120000Y-101542001I0J249999D01*
G01*
G37*
G36*
G01*
X174174999Y-100730000D02*
X175075001Y-100730000D01*
G75*
G02*
X175325000Y-100979999I0J-249999D01*
G01*
X175325000Y-101505001D01*
G75*
G02*
X175075001Y-101755000I-249999J0D01*
G01*
X174174999Y-101755000D01*
G75*
G02*
X173925000Y-101505001I0J249999D01*
G01*
X173925000Y-100979999D01*
G75*
G02*
X174174999Y-100730000I249999J0D01*
G01*
G37*
G36*
G01*
X174174999Y-98905000D02*
X175075001Y-98905000D01*
G75*
G02*
X175325000Y-99154999I0J-249999D01*
G01*
X175325000Y-99680001D01*
G75*
G02*
X175075001Y-99930000I-249999J0D01*
G01*
X174174999Y-99930000D01*
G75*
G02*
X173925000Y-99680001I0J249999D01*
G01*
X173925000Y-99154999D01*
G75*
G02*
X174174999Y-98905000I249999J0D01*
G01*
G37*
G36*
G01*
X167132250Y-102372000D02*
X166369750Y-102372000D01*
G75*
G02*
X166151000Y-102153250I0J218750D01*
G01*
X166151000Y-101715750D01*
G75*
G02*
X166369750Y-101497000I218750J0D01*
G01*
X167132250Y-101497000D01*
G75*
G02*
X167351000Y-101715750I0J-218750D01*
G01*
X167351000Y-102153250D01*
G75*
G02*
X167132250Y-102372000I-218750J0D01*
G01*
G37*
G36*
G01*
X167132250Y-104497000D02*
X166369750Y-104497000D01*
G75*
G02*
X166151000Y-104278250I0J218750D01*
G01*
X166151000Y-103840750D01*
G75*
G02*
X166369750Y-103622000I218750J0D01*
G01*
X167132250Y-103622000D01*
G75*
G02*
X167351000Y-103840750I0J-218750D01*
G01*
X167351000Y-104278250D01*
G75*
G02*
X167132250Y-104497000I-218750J0D01*
G01*
G37*
G36*
G01*
X171440000Y-109474250D02*
X171440000Y-108711750D01*
G75*
G02*
X171658750Y-108493000I218750J0D01*
G01*
X172096250Y-108493000D01*
G75*
G02*
X172315000Y-108711750I0J-218750D01*
G01*
X172315000Y-109474250D01*
G75*
G02*
X172096250Y-109693000I-218750J0D01*
G01*
X171658750Y-109693000D01*
G75*
G02*
X171440000Y-109474250I0J218750D01*
G01*
G37*
G36*
G01*
X169315000Y-109474250D02*
X169315000Y-108711750D01*
G75*
G02*
X169533750Y-108493000I218750J0D01*
G01*
X169971250Y-108493000D01*
G75*
G02*
X170190000Y-108711750I0J-218750D01*
G01*
X170190000Y-109474250D01*
G75*
G02*
X169971250Y-109693000I-218750J0D01*
G01*
X169533750Y-109693000D01*
G75*
G02*
X169315000Y-109474250I0J218750D01*
G01*
G37*
G36*
G01*
X144343000Y-80641000D02*
X144343000Y-80141000D01*
G75*
G02*
X144568000Y-79916000I225000J0D01*
G01*
X145018000Y-79916000D01*
G75*
G02*
X145243000Y-80141000I0J-225000D01*
G01*
X145243000Y-80641000D01*
G75*
G02*
X145018000Y-80866000I-225000J0D01*
G01*
X144568000Y-80866000D01*
G75*
G02*
X144343000Y-80641000I0J225000D01*
G01*
G37*
G36*
G01*
X142793000Y-80641000D02*
X142793000Y-80141000D01*
G75*
G02*
X143018000Y-79916000I225000J0D01*
G01*
X143468000Y-79916000D01*
G75*
G02*
X143693000Y-80141000I0J-225000D01*
G01*
X143693000Y-80641000D01*
G75*
G02*
X143468000Y-80866000I-225000J0D01*
G01*
X143018000Y-80866000D01*
G75*
G02*
X142793000Y-80641000I0J225000D01*
G01*
G37*
G36*
G01*
X147757000Y-80141000D02*
X147757000Y-80641000D01*
G75*
G02*
X147532000Y-80866000I-225000J0D01*
G01*
X147082000Y-80866000D01*
G75*
G02*
X146857000Y-80641000I0J225000D01*
G01*
X146857000Y-80141000D01*
G75*
G02*
X147082000Y-79916000I225000J0D01*
G01*
X147532000Y-79916000D01*
G75*
G02*
X147757000Y-80141000I0J-225000D01*
G01*
G37*
G36*
G01*
X149307000Y-80141000D02*
X149307000Y-80641000D01*
G75*
G02*
X149082000Y-80866000I-225000J0D01*
G01*
X148632000Y-80866000D01*
G75*
G02*
X148407000Y-80641000I0J225000D01*
G01*
X148407000Y-80141000D01*
G75*
G02*
X148632000Y-79916000I225000J0D01*
G01*
X149082000Y-79916000D01*
G75*
G02*
X149307000Y-80141000I0J-225000D01*
G01*
G37*
G36*
G01*
X152710000Y-103509000D02*
X152710000Y-104009000D01*
G75*
G02*
X152485000Y-104234000I-225000J0D01*
G01*
X152035000Y-104234000D01*
G75*
G02*
X151810000Y-104009000I0J225000D01*
G01*
X151810000Y-103509000D01*
G75*
G02*
X152035000Y-103284000I225000J0D01*
G01*
X152485000Y-103284000D01*
G75*
G02*
X152710000Y-103509000I0J-225000D01*
G01*
G37*
G36*
G01*
X154260000Y-103509000D02*
X154260000Y-104009000D01*
G75*
G02*
X154035000Y-104234000I-225000J0D01*
G01*
X153585000Y-104234000D01*
G75*
G02*
X153360000Y-104009000I0J225000D01*
G01*
X153360000Y-103509000D01*
G75*
G02*
X153585000Y-103284000I225000J0D01*
G01*
X154035000Y-103284000D01*
G75*
G02*
X154260000Y-103509000I0J-225000D01*
G01*
G37*
G36*
G01*
X151888000Y-94163000D02*
X151388000Y-94163000D01*
G75*
G02*
X151163000Y-93938000I0J225000D01*
G01*
X151163000Y-93488000D01*
G75*
G02*
X151388000Y-93263000I225000J0D01*
G01*
X151888000Y-93263000D01*
G75*
G02*
X152113000Y-93488000I0J-225000D01*
G01*
X152113000Y-93938000D01*
G75*
G02*
X151888000Y-94163000I-225000J0D01*
G01*
G37*
G36*
G01*
X151888000Y-95713000D02*
X151388000Y-95713000D01*
G75*
G02*
X151163000Y-95488000I0J225000D01*
G01*
X151163000Y-95038000D01*
G75*
G02*
X151388000Y-94813000I225000J0D01*
G01*
X151888000Y-94813000D01*
G75*
G02*
X152113000Y-95038000I0J-225000D01*
G01*
X152113000Y-95488000D01*
G75*
G02*
X151888000Y-95713000I-225000J0D01*
G01*
G37*
G36*
G01*
X151888000Y-90988000D02*
X151388000Y-90988000D01*
G75*
G02*
X151163000Y-90763000I0J225000D01*
G01*
X151163000Y-90313000D01*
G75*
G02*
X151388000Y-90088000I225000J0D01*
G01*
X151888000Y-90088000D01*
G75*
G02*
X152113000Y-90313000I0J-225000D01*
G01*
X152113000Y-90763000D01*
G75*
G02*
X151888000Y-90988000I-225000J0D01*
G01*
G37*
G36*
G01*
X151888000Y-92538000D02*
X151388000Y-92538000D01*
G75*
G02*
X151163000Y-92313000I0J225000D01*
G01*
X151163000Y-91863000D01*
G75*
G02*
X151388000Y-91638000I225000J0D01*
G01*
X151888000Y-91638000D01*
G75*
G02*
X152113000Y-91863000I0J-225000D01*
G01*
X152113000Y-92313000D01*
G75*
G02*
X151888000Y-92538000I-225000J0D01*
G01*
G37*
G36*
G01*
X151888000Y-87813000D02*
X151388000Y-87813000D01*
G75*
G02*
X151163000Y-87588000I0J225000D01*
G01*
X151163000Y-87138000D01*
G75*
G02*
X151388000Y-86913000I225000J0D01*
G01*
X151888000Y-86913000D01*
G75*
G02*
X152113000Y-87138000I0J-225000D01*
G01*
X152113000Y-87588000D01*
G75*
G02*
X151888000Y-87813000I-225000J0D01*
G01*
G37*
G36*
G01*
X151888000Y-89363000D02*
X151388000Y-89363000D01*
G75*
G02*
X151163000Y-89138000I0J225000D01*
G01*
X151163000Y-88688000D01*
G75*
G02*
X151388000Y-88463000I225000J0D01*
G01*
X151888000Y-88463000D01*
G75*
G02*
X152113000Y-88688000I0J-225000D01*
G01*
X152113000Y-89138000D01*
G75*
G02*
X151888000Y-89363000I-225000J0D01*
G01*
G37*
G36*
G01*
X164498000Y-107130000D02*
X165448000Y-107130000D01*
G75*
G02*
X165698000Y-107380000I0J-250000D01*
G01*
X165698000Y-107880000D01*
G75*
G02*
X165448000Y-108130000I-250000J0D01*
G01*
X164498000Y-108130000D01*
G75*
G02*
X164248000Y-107880000I0J250000D01*
G01*
X164248000Y-107380000D01*
G75*
G02*
X164498000Y-107130000I250000J0D01*
G01*
G37*
G36*
G01*
X164498000Y-105230000D02*
X165448000Y-105230000D01*
G75*
G02*
X165698000Y-105480000I0J-250000D01*
G01*
X165698000Y-105980000D01*
G75*
G02*
X165448000Y-106230000I-250000J0D01*
G01*
X164498000Y-106230000D01*
G75*
G02*
X164248000Y-105980000I0J250000D01*
G01*
X164248000Y-105480000D01*
G75*
G02*
X164498000Y-105230000I250000J0D01*
G01*
G37*
G36*
G01*
X176436000Y-102238000D02*
X177386000Y-102238000D01*
G75*
G02*
X177636000Y-102488000I0J-250000D01*
G01*
X177636000Y-102988000D01*
G75*
G02*
X177386000Y-103238000I-250000J0D01*
G01*
X176436000Y-103238000D01*
G75*
G02*
X176186000Y-102988000I0J250000D01*
G01*
X176186000Y-102488000D01*
G75*
G02*
X176436000Y-102238000I250000J0D01*
G01*
G37*
G36*
G01*
X176436000Y-100338000D02*
X177386000Y-100338000D01*
G75*
G02*
X177636000Y-100588000I0J-250000D01*
G01*
X177636000Y-101088000D01*
G75*
G02*
X177386000Y-101338000I-250000J0D01*
G01*
X176436000Y-101338000D01*
G75*
G02*
X176186000Y-101088000I0J250000D01*
G01*
X176186000Y-100588000D01*
G75*
G02*
X176436000Y-100338000I250000J0D01*
G01*
G37*
G36*
G01*
X171991000Y-100780000D02*
X172941000Y-100780000D01*
G75*
G02*
X173191000Y-101030000I0J-250000D01*
G01*
X173191000Y-101530000D01*
G75*
G02*
X172941000Y-101780000I-250000J0D01*
G01*
X171991000Y-101780000D01*
G75*
G02*
X171741000Y-101530000I0J250000D01*
G01*
X171741000Y-101030000D01*
G75*
G02*
X171991000Y-100780000I250000J0D01*
G01*
G37*
G36*
G01*
X171991000Y-98880000D02*
X172941000Y-98880000D01*
G75*
G02*
X173191000Y-99130000I0J-250000D01*
G01*
X173191000Y-99630000D01*
G75*
G02*
X172941000Y-99880000I-250000J0D01*
G01*
X171991000Y-99880000D01*
G75*
G02*
X171741000Y-99630000I0J250000D01*
G01*
X171741000Y-99130000D01*
G75*
G02*
X171991000Y-98880000I250000J0D01*
G01*
G37*
G36*
G01*
X172662000Y-107536000D02*
X172662000Y-106586000D01*
G75*
G02*
X172912000Y-106336000I250000J0D01*
G01*
X173412000Y-106336000D01*
G75*
G02*
X173662000Y-106586000I0J-250000D01*
G01*
X173662000Y-107536000D01*
G75*
G02*
X173412000Y-107786000I-250000J0D01*
G01*
X172912000Y-107786000D01*
G75*
G02*
X172662000Y-107536000I0J250000D01*
G01*
G37*
G36*
G01*
X170762000Y-107536000D02*
X170762000Y-106586000D01*
G75*
G02*
X171012000Y-106336000I250000J0D01*
G01*
X171512000Y-106336000D01*
G75*
G02*
X171762000Y-106586000I0J-250000D01*
G01*
X171762000Y-107536000D01*
G75*
G02*
X171512000Y-107786000I-250000J0D01*
G01*
X171012000Y-107786000D01*
G75*
G02*
X170762000Y-107536000I0J250000D01*
G01*
G37*
G36*
G01*
X172027000Y-111600000D02*
X172027000Y-110650000D01*
G75*
G02*
X172277000Y-110400000I250000J0D01*
G01*
X172777000Y-110400000D01*
G75*
G02*
X173027000Y-110650000I0J-250000D01*
G01*
X173027000Y-111600000D01*
G75*
G02*
X172777000Y-111850000I-250000J0D01*
G01*
X172277000Y-111850000D01*
G75*
G02*
X172027000Y-111600000I0J250000D01*
G01*
G37*
G36*
G01*
X170127000Y-111600000D02*
X170127000Y-110650000D01*
G75*
G02*
X170377000Y-110400000I250000J0D01*
G01*
X170877000Y-110400000D01*
G75*
G02*
X171127000Y-110650000I0J-250000D01*
G01*
X171127000Y-111600000D01*
G75*
G02*
X170877000Y-111850000I-250000J0D01*
G01*
X170377000Y-111850000D01*
G75*
G02*
X170127000Y-111600000I0J250000D01*
G01*
G37*
G36*
G01*
X144925600Y-86279400D02*
X144925600Y-85729400D01*
G75*
G02*
X145125600Y-85529400I200000J0D01*
G01*
X145525600Y-85529400D01*
G75*
G02*
X145725600Y-85729400I0J-200000D01*
G01*
X145725600Y-86279400D01*
G75*
G02*
X145525600Y-86479400I-200000J0D01*
G01*
X145125600Y-86479400D01*
G75*
G02*
X144925600Y-86279400I0J200000D01*
G01*
G37*
G36*
G01*
X143275600Y-86279400D02*
X143275600Y-85729400D01*
G75*
G02*
X143475600Y-85529400I200000J0D01*
G01*
X143875600Y-85529400D01*
G75*
G02*
X144075600Y-85729400I0J-200000D01*
G01*
X144075600Y-86279400D01*
G75*
G02*
X143875600Y-86479400I-200000J0D01*
G01*
X143475600Y-86479400D01*
G75*
G02*
X143275600Y-86279400I0J200000D01*
G01*
G37*
G36*
G01*
X150389000Y-115653000D02*
X149839000Y-115653000D01*
G75*
G02*
X149639000Y-115453000I0J200000D01*
G01*
X149639000Y-115053000D01*
G75*
G02*
X149839000Y-114853000I200000J0D01*
G01*
X150389000Y-114853000D01*
G75*
G02*
X150589000Y-115053000I0J-200000D01*
G01*
X150589000Y-115453000D01*
G75*
G02*
X150389000Y-115653000I-200000J0D01*
G01*
G37*
G36*
G01*
X150389000Y-117303000D02*
X149839000Y-117303000D01*
G75*
G02*
X149639000Y-117103000I0J200000D01*
G01*
X149639000Y-116703000D01*
G75*
G02*
X149839000Y-116503000I200000J0D01*
G01*
X150389000Y-116503000D01*
G75*
G02*
X150589000Y-116703000I0J-200000D01*
G01*
X150589000Y-117103000D01*
G75*
G02*
X150389000Y-117303000I-200000J0D01*
G01*
G37*
G36*
G01*
X149435000Y-99039000D02*
X149435000Y-99589000D01*
G75*
G02*
X149235000Y-99789000I-200000J0D01*
G01*
X148835000Y-99789000D01*
G75*
G02*
X148635000Y-99589000I0J200000D01*
G01*
X148635000Y-99039000D01*
G75*
G02*
X148835000Y-98839000I200000J0D01*
G01*
X149235000Y-98839000D01*
G75*
G02*
X149435000Y-99039000I0J-200000D01*
G01*
G37*
G36*
G01*
X151085000Y-99039000D02*
X151085000Y-99589000D01*
G75*
G02*
X150885000Y-99789000I-200000J0D01*
G01*
X150485000Y-99789000D01*
G75*
G02*
X150285000Y-99589000I0J200000D01*
G01*
X150285000Y-99039000D01*
G75*
G02*
X150485000Y-98839000I200000J0D01*
G01*
X150885000Y-98839000D01*
G75*
G02*
X151085000Y-99039000I0J-200000D01*
G01*
G37*
G36*
G01*
X153564000Y-89745000D02*
X153014000Y-89745000D01*
G75*
G02*
X152814000Y-89545000I0J200000D01*
G01*
X152814000Y-89145000D01*
G75*
G02*
X153014000Y-88945000I200000J0D01*
G01*
X153564000Y-88945000D01*
G75*
G02*
X153764000Y-89145000I0J-200000D01*
G01*
X153764000Y-89545000D01*
G75*
G02*
X153564000Y-89745000I-200000J0D01*
G01*
G37*
G36*
G01*
X153564000Y-91395000D02*
X153014000Y-91395000D01*
G75*
G02*
X152814000Y-91195000I0J200000D01*
G01*
X152814000Y-90795000D01*
G75*
G02*
X153014000Y-90595000I200000J0D01*
G01*
X153564000Y-90595000D01*
G75*
G02*
X153764000Y-90795000I0J-200000D01*
G01*
X153764000Y-91195000D01*
G75*
G02*
X153564000Y-91395000I-200000J0D01*
G01*
G37*
G36*
G01*
X153014000Y-93897000D02*
X153564000Y-93897000D01*
G75*
G02*
X153764000Y-94097000I0J-200000D01*
G01*
X153764000Y-94497000D01*
G75*
G02*
X153564000Y-94697000I-200000J0D01*
G01*
X153014000Y-94697000D01*
G75*
G02*
X152814000Y-94497000I0J200000D01*
G01*
X152814000Y-94097000D01*
G75*
G02*
X153014000Y-93897000I200000J0D01*
G01*
G37*
G36*
G01*
X153014000Y-92247000D02*
X153564000Y-92247000D01*
G75*
G02*
X153764000Y-92447000I0J-200000D01*
G01*
X153764000Y-92847000D01*
G75*
G02*
X153564000Y-93047000I-200000J0D01*
G01*
X153014000Y-93047000D01*
G75*
G02*
X152814000Y-92847000I0J200000D01*
G01*
X152814000Y-92447000D01*
G75*
G02*
X153014000Y-92247000I200000J0D01*
G01*
G37*
G36*
G01*
X176170000Y-79585000D02*
X175620000Y-79585000D01*
G75*
G02*
X175420000Y-79385000I0J200000D01*
G01*
X175420000Y-78985000D01*
G75*
G02*
X175620000Y-78785000I200000J0D01*
G01*
X176170000Y-78785000D01*
G75*
G02*
X176370000Y-78985000I0J-200000D01*
G01*
X176370000Y-79385000D01*
G75*
G02*
X176170000Y-79585000I-200000J0D01*
G01*
G37*
G36*
G01*
X176170000Y-81235000D02*
X175620000Y-81235000D01*
G75*
G02*
X175420000Y-81035000I0J200000D01*
G01*
X175420000Y-80635000D01*
G75*
G02*
X175620000Y-80435000I200000J0D01*
G01*
X176170000Y-80435000D01*
G75*
G02*
X176370000Y-80635000I0J-200000D01*
G01*
X176370000Y-81035000D01*
G75*
G02*
X176170000Y-81235000I-200000J0D01*
G01*
G37*
G36*
G01*
X158898000Y-110573000D02*
X158348000Y-110573000D01*
G75*
G02*
X158148000Y-110373000I0J200000D01*
G01*
X158148000Y-109973000D01*
G75*
G02*
X158348000Y-109773000I200000J0D01*
G01*
X158898000Y-109773000D01*
G75*
G02*
X159098000Y-109973000I0J-200000D01*
G01*
X159098000Y-110373000D01*
G75*
G02*
X158898000Y-110573000I-200000J0D01*
G01*
G37*
G36*
G01*
X158898000Y-112223000D02*
X158348000Y-112223000D01*
G75*
G02*
X158148000Y-112023000I0J200000D01*
G01*
X158148000Y-111623000D01*
G75*
G02*
X158348000Y-111423000I200000J0D01*
G01*
X158898000Y-111423000D01*
G75*
G02*
X159098000Y-111623000I0J-200000D01*
G01*
X159098000Y-112023000D01*
G75*
G02*
X158898000Y-112223000I-200000J0D01*
G01*
G37*
D14*
X146409000Y-97139000D03*
X146409000Y-95139000D03*
D15*
X149659000Y-96139000D03*
G36*
G01*
X148229200Y-86254400D02*
X148229200Y-85754400D01*
G75*
G02*
X148454200Y-85529400I225000J0D01*
G01*
X148904200Y-85529400D01*
G75*
G02*
X149129200Y-85754400I0J-225000D01*
G01*
X149129200Y-86254400D01*
G75*
G02*
X148904200Y-86479400I-225000J0D01*
G01*
X148454200Y-86479400D01*
G75*
G02*
X148229200Y-86254400I0J225000D01*
G01*
G37*
G36*
G01*
X146679200Y-86254400D02*
X146679200Y-85754400D01*
G75*
G02*
X146904200Y-85529400I225000J0D01*
G01*
X147354200Y-85529400D01*
G75*
G02*
X147579200Y-85754400I0J-225000D01*
G01*
X147579200Y-86254400D01*
G75*
G02*
X147354200Y-86479400I-225000J0D01*
G01*
X146904200Y-86479400D01*
G75*
G02*
X146679200Y-86254400I0J225000D01*
G01*
G37*
G36*
G01*
X161996000Y-92071000D02*
X161996000Y-91571000D01*
G75*
G02*
X162221000Y-91346000I225000J0D01*
G01*
X162671000Y-91346000D01*
G75*
G02*
X162896000Y-91571000I0J-225000D01*
G01*
X162896000Y-92071000D01*
G75*
G02*
X162671000Y-92296000I-225000J0D01*
G01*
X162221000Y-92296000D01*
G75*
G02*
X161996000Y-92071000I0J225000D01*
G01*
G37*
G36*
G01*
X160446000Y-92071000D02*
X160446000Y-91571000D01*
G75*
G02*
X160671000Y-91346000I225000J0D01*
G01*
X161121000Y-91346000D01*
G75*
G02*
X161346000Y-91571000I0J-225000D01*
G01*
X161346000Y-92071000D01*
G75*
G02*
X161121000Y-92296000I-225000J0D01*
G01*
X160671000Y-92296000D01*
G75*
G02*
X160446000Y-92071000I0J225000D01*
G01*
G37*
G36*
G01*
X166172000Y-91571000D02*
X166172000Y-92071000D01*
G75*
G02*
X165947000Y-92296000I-225000J0D01*
G01*
X165497000Y-92296000D01*
G75*
G02*
X165272000Y-92071000I0J225000D01*
G01*
X165272000Y-91571000D01*
G75*
G02*
X165497000Y-91346000I225000J0D01*
G01*
X165947000Y-91346000D01*
G75*
G02*
X166172000Y-91571000I0J-225000D01*
G01*
G37*
G36*
G01*
X167722000Y-91571000D02*
X167722000Y-92071000D01*
G75*
G02*
X167497000Y-92296000I-225000J0D01*
G01*
X167047000Y-92296000D01*
G75*
G02*
X166822000Y-92071000I0J225000D01*
G01*
X166822000Y-91571000D01*
G75*
G02*
X167047000Y-91346000I225000J0D01*
G01*
X167497000Y-91346000D01*
G75*
G02*
X167722000Y-91571000I0J-225000D01*
G01*
G37*
G36*
G01*
X151515000Y-116403000D02*
X152015000Y-116403000D01*
G75*
G02*
X152240000Y-116628000I0J-225000D01*
G01*
X152240000Y-117078000D01*
G75*
G02*
X152015000Y-117303000I-225000J0D01*
G01*
X151515000Y-117303000D01*
G75*
G02*
X151290000Y-117078000I0J225000D01*
G01*
X151290000Y-116628000D01*
G75*
G02*
X151515000Y-116403000I225000J0D01*
G01*
G37*
G36*
G01*
X151515000Y-114853000D02*
X152015000Y-114853000D01*
G75*
G02*
X152240000Y-115078000I0J-225000D01*
G01*
X152240000Y-115528000D01*
G75*
G02*
X152015000Y-115753000I-225000J0D01*
G01*
X151515000Y-115753000D01*
G75*
G02*
X151290000Y-115528000I0J225000D01*
G01*
X151290000Y-115078000D01*
G75*
G02*
X151515000Y-114853000I225000J0D01*
G01*
G37*
G36*
G01*
X143962000Y-89277000D02*
X143962000Y-88777000D01*
G75*
G02*
X144187000Y-88552000I225000J0D01*
G01*
X144637000Y-88552000D01*
G75*
G02*
X144862000Y-88777000I0J-225000D01*
G01*
X144862000Y-89277000D01*
G75*
G02*
X144637000Y-89502000I-225000J0D01*
G01*
X144187000Y-89502000D01*
G75*
G02*
X143962000Y-89277000I0J225000D01*
G01*
G37*
G36*
G01*
X142412000Y-89277000D02*
X142412000Y-88777000D01*
G75*
G02*
X142637000Y-88552000I225000J0D01*
G01*
X143087000Y-88552000D01*
G75*
G02*
X143312000Y-88777000I0J-225000D01*
G01*
X143312000Y-89277000D01*
G75*
G02*
X143087000Y-89502000I-225000J0D01*
G01*
X142637000Y-89502000D01*
G75*
G02*
X142412000Y-89277000I0J225000D01*
G01*
G37*
D16*
X161256000Y-81517000D03*
D17*
X170656000Y-81517000D03*
X168656000Y-88917000D03*
G36*
G01*
X155215000Y-93047000D02*
X154665000Y-93047000D01*
G75*
G02*
X154465000Y-92847000I0J200000D01*
G01*
X154465000Y-92447000D01*
G75*
G02*
X154665000Y-92247000I200000J0D01*
G01*
X155215000Y-92247000D01*
G75*
G02*
X155415000Y-92447000I0J-200000D01*
G01*
X155415000Y-92847000D01*
G75*
G02*
X155215000Y-93047000I-200000J0D01*
G01*
G37*
G36*
G01*
X155215000Y-94697000D02*
X154665000Y-94697000D01*
G75*
G02*
X154465000Y-94497000I0J200000D01*
G01*
X154465000Y-94097000D01*
G75*
G02*
X154665000Y-93897000I200000J0D01*
G01*
X155215000Y-93897000D01*
G75*
G02*
X155415000Y-94097000I0J-200000D01*
G01*
X155415000Y-94497000D01*
G75*
G02*
X155215000Y-94697000I-200000J0D01*
G01*
G37*
G36*
G01*
X154665000Y-90595000D02*
X155215000Y-90595000D01*
G75*
G02*
X155415000Y-90795000I0J-200000D01*
G01*
X155415000Y-91195000D01*
G75*
G02*
X155215000Y-91395000I-200000J0D01*
G01*
X154665000Y-91395000D01*
G75*
G02*
X154465000Y-91195000I0J200000D01*
G01*
X154465000Y-90795000D01*
G75*
G02*
X154665000Y-90595000I200000J0D01*
G01*
G37*
G36*
G01*
X154665000Y-88945000D02*
X155215000Y-88945000D01*
G75*
G02*
X155415000Y-89145000I0J-200000D01*
G01*
X155415000Y-89545000D01*
G75*
G02*
X155215000Y-89745000I-200000J0D01*
G01*
X154665000Y-89745000D01*
G75*
G02*
X154465000Y-89545000I0J200000D01*
G01*
X154465000Y-89145000D01*
G75*
G02*
X154665000Y-88945000I200000J0D01*
G01*
G37*
G36*
G01*
X146156000Y-111423000D02*
X146706000Y-111423000D01*
G75*
G02*
X146906000Y-111623000I0J-200000D01*
G01*
X146906000Y-112023000D01*
G75*
G02*
X146706000Y-112223000I-200000J0D01*
G01*
X146156000Y-112223000D01*
G75*
G02*
X145956000Y-112023000I0J200000D01*
G01*
X145956000Y-111623000D01*
G75*
G02*
X146156000Y-111423000I200000J0D01*
G01*
G37*
G36*
G01*
X146156000Y-109773000D02*
X146706000Y-109773000D01*
G75*
G02*
X146906000Y-109973000I0J-200000D01*
G01*
X146906000Y-110373000D01*
G75*
G02*
X146706000Y-110573000I-200000J0D01*
G01*
X146156000Y-110573000D01*
G75*
G02*
X145956000Y-110373000I0J200000D01*
G01*
X145956000Y-109973000D01*
G75*
G02*
X146156000Y-109773000I200000J0D01*
G01*
G37*
G36*
G01*
X148773000Y-88777000D02*
X148773000Y-89277000D01*
G75*
G02*
X148548000Y-89502000I-225000J0D01*
G01*
X148098000Y-89502000D01*
G75*
G02*
X147873000Y-89277000I0J225000D01*
G01*
X147873000Y-88777000D01*
G75*
G02*
X148098000Y-88552000I225000J0D01*
G01*
X148548000Y-88552000D01*
G75*
G02*
X148773000Y-88777000I0J-225000D01*
G01*
G37*
G36*
G01*
X150323000Y-88777000D02*
X150323000Y-89277000D01*
G75*
G02*
X150098000Y-89502000I-225000J0D01*
G01*
X149648000Y-89502000D01*
G75*
G02*
X149423000Y-89277000I0J225000D01*
G01*
X149423000Y-88777000D01*
G75*
G02*
X149648000Y-88552000I225000J0D01*
G01*
X150098000Y-88552000D01*
G75*
G02*
X150323000Y-88777000I0J-225000D01*
G01*
G37*
G36*
G01*
X149423000Y-104009000D02*
X149423000Y-103509000D01*
G75*
G02*
X149648000Y-103284000I225000J0D01*
G01*
X150098000Y-103284000D01*
G75*
G02*
X150323000Y-103509000I0J-225000D01*
G01*
X150323000Y-104009000D01*
G75*
G02*
X150098000Y-104234000I-225000J0D01*
G01*
X149648000Y-104234000D01*
G75*
G02*
X149423000Y-104009000I0J225000D01*
G01*
G37*
G36*
G01*
X147873000Y-104009000D02*
X147873000Y-103509000D01*
G75*
G02*
X148098000Y-103284000I225000J0D01*
G01*
X148548000Y-103284000D01*
G75*
G02*
X148773000Y-103509000I0J-225000D01*
G01*
X148773000Y-104009000D01*
G75*
G02*
X148548000Y-104234000I-225000J0D01*
G01*
X148098000Y-104234000D01*
G75*
G02*
X147873000Y-104009000I0J225000D01*
G01*
G37*
G36*
G01*
X157095000Y-110673000D02*
X156595000Y-110673000D01*
G75*
G02*
X156370000Y-110448000I0J225000D01*
G01*
X156370000Y-109998000D01*
G75*
G02*
X156595000Y-109773000I225000J0D01*
G01*
X157095000Y-109773000D01*
G75*
G02*
X157320000Y-109998000I0J-225000D01*
G01*
X157320000Y-110448000D01*
G75*
G02*
X157095000Y-110673000I-225000J0D01*
G01*
G37*
G36*
G01*
X157095000Y-112223000D02*
X156595000Y-112223000D01*
G75*
G02*
X156370000Y-111998000I0J225000D01*
G01*
X156370000Y-111548000D01*
G75*
G02*
X156595000Y-111323000I225000J0D01*
G01*
X157095000Y-111323000D01*
G75*
G02*
X157320000Y-111548000I0J-225000D01*
G01*
X157320000Y-111998000D01*
G75*
G02*
X157095000Y-112223000I-225000J0D01*
G01*
G37*
M02*
