M48
; DRILL file {KiCad (5.1.8)-1} date 04/08/21 11:54:38
; FORMAT={-:-/ absolute / inch / decimal}
; #@! TF.CreationDate,2021-04-08T11:54:38-05:00
; #@! TF.GenerationSoftware,Kicad,Pcbnew,(5.1.8)-1
; #@! TF.FileFunction,Plated,1,2,PTH
FMAT,2
INCH
T1C0.0118
T2C0.0157
T3C0.0400
T4C0.0402
T5C0.1200
%
G90
G05
T1
X5.065Y-4.03
X5.145Y-3.915
X5.2Y-3.935
X5.245Y-4.035
X5.315Y-3.915
X5.335Y-3.35
X5.335Y-3.725
X5.51Y-3.59
X5.52Y-3.96
X5.585Y-4.195
X5.65Y-4.035
X5.675Y-4.2
X5.725Y-3.985
X5.77Y-4.55
X5.8Y-3.995
X5.835Y-4.155
X5.925Y-3.79
X6.025Y-4.005
X6.105Y-3.9
X6.11Y-3.8
X6.125Y-3.62
X6.135Y-3.705
X6.185Y-3.9
X6.185Y-4.55
X6.29Y-4.22
X6.29Y-4.375
X6.32Y-3.895
X6.32Y-3.98
X6.82Y-3.66
X6.87Y-3.655
X6.91Y-3.67
T2
X5.48Y-3.47
X5.605Y-3.47
X5.74Y-3.94
X5.785Y-3.48
X5.82Y-3.645
X5.945Y-3.67
X6.14Y-3.97
T3
X5.47Y-4.875
X5.57Y-4.875
X5.67Y-4.875
X5.77Y-4.875
X5.87Y-4.875
X5.97Y-4.875
X6.07Y-4.875
X6.17Y-4.875
X6.17Y-2.975
X6.27Y-2.975
X6.37Y-2.975
X6.47Y-2.975
X6.57Y-2.975
X6.67Y-2.975
X6.77Y-2.975
X6.87Y-2.975
X6.37Y-4.875
X6.47Y-4.875
X6.57Y-4.875
X6.67Y-4.875
X6.77Y-4.875
X6.87Y-4.875
X5.11Y-2.975
X5.21Y-2.975
X5.31Y-2.975
X5.41Y-2.975
X5.51Y-2.975
X5.61Y-2.975
X5.71Y-2.975
X5.81Y-2.975
X5.91Y-2.975
X6.01Y-2.975
T4
X6.3Y-4.55
X6.3Y-4.65
X6.4Y-4.55
X6.4Y-4.65
X6.5Y-4.55
X6.5Y-4.65
X6.6Y-4.55
X6.6Y-4.65
X6.7Y-4.55
X6.7Y-4.65
X6.8Y-4.55
X6.8Y-4.65
T5
X6.97Y-4.675
X4.97Y-2.975
X6.97Y-3.575
X4.92Y-4.875
T0
M30
