G04 #@! TF.GenerationSoftware,KiCad,Pcbnew,(5.1.8)-1*
G04 #@! TF.CreationDate,2021-04-08T11:54:22-05:00*
G04 #@! TF.ProjectId,DEVLPR,4445564c-5052-42e6-9b69-6361645f7063,rev?*
G04 #@! TF.SameCoordinates,Original*
G04 #@! TF.FileFunction,Soldermask,Top*
G04 #@! TF.FilePolarity,Negative*
%FSLAX46Y46*%
G04 Gerber Fmt 4.6, Leading zero omitted, Abs format (unit mm)*
G04 Created by KiCad (PCBNEW (5.1.8)-1) date 2021-04-08 11:54:22*
%MOMM*%
%LPD*%
G01*
G04 APERTURE LIST*
%ADD10C,1.700000*%
%ADD11R,2.800000X2.800000*%
%ADD12R,2.200000X2.800000*%
%ADD13C,2.000000*%
%ADD14R,0.450000X1.450000*%
%ADD15R,0.500000X0.250000*%
%ADD16R,0.900000X1.600000*%
%ADD17R,1.200000X1.200000*%
%ADD18R,1.600000X1.500000*%
%ADD19O,1.727200X2.032000*%
%ADD20C,4.064000*%
G04 APERTURE END LIST*
G36*
G01*
X158425000Y-100842000D02*
X158425000Y-101342000D01*
G75*
G02*
X158200000Y-101567000I-225000J0D01*
G01*
X157750000Y-101567000D01*
G75*
G02*
X157525000Y-101342000I0J225000D01*
G01*
X157525000Y-100842000D01*
G75*
G02*
X157750000Y-100617000I225000J0D01*
G01*
X158200000Y-100617000D01*
G75*
G02*
X158425000Y-100842000I0J-225000D01*
G01*
G37*
G36*
G01*
X159975000Y-100842000D02*
X159975000Y-101342000D01*
G75*
G02*
X159750000Y-101567000I-225000J0D01*
G01*
X159300000Y-101567000D01*
G75*
G02*
X159075000Y-101342000I0J225000D01*
G01*
X159075000Y-100842000D01*
G75*
G02*
X159300000Y-100617000I225000J0D01*
G01*
X159750000Y-100617000D01*
G75*
G02*
X159975000Y-100842000I0J-225000D01*
G01*
G37*
D10*
X166366000Y-98806000D03*
X173366000Y-98806000D03*
D11*
X165066000Y-95106000D03*
D12*
X174466000Y-95106000D03*
X172466000Y-102506000D03*
D13*
X172720000Y-118110000D03*
X170180000Y-118110000D03*
X167640000Y-118110000D03*
X165100000Y-118110000D03*
X162560000Y-118110000D03*
X160020000Y-118110000D03*
X160020000Y-115570000D03*
X162560000Y-115570000D03*
X165100000Y-115570000D03*
X167640000Y-115570000D03*
X170180000Y-115570000D03*
X172720000Y-115570000D03*
G36*
G01*
X137517000Y-97559000D02*
X137517000Y-97259000D01*
G75*
G02*
X137667000Y-97109000I150000J0D01*
G01*
X139317000Y-97109000D01*
G75*
G02*
X139467000Y-97259000I0J-150000D01*
G01*
X139467000Y-97559000D01*
G75*
G02*
X139317000Y-97709000I-150000J0D01*
G01*
X137667000Y-97709000D01*
G75*
G02*
X137517000Y-97559000I0J150000D01*
G01*
G37*
G36*
G01*
X137517000Y-98829000D02*
X137517000Y-98529000D01*
G75*
G02*
X137667000Y-98379000I150000J0D01*
G01*
X139317000Y-98379000D01*
G75*
G02*
X139467000Y-98529000I0J-150000D01*
G01*
X139467000Y-98829000D01*
G75*
G02*
X139317000Y-98979000I-150000J0D01*
G01*
X137667000Y-98979000D01*
G75*
G02*
X137517000Y-98829000I0J150000D01*
G01*
G37*
G36*
G01*
X137517000Y-100099000D02*
X137517000Y-99799000D01*
G75*
G02*
X137667000Y-99649000I150000J0D01*
G01*
X139317000Y-99649000D01*
G75*
G02*
X139467000Y-99799000I0J-150000D01*
G01*
X139467000Y-100099000D01*
G75*
G02*
X139317000Y-100249000I-150000J0D01*
G01*
X137667000Y-100249000D01*
G75*
G02*
X137517000Y-100099000I0J150000D01*
G01*
G37*
G36*
G01*
X137517000Y-101369000D02*
X137517000Y-101069000D01*
G75*
G02*
X137667000Y-100919000I150000J0D01*
G01*
X139317000Y-100919000D01*
G75*
G02*
X139467000Y-101069000I0J-150000D01*
G01*
X139467000Y-101369000D01*
G75*
G02*
X139317000Y-101519000I-150000J0D01*
G01*
X137667000Y-101519000D01*
G75*
G02*
X137517000Y-101369000I0J150000D01*
G01*
G37*
G36*
G01*
X132567000Y-101369000D02*
X132567000Y-101069000D01*
G75*
G02*
X132717000Y-100919000I150000J0D01*
G01*
X134367000Y-100919000D01*
G75*
G02*
X134517000Y-101069000I0J-150000D01*
G01*
X134517000Y-101369000D01*
G75*
G02*
X134367000Y-101519000I-150000J0D01*
G01*
X132717000Y-101519000D01*
G75*
G02*
X132567000Y-101369000I0J150000D01*
G01*
G37*
G36*
G01*
X132567000Y-100099000D02*
X132567000Y-99799000D01*
G75*
G02*
X132717000Y-99649000I150000J0D01*
G01*
X134367000Y-99649000D01*
G75*
G02*
X134517000Y-99799000I0J-150000D01*
G01*
X134517000Y-100099000D01*
G75*
G02*
X134367000Y-100249000I-150000J0D01*
G01*
X132717000Y-100249000D01*
G75*
G02*
X132567000Y-100099000I0J150000D01*
G01*
G37*
G36*
G01*
X132567000Y-98829000D02*
X132567000Y-98529000D01*
G75*
G02*
X132717000Y-98379000I150000J0D01*
G01*
X134367000Y-98379000D01*
G75*
G02*
X134517000Y-98529000I0J-150000D01*
G01*
X134517000Y-98829000D01*
G75*
G02*
X134367000Y-98979000I-150000J0D01*
G01*
X132717000Y-98979000D01*
G75*
G02*
X132567000Y-98829000I0J150000D01*
G01*
G37*
G36*
G01*
X132567000Y-97559000D02*
X132567000Y-97259000D01*
G75*
G02*
X132717000Y-97109000I150000J0D01*
G01*
X134367000Y-97109000D01*
G75*
G02*
X134517000Y-97259000I0J-150000D01*
G01*
X134517000Y-97559000D01*
G75*
G02*
X134367000Y-97709000I-150000J0D01*
G01*
X132717000Y-97709000D01*
G75*
G02*
X132567000Y-97559000I0J150000D01*
G01*
G37*
G36*
G01*
X153817000Y-98601000D02*
X153817000Y-97151000D01*
G75*
G02*
X153867000Y-97101000I50000J0D01*
G01*
X154317000Y-97101000D01*
G75*
G02*
X154367000Y-97151000I0J-50000D01*
G01*
X154367000Y-98601000D01*
G75*
G02*
X154317000Y-98651000I-50000J0D01*
G01*
X153867000Y-98651000D01*
G75*
G02*
X153817000Y-98601000I0J50000D01*
G01*
G37*
G36*
G01*
X154467000Y-98601000D02*
X154467000Y-97151000D01*
G75*
G02*
X154517000Y-97101000I50000J0D01*
G01*
X154967000Y-97101000D01*
G75*
G02*
X155017000Y-97151000I0J-50000D01*
G01*
X155017000Y-98601000D01*
G75*
G02*
X154967000Y-98651000I-50000J0D01*
G01*
X154517000Y-98651000D01*
G75*
G02*
X154467000Y-98601000I0J50000D01*
G01*
G37*
G36*
G01*
X155117000Y-98601000D02*
X155117000Y-97151000D01*
G75*
G02*
X155167000Y-97101000I50000J0D01*
G01*
X155617000Y-97101000D01*
G75*
G02*
X155667000Y-97151000I0J-50000D01*
G01*
X155667000Y-98601000D01*
G75*
G02*
X155617000Y-98651000I-50000J0D01*
G01*
X155167000Y-98651000D01*
G75*
G02*
X155117000Y-98601000I0J50000D01*
G01*
G37*
G36*
G01*
X155767000Y-98601000D02*
X155767000Y-97151000D01*
G75*
G02*
X155817000Y-97101000I50000J0D01*
G01*
X156267000Y-97101000D01*
G75*
G02*
X156317000Y-97151000I0J-50000D01*
G01*
X156317000Y-98601000D01*
G75*
G02*
X156267000Y-98651000I-50000J0D01*
G01*
X155817000Y-98651000D01*
G75*
G02*
X155767000Y-98601000I0J50000D01*
G01*
G37*
G36*
G01*
X155767000Y-103001000D02*
X155767000Y-101551000D01*
G75*
G02*
X155817000Y-101501000I50000J0D01*
G01*
X156267000Y-101501000D01*
G75*
G02*
X156317000Y-101551000I0J-50000D01*
G01*
X156317000Y-103001000D01*
G75*
G02*
X156267000Y-103051000I-50000J0D01*
G01*
X155817000Y-103051000D01*
G75*
G02*
X155767000Y-103001000I0J50000D01*
G01*
G37*
G36*
G01*
X155117000Y-103001000D02*
X155117000Y-101551000D01*
G75*
G02*
X155167000Y-101501000I50000J0D01*
G01*
X155617000Y-101501000D01*
G75*
G02*
X155667000Y-101551000I0J-50000D01*
G01*
X155667000Y-103001000D01*
G75*
G02*
X155617000Y-103051000I-50000J0D01*
G01*
X155167000Y-103051000D01*
G75*
G02*
X155117000Y-103001000I0J50000D01*
G01*
G37*
G36*
G01*
X154467000Y-103001000D02*
X154467000Y-101551000D01*
G75*
G02*
X154517000Y-101501000I50000J0D01*
G01*
X154967000Y-101501000D01*
G75*
G02*
X155017000Y-101551000I0J-50000D01*
G01*
X155017000Y-103001000D01*
G75*
G02*
X154967000Y-103051000I-50000J0D01*
G01*
X154517000Y-103051000D01*
G75*
G02*
X154467000Y-103001000I0J50000D01*
G01*
G37*
G36*
G01*
X153817000Y-103001000D02*
X153817000Y-101551000D01*
G75*
G02*
X153867000Y-101501000I50000J0D01*
G01*
X154317000Y-101501000D01*
G75*
G02*
X154367000Y-101551000I0J-50000D01*
G01*
X154367000Y-103001000D01*
G75*
G02*
X154317000Y-103051000I-50000J0D01*
G01*
X153867000Y-103051000D01*
G75*
G02*
X153817000Y-103001000I0J50000D01*
G01*
G37*
D14*
X149139000Y-90510000D03*
X149789000Y-90510000D03*
X150439000Y-90510000D03*
X151089000Y-90510000D03*
X151089000Y-94910000D03*
X150439000Y-94910000D03*
X149789000Y-94910000D03*
X149139000Y-94910000D03*
D15*
X133035000Y-90174000D03*
X133035000Y-89674000D03*
X134935000Y-89674000D03*
X134935000Y-90674000D03*
X134935000Y-91174000D03*
D16*
X133985000Y-90424000D03*
D15*
X133035000Y-91174000D03*
X133035000Y-90674000D03*
X134935000Y-90174000D03*
G36*
G01*
X137091000Y-84742000D02*
X137091000Y-85692000D01*
G75*
G02*
X136841000Y-85942000I-250000J0D01*
G01*
X136341000Y-85942000D01*
G75*
G02*
X136091000Y-85692000I0J250000D01*
G01*
X136091000Y-84742000D01*
G75*
G02*
X136341000Y-84492000I250000J0D01*
G01*
X136841000Y-84492000D01*
G75*
G02*
X137091000Y-84742000I0J-250000D01*
G01*
G37*
G36*
G01*
X138991000Y-84742000D02*
X138991000Y-85692000D01*
G75*
G02*
X138741000Y-85942000I-250000J0D01*
G01*
X138241000Y-85942000D01*
G75*
G02*
X137991000Y-85692000I0J250000D01*
G01*
X137991000Y-84742000D01*
G75*
G02*
X138241000Y-84492000I250000J0D01*
G01*
X138741000Y-84492000D01*
G75*
G02*
X138991000Y-84742000I0J-250000D01*
G01*
G37*
G36*
G01*
X138118000Y-90391000D02*
X138118000Y-89441000D01*
G75*
G02*
X138368000Y-89191000I250000J0D01*
G01*
X138868000Y-89191000D01*
G75*
G02*
X139118000Y-89441000I0J-250000D01*
G01*
X139118000Y-90391000D01*
G75*
G02*
X138868000Y-90641000I-250000J0D01*
G01*
X138368000Y-90641000D01*
G75*
G02*
X138118000Y-90391000I0J250000D01*
G01*
G37*
G36*
G01*
X136218000Y-90391000D02*
X136218000Y-89441000D01*
G75*
G02*
X136468000Y-89191000I250000J0D01*
G01*
X136968000Y-89191000D01*
G75*
G02*
X137218000Y-89441000I0J-250000D01*
G01*
X137218000Y-90391000D01*
G75*
G02*
X136968000Y-90641000I-250000J0D01*
G01*
X136468000Y-90641000D01*
G75*
G02*
X136218000Y-90391000I0J250000D01*
G01*
G37*
G36*
G01*
X138118000Y-93058000D02*
X138118000Y-92108000D01*
G75*
G02*
X138368000Y-91858000I250000J0D01*
G01*
X138868000Y-91858000D01*
G75*
G02*
X139118000Y-92108000I0J-250000D01*
G01*
X139118000Y-93058000D01*
G75*
G02*
X138868000Y-93308000I-250000J0D01*
G01*
X138368000Y-93308000D01*
G75*
G02*
X138118000Y-93058000I0J250000D01*
G01*
G37*
G36*
G01*
X136218000Y-93058000D02*
X136218000Y-92108000D01*
G75*
G02*
X136468000Y-91858000I250000J0D01*
G01*
X136968000Y-91858000D01*
G75*
G02*
X137218000Y-92108000I0J-250000D01*
G01*
X137218000Y-93058000D01*
G75*
G02*
X136968000Y-93308000I-250000J0D01*
G01*
X136468000Y-93308000D01*
G75*
G02*
X136218000Y-93058000I0J250000D01*
G01*
G37*
G36*
G01*
X160041000Y-108668000D02*
X159491000Y-108668000D01*
G75*
G02*
X159291000Y-108468000I0J200000D01*
G01*
X159291000Y-108068000D01*
G75*
G02*
X159491000Y-107868000I200000J0D01*
G01*
X160041000Y-107868000D01*
G75*
G02*
X160241000Y-108068000I0J-200000D01*
G01*
X160241000Y-108468000D01*
G75*
G02*
X160041000Y-108668000I-200000J0D01*
G01*
G37*
G36*
G01*
X160041000Y-110318000D02*
X159491000Y-110318000D01*
G75*
G02*
X159291000Y-110118000I0J200000D01*
G01*
X159291000Y-109718000D01*
G75*
G02*
X159491000Y-109518000I200000J0D01*
G01*
X160041000Y-109518000D01*
G75*
G02*
X160241000Y-109718000I0J-200000D01*
G01*
X160241000Y-110118000D01*
G75*
G02*
X160041000Y-110318000I-200000J0D01*
G01*
G37*
G36*
G01*
X145944000Y-104223000D02*
X145394000Y-104223000D01*
G75*
G02*
X145194000Y-104023000I0J200000D01*
G01*
X145194000Y-103623000D01*
G75*
G02*
X145394000Y-103423000I200000J0D01*
G01*
X145944000Y-103423000D01*
G75*
G02*
X146144000Y-103623000I0J-200000D01*
G01*
X146144000Y-104023000D01*
G75*
G02*
X145944000Y-104223000I-200000J0D01*
G01*
G37*
G36*
G01*
X145944000Y-105873000D02*
X145394000Y-105873000D01*
G75*
G02*
X145194000Y-105673000I0J200000D01*
G01*
X145194000Y-105273000D01*
G75*
G02*
X145394000Y-105073000I200000J0D01*
G01*
X145944000Y-105073000D01*
G75*
G02*
X146144000Y-105273000I0J-200000D01*
G01*
X146144000Y-105673000D01*
G75*
G02*
X145944000Y-105873000I-200000J0D01*
G01*
G37*
G36*
G01*
X143489000Y-105073000D02*
X144039000Y-105073000D01*
G75*
G02*
X144239000Y-105273000I0J-200000D01*
G01*
X144239000Y-105673000D01*
G75*
G02*
X144039000Y-105873000I-200000J0D01*
G01*
X143489000Y-105873000D01*
G75*
G02*
X143289000Y-105673000I0J200000D01*
G01*
X143289000Y-105273000D01*
G75*
G02*
X143489000Y-105073000I200000J0D01*
G01*
G37*
G36*
G01*
X143489000Y-103423000D02*
X144039000Y-103423000D01*
G75*
G02*
X144239000Y-103623000I0J-200000D01*
G01*
X144239000Y-104023000D01*
G75*
G02*
X144039000Y-104223000I-200000J0D01*
G01*
X143489000Y-104223000D01*
G75*
G02*
X143289000Y-104023000I0J200000D01*
G01*
X143289000Y-103623000D01*
G75*
G02*
X143489000Y-103423000I200000J0D01*
G01*
G37*
G36*
G01*
X128480000Y-100944000D02*
X128480000Y-101494000D01*
G75*
G02*
X128280000Y-101694000I-200000J0D01*
G01*
X127880000Y-101694000D01*
G75*
G02*
X127680000Y-101494000I0J200000D01*
G01*
X127680000Y-100944000D01*
G75*
G02*
X127880000Y-100744000I200000J0D01*
G01*
X128280000Y-100744000D01*
G75*
G02*
X128480000Y-100944000I0J-200000D01*
G01*
G37*
G36*
G01*
X130130000Y-100944000D02*
X130130000Y-101494000D01*
G75*
G02*
X129930000Y-101694000I-200000J0D01*
G01*
X129530000Y-101694000D01*
G75*
G02*
X129330000Y-101494000I0J200000D01*
G01*
X129330000Y-100944000D01*
G75*
G02*
X129530000Y-100744000I200000J0D01*
G01*
X129930000Y-100744000D01*
G75*
G02*
X130130000Y-100944000I0J-200000D01*
G01*
G37*
G36*
G01*
X160041000Y-104985000D02*
X159491000Y-104985000D01*
G75*
G02*
X159291000Y-104785000I0J200000D01*
G01*
X159291000Y-104385000D01*
G75*
G02*
X159491000Y-104185000I200000J0D01*
G01*
X160041000Y-104185000D01*
G75*
G02*
X160241000Y-104385000I0J-200000D01*
G01*
X160241000Y-104785000D01*
G75*
G02*
X160041000Y-104985000I-200000J0D01*
G01*
G37*
G36*
G01*
X160041000Y-106635000D02*
X159491000Y-106635000D01*
G75*
G02*
X159291000Y-106435000I0J200000D01*
G01*
X159291000Y-106035000D01*
G75*
G02*
X159491000Y-105835000I200000J0D01*
G01*
X160041000Y-105835000D01*
G75*
G02*
X160241000Y-106035000I0J-200000D01*
G01*
X160241000Y-106435000D01*
G75*
G02*
X160041000Y-106635000I-200000J0D01*
G01*
G37*
G36*
G01*
X128480000Y-97388000D02*
X128480000Y-97938000D01*
G75*
G02*
X128280000Y-98138000I-200000J0D01*
G01*
X127880000Y-98138000D01*
G75*
G02*
X127680000Y-97938000I0J200000D01*
G01*
X127680000Y-97388000D01*
G75*
G02*
X127880000Y-97188000I200000J0D01*
G01*
X128280000Y-97188000D01*
G75*
G02*
X128480000Y-97388000I0J-200000D01*
G01*
G37*
G36*
G01*
X130130000Y-97388000D02*
X130130000Y-97938000D01*
G75*
G02*
X129930000Y-98138000I-200000J0D01*
G01*
X129530000Y-98138000D01*
G75*
G02*
X129330000Y-97938000I0J200000D01*
G01*
X129330000Y-97388000D01*
G75*
G02*
X129530000Y-97188000I200000J0D01*
G01*
X129930000Y-97188000D01*
G75*
G02*
X130130000Y-97388000I0J-200000D01*
G01*
G37*
G36*
G01*
X134156000Y-88286000D02*
X134156000Y-87736000D01*
G75*
G02*
X134356000Y-87536000I200000J0D01*
G01*
X134756000Y-87536000D01*
G75*
G02*
X134956000Y-87736000I0J-200000D01*
G01*
X134956000Y-88286000D01*
G75*
G02*
X134756000Y-88486000I-200000J0D01*
G01*
X134356000Y-88486000D01*
G75*
G02*
X134156000Y-88286000I0J200000D01*
G01*
G37*
G36*
G01*
X132506000Y-88286000D02*
X132506000Y-87736000D01*
G75*
G02*
X132706000Y-87536000I200000J0D01*
G01*
X133106000Y-87536000D01*
G75*
G02*
X133306000Y-87736000I0J-200000D01*
G01*
X133306000Y-88286000D01*
G75*
G02*
X133106000Y-88486000I-200000J0D01*
G01*
X132706000Y-88486000D01*
G75*
G02*
X132506000Y-88286000I0J200000D01*
G01*
G37*
G36*
G01*
X133306000Y-85958000D02*
X133306000Y-86508000D01*
G75*
G02*
X133106000Y-86708000I-200000J0D01*
G01*
X132706000Y-86708000D01*
G75*
G02*
X132506000Y-86508000I0J200000D01*
G01*
X132506000Y-85958000D01*
G75*
G02*
X132706000Y-85758000I200000J0D01*
G01*
X133106000Y-85758000D01*
G75*
G02*
X133306000Y-85958000I0J-200000D01*
G01*
G37*
G36*
G01*
X134956000Y-85958000D02*
X134956000Y-86508000D01*
G75*
G02*
X134756000Y-86708000I-200000J0D01*
G01*
X134356000Y-86708000D01*
G75*
G02*
X134156000Y-86508000I0J200000D01*
G01*
X134156000Y-85958000D01*
G75*
G02*
X134356000Y-85758000I200000J0D01*
G01*
X134756000Y-85758000D01*
G75*
G02*
X134956000Y-85958000I0J-200000D01*
G01*
G37*
G36*
G01*
X130131000Y-88752000D02*
X130131000Y-89302000D01*
G75*
G02*
X129931000Y-89502000I-200000J0D01*
G01*
X129531000Y-89502000D01*
G75*
G02*
X129331000Y-89302000I0J200000D01*
G01*
X129331000Y-88752000D01*
G75*
G02*
X129531000Y-88552000I200000J0D01*
G01*
X129931000Y-88552000D01*
G75*
G02*
X130131000Y-88752000I0J-200000D01*
G01*
G37*
G36*
G01*
X131781000Y-88752000D02*
X131781000Y-89302000D01*
G75*
G02*
X131581000Y-89502000I-200000J0D01*
G01*
X131181000Y-89502000D01*
G75*
G02*
X130981000Y-89302000I0J200000D01*
G01*
X130981000Y-88752000D01*
G75*
G02*
X131181000Y-88552000I200000J0D01*
G01*
X131581000Y-88552000D01*
G75*
G02*
X131781000Y-88752000I0J-200000D01*
G01*
G37*
G36*
G01*
X137739000Y-87499000D02*
X137739000Y-86999000D01*
G75*
G02*
X137964000Y-86774000I225000J0D01*
G01*
X138414000Y-86774000D01*
G75*
G02*
X138639000Y-86999000I0J-225000D01*
G01*
X138639000Y-87499000D01*
G75*
G02*
X138414000Y-87724000I-225000J0D01*
G01*
X137964000Y-87724000D01*
G75*
G02*
X137739000Y-87499000I0J225000D01*
G01*
G37*
G36*
G01*
X136189000Y-87499000D02*
X136189000Y-86999000D01*
G75*
G02*
X136414000Y-86774000I225000J0D01*
G01*
X136864000Y-86774000D01*
G75*
G02*
X137089000Y-86999000I0J-225000D01*
G01*
X137089000Y-87499000D01*
G75*
G02*
X136864000Y-87724000I-225000J0D01*
G01*
X136414000Y-87724000D01*
G75*
G02*
X136189000Y-87499000I0J225000D01*
G01*
G37*
G36*
G01*
X131068000Y-91765000D02*
X131568000Y-91765000D01*
G75*
G02*
X131793000Y-91990000I0J-225000D01*
G01*
X131793000Y-92440000D01*
G75*
G02*
X131568000Y-92665000I-225000J0D01*
G01*
X131068000Y-92665000D01*
G75*
G02*
X130843000Y-92440000I0J225000D01*
G01*
X130843000Y-91990000D01*
G75*
G02*
X131068000Y-91765000I225000J0D01*
G01*
G37*
G36*
G01*
X131068000Y-90215000D02*
X131568000Y-90215000D01*
G75*
G02*
X131793000Y-90440000I0J-225000D01*
G01*
X131793000Y-90890000D01*
G75*
G02*
X131568000Y-91115000I-225000J0D01*
G01*
X131068000Y-91115000D01*
G75*
G02*
X130843000Y-90890000I0J225000D01*
G01*
X130843000Y-90440000D01*
G75*
G02*
X131068000Y-90215000I225000J0D01*
G01*
G37*
G36*
G01*
X143108000Y-101136000D02*
X143658000Y-101136000D01*
G75*
G02*
X143858000Y-101336000I0J-200000D01*
G01*
X143858000Y-101736000D01*
G75*
G02*
X143658000Y-101936000I-200000J0D01*
G01*
X143108000Y-101936000D01*
G75*
G02*
X142908000Y-101736000I0J200000D01*
G01*
X142908000Y-101336000D01*
G75*
G02*
X143108000Y-101136000I200000J0D01*
G01*
G37*
G36*
G01*
X143108000Y-99486000D02*
X143658000Y-99486000D01*
G75*
G02*
X143858000Y-99686000I0J-200000D01*
G01*
X143858000Y-100086000D01*
G75*
G02*
X143658000Y-100286000I-200000J0D01*
G01*
X143108000Y-100286000D01*
G75*
G02*
X142908000Y-100086000I0J200000D01*
G01*
X142908000Y-99686000D01*
G75*
G02*
X143108000Y-99486000I200000J0D01*
G01*
G37*
D17*
X151876000Y-101749000D03*
X149876000Y-101749000D03*
D18*
X150876000Y-98499000D03*
G36*
G01*
X158425000Y-98683000D02*
X158425000Y-99183000D01*
G75*
G02*
X158200000Y-99408000I-225000J0D01*
G01*
X157750000Y-99408000D01*
G75*
G02*
X157525000Y-99183000I0J225000D01*
G01*
X157525000Y-98683000D01*
G75*
G02*
X157750000Y-98458000I225000J0D01*
G01*
X158200000Y-98458000D01*
G75*
G02*
X158425000Y-98683000I0J-225000D01*
G01*
G37*
G36*
G01*
X159975000Y-98683000D02*
X159975000Y-99183000D01*
G75*
G02*
X159750000Y-99408000I-225000J0D01*
G01*
X159300000Y-99408000D01*
G75*
G02*
X159075000Y-99183000I0J225000D01*
G01*
X159075000Y-98683000D01*
G75*
G02*
X159300000Y-98458000I225000J0D01*
G01*
X159750000Y-98458000D01*
G75*
G02*
X159975000Y-98683000I0J-225000D01*
G01*
G37*
G36*
G01*
X141355000Y-101036000D02*
X141855000Y-101036000D01*
G75*
G02*
X142080000Y-101261000I0J-225000D01*
G01*
X142080000Y-101711000D01*
G75*
G02*
X141855000Y-101936000I-225000J0D01*
G01*
X141355000Y-101936000D01*
G75*
G02*
X141130000Y-101711000I0J225000D01*
G01*
X141130000Y-101261000D01*
G75*
G02*
X141355000Y-101036000I225000J0D01*
G01*
G37*
G36*
G01*
X141355000Y-99486000D02*
X141855000Y-99486000D01*
G75*
G02*
X142080000Y-99711000I0J-225000D01*
G01*
X142080000Y-100161000D01*
G75*
G02*
X141855000Y-100386000I-225000J0D01*
G01*
X141355000Y-100386000D01*
G75*
G02*
X141130000Y-100161000I0J225000D01*
G01*
X141130000Y-99711000D01*
G75*
G02*
X141355000Y-99486000I225000J0D01*
G01*
G37*
G36*
G01*
X153345000Y-93857000D02*
X153345000Y-94357000D01*
G75*
G02*
X153120000Y-94582000I-225000J0D01*
G01*
X152670000Y-94582000D01*
G75*
G02*
X152445000Y-94357000I0J225000D01*
G01*
X152445000Y-93857000D01*
G75*
G02*
X152670000Y-93632000I225000J0D01*
G01*
X153120000Y-93632000D01*
G75*
G02*
X153345000Y-93857000I0J-225000D01*
G01*
G37*
G36*
G01*
X154895000Y-93857000D02*
X154895000Y-94357000D01*
G75*
G02*
X154670000Y-94582000I-225000J0D01*
G01*
X154220000Y-94582000D01*
G75*
G02*
X153995000Y-94357000I0J225000D01*
G01*
X153995000Y-93857000D01*
G75*
G02*
X154220000Y-93632000I225000J0D01*
G01*
X154670000Y-93632000D01*
G75*
G02*
X154895000Y-93857000I0J-225000D01*
G01*
G37*
G36*
G01*
X142109000Y-104323000D02*
X141609000Y-104323000D01*
G75*
G02*
X141384000Y-104098000I0J225000D01*
G01*
X141384000Y-103648000D01*
G75*
G02*
X141609000Y-103423000I225000J0D01*
G01*
X142109000Y-103423000D01*
G75*
G02*
X142334000Y-103648000I0J-225000D01*
G01*
X142334000Y-104098000D01*
G75*
G02*
X142109000Y-104323000I-225000J0D01*
G01*
G37*
G36*
G01*
X142109000Y-105873000D02*
X141609000Y-105873000D01*
G75*
G02*
X141384000Y-105648000I0J225000D01*
G01*
X141384000Y-105198000D01*
G75*
G02*
X141609000Y-104973000I225000J0D01*
G01*
X142109000Y-104973000D01*
G75*
G02*
X142334000Y-105198000I0J-225000D01*
G01*
X142334000Y-105648000D01*
G75*
G02*
X142109000Y-105873000I-225000J0D01*
G01*
G37*
G36*
G01*
X136596000Y-95881000D02*
X136596000Y-95381000D01*
G75*
G02*
X136821000Y-95156000I225000J0D01*
G01*
X137271000Y-95156000D01*
G75*
G02*
X137496000Y-95381000I0J-225000D01*
G01*
X137496000Y-95881000D01*
G75*
G02*
X137271000Y-96106000I-225000J0D01*
G01*
X136821000Y-96106000D01*
G75*
G02*
X136596000Y-95881000I0J225000D01*
G01*
G37*
G36*
G01*
X135046000Y-95881000D02*
X135046000Y-95381000D01*
G75*
G02*
X135271000Y-95156000I225000J0D01*
G01*
X135721000Y-95156000D01*
G75*
G02*
X135946000Y-95381000I0J-225000D01*
G01*
X135946000Y-95881000D01*
G75*
G02*
X135721000Y-96106000I-225000J0D01*
G01*
X135271000Y-96106000D01*
G75*
G02*
X135046000Y-95881000I0J225000D01*
G01*
G37*
G36*
G01*
X129230000Y-99691000D02*
X129230000Y-99191000D01*
G75*
G02*
X129455000Y-98966000I225000J0D01*
G01*
X129905000Y-98966000D01*
G75*
G02*
X130130000Y-99191000I0J-225000D01*
G01*
X130130000Y-99691000D01*
G75*
G02*
X129905000Y-99916000I-225000J0D01*
G01*
X129455000Y-99916000D01*
G75*
G02*
X129230000Y-99691000I0J225000D01*
G01*
G37*
G36*
G01*
X127680000Y-99691000D02*
X127680000Y-99191000D01*
G75*
G02*
X127905000Y-98966000I225000J0D01*
G01*
X128355000Y-98966000D01*
G75*
G02*
X128580000Y-99191000I0J-225000D01*
G01*
X128580000Y-99691000D01*
G75*
G02*
X128355000Y-99916000I-225000J0D01*
G01*
X127905000Y-99916000D01*
G75*
G02*
X127680000Y-99691000I0J225000D01*
G01*
G37*
G36*
G01*
X153345000Y-91698000D02*
X153345000Y-92198000D01*
G75*
G02*
X153120000Y-92423000I-225000J0D01*
G01*
X152670000Y-92423000D01*
G75*
G02*
X152445000Y-92198000I0J225000D01*
G01*
X152445000Y-91698000D01*
G75*
G02*
X152670000Y-91473000I225000J0D01*
G01*
X153120000Y-91473000D01*
G75*
G02*
X153345000Y-91698000I0J-225000D01*
G01*
G37*
G36*
G01*
X154895000Y-91698000D02*
X154895000Y-92198000D01*
G75*
G02*
X154670000Y-92423000I-225000J0D01*
G01*
X154220000Y-92423000D01*
G75*
G02*
X153995000Y-92198000I0J225000D01*
G01*
X153995000Y-91698000D01*
G75*
G02*
X154220000Y-91473000I225000J0D01*
G01*
X154670000Y-91473000D01*
G75*
G02*
X154895000Y-91698000I0J-225000D01*
G01*
G37*
D19*
X138938000Y-123825000D03*
X141478000Y-123825000D03*
X144018000Y-123825000D03*
X146558000Y-123825000D03*
X149098000Y-123825000D03*
X151638000Y-123825000D03*
X154178000Y-123825000D03*
X156718000Y-123825000D03*
X161798000Y-123825000D03*
X164338000Y-123825000D03*
X166878000Y-123825000D03*
X169418000Y-123825000D03*
X171958000Y-123825000D03*
X174498000Y-123825000D03*
X129794000Y-75565000D03*
X132334000Y-75565000D03*
X134874000Y-75565000D03*
X137414000Y-75565000D03*
X139954000Y-75565000D03*
X142494000Y-75565000D03*
X145034000Y-75565000D03*
X147574000Y-75565000D03*
X150114000Y-75565000D03*
X152654000Y-75565000D03*
X156718000Y-75565000D03*
X159258000Y-75565000D03*
X161798000Y-75565000D03*
X164338000Y-75565000D03*
X166878000Y-75565000D03*
X169418000Y-75565000D03*
X171958000Y-75565000D03*
X174498000Y-75565000D03*
D20*
X124968000Y-123825000D03*
X177038000Y-118745000D03*
X126238000Y-75565000D03*
X177038000Y-90805000D03*
M02*
