G04 #@! TF.GenerationSoftware,KiCad,Pcbnew,(5.1.9)-1*
G04 #@! TF.CreationDate,2021-12-17T16:24:56-06:00*
G04 #@! TF.ProjectId,DEVLPR,4445564c-5052-42e6-9b69-6361645f7063,rev?*
G04 #@! TF.SameCoordinates,Original*
G04 #@! TF.FileFunction,Legend,Top*
G04 #@! TF.FilePolarity,Positive*
%FSLAX46Y46*%
G04 Gerber Fmt 4.6, Leading zero omitted, Abs format (unit mm)*
G04 Created by KiCad (PCBNEW (5.1.9)-1) date 2021-12-17 16:24:56*
%MOMM*%
%LPD*%
G01*
G04 APERTURE LIST*
%ADD10C,0.200000*%
%ADD11C,0.150000*%
%ADD12C,0.250000*%
%ADD13C,0.100000*%
%ADD14C,0.120000*%
%ADD15R,1.300000X1.550000*%
%ADD16R,0.800000X0.600000*%
%ADD17C,2.020000*%
%ADD18R,1.500000X1.000000*%
%ADD19R,1.450000X0.450000*%
%ADD20R,1.220000X0.650000*%
%ADD21R,1.200000X1.200000*%
%ADD22R,1.500000X1.600000*%
%ADD23C,1.700000*%
%ADD24R,2.800000X2.800000*%
%ADD25R,2.200000X2.800000*%
%ADD26C,2.000000*%
%ADD27O,1.727200X2.032000*%
%ADD28C,4.064000*%
G04 APERTURE END LIST*
D10*
X157900666Y-115649285D02*
X157900666Y-115173095D01*
X158186380Y-115744523D02*
X157186380Y-115411190D01*
X158186380Y-115077857D01*
X157186380Y-114554047D02*
X157186380Y-114458809D01*
X157234000Y-114363571D01*
X157281619Y-114315952D01*
X157376857Y-114268333D01*
X157567333Y-114220714D01*
X157805428Y-114220714D01*
X157995904Y-114268333D01*
X158091142Y-114315952D01*
X158138761Y-114363571D01*
X158186380Y-114458809D01*
X158186380Y-114554047D01*
X158138761Y-114649285D01*
X158091142Y-114696904D01*
X157995904Y-114744523D01*
X157805428Y-114792142D01*
X157567333Y-114792142D01*
X157376857Y-114744523D01*
X157281619Y-114696904D01*
X157234000Y-114649285D01*
X157186380Y-114554047D01*
D11*
X172720000Y-118745000D02*
X172720000Y-119507000D01*
X170180000Y-118745000D02*
X170180000Y-119507000D01*
X167640000Y-118745000D02*
X167640000Y-119507000D01*
X165100000Y-119507000D02*
X166878000Y-120269000D01*
X162560000Y-119507000D02*
X164338000Y-120269000D01*
X160020000Y-119507000D02*
X160020000Y-118745000D01*
X164338000Y-122428000D02*
X164338000Y-120269000D01*
X161798000Y-120269000D02*
X161798000Y-122428000D01*
X160020000Y-119507000D02*
X161798000Y-120269000D01*
X172720000Y-119507000D02*
X174498000Y-120269000D01*
X174498000Y-120269000D02*
X174498000Y-122682000D01*
X170180000Y-119507000D02*
X171958000Y-120269000D01*
X171958000Y-120269000D02*
X171958000Y-122682000D01*
X169418000Y-120269000D02*
X169418000Y-122682000D01*
X167640000Y-119507000D02*
X169418000Y-120269000D01*
X165100000Y-118745000D02*
X165100000Y-119507000D01*
X166878000Y-120269000D02*
X166878000Y-122428000D01*
X162560000Y-118745000D02*
X162560000Y-119507000D01*
D10*
X175299666Y-115649285D02*
X175299666Y-115173095D01*
X175585380Y-115744523D02*
X174585380Y-115411190D01*
X175585380Y-115077857D01*
X174585380Y-114268333D02*
X174585380Y-114744523D01*
X175061571Y-114792142D01*
X175013952Y-114744523D01*
X174966333Y-114649285D01*
X174966333Y-114411190D01*
X175013952Y-114315952D01*
X175061571Y-114268333D01*
X175156809Y-114220714D01*
X175394904Y-114220714D01*
X175490142Y-114268333D01*
X175537761Y-114315952D01*
X175585380Y-114411190D01*
X175585380Y-114649285D01*
X175537761Y-114744523D01*
X175490142Y-114792142D01*
D12*
X116133692Y-87614565D02*
X118155648Y-89636522D01*
X115468628Y-81745788D02*
X117489082Y-83766246D01*
X114727403Y-81747914D02*
X116750360Y-83770870D01*
X113986178Y-81750040D02*
X116011636Y-83775497D01*
X113244949Y-81752172D02*
X117848363Y-86355609D01*
X112503602Y-81754291D02*
X117389537Y-86640228D01*
X117620520Y-87614568D02*
X118715790Y-88709832D01*
X113528464Y-90213042D02*
X113853493Y-90538068D01*
X114738284Y-86219152D02*
X116013260Y-87494131D01*
X118430031Y-92140953D02*
X118715790Y-92426713D01*
X112431443Y-87629195D02*
X114438768Y-89636519D01*
X112892785Y-87347188D02*
X115182119Y-89636519D01*
X112132428Y-88817007D02*
X112951939Y-89636519D01*
X118363873Y-87614562D02*
X118715792Y-87966479D01*
X112132426Y-82126470D02*
X116930820Y-86924864D01*
X117686551Y-92140954D02*
X118715787Y-93170191D01*
X116943200Y-92140954D02*
X118715787Y-93913543D01*
X115456374Y-92140953D02*
X117675924Y-94360501D01*
X116877063Y-87614546D02*
X118715812Y-89453285D01*
X112132426Y-88073532D02*
X113695415Y-89636519D01*
X116448842Y-84212704D02*
X118123259Y-85887121D01*
X112132430Y-82869942D02*
X113886265Y-84623763D01*
X113354255Y-87065178D02*
X115925596Y-89636518D01*
X114276940Y-86501164D02*
X117412298Y-89636522D01*
X116199850Y-92140954D02*
X118419400Y-94360504D01*
X115199640Y-85937131D02*
X116471996Y-87209480D01*
X113815597Y-86783170D02*
X116668945Y-89636522D01*
X114713021Y-92140954D02*
X116932571Y-94360504D01*
X112132423Y-94764066D02*
X113656771Y-96288411D01*
X114604094Y-99465911D02*
X116056031Y-100917850D01*
X113794588Y-100143108D02*
X117009356Y-103357876D01*
X113493570Y-96868561D02*
X116865662Y-100240655D01*
X112132426Y-98480945D02*
X112683185Y-99031708D01*
X112132423Y-95507418D02*
X112913418Y-96288411D01*
X112132426Y-96250766D02*
X112170069Y-96288411D01*
X112750219Y-96868558D02*
X114913365Y-99031705D01*
X112984953Y-100820305D02*
X115522528Y-103357880D01*
X118534824Y-114291298D02*
X118715785Y-114472259D01*
X115008910Y-99127251D02*
X116460847Y-100579190D01*
X115788654Y-111545124D02*
X116609039Y-112365512D01*
X116229487Y-104808190D02*
X117792851Y-106371554D01*
X112132426Y-102197830D02*
X113292473Y-103357878D01*
X115969613Y-108265199D02*
X118715785Y-111011371D01*
X116532130Y-111545124D02*
X116609039Y-111622036D01*
X112132426Y-96994244D02*
X114169889Y-99031705D01*
X115045301Y-111545124D02*
X116609039Y-113108861D01*
X118515816Y-109324701D02*
X118715787Y-109524670D01*
X112785111Y-90213042D02*
X113853491Y-91281421D01*
X112132428Y-89560358D02*
X112208589Y-89636519D01*
X112132423Y-90303707D02*
X113853488Y-92024769D01*
X112132423Y-97737595D02*
X113426536Y-99031708D01*
X117819738Y-101194733D02*
X118715787Y-102090780D01*
X116332912Y-101194728D02*
X118496060Y-103357878D01*
X113389736Y-100481677D02*
X116265978Y-103357903D01*
X118697279Y-96868561D02*
X118715792Y-96887074D01*
X118298591Y-103903760D02*
X118715787Y-104320959D01*
X112132426Y-102941306D02*
X112548998Y-103357878D01*
X112132423Y-108145017D02*
X113262457Y-109275051D01*
X113969666Y-92140950D02*
X116189218Y-94360499D01*
X113125894Y-106164956D02*
X114570827Y-107609889D01*
X117953928Y-96868561D02*
X118715790Y-97630420D01*
X114893730Y-107932790D02*
X118545333Y-111584392D01*
X112132423Y-91047057D02*
X115445868Y-94360499D01*
X117781346Y-104129868D02*
X118715787Y-105064307D01*
X117791474Y-114291298D02*
X118715787Y-115215609D01*
X114935000Y-112178176D02*
X116609042Y-113852215D01*
X112608649Y-106391063D02*
X117224707Y-111007122D01*
X117210450Y-96868561D02*
X118715787Y-98373898D01*
X112132426Y-91790534D02*
X114702390Y-94360499D01*
X117048123Y-114291298D02*
X118715787Y-115958960D01*
X112132423Y-94020712D02*
X113853491Y-95741778D01*
X117076387Y-101194730D02*
X118715787Y-102834130D01*
X114160383Y-105712616D02*
X115643209Y-107195442D01*
X114236918Y-96868561D02*
X117270478Y-99902120D01*
X114199277Y-99804448D02*
X117752709Y-103357878D01*
X112175444Y-101497498D02*
X114035824Y-103357878D01*
X116467100Y-96868561D02*
X118484804Y-98886265D01*
X112132423Y-92533886D02*
X113959039Y-94360499D01*
X115723747Y-96868558D02*
X118080111Y-99224922D01*
X112132426Y-93277235D02*
X113853488Y-94998300D01*
X114980271Y-96868561D02*
X117675171Y-99563460D01*
X117264016Y-104355934D02*
X118715769Y-105807681D01*
X112580135Y-101158838D02*
X114779177Y-103357880D01*
X115194998Y-105260403D02*
X117568368Y-107633777D01*
X112132426Y-107401541D02*
X114583333Y-109852449D01*
X116746730Y-104582083D02*
X118329478Y-106164833D01*
X115969615Y-107521848D02*
X118715785Y-110268020D01*
X112132423Y-106658188D02*
X115904081Y-110429849D01*
X115712244Y-105034296D02*
X117568370Y-106890424D01*
X114677626Y-105486511D02*
X117568370Y-108377252D01*
X113643137Y-105938724D02*
X115107081Y-107402667D01*
X118563089Y-101194730D02*
X118715787Y-101347427D01*
X116951205Y-81741536D02*
X118715790Y-83506122D01*
X116209980Y-81743662D02*
X118227934Y-83761617D01*
X118433781Y-81737283D02*
X118715792Y-82019290D01*
X117692432Y-81739407D02*
X118715790Y-82762768D01*
X112429567Y-111159569D02*
X113806465Y-112536467D01*
X112132426Y-113092605D02*
X115550665Y-116510848D01*
X114817944Y-114291298D02*
X117037494Y-116510848D01*
X114074593Y-114291298D02*
X116294143Y-116510848D01*
X112132426Y-112349131D02*
X113806468Y-114023170D01*
X112132426Y-115322784D02*
X113320486Y-116510848D01*
X112132423Y-111605778D02*
X113806465Y-113279819D01*
X112132423Y-116066137D02*
X112577133Y-116510848D01*
X112132423Y-114579307D02*
X114063962Y-116510848D01*
X112132426Y-113835957D02*
X114807314Y-116510848D01*
X114935000Y-112921651D02*
X118524197Y-116510846D01*
X113172917Y-111159569D02*
X113806465Y-111793117D01*
X114935000Y-113665000D02*
X117780844Y-116510848D01*
D10*
X132738761Y-79954285D02*
X132786380Y-79811428D01*
X132786380Y-79573333D01*
X132738761Y-79478095D01*
X132691142Y-79430476D01*
X132595904Y-79382857D01*
X132500666Y-79382857D01*
X132405428Y-79430476D01*
X132357809Y-79478095D01*
X132310190Y-79573333D01*
X132262571Y-79763809D01*
X132214952Y-79859047D01*
X132167333Y-79906666D01*
X132072095Y-79954285D01*
X131976857Y-79954285D01*
X131881619Y-79906666D01*
X131834000Y-79859047D01*
X131786380Y-79763809D01*
X131786380Y-79525714D01*
X131834000Y-79382857D01*
X132786380Y-78954285D02*
X131786380Y-78954285D01*
X131786380Y-78716190D01*
X131834000Y-78573333D01*
X131929238Y-78478095D01*
X132024476Y-78430476D01*
X132214952Y-78382857D01*
X132357809Y-78382857D01*
X132548285Y-78430476D01*
X132643523Y-78478095D01*
X132738761Y-78573333D01*
X132786380Y-78716190D01*
X132786380Y-78954285D01*
X132500666Y-78001904D02*
X132500666Y-77525714D01*
X132786380Y-78097142D02*
X131786380Y-77763809D01*
X132786380Y-77430476D01*
X130198761Y-79930476D02*
X130246380Y-79787619D01*
X130246380Y-79549523D01*
X130198761Y-79454285D01*
X130151142Y-79406666D01*
X130055904Y-79359047D01*
X129960666Y-79359047D01*
X129865428Y-79406666D01*
X129817809Y-79454285D01*
X129770190Y-79549523D01*
X129722571Y-79740000D01*
X129674952Y-79835238D01*
X129627333Y-79882857D01*
X129532095Y-79930476D01*
X129436857Y-79930476D01*
X129341619Y-79882857D01*
X129294000Y-79835238D01*
X129246380Y-79740000D01*
X129246380Y-79501904D01*
X129294000Y-79359047D01*
X130151142Y-78359047D02*
X130198761Y-78406666D01*
X130246380Y-78549523D01*
X130246380Y-78644761D01*
X130198761Y-78787619D01*
X130103523Y-78882857D01*
X130008285Y-78930476D01*
X129817809Y-78978095D01*
X129674952Y-78978095D01*
X129484476Y-78930476D01*
X129389238Y-78882857D01*
X129294000Y-78787619D01*
X129246380Y-78644761D01*
X129246380Y-78549523D01*
X129294000Y-78406666D01*
X129341619Y-78359047D01*
X130246380Y-77454285D02*
X130246380Y-77930476D01*
X129246380Y-77930476D01*
X135040666Y-80740047D02*
X135040666Y-80263857D01*
X135326380Y-80835285D02*
X134326380Y-80501952D01*
X135326380Y-80168619D01*
X135326380Y-79263857D02*
X134850190Y-79597190D01*
X135326380Y-79835285D02*
X134326380Y-79835285D01*
X134326380Y-79454333D01*
X134374000Y-79359095D01*
X134421619Y-79311476D01*
X134516857Y-79263857D01*
X134659714Y-79263857D01*
X134754952Y-79311476D01*
X134802571Y-79359095D01*
X134850190Y-79454333D01*
X134850190Y-79835285D01*
X134802571Y-78835285D02*
X134802571Y-78501952D01*
X135326380Y-78359095D02*
X135326380Y-78835285D01*
X134326380Y-78835285D01*
X134326380Y-78359095D01*
X134802571Y-77597190D02*
X134802571Y-77930523D01*
X135326380Y-77930523D02*
X134326380Y-77930523D01*
X134326380Y-77454333D01*
X136914000Y-79501904D02*
X136866380Y-79597142D01*
X136866380Y-79740000D01*
X136914000Y-79882857D01*
X137009238Y-79978095D01*
X137104476Y-80025714D01*
X137294952Y-80073333D01*
X137437809Y-80073333D01*
X137628285Y-80025714D01*
X137723523Y-79978095D01*
X137818761Y-79882857D01*
X137866380Y-79740000D01*
X137866380Y-79644761D01*
X137818761Y-79501904D01*
X137771142Y-79454285D01*
X137437809Y-79454285D01*
X137437809Y-79644761D01*
X137866380Y-79025714D02*
X136866380Y-79025714D01*
X137866380Y-78454285D01*
X136866380Y-78454285D01*
X137866380Y-77978095D02*
X136866380Y-77978095D01*
X136866380Y-77740000D01*
X136914000Y-77597142D01*
X137009238Y-77501904D01*
X137104476Y-77454285D01*
X137294952Y-77406666D01*
X137437809Y-77406666D01*
X137628285Y-77454285D01*
X137723523Y-77501904D01*
X137818761Y-77597142D01*
X137866380Y-77740000D01*
X137866380Y-77978095D01*
X140406380Y-78422476D02*
X140406380Y-78993904D01*
X140406380Y-78708190D02*
X139406380Y-78708190D01*
X139549238Y-78803428D01*
X139644476Y-78898666D01*
X139692095Y-78993904D01*
X139406380Y-78089142D02*
X139406380Y-77470095D01*
X139787333Y-77803428D01*
X139787333Y-77660571D01*
X139834952Y-77565333D01*
X139882571Y-77517714D01*
X139977809Y-77470095D01*
X140215904Y-77470095D01*
X140311142Y-77517714D01*
X140358761Y-77565333D01*
X140406380Y-77660571D01*
X140406380Y-77946285D01*
X140358761Y-78041523D01*
X140311142Y-78089142D01*
X142946380Y-78422476D02*
X142946380Y-78993904D01*
X142946380Y-78708190D02*
X141946380Y-78708190D01*
X142089238Y-78803428D01*
X142184476Y-78898666D01*
X142232095Y-78993904D01*
X142041619Y-78041523D02*
X141994000Y-77993904D01*
X141946380Y-77898666D01*
X141946380Y-77660571D01*
X141994000Y-77565333D01*
X142041619Y-77517714D01*
X142136857Y-77470095D01*
X142232095Y-77470095D01*
X142374952Y-77517714D01*
X142946380Y-78089142D01*
X142946380Y-77470095D01*
X145486380Y-78422476D02*
X145486380Y-78993904D01*
X145486380Y-78708190D02*
X144486380Y-78708190D01*
X144629238Y-78803428D01*
X144724476Y-78898666D01*
X144772095Y-78993904D01*
X145486380Y-77470095D02*
X145486380Y-78041523D01*
X145486380Y-77755809D02*
X144486380Y-77755809D01*
X144629238Y-77851047D01*
X144724476Y-77946285D01*
X144772095Y-78041523D01*
X148026380Y-78422476D02*
X148026380Y-78993904D01*
X148026380Y-78708190D02*
X147026380Y-78708190D01*
X147169238Y-78803428D01*
X147264476Y-78898666D01*
X147312095Y-78993904D01*
X147026380Y-77803428D02*
X147026380Y-77708190D01*
X147074000Y-77612952D01*
X147121619Y-77565333D01*
X147216857Y-77517714D01*
X147407333Y-77470095D01*
X147645428Y-77470095D01*
X147835904Y-77517714D01*
X147931142Y-77565333D01*
X147978761Y-77612952D01*
X148026380Y-77708190D01*
X148026380Y-77803428D01*
X147978761Y-77898666D01*
X147931142Y-77946285D01*
X147835904Y-77993904D01*
X147645428Y-78041523D01*
X147407333Y-78041523D01*
X147216857Y-77993904D01*
X147121619Y-77946285D01*
X147074000Y-77898666D01*
X147026380Y-77803428D01*
X150566380Y-77914476D02*
X150566380Y-77724000D01*
X150518761Y-77628761D01*
X150471142Y-77581142D01*
X150328285Y-77485904D01*
X150137809Y-77438285D01*
X149756857Y-77438285D01*
X149661619Y-77485904D01*
X149614000Y-77533523D01*
X149566380Y-77628761D01*
X149566380Y-77819238D01*
X149614000Y-77914476D01*
X149661619Y-77962095D01*
X149756857Y-78009714D01*
X149994952Y-78009714D01*
X150090190Y-77962095D01*
X150137809Y-77914476D01*
X150185428Y-77819238D01*
X150185428Y-77628761D01*
X150137809Y-77533523D01*
X150090190Y-77485904D01*
X149994952Y-77438285D01*
X152534952Y-77819238D02*
X152487333Y-77914476D01*
X152439714Y-77962095D01*
X152344476Y-78009714D01*
X152296857Y-78009714D01*
X152201619Y-77962095D01*
X152154000Y-77914476D01*
X152106380Y-77819238D01*
X152106380Y-77628761D01*
X152154000Y-77533523D01*
X152201619Y-77485904D01*
X152296857Y-77438285D01*
X152344476Y-77438285D01*
X152439714Y-77485904D01*
X152487333Y-77533523D01*
X152534952Y-77628761D01*
X152534952Y-77819238D01*
X152582571Y-77914476D01*
X152630190Y-77962095D01*
X152725428Y-78009714D01*
X152915904Y-78009714D01*
X153011142Y-77962095D01*
X153058761Y-77914476D01*
X153106380Y-77819238D01*
X153106380Y-77628761D01*
X153058761Y-77533523D01*
X153011142Y-77485904D01*
X152915904Y-77438285D01*
X152725428Y-77438285D01*
X152630190Y-77485904D01*
X152582571Y-77533523D01*
X152534952Y-77628761D01*
X156170380Y-78057333D02*
X156170380Y-77390666D01*
X157170380Y-77819238D01*
X158710380Y-77533523D02*
X158710380Y-77724000D01*
X158758000Y-77819238D01*
X158805619Y-77866857D01*
X158948476Y-77962095D01*
X159138952Y-78009714D01*
X159519904Y-78009714D01*
X159615142Y-77962095D01*
X159662761Y-77914476D01*
X159710380Y-77819238D01*
X159710380Y-77628761D01*
X159662761Y-77533523D01*
X159615142Y-77485904D01*
X159519904Y-77438285D01*
X159281809Y-77438285D01*
X159186571Y-77485904D01*
X159138952Y-77533523D01*
X159091333Y-77628761D01*
X159091333Y-77819238D01*
X159138952Y-77914476D01*
X159186571Y-77962095D01*
X159281809Y-78009714D01*
X161250380Y-77485904D02*
X161250380Y-77962095D01*
X161726571Y-78009714D01*
X161678952Y-77962095D01*
X161631333Y-77866857D01*
X161631333Y-77628761D01*
X161678952Y-77533523D01*
X161726571Y-77485904D01*
X161821809Y-77438285D01*
X162059904Y-77438285D01*
X162155142Y-77485904D01*
X162202761Y-77533523D01*
X162250380Y-77628761D01*
X162250380Y-77866857D01*
X162202761Y-77962095D01*
X162155142Y-78009714D01*
X164250714Y-77533523D02*
X164917380Y-77533523D01*
X163869761Y-77771619D02*
X164584047Y-78009714D01*
X164584047Y-77390666D01*
X166330380Y-78057333D02*
X166330380Y-77438285D01*
X166711333Y-77771619D01*
X166711333Y-77628761D01*
X166758952Y-77533523D01*
X166806571Y-77485904D01*
X166901809Y-77438285D01*
X167139904Y-77438285D01*
X167235142Y-77485904D01*
X167282761Y-77533523D01*
X167330380Y-77628761D01*
X167330380Y-77914476D01*
X167282761Y-78009714D01*
X167235142Y-78057333D01*
X168965619Y-78009714D02*
X168918000Y-77962095D01*
X168870380Y-77866857D01*
X168870380Y-77628761D01*
X168918000Y-77533523D01*
X168965619Y-77485904D01*
X169060857Y-77438285D01*
X169156095Y-77438285D01*
X169298952Y-77485904D01*
X169870380Y-78057333D01*
X169870380Y-77438285D01*
X172410380Y-77438285D02*
X172410380Y-78009714D01*
X172410380Y-77724000D02*
X171410380Y-77724000D01*
X171553238Y-77819238D01*
X171648476Y-77914476D01*
X171696095Y-78009714D01*
X173950380Y-77771619D02*
X173950380Y-77676380D01*
X173998000Y-77581142D01*
X174045619Y-77533523D01*
X174140857Y-77485904D01*
X174331333Y-77438285D01*
X174569428Y-77438285D01*
X174759904Y-77485904D01*
X174855142Y-77533523D01*
X174902761Y-77581142D01*
X174950380Y-77676380D01*
X174950380Y-77771619D01*
X174902761Y-77866857D01*
X174855142Y-77914476D01*
X174759904Y-77962095D01*
X174569428Y-78009714D01*
X174331333Y-78009714D01*
X174140857Y-77962095D01*
X174045619Y-77914476D01*
X173998000Y-77866857D01*
X173950380Y-77771619D01*
X156170380Y-121491238D02*
X157170380Y-121157904D01*
X156170380Y-120824571D01*
X157170380Y-120491238D02*
X156170380Y-120491238D01*
X157170380Y-120015047D02*
X156170380Y-120015047D01*
X157170380Y-119443619D01*
X156170380Y-119443619D01*
X139390380Y-121562714D02*
X138390380Y-121562714D01*
X139390380Y-120991285D01*
X138390380Y-120991285D01*
X139295142Y-119943666D02*
X139342761Y-119991285D01*
X139390380Y-120134142D01*
X139390380Y-120229380D01*
X139342761Y-120372238D01*
X139247523Y-120467476D01*
X139152285Y-120515095D01*
X138961809Y-120562714D01*
X138818952Y-120562714D01*
X138628476Y-120515095D01*
X138533238Y-120467476D01*
X138438000Y-120372238D01*
X138390380Y-120229380D01*
X138390380Y-120134142D01*
X138438000Y-119991285D01*
X138485619Y-119943666D01*
X141930380Y-121538761D02*
X140930380Y-121538761D01*
X140930380Y-120872095D02*
X140930380Y-120681619D01*
X140978000Y-120586380D01*
X141073238Y-120491142D01*
X141263714Y-120443523D01*
X141597047Y-120443523D01*
X141787523Y-120491142D01*
X141882761Y-120586380D01*
X141930380Y-120681619D01*
X141930380Y-120872095D01*
X141882761Y-120967333D01*
X141787523Y-121062571D01*
X141597047Y-121110190D01*
X141263714Y-121110190D01*
X141073238Y-121062571D01*
X140978000Y-120967333D01*
X140930380Y-120872095D01*
X141930380Y-119443523D02*
X141454190Y-119776857D01*
X141930380Y-120014952D02*
X140930380Y-120014952D01*
X140930380Y-119634000D01*
X140978000Y-119538761D01*
X141025619Y-119491142D01*
X141120857Y-119443523D01*
X141263714Y-119443523D01*
X141358952Y-119491142D01*
X141406571Y-119538761D01*
X141454190Y-119634000D01*
X141454190Y-120014952D01*
X141406571Y-119014952D02*
X141406571Y-118681619D01*
X141930380Y-118538761D02*
X141930380Y-119014952D01*
X140930380Y-119014952D01*
X140930380Y-118538761D01*
X141406571Y-117776857D02*
X141406571Y-118110190D01*
X141930380Y-118110190D02*
X140930380Y-118110190D01*
X140930380Y-117634000D01*
X144470380Y-120959380D02*
X143994190Y-121292714D01*
X144470380Y-121530809D02*
X143470380Y-121530809D01*
X143470380Y-121149857D01*
X143518000Y-121054619D01*
X143565619Y-121007000D01*
X143660857Y-120959380D01*
X143803714Y-120959380D01*
X143898952Y-121007000D01*
X143946571Y-121054619D01*
X143994190Y-121149857D01*
X143994190Y-121530809D01*
X143946571Y-120530809D02*
X143946571Y-120197476D01*
X144470380Y-120054619D02*
X144470380Y-120530809D01*
X143470380Y-120530809D01*
X143470380Y-120054619D01*
X144422761Y-119673666D02*
X144470380Y-119530809D01*
X144470380Y-119292714D01*
X144422761Y-119197476D01*
X144375142Y-119149857D01*
X144279904Y-119102238D01*
X144184666Y-119102238D01*
X144089428Y-119149857D01*
X144041809Y-119197476D01*
X143994190Y-119292714D01*
X143946571Y-119483190D01*
X143898952Y-119578428D01*
X143851333Y-119626047D01*
X143756095Y-119673666D01*
X143660857Y-119673666D01*
X143565619Y-119626047D01*
X143518000Y-119578428D01*
X143470380Y-119483190D01*
X143470380Y-119245095D01*
X143518000Y-119102238D01*
X143946571Y-118673666D02*
X143946571Y-118340333D01*
X144470380Y-118197476D02*
X144470380Y-118673666D01*
X143470380Y-118673666D01*
X143470380Y-118197476D01*
X143470380Y-117911761D02*
X143470380Y-117340333D01*
X144470380Y-117626047D02*
X143470380Y-117626047D01*
X146010380Y-121507095D02*
X146010380Y-120888047D01*
X146391333Y-121221380D01*
X146391333Y-121078523D01*
X146438952Y-120983285D01*
X146486571Y-120935666D01*
X146581809Y-120888047D01*
X146819904Y-120888047D01*
X146915142Y-120935666D01*
X146962761Y-120983285D01*
X147010380Y-121078523D01*
X147010380Y-121364238D01*
X146962761Y-121459476D01*
X146915142Y-121507095D01*
X146010380Y-120602333D02*
X147010380Y-120269000D01*
X146010380Y-119935666D01*
X146010380Y-119697571D02*
X146010380Y-119078523D01*
X146391333Y-119411857D01*
X146391333Y-119269000D01*
X146438952Y-119173761D01*
X146486571Y-119126142D01*
X146581809Y-119078523D01*
X146819904Y-119078523D01*
X146915142Y-119126142D01*
X146962761Y-119173761D01*
X147010380Y-119269000D01*
X147010380Y-119554714D01*
X146962761Y-119649952D01*
X146915142Y-119697571D01*
D11*
X151638000Y-122047000D02*
X154178000Y-122047000D01*
X154178000Y-122555000D02*
X154178000Y-122047000D01*
X151638000Y-122555000D02*
X151638000Y-122047000D01*
D10*
X152408000Y-120903904D02*
X152360380Y-120999142D01*
X152360380Y-121142000D01*
X152408000Y-121284857D01*
X152503238Y-121380095D01*
X152598476Y-121427714D01*
X152788952Y-121475333D01*
X152931809Y-121475333D01*
X153122285Y-121427714D01*
X153217523Y-121380095D01*
X153312761Y-121284857D01*
X153360380Y-121142000D01*
X153360380Y-121046761D01*
X153312761Y-120903904D01*
X153265142Y-120856285D01*
X152931809Y-120856285D01*
X152931809Y-121046761D01*
X153360380Y-120427714D02*
X152360380Y-120427714D01*
X153360380Y-119856285D01*
X152360380Y-119856285D01*
X153360380Y-119380095D02*
X152360380Y-119380095D01*
X152360380Y-119142000D01*
X152408000Y-118999142D01*
X152503238Y-118903904D01*
X152598476Y-118856285D01*
X152788952Y-118808666D01*
X152931809Y-118808666D01*
X153122285Y-118856285D01*
X153217523Y-118903904D01*
X153312761Y-118999142D01*
X153360380Y-119142000D01*
X153360380Y-119380095D01*
X148550380Y-120967476D02*
X148550380Y-121443666D01*
X149026571Y-121491285D01*
X148978952Y-121443666D01*
X148931333Y-121348428D01*
X148931333Y-121110333D01*
X148978952Y-121015095D01*
X149026571Y-120967476D01*
X149121809Y-120919857D01*
X149359904Y-120919857D01*
X149455142Y-120967476D01*
X149502761Y-121015095D01*
X149550380Y-121110333D01*
X149550380Y-121348428D01*
X149502761Y-121443666D01*
X149455142Y-121491285D01*
X148550380Y-120634142D02*
X149550380Y-120300809D01*
X148550380Y-119967476D01*
X173902666Y-121872285D02*
X173902666Y-121396095D01*
X174188380Y-121967523D02*
X173188380Y-121634190D01*
X174188380Y-121300857D01*
X173188380Y-120491333D02*
X173188380Y-120967523D01*
X173664571Y-121015142D01*
X173616952Y-120967523D01*
X173569333Y-120872285D01*
X173569333Y-120634190D01*
X173616952Y-120538952D01*
X173664571Y-120491333D01*
X173759809Y-120443714D01*
X173997904Y-120443714D01*
X174093142Y-120491333D01*
X174140761Y-120538952D01*
X174188380Y-120634190D01*
X174188380Y-120872285D01*
X174140761Y-120967523D01*
X174093142Y-121015142D01*
X171362666Y-121872285D02*
X171362666Y-121396095D01*
X171648380Y-121967523D02*
X170648380Y-121634190D01*
X171648380Y-121300857D01*
X170981714Y-120538952D02*
X171648380Y-120538952D01*
X170600761Y-120777047D02*
X171315047Y-121015142D01*
X171315047Y-120396095D01*
X168822666Y-121872285D02*
X168822666Y-121396095D01*
X169108380Y-121967523D02*
X168108380Y-121634190D01*
X169108380Y-121300857D01*
X168108380Y-121062761D02*
X168108380Y-120443714D01*
X168489333Y-120777047D01*
X168489333Y-120634190D01*
X168536952Y-120538952D01*
X168584571Y-120491333D01*
X168679809Y-120443714D01*
X168917904Y-120443714D01*
X169013142Y-120491333D01*
X169060761Y-120538952D01*
X169108380Y-120634190D01*
X169108380Y-120919904D01*
X169060761Y-121015142D01*
X169013142Y-121062761D01*
X166282666Y-121872285D02*
X166282666Y-121396095D01*
X166568380Y-121967523D02*
X165568380Y-121634190D01*
X166568380Y-121300857D01*
X165663619Y-121015142D02*
X165616000Y-120967523D01*
X165568380Y-120872285D01*
X165568380Y-120634190D01*
X165616000Y-120538952D01*
X165663619Y-120491333D01*
X165758857Y-120443714D01*
X165854095Y-120443714D01*
X165996952Y-120491333D01*
X166568380Y-121062761D01*
X166568380Y-120443714D01*
X163742666Y-121872285D02*
X163742666Y-121396095D01*
X164028380Y-121967523D02*
X163028380Y-121634190D01*
X164028380Y-121300857D01*
X164028380Y-120443714D02*
X164028380Y-121015142D01*
X164028380Y-120729428D02*
X163028380Y-120729428D01*
X163171238Y-120824666D01*
X163266476Y-120919904D01*
X163314095Y-121015142D01*
X161202666Y-121872285D02*
X161202666Y-121396095D01*
X161488380Y-121967523D02*
X160488380Y-121634190D01*
X161488380Y-121300857D01*
X160488380Y-120777047D02*
X160488380Y-120681809D01*
X160536000Y-120586571D01*
X160583619Y-120538952D01*
X160678857Y-120491333D01*
X160869333Y-120443714D01*
X161107428Y-120443714D01*
X161297904Y-120491333D01*
X161393142Y-120538952D01*
X161440761Y-120586571D01*
X161488380Y-120681809D01*
X161488380Y-120777047D01*
X161440761Y-120872285D01*
X161393142Y-120919904D01*
X161297904Y-120967523D01*
X161107428Y-121015142D01*
X160869333Y-121015142D01*
X160678857Y-120967523D01*
X160583619Y-120919904D01*
X160536000Y-120872285D01*
X160488380Y-120777047D01*
D11*
X122062761Y-116600571D02*
X120062761Y-116600571D01*
X120062761Y-116124380D01*
X120158000Y-115838666D01*
X120348476Y-115648190D01*
X120538952Y-115552952D01*
X120919904Y-115457714D01*
X121205619Y-115457714D01*
X121586571Y-115552952D01*
X121777047Y-115648190D01*
X121967523Y-115838666D01*
X122062761Y-116124380D01*
X122062761Y-116600571D01*
X121015142Y-114600571D02*
X121015142Y-113933904D01*
X122062761Y-113648190D02*
X122062761Y-114600571D01*
X120062761Y-114600571D01*
X120062761Y-113648190D01*
X120062761Y-113076761D02*
X122062761Y-112410095D01*
X120062761Y-111743428D01*
X122062761Y-110124380D02*
X122062761Y-111076761D01*
X120062761Y-111076761D01*
X122062761Y-109457714D02*
X120062761Y-109457714D01*
X120062761Y-108695809D01*
X120158000Y-108505333D01*
X120253238Y-108410095D01*
X120443714Y-108314857D01*
X120729428Y-108314857D01*
X120919904Y-108410095D01*
X121015142Y-108505333D01*
X121110380Y-108695809D01*
X121110380Y-109457714D01*
X122062761Y-106314857D02*
X121110380Y-106981523D01*
X122062761Y-107457714D02*
X120062761Y-107457714D01*
X120062761Y-106695809D01*
X120158000Y-106505333D01*
X120253238Y-106410095D01*
X120443714Y-106314857D01*
X120729428Y-106314857D01*
X120919904Y-106410095D01*
X121015142Y-106505333D01*
X121110380Y-106695809D01*
X121110380Y-107457714D01*
X120729428Y-104124380D02*
X122062761Y-103648190D01*
X120729428Y-103172000D01*
X122062761Y-101362476D02*
X122062761Y-102505333D01*
X122062761Y-101933904D02*
X120062761Y-101933904D01*
X120348476Y-102124380D01*
X120538952Y-102314857D01*
X120634190Y-102505333D01*
X121872285Y-100505333D02*
X121967523Y-100410095D01*
X122062761Y-100505333D01*
X121967523Y-100600571D01*
X121872285Y-100505333D01*
X122062761Y-100505333D01*
X122062761Y-98505333D02*
X122062761Y-99648190D01*
X122062761Y-99076761D02*
X120062761Y-99076761D01*
X120348476Y-99267238D01*
X120538952Y-99457714D01*
X120634190Y-99648190D01*
X121872285Y-97648190D02*
X121967523Y-97552952D01*
X122062761Y-97648190D01*
X121967523Y-97743428D01*
X121872285Y-97648190D01*
X122062761Y-97648190D01*
X120062761Y-96314857D02*
X120062761Y-96124380D01*
X120158000Y-95933904D01*
X120253238Y-95838666D01*
X120443714Y-95743428D01*
X120824666Y-95648190D01*
X121300857Y-95648190D01*
X121681809Y-95743428D01*
X121872285Y-95838666D01*
X121967523Y-95933904D01*
X122062761Y-96124380D01*
X122062761Y-96314857D01*
X121967523Y-96505333D01*
X121872285Y-96600571D01*
X121681809Y-96695809D01*
X121300857Y-96791047D01*
X120824666Y-96791047D01*
X120443714Y-96695809D01*
X120253238Y-96600571D01*
X120158000Y-96505333D01*
X120062761Y-96314857D01*
X137739380Y-121253285D02*
X137739380Y-121824714D01*
X137739380Y-121539000D02*
X136739380Y-121539000D01*
X136882238Y-121634238D01*
X136977476Y-121729476D01*
X137025095Y-121824714D01*
D13*
X129016000Y-121383000D02*
X129016000Y-121883000D01*
X129016000Y-121883000D02*
X129116000Y-121883000D01*
X129116000Y-121883000D02*
X129116000Y-122183000D01*
X129116000Y-122183000D02*
X129116000Y-123383000D01*
X129016000Y-118783000D02*
X129016000Y-119283000D01*
X129016000Y-118783000D02*
X129016000Y-118283000D01*
X135216000Y-118783000D02*
X135216000Y-118283000D01*
X135216000Y-118783000D02*
X135216000Y-119283000D01*
X132116000Y-115683000D02*
X132616000Y-115683000D01*
X132116000Y-115683000D02*
X131616000Y-115683000D01*
X132116000Y-121883000D02*
X132616000Y-121883000D01*
X132116000Y-121883000D02*
X131616000Y-121883000D01*
D14*
X164450500Y-100059258D02*
X164450500Y-99584742D01*
X165495500Y-100059258D02*
X165495500Y-99584742D01*
X163495000Y-99995000D02*
X163495000Y-99395000D01*
X162895000Y-99995000D02*
X162895000Y-99395000D01*
D13*
X179043000Y-94869000D02*
G75*
G03*
X179043000Y-94869000I-1370000J0D01*
G01*
D14*
X151143580Y-112774000D02*
X150862420Y-112774000D01*
X151143580Y-113794000D02*
X150862420Y-113794000D01*
X172228000Y-96777000D02*
X172228000Y-93977000D01*
X172928000Y-93327000D02*
X173528000Y-93327000D01*
X174228000Y-93977000D02*
X174228000Y-96777000D01*
X173528000Y-97427000D02*
X172928000Y-97427000D01*
X172928000Y-97427000D02*
G75*
G02*
X172228000Y-96727000I0J700000D01*
G01*
X174228000Y-96727000D02*
G75*
G02*
X173528000Y-97427000I-700000J0D01*
G01*
X173528000Y-93327000D02*
G75*
G02*
X174228000Y-94027000I0J-700000D01*
G01*
X172228000Y-94027000D02*
G75*
G02*
X172928000Y-93327000I700000J0D01*
G01*
X164084000Y-96225000D02*
X166284000Y-96225000D01*
X164084000Y-96225000D02*
X161884000Y-96225000D01*
X164084000Y-93005000D02*
X166284000Y-93005000D01*
X164084000Y-93005000D02*
X160484000Y-93005000D01*
X147050000Y-84805000D02*
X145050000Y-84805000D01*
X146050000Y-81565000D02*
X143050000Y-81565000D01*
X150003000Y-108870000D02*
X152003000Y-108870000D01*
X151003000Y-112110000D02*
X154003000Y-112110000D01*
D13*
X148747000Y-90221000D02*
X149047000Y-90221000D01*
X149047000Y-90221000D02*
X149047000Y-90521000D01*
X148747000Y-93421000D02*
X149047000Y-93421000D01*
X149047000Y-93421000D02*
X149047000Y-93121000D01*
X149047000Y-93121000D02*
X149747000Y-93121000D01*
X145847000Y-93121000D02*
X145847000Y-93421000D01*
X145847000Y-93421000D02*
X146147000Y-93421000D01*
X145847000Y-90521000D02*
X145847000Y-90221000D01*
X145847000Y-90221000D02*
X146147000Y-90221000D01*
D14*
X171441000Y-102453000D02*
X169681000Y-102453000D01*
X169681000Y-105523000D02*
X172111000Y-105523000D01*
X152003000Y-108173000D02*
X150003000Y-108173000D01*
X151003000Y-104933000D02*
X148003000Y-104933000D01*
D13*
X168629000Y-110109000D02*
G75*
G03*
X168629000Y-110109000I-1370000J0D01*
G01*
X179043000Y-98298000D02*
G75*
G03*
X179043000Y-98298000I-1370000J0D01*
G01*
D14*
X169559500Y-94504742D02*
X169559500Y-94979258D01*
X168514500Y-94504742D02*
X168514500Y-94979258D01*
X170292500Y-94979258D02*
X170292500Y-94504742D01*
X171337500Y-94979258D02*
X171337500Y-94504742D01*
X164194258Y-97931500D02*
X163719742Y-97931500D01*
X164194258Y-96886500D02*
X163719742Y-96886500D01*
X146795258Y-99836500D02*
X146320742Y-99836500D01*
X146795258Y-98791500D02*
X146320742Y-98791500D01*
X156322500Y-106917258D02*
X156322500Y-106442742D01*
X157367500Y-106917258D02*
X157367500Y-106442742D01*
X160923500Y-110760742D02*
X160923500Y-111235258D01*
X159878500Y-110760742D02*
X159878500Y-111235258D01*
X164450500Y-103234258D02*
X164450500Y-102759742D01*
X165495500Y-103234258D02*
X165495500Y-102759742D01*
X169317936Y-100357000D02*
X169772064Y-100357000D01*
X169317936Y-101827000D02*
X169772064Y-101827000D01*
X175360000Y-100102936D02*
X175360000Y-100557064D01*
X173890000Y-100102936D02*
X173890000Y-100557064D01*
X166191000Y-103396622D02*
X166191000Y-102597378D01*
X167311000Y-103396622D02*
X167311000Y-102597378D01*
X170415378Y-108533000D02*
X171214622Y-108533000D01*
X170415378Y-109653000D02*
X171214622Y-109653000D01*
X143877420Y-79881000D02*
X144158580Y-79881000D01*
X143877420Y-80901000D02*
X144158580Y-80901000D01*
X148222580Y-80901000D02*
X147941420Y-80901000D01*
X148222580Y-79881000D02*
X147941420Y-79881000D01*
X153175580Y-104269000D02*
X152894420Y-104269000D01*
X153175580Y-103249000D02*
X152894420Y-103249000D01*
X151128000Y-94628580D02*
X151128000Y-94347420D01*
X152148000Y-94628580D02*
X152148000Y-94347420D01*
X151128000Y-91453580D02*
X151128000Y-91172420D01*
X152148000Y-91453580D02*
X152148000Y-91172420D01*
X151128000Y-88278580D02*
X151128000Y-87997420D01*
X152148000Y-88278580D02*
X152148000Y-87997420D01*
X165708000Y-106418748D02*
X165708000Y-106941252D01*
X164238000Y-106418748D02*
X164238000Y-106941252D01*
X177646000Y-101526748D02*
X177646000Y-102049252D01*
X176176000Y-101526748D02*
X176176000Y-102049252D01*
X173201000Y-100068748D02*
X173201000Y-100591252D01*
X171731000Y-100068748D02*
X171731000Y-100591252D01*
X171950748Y-106326000D02*
X172473252Y-106326000D01*
X171950748Y-107796000D02*
X172473252Y-107796000D01*
X171315748Y-110390000D02*
X171838252Y-110390000D01*
X171315748Y-111860000D02*
X171838252Y-111860000D01*
X144263342Y-85481900D02*
X144737858Y-85481900D01*
X144263342Y-86526900D02*
X144737858Y-86526900D01*
X149591500Y-116315258D02*
X149591500Y-115840742D01*
X150636500Y-116315258D02*
X150636500Y-115840742D01*
X150097258Y-99836500D02*
X149622742Y-99836500D01*
X150097258Y-98791500D02*
X149622742Y-98791500D01*
X152766500Y-90407258D02*
X152766500Y-89932742D01*
X153811500Y-90407258D02*
X153811500Y-89932742D01*
X153811500Y-93234742D02*
X153811500Y-93709258D01*
X152766500Y-93234742D02*
X152766500Y-93709258D01*
X175372500Y-80247258D02*
X175372500Y-79772742D01*
X176417500Y-80247258D02*
X176417500Y-79772742D01*
X158100500Y-111235258D02*
X158100500Y-110760742D01*
X159145500Y-111235258D02*
X159145500Y-110760742D01*
D13*
X150209000Y-94239000D02*
X149959000Y-94239000D01*
X150209000Y-94239000D02*
X150209000Y-94489000D01*
X150209000Y-98039000D02*
X149959000Y-98039000D01*
X150209000Y-98039000D02*
X150209000Y-97789000D01*
X146209000Y-98039000D02*
X146209000Y-97839000D01*
X146209000Y-98039000D02*
X146459000Y-98039000D01*
X146459000Y-94239000D02*
X146209000Y-94239000D01*
X146209000Y-94239000D02*
X146209000Y-94439000D01*
X146209000Y-94439000D02*
X145859000Y-94439000D01*
D14*
X147763620Y-85494400D02*
X148044780Y-85494400D01*
X147763620Y-86514400D02*
X148044780Y-86514400D01*
X161530420Y-91311000D02*
X161811580Y-91311000D01*
X161530420Y-92331000D02*
X161811580Y-92331000D01*
X166637580Y-92331000D02*
X166356420Y-92331000D01*
X166637580Y-91311000D02*
X166356420Y-91311000D01*
X152275000Y-115937420D02*
X152275000Y-116218580D01*
X151255000Y-115937420D02*
X151255000Y-116218580D01*
D13*
X143229000Y-106426000D02*
G75*
G03*
X143229000Y-106426000I-1370000J0D01*
G01*
D14*
X143496420Y-88517000D02*
X143777580Y-88517000D01*
X143496420Y-89537000D02*
X143777580Y-89537000D01*
D13*
X174781000Y-82692000D02*
X174781000Y-82092000D01*
X174781000Y-82092000D02*
X174056000Y-82092000D01*
X174006000Y-88342000D02*
X174781000Y-88342000D01*
X174781000Y-88342000D02*
X174781000Y-87767000D01*
X157531000Y-82692000D02*
X157531000Y-82092000D01*
X157531000Y-82092000D02*
X158206000Y-82092000D01*
X158081000Y-88342000D02*
X157531000Y-88342000D01*
X157531000Y-88342000D02*
X157531000Y-87867000D01*
X173770000Y-113535000D02*
X174130000Y-113895000D01*
X158620000Y-118835000D02*
X159020000Y-118835000D01*
X158620000Y-118835000D02*
X158620000Y-118435000D01*
X158620000Y-113535000D02*
X158620000Y-113935000D01*
X158620000Y-113535000D02*
X159020000Y-113535000D01*
X173770000Y-113535000D02*
X173320000Y-113535000D01*
X174130000Y-113895000D02*
X174130000Y-114325000D01*
X174120000Y-118835000D02*
X173720000Y-118835000D01*
X174120000Y-118835000D02*
X174120000Y-118435000D01*
D14*
X154417500Y-93709258D02*
X154417500Y-93234742D01*
X155462500Y-93709258D02*
X155462500Y-93234742D01*
X155462500Y-89932742D02*
X155462500Y-90407258D01*
X154417500Y-89932742D02*
X154417500Y-90407258D01*
X146953500Y-110760742D02*
X146953500Y-111235258D01*
X145908500Y-110760742D02*
X145908500Y-111235258D01*
X149238580Y-89537000D02*
X148957420Y-89537000D01*
X149238580Y-88517000D02*
X148957420Y-88517000D01*
X148957420Y-103249000D02*
X149238580Y-103249000D01*
X148957420Y-104269000D02*
X149238580Y-104269000D01*
X156335000Y-111138580D02*
X156335000Y-110857420D01*
X157355000Y-111138580D02*
X157355000Y-110857420D01*
D11*
X137388000Y-122275000D02*
X137388000Y-125375000D01*
X138938000Y-122275000D02*
X137388000Y-122275000D01*
X140208000Y-125095000D02*
X140208000Y-122555000D01*
X137388000Y-125375000D02*
X138938000Y-125375000D01*
X157988000Y-122555000D02*
X140208000Y-122555000D01*
X157988000Y-125095000D02*
X157988000Y-122555000D01*
X140208000Y-125095000D02*
X157988000Y-125095000D01*
X160248000Y-122275000D02*
X160248000Y-125375000D01*
X161798000Y-122275000D02*
X160248000Y-122275000D01*
X163068000Y-125095000D02*
X163068000Y-122555000D01*
X160248000Y-125375000D02*
X161798000Y-125375000D01*
X175768000Y-122555000D02*
X163068000Y-122555000D01*
X175768000Y-125095000D02*
X175768000Y-122555000D01*
X163068000Y-125095000D02*
X175768000Y-125095000D01*
X128244000Y-74015000D02*
X128244000Y-77115000D01*
X129794000Y-74015000D02*
X128244000Y-74015000D01*
X131064000Y-76835000D02*
X131064000Y-74295000D01*
X128244000Y-77115000D02*
X129794000Y-77115000D01*
X153924000Y-74295000D02*
X131064000Y-74295000D01*
X153924000Y-76835000D02*
X153924000Y-74295000D01*
X131064000Y-76835000D02*
X153924000Y-76835000D01*
X155168000Y-74015000D02*
X155168000Y-77115000D01*
X156718000Y-74015000D02*
X155168000Y-74015000D01*
X157988000Y-76835000D02*
X157988000Y-74295000D01*
X155168000Y-77115000D02*
X156718000Y-77115000D01*
X175768000Y-74295000D02*
X157988000Y-74295000D01*
X175768000Y-76835000D02*
X175768000Y-74295000D01*
X157988000Y-76835000D02*
X175768000Y-76835000D01*
X127254000Y-123825000D02*
G75*
G03*
X127254000Y-123825000I-2286000J0D01*
G01*
X179324000Y-118745000D02*
G75*
G03*
X179324000Y-118745000I-2286000J0D01*
G01*
X128524000Y-75565000D02*
G75*
G03*
X128524000Y-75565000I-2286000J0D01*
G01*
X179324000Y-90805000D02*
G75*
G03*
X179324000Y-90805000I-2286000J0D01*
G01*
X128250761Y-119544904D02*
X128298380Y-119402047D01*
X128298380Y-119163952D01*
X128250761Y-119068714D01*
X128203142Y-119021095D01*
X128107904Y-118973476D01*
X128012666Y-118973476D01*
X127917428Y-119021095D01*
X127869809Y-119068714D01*
X127822190Y-119163952D01*
X127774571Y-119354428D01*
X127726952Y-119449666D01*
X127679333Y-119497285D01*
X127584095Y-119544904D01*
X127488857Y-119544904D01*
X127393619Y-119497285D01*
X127346000Y-119449666D01*
X127298380Y-119354428D01*
X127298380Y-119116333D01*
X127346000Y-118973476D01*
X128298380Y-118021095D02*
X128298380Y-118592523D01*
X128298380Y-118306809D02*
X127298380Y-118306809D01*
X127441238Y-118402047D01*
X127536476Y-118497285D01*
X127584095Y-118592523D01*
X166822380Y-100464857D02*
X166346190Y-100798190D01*
X166822380Y-101036285D02*
X165822380Y-101036285D01*
X165822380Y-100655333D01*
X165870000Y-100560095D01*
X165917619Y-100512476D01*
X166012857Y-100464857D01*
X166155714Y-100464857D01*
X166250952Y-100512476D01*
X166298571Y-100560095D01*
X166346190Y-100655333D01*
X166346190Y-101036285D01*
X165917619Y-100083904D02*
X165870000Y-100036285D01*
X165822380Y-99941047D01*
X165822380Y-99702952D01*
X165870000Y-99607714D01*
X165917619Y-99560095D01*
X166012857Y-99512476D01*
X166108095Y-99512476D01*
X166250952Y-99560095D01*
X166822380Y-100131523D01*
X166822380Y-99512476D01*
X165822380Y-98893428D02*
X165822380Y-98798190D01*
X165870000Y-98702952D01*
X165917619Y-98655333D01*
X166012857Y-98607714D01*
X166203333Y-98560095D01*
X166441428Y-98560095D01*
X166631904Y-98607714D01*
X166727142Y-98655333D01*
X166774761Y-98702952D01*
X166822380Y-98798190D01*
X166822380Y-98893428D01*
X166774761Y-98988666D01*
X166727142Y-99036285D01*
X166631904Y-99083904D01*
X166441428Y-99131523D01*
X166203333Y-99131523D01*
X166012857Y-99083904D01*
X165917619Y-99036285D01*
X165870000Y-98988666D01*
X165822380Y-98893428D01*
X163647380Y-102592095D02*
X162647380Y-102592095D01*
X162647380Y-102354000D01*
X162695000Y-102211142D01*
X162790238Y-102115904D01*
X162885476Y-102068285D01*
X163075952Y-102020666D01*
X163218809Y-102020666D01*
X163409285Y-102068285D01*
X163504523Y-102115904D01*
X163599761Y-102211142D01*
X163647380Y-102354000D01*
X163647380Y-102592095D01*
X163647380Y-101068285D02*
X163647380Y-101639714D01*
X163647380Y-101354000D02*
X162647380Y-101354000D01*
X162790238Y-101449238D01*
X162885476Y-101544476D01*
X162933095Y-101639714D01*
X176093380Y-95464238D02*
X175617190Y-95797571D01*
X176093380Y-96035666D02*
X175093380Y-96035666D01*
X175093380Y-95654714D01*
X175141000Y-95559476D01*
X175188619Y-95511857D01*
X175283857Y-95464238D01*
X175426714Y-95464238D01*
X175521952Y-95511857D01*
X175569571Y-95559476D01*
X175617190Y-95654714D01*
X175617190Y-96035666D01*
X176093380Y-94559476D02*
X176093380Y-95035666D01*
X175093380Y-95035666D01*
X176093380Y-94226142D02*
X175093380Y-94226142D01*
X175093380Y-93988047D01*
X175141000Y-93845190D01*
X175236238Y-93749952D01*
X175331476Y-93702333D01*
X175521952Y-93654714D01*
X175664809Y-93654714D01*
X175855285Y-93702333D01*
X175950523Y-93749952D01*
X176045761Y-93845190D01*
X176093380Y-93988047D01*
X176093380Y-94226142D01*
X153646142Y-113450666D02*
X153693761Y-113498285D01*
X153741380Y-113641142D01*
X153741380Y-113736380D01*
X153693761Y-113879238D01*
X153598523Y-113974476D01*
X153503285Y-114022095D01*
X153312809Y-114069714D01*
X153169952Y-114069714D01*
X152979476Y-114022095D01*
X152884238Y-113974476D01*
X152789000Y-113879238D01*
X152741380Y-113736380D01*
X152741380Y-113641142D01*
X152789000Y-113498285D01*
X152836619Y-113450666D01*
X152741380Y-113117333D02*
X152741380Y-112450666D01*
X153741380Y-112879238D01*
X175331380Y-98131238D02*
X174855190Y-98464571D01*
X175331380Y-98702666D02*
X174331380Y-98702666D01*
X174331380Y-98321714D01*
X174379000Y-98226476D01*
X174426619Y-98178857D01*
X174521857Y-98131238D01*
X174664714Y-98131238D01*
X174759952Y-98178857D01*
X174807571Y-98226476D01*
X174855190Y-98321714D01*
X174855190Y-98702666D01*
X175331380Y-97226476D02*
X175331380Y-97702666D01*
X174331380Y-97702666D01*
X175331380Y-96893142D02*
X174331380Y-96893142D01*
X174331380Y-96655047D01*
X174379000Y-96512190D01*
X174474238Y-96416952D01*
X174569476Y-96369333D01*
X174759952Y-96321714D01*
X174902809Y-96321714D01*
X175093285Y-96369333D01*
X175188523Y-96416952D01*
X175283761Y-96512190D01*
X175331380Y-96655047D01*
X175331380Y-96893142D01*
X172728000Y-92582904D02*
X172680380Y-92678142D01*
X172680380Y-92821000D01*
X172728000Y-92963857D01*
X172823238Y-93059095D01*
X172918476Y-93106714D01*
X173108952Y-93154333D01*
X173251809Y-93154333D01*
X173442285Y-93106714D01*
X173537523Y-93059095D01*
X173632761Y-92963857D01*
X173680380Y-92821000D01*
X173680380Y-92725761D01*
X173632761Y-92582904D01*
X173585142Y-92535285D01*
X173251809Y-92535285D01*
X173251809Y-92725761D01*
X173680380Y-92106714D02*
X172680380Y-92106714D01*
X173680380Y-91535285D01*
X172680380Y-91535285D01*
X173680380Y-91059095D02*
X172680380Y-91059095D01*
X172680380Y-90821000D01*
X172728000Y-90678142D01*
X172823238Y-90582904D01*
X172918476Y-90535285D01*
X173108952Y-90487666D01*
X173251809Y-90487666D01*
X173442285Y-90535285D01*
X173537523Y-90582904D01*
X173632761Y-90678142D01*
X173680380Y-90821000D01*
X173680380Y-91059095D01*
X159091380Y-94741904D02*
X159900904Y-94741904D01*
X159996142Y-94694285D01*
X160043761Y-94646666D01*
X160091380Y-94551428D01*
X160091380Y-94360952D01*
X160043761Y-94265714D01*
X159996142Y-94218095D01*
X159900904Y-94170476D01*
X159091380Y-94170476D01*
X159091380Y-93265714D02*
X159091380Y-93456190D01*
X159139000Y-93551428D01*
X159186619Y-93599047D01*
X159329476Y-93694285D01*
X159519952Y-93741904D01*
X159900904Y-93741904D01*
X159996142Y-93694285D01*
X160043761Y-93646666D01*
X160091380Y-93551428D01*
X160091380Y-93360952D01*
X160043761Y-93265714D01*
X159996142Y-93218095D01*
X159900904Y-93170476D01*
X159662809Y-93170476D01*
X159567571Y-93218095D01*
X159519952Y-93265714D01*
X159472333Y-93360952D01*
X159472333Y-93551428D01*
X159519952Y-93646666D01*
X159567571Y-93694285D01*
X159662809Y-93741904D01*
X141311380Y-83438904D02*
X142120904Y-83438904D01*
X142216142Y-83391285D01*
X142263761Y-83343666D01*
X142311380Y-83248428D01*
X142311380Y-83057952D01*
X142263761Y-82962714D01*
X142216142Y-82915095D01*
X142120904Y-82867476D01*
X141311380Y-82867476D01*
X141311380Y-81915095D02*
X141311380Y-82391285D01*
X141787571Y-82438904D01*
X141739952Y-82391285D01*
X141692333Y-82296047D01*
X141692333Y-82057952D01*
X141739952Y-81962714D01*
X141787571Y-81915095D01*
X141882809Y-81867476D01*
X142120904Y-81867476D01*
X142216142Y-81915095D01*
X142263761Y-81962714D01*
X142311380Y-82057952D01*
X142311380Y-82296047D01*
X142263761Y-82391285D01*
X142216142Y-82438904D01*
X154646380Y-112267904D02*
X155455904Y-112267904D01*
X155551142Y-112220285D01*
X155598761Y-112172666D01*
X155646380Y-112077428D01*
X155646380Y-111886952D01*
X155598761Y-111791714D01*
X155551142Y-111744095D01*
X155455904Y-111696476D01*
X154646380Y-111696476D01*
X154979714Y-110791714D02*
X155646380Y-110791714D01*
X154598761Y-111029809D02*
X155313047Y-111267904D01*
X155313047Y-110648857D01*
X149947380Y-94868904D02*
X150756904Y-94868904D01*
X150852142Y-94821285D01*
X150899761Y-94773666D01*
X150947380Y-94678428D01*
X150947380Y-94487952D01*
X150899761Y-94392714D01*
X150852142Y-94345095D01*
X150756904Y-94297476D01*
X149947380Y-94297476D01*
X149947380Y-93916523D02*
X149947380Y-93297476D01*
X150328333Y-93630809D01*
X150328333Y-93487952D01*
X150375952Y-93392714D01*
X150423571Y-93345095D01*
X150518809Y-93297476D01*
X150756904Y-93297476D01*
X150852142Y-93345095D01*
X150899761Y-93392714D01*
X150947380Y-93487952D01*
X150947380Y-93773666D01*
X150899761Y-93868904D01*
X150852142Y-93916523D01*
X173061380Y-105790904D02*
X173870904Y-105790904D01*
X173966142Y-105743285D01*
X174013761Y-105695666D01*
X174061380Y-105600428D01*
X174061380Y-105409952D01*
X174013761Y-105314714D01*
X173966142Y-105267095D01*
X173870904Y-105219476D01*
X173061380Y-105219476D01*
X173156619Y-104790904D02*
X173109000Y-104743285D01*
X173061380Y-104648047D01*
X173061380Y-104409952D01*
X173109000Y-104314714D01*
X173156619Y-104267095D01*
X173251857Y-104219476D01*
X173347095Y-104219476D01*
X173489952Y-104267095D01*
X174061380Y-104838523D01*
X174061380Y-104219476D01*
X146391380Y-106171904D02*
X147200904Y-106171904D01*
X147296142Y-106124285D01*
X147343761Y-106076666D01*
X147391380Y-105981428D01*
X147391380Y-105790952D01*
X147343761Y-105695714D01*
X147296142Y-105648095D01*
X147200904Y-105600476D01*
X146391380Y-105600476D01*
X147391380Y-104600476D02*
X147391380Y-105171904D01*
X147391380Y-104886190D02*
X146391380Y-104886190D01*
X146534238Y-104981428D01*
X146629476Y-105076666D01*
X146677095Y-105171904D01*
X168727428Y-109584904D02*
X168727428Y-108823000D01*
X168108380Y-108442047D02*
X168108380Y-107823000D01*
X168489333Y-108156333D01*
X168489333Y-108013476D01*
X168536952Y-107918238D01*
X168584571Y-107870619D01*
X168679809Y-107823000D01*
X168917904Y-107823000D01*
X169013142Y-107870619D01*
X169060761Y-107918238D01*
X169108380Y-108013476D01*
X169108380Y-108299190D01*
X169060761Y-108394428D01*
X169013142Y-108442047D01*
X168108380Y-107537285D02*
X169108380Y-107203952D01*
X168108380Y-106870619D01*
X168108380Y-106632523D02*
X168108380Y-106013476D01*
X168489333Y-106346809D01*
X168489333Y-106203952D01*
X168536952Y-106108714D01*
X168584571Y-106061095D01*
X168679809Y-106013476D01*
X168917904Y-106013476D01*
X169013142Y-106061095D01*
X169060761Y-106108714D01*
X169108380Y-106203952D01*
X169108380Y-106489666D01*
X169060761Y-106584904D01*
X169013142Y-106632523D01*
X178760428Y-107274857D02*
X178760428Y-106512952D01*
X178141380Y-106132000D02*
X178141380Y-105512952D01*
X178522333Y-105846285D01*
X178522333Y-105703428D01*
X178569952Y-105608190D01*
X178617571Y-105560571D01*
X178712809Y-105512952D01*
X178950904Y-105512952D01*
X179046142Y-105560571D01*
X179093761Y-105608190D01*
X179141380Y-105703428D01*
X179141380Y-105989142D01*
X179093761Y-106084380D01*
X179046142Y-106132000D01*
X178141380Y-105227238D02*
X179141380Y-104893904D01*
X178141380Y-104560571D01*
X178141380Y-104322476D02*
X178141380Y-103703428D01*
X178522333Y-104036761D01*
X178522333Y-103893904D01*
X178569952Y-103798666D01*
X178617571Y-103751047D01*
X178712809Y-103703428D01*
X178950904Y-103703428D01*
X179046142Y-103751047D01*
X179093761Y-103798666D01*
X179141380Y-103893904D01*
X179141380Y-104179619D01*
X179093761Y-104274857D01*
X179046142Y-104322476D01*
X179236619Y-103512952D02*
X179236619Y-102751047D01*
X179141380Y-101941523D02*
X178665190Y-102274857D01*
X179141380Y-102512952D02*
X178141380Y-102512952D01*
X178141380Y-102132000D01*
X178189000Y-102036761D01*
X178236619Y-101989142D01*
X178331857Y-101941523D01*
X178474714Y-101941523D01*
X178569952Y-101989142D01*
X178617571Y-102036761D01*
X178665190Y-102132000D01*
X178665190Y-102512952D01*
X178855666Y-101560571D02*
X178855666Y-101084380D01*
X179141380Y-101655809D02*
X178141380Y-101322476D01*
X179141380Y-100989142D01*
X178141380Y-100751047D02*
X179141380Y-100512952D01*
X178427095Y-100322476D01*
X179141380Y-100132000D01*
X178141380Y-99893904D01*
X169489380Y-92463857D02*
X169013190Y-92797190D01*
X169489380Y-93035285D02*
X168489380Y-93035285D01*
X168489380Y-92654333D01*
X168537000Y-92559095D01*
X168584619Y-92511476D01*
X168679857Y-92463857D01*
X168822714Y-92463857D01*
X168917952Y-92511476D01*
X168965571Y-92559095D01*
X169013190Y-92654333D01*
X169013190Y-93035285D01*
X169489380Y-91511476D02*
X169489380Y-92082904D01*
X169489380Y-91797190D02*
X168489380Y-91797190D01*
X168632238Y-91892428D01*
X168727476Y-91987666D01*
X168775095Y-92082904D01*
X169489380Y-91035285D02*
X169489380Y-90844809D01*
X169441761Y-90749571D01*
X169394142Y-90701952D01*
X169251285Y-90606714D01*
X169060809Y-90559095D01*
X168679857Y-90559095D01*
X168584619Y-90606714D01*
X168537000Y-90654333D01*
X168489380Y-90749571D01*
X168489380Y-90940047D01*
X168537000Y-91035285D01*
X168584619Y-91082904D01*
X168679857Y-91130523D01*
X168917952Y-91130523D01*
X169013190Y-91082904D01*
X169060809Y-91035285D01*
X169108428Y-90940047D01*
X169108428Y-90749571D01*
X169060809Y-90654333D01*
X169013190Y-90606714D01*
X168917952Y-90559095D01*
X171267380Y-98305857D02*
X170791190Y-98639190D01*
X171267380Y-98877285D02*
X170267380Y-98877285D01*
X170267380Y-98496333D01*
X170315000Y-98401095D01*
X170362619Y-98353476D01*
X170457857Y-98305857D01*
X170600714Y-98305857D01*
X170695952Y-98353476D01*
X170743571Y-98401095D01*
X170791190Y-98496333D01*
X170791190Y-98877285D01*
X171267380Y-97353476D02*
X171267380Y-97924904D01*
X171267380Y-97639190D02*
X170267380Y-97639190D01*
X170410238Y-97734428D01*
X170505476Y-97829666D01*
X170553095Y-97924904D01*
X170695952Y-96782047D02*
X170648333Y-96877285D01*
X170600714Y-96924904D01*
X170505476Y-96972523D01*
X170457857Y-96972523D01*
X170362619Y-96924904D01*
X170315000Y-96877285D01*
X170267380Y-96782047D01*
X170267380Y-96591571D01*
X170315000Y-96496333D01*
X170362619Y-96448714D01*
X170457857Y-96401095D01*
X170505476Y-96401095D01*
X170600714Y-96448714D01*
X170648333Y-96496333D01*
X170695952Y-96591571D01*
X170695952Y-96782047D01*
X170743571Y-96877285D01*
X170791190Y-96924904D01*
X170886428Y-96972523D01*
X171076904Y-96972523D01*
X171172142Y-96924904D01*
X171219761Y-96877285D01*
X171267380Y-96782047D01*
X171267380Y-96591571D01*
X171219761Y-96496333D01*
X171172142Y-96448714D01*
X171076904Y-96401095D01*
X170886428Y-96401095D01*
X170791190Y-96448714D01*
X170743571Y-96496333D01*
X170695952Y-96591571D01*
X161996380Y-98432857D02*
X161520190Y-98766190D01*
X161996380Y-99004285D02*
X160996380Y-99004285D01*
X160996380Y-98623333D01*
X161044000Y-98528095D01*
X161091619Y-98480476D01*
X161186857Y-98432857D01*
X161329714Y-98432857D01*
X161424952Y-98480476D01*
X161472571Y-98528095D01*
X161520190Y-98623333D01*
X161520190Y-99004285D01*
X161996380Y-97480476D02*
X161996380Y-98051904D01*
X161996380Y-97766190D02*
X160996380Y-97766190D01*
X161139238Y-97861428D01*
X161234476Y-97956666D01*
X161282095Y-98051904D01*
X160996380Y-97147142D02*
X160996380Y-96480476D01*
X161996380Y-96909047D01*
X144851380Y-99956857D02*
X144375190Y-100290190D01*
X144851380Y-100528285D02*
X143851380Y-100528285D01*
X143851380Y-100147333D01*
X143899000Y-100052095D01*
X143946619Y-100004476D01*
X144041857Y-99956857D01*
X144184714Y-99956857D01*
X144279952Y-100004476D01*
X144327571Y-100052095D01*
X144375190Y-100147333D01*
X144375190Y-100528285D01*
X144851380Y-99004476D02*
X144851380Y-99575904D01*
X144851380Y-99290190D02*
X143851380Y-99290190D01*
X143994238Y-99385428D01*
X144089476Y-99480666D01*
X144137095Y-99575904D01*
X143851380Y-98099714D02*
X143851380Y-98575904D01*
X144327571Y-98623523D01*
X144279952Y-98575904D01*
X144232333Y-98480666D01*
X144232333Y-98242571D01*
X144279952Y-98147333D01*
X144327571Y-98099714D01*
X144422809Y-98052095D01*
X144660904Y-98052095D01*
X144756142Y-98099714D01*
X144803761Y-98147333D01*
X144851380Y-98242571D01*
X144851380Y-98480666D01*
X144803761Y-98575904D01*
X144756142Y-98623523D01*
X157297380Y-104401857D02*
X156821190Y-104735190D01*
X157297380Y-104973285D02*
X156297380Y-104973285D01*
X156297380Y-104592333D01*
X156345000Y-104497095D01*
X156392619Y-104449476D01*
X156487857Y-104401857D01*
X156630714Y-104401857D01*
X156725952Y-104449476D01*
X156773571Y-104497095D01*
X156821190Y-104592333D01*
X156821190Y-104973285D01*
X157297380Y-103449476D02*
X157297380Y-104020904D01*
X157297380Y-103735190D02*
X156297380Y-103735190D01*
X156440238Y-103830428D01*
X156535476Y-103925666D01*
X156583095Y-104020904D01*
X157297380Y-102497095D02*
X157297380Y-103068523D01*
X157297380Y-102782809D02*
X156297380Y-102782809D01*
X156440238Y-102878047D01*
X156535476Y-102973285D01*
X156583095Y-103068523D01*
X160853380Y-108719857D02*
X160377190Y-109053190D01*
X160853380Y-109291285D02*
X159853380Y-109291285D01*
X159853380Y-108910333D01*
X159901000Y-108815095D01*
X159948619Y-108767476D01*
X160043857Y-108719857D01*
X160186714Y-108719857D01*
X160281952Y-108767476D01*
X160329571Y-108815095D01*
X160377190Y-108910333D01*
X160377190Y-109291285D01*
X160853380Y-107767476D02*
X160853380Y-108338904D01*
X160853380Y-108053190D02*
X159853380Y-108053190D01*
X159996238Y-108148428D01*
X160091476Y-108243666D01*
X160139095Y-108338904D01*
X159853380Y-107148428D02*
X159853380Y-107053190D01*
X159901000Y-106957952D01*
X159948619Y-106910333D01*
X160043857Y-106862714D01*
X160234333Y-106815095D01*
X160472428Y-106815095D01*
X160662904Y-106862714D01*
X160758142Y-106910333D01*
X160805761Y-106957952D01*
X160853380Y-107053190D01*
X160853380Y-107148428D01*
X160805761Y-107243666D01*
X160758142Y-107291285D01*
X160662904Y-107338904D01*
X160472428Y-107386523D01*
X160234333Y-107386523D01*
X160043857Y-107338904D01*
X159948619Y-107291285D01*
X159901000Y-107243666D01*
X159853380Y-107148428D01*
X164028380Y-103671666D02*
X163552190Y-104005000D01*
X164028380Y-104243095D02*
X163028380Y-104243095D01*
X163028380Y-103862142D01*
X163076000Y-103766904D01*
X163123619Y-103719285D01*
X163218857Y-103671666D01*
X163361714Y-103671666D01*
X163456952Y-103719285D01*
X163504571Y-103766904D01*
X163552190Y-103862142D01*
X163552190Y-104243095D01*
X163028380Y-103338333D02*
X163028380Y-102719285D01*
X163409333Y-103052619D01*
X163409333Y-102909761D01*
X163456952Y-102814523D01*
X163504571Y-102766904D01*
X163599809Y-102719285D01*
X163837904Y-102719285D01*
X163933142Y-102766904D01*
X163980761Y-102814523D01*
X164028380Y-102909761D01*
X164028380Y-103195476D01*
X163980761Y-103290714D01*
X163933142Y-103338333D01*
X169997380Y-99353666D02*
X169521190Y-99687000D01*
X169997380Y-99925095D02*
X168997380Y-99925095D01*
X168997380Y-99544142D01*
X169045000Y-99448904D01*
X169092619Y-99401285D01*
X169187857Y-99353666D01*
X169330714Y-99353666D01*
X169425952Y-99401285D01*
X169473571Y-99448904D01*
X169521190Y-99544142D01*
X169521190Y-99925095D01*
X169092619Y-98972714D02*
X169045000Y-98925095D01*
X168997380Y-98829857D01*
X168997380Y-98591761D01*
X169045000Y-98496523D01*
X169092619Y-98448904D01*
X169187857Y-98401285D01*
X169283095Y-98401285D01*
X169425952Y-98448904D01*
X169997380Y-99020333D01*
X169997380Y-98401285D01*
X175077380Y-103036666D02*
X174601190Y-103370000D01*
X175077380Y-103608095D02*
X174077380Y-103608095D01*
X174077380Y-103227142D01*
X174125000Y-103131904D01*
X174172619Y-103084285D01*
X174267857Y-103036666D01*
X174410714Y-103036666D01*
X174505952Y-103084285D01*
X174553571Y-103131904D01*
X174601190Y-103227142D01*
X174601190Y-103608095D01*
X175077380Y-102084285D02*
X175077380Y-102655714D01*
X175077380Y-102370000D02*
X174077380Y-102370000D01*
X174220238Y-102465238D01*
X174315476Y-102560476D01*
X174363095Y-102655714D01*
X167203380Y-105830666D02*
X167203380Y-106306857D01*
X166203380Y-106306857D01*
X166298619Y-105544952D02*
X166251000Y-105497333D01*
X166203380Y-105402095D01*
X166203380Y-105164000D01*
X166251000Y-105068761D01*
X166298619Y-105021142D01*
X166393857Y-104973523D01*
X166489095Y-104973523D01*
X166631952Y-105021142D01*
X167203380Y-105592571D01*
X167203380Y-104973523D01*
X173934380Y-109259666D02*
X173934380Y-109735857D01*
X172934380Y-109735857D01*
X173934380Y-108402523D02*
X173934380Y-108973952D01*
X173934380Y-108688238D02*
X172934380Y-108688238D01*
X173077238Y-108783476D01*
X173172476Y-108878714D01*
X173220095Y-108973952D01*
X142089142Y-81033857D02*
X142136761Y-81081476D01*
X142184380Y-81224333D01*
X142184380Y-81319571D01*
X142136761Y-81462428D01*
X142041523Y-81557666D01*
X141946285Y-81605285D01*
X141755809Y-81652904D01*
X141612952Y-81652904D01*
X141422476Y-81605285D01*
X141327238Y-81557666D01*
X141232000Y-81462428D01*
X141184380Y-81319571D01*
X141184380Y-81224333D01*
X141232000Y-81081476D01*
X141279619Y-81033857D01*
X142184380Y-80081476D02*
X142184380Y-80652904D01*
X142184380Y-80367190D02*
X141184380Y-80367190D01*
X141327238Y-80462428D01*
X141422476Y-80557666D01*
X141470095Y-80652904D01*
X141612952Y-79510047D02*
X141565333Y-79605285D01*
X141517714Y-79652904D01*
X141422476Y-79700523D01*
X141374857Y-79700523D01*
X141279619Y-79652904D01*
X141232000Y-79605285D01*
X141184380Y-79510047D01*
X141184380Y-79319571D01*
X141232000Y-79224333D01*
X141279619Y-79176714D01*
X141374857Y-79129095D01*
X141422476Y-79129095D01*
X141517714Y-79176714D01*
X141565333Y-79224333D01*
X141612952Y-79319571D01*
X141612952Y-79510047D01*
X141660571Y-79605285D01*
X141708190Y-79652904D01*
X141803428Y-79700523D01*
X141993904Y-79700523D01*
X142089142Y-79652904D01*
X142136761Y-79605285D01*
X142184380Y-79510047D01*
X142184380Y-79319571D01*
X142136761Y-79224333D01*
X142089142Y-79176714D01*
X141993904Y-79129095D01*
X141803428Y-79129095D01*
X141708190Y-79176714D01*
X141660571Y-79224333D01*
X141612952Y-79319571D01*
X150725142Y-81033857D02*
X150772761Y-81081476D01*
X150820380Y-81224333D01*
X150820380Y-81319571D01*
X150772761Y-81462428D01*
X150677523Y-81557666D01*
X150582285Y-81605285D01*
X150391809Y-81652904D01*
X150248952Y-81652904D01*
X150058476Y-81605285D01*
X149963238Y-81557666D01*
X149868000Y-81462428D01*
X149820380Y-81319571D01*
X149820380Y-81224333D01*
X149868000Y-81081476D01*
X149915619Y-81033857D01*
X150820380Y-80081476D02*
X150820380Y-80652904D01*
X150820380Y-80367190D02*
X149820380Y-80367190D01*
X149963238Y-80462428D01*
X150058476Y-80557666D01*
X150106095Y-80652904D01*
X149820380Y-79224333D02*
X149820380Y-79414809D01*
X149868000Y-79510047D01*
X149915619Y-79557666D01*
X150058476Y-79652904D01*
X150248952Y-79700523D01*
X150629904Y-79700523D01*
X150725142Y-79652904D01*
X150772761Y-79605285D01*
X150820380Y-79510047D01*
X150820380Y-79319571D01*
X150772761Y-79224333D01*
X150725142Y-79176714D01*
X150629904Y-79129095D01*
X150391809Y-79129095D01*
X150296571Y-79176714D01*
X150248952Y-79224333D01*
X150201333Y-79319571D01*
X150201333Y-79510047D01*
X150248952Y-79605285D01*
X150296571Y-79652904D01*
X150391809Y-79700523D01*
X155678142Y-104401857D02*
X155725761Y-104449476D01*
X155773380Y-104592333D01*
X155773380Y-104687571D01*
X155725761Y-104830428D01*
X155630523Y-104925666D01*
X155535285Y-104973285D01*
X155344809Y-105020904D01*
X155201952Y-105020904D01*
X155011476Y-104973285D01*
X154916238Y-104925666D01*
X154821000Y-104830428D01*
X154773380Y-104687571D01*
X154773380Y-104592333D01*
X154821000Y-104449476D01*
X154868619Y-104401857D01*
X155773380Y-103449476D02*
X155773380Y-104020904D01*
X155773380Y-103735190D02*
X154773380Y-103735190D01*
X154916238Y-103830428D01*
X155011476Y-103925666D01*
X155059095Y-104020904D01*
X154773380Y-102544714D02*
X154773380Y-103020904D01*
X155249571Y-103068523D01*
X155201952Y-103020904D01*
X155154333Y-102925666D01*
X155154333Y-102687571D01*
X155201952Y-102592333D01*
X155249571Y-102544714D01*
X155344809Y-102497095D01*
X155582904Y-102497095D01*
X155678142Y-102544714D01*
X155725761Y-102592333D01*
X155773380Y-102687571D01*
X155773380Y-102925666D01*
X155725761Y-103020904D01*
X155678142Y-103068523D01*
X151995142Y-97924857D02*
X152042761Y-97972476D01*
X152090380Y-98115333D01*
X152090380Y-98210571D01*
X152042761Y-98353428D01*
X151947523Y-98448666D01*
X151852285Y-98496285D01*
X151661809Y-98543904D01*
X151518952Y-98543904D01*
X151328476Y-98496285D01*
X151233238Y-98448666D01*
X151138000Y-98353428D01*
X151090380Y-98210571D01*
X151090380Y-98115333D01*
X151138000Y-97972476D01*
X151185619Y-97924857D01*
X152090380Y-96972476D02*
X152090380Y-97543904D01*
X152090380Y-97258190D02*
X151090380Y-97258190D01*
X151233238Y-97353428D01*
X151328476Y-97448666D01*
X151376095Y-97543904D01*
X151423714Y-96115333D02*
X152090380Y-96115333D01*
X151042761Y-96353428D02*
X151757047Y-96591523D01*
X151757047Y-95972476D01*
X151995142Y-85859857D02*
X152042761Y-85907476D01*
X152090380Y-86050333D01*
X152090380Y-86145571D01*
X152042761Y-86288428D01*
X151947523Y-86383666D01*
X151852285Y-86431285D01*
X151661809Y-86478904D01*
X151518952Y-86478904D01*
X151328476Y-86431285D01*
X151233238Y-86383666D01*
X151138000Y-86288428D01*
X151090380Y-86145571D01*
X151090380Y-86050333D01*
X151138000Y-85907476D01*
X151185619Y-85859857D01*
X152090380Y-84907476D02*
X152090380Y-85478904D01*
X152090380Y-85193190D02*
X151090380Y-85193190D01*
X151233238Y-85288428D01*
X151328476Y-85383666D01*
X151376095Y-85478904D01*
X151185619Y-84526523D02*
X151138000Y-84478904D01*
X151090380Y-84383666D01*
X151090380Y-84145571D01*
X151138000Y-84050333D01*
X151185619Y-84002714D01*
X151280857Y-83955095D01*
X151376095Y-83955095D01*
X151518952Y-84002714D01*
X152090380Y-84574142D01*
X152090380Y-83955095D01*
X165330142Y-109513666D02*
X165377761Y-109561285D01*
X165425380Y-109704142D01*
X165425380Y-109799380D01*
X165377761Y-109942238D01*
X165282523Y-110037476D01*
X165187285Y-110085095D01*
X164996809Y-110132714D01*
X164853952Y-110132714D01*
X164663476Y-110085095D01*
X164568238Y-110037476D01*
X164473000Y-109942238D01*
X164425380Y-109799380D01*
X164425380Y-109704142D01*
X164473000Y-109561285D01*
X164520619Y-109513666D01*
X164425380Y-108608904D02*
X164425380Y-109085095D01*
X164901571Y-109132714D01*
X164853952Y-109085095D01*
X164806333Y-108989857D01*
X164806333Y-108751761D01*
X164853952Y-108656523D01*
X164901571Y-108608904D01*
X164996809Y-108561285D01*
X165234904Y-108561285D01*
X165330142Y-108608904D01*
X165377761Y-108656523D01*
X165425380Y-108751761D01*
X165425380Y-108989857D01*
X165377761Y-109085095D01*
X165330142Y-109132714D01*
X177268142Y-104560666D02*
X177315761Y-104608285D01*
X177363380Y-104751142D01*
X177363380Y-104846380D01*
X177315761Y-104989238D01*
X177220523Y-105084476D01*
X177125285Y-105132095D01*
X176934809Y-105179714D01*
X176791952Y-105179714D01*
X176601476Y-105132095D01*
X176506238Y-105084476D01*
X176411000Y-104989238D01*
X176363380Y-104846380D01*
X176363380Y-104751142D01*
X176411000Y-104608285D01*
X176458619Y-104560666D01*
X176696714Y-103703523D02*
X177363380Y-103703523D01*
X176315761Y-103941619D02*
X177030047Y-104179714D01*
X177030047Y-103560666D01*
X173712142Y-103036666D02*
X173759761Y-103084285D01*
X173807380Y-103227142D01*
X173807380Y-103322380D01*
X173759761Y-103465238D01*
X173664523Y-103560476D01*
X173569285Y-103608095D01*
X173378809Y-103655714D01*
X173235952Y-103655714D01*
X173045476Y-103608095D01*
X172950238Y-103560476D01*
X172855000Y-103465238D01*
X172807380Y-103322380D01*
X172807380Y-103227142D01*
X172855000Y-103084285D01*
X172902619Y-103036666D01*
X172807380Y-102703333D02*
X172807380Y-102084285D01*
X173188333Y-102417619D01*
X173188333Y-102274761D01*
X173235952Y-102179523D01*
X173283571Y-102131904D01*
X173378809Y-102084285D01*
X173616904Y-102084285D01*
X173712142Y-102131904D01*
X173759761Y-102179523D01*
X173807380Y-102274761D01*
X173807380Y-102560476D01*
X173759761Y-102655714D01*
X173712142Y-102703333D01*
X175236142Y-107227666D02*
X175283761Y-107275285D01*
X175331380Y-107418142D01*
X175331380Y-107513380D01*
X175283761Y-107656238D01*
X175188523Y-107751476D01*
X175093285Y-107799095D01*
X174902809Y-107846714D01*
X174759952Y-107846714D01*
X174569476Y-107799095D01*
X174474238Y-107751476D01*
X174379000Y-107656238D01*
X174331380Y-107513380D01*
X174331380Y-107418142D01*
X174379000Y-107275285D01*
X174426619Y-107227666D01*
X174426619Y-106846714D02*
X174379000Y-106799095D01*
X174331380Y-106703857D01*
X174331380Y-106465761D01*
X174379000Y-106370523D01*
X174426619Y-106322904D01*
X174521857Y-106275285D01*
X174617095Y-106275285D01*
X174759952Y-106322904D01*
X175331380Y-106894333D01*
X175331380Y-106275285D01*
X174855142Y-111291666D02*
X174902761Y-111339285D01*
X174950380Y-111482142D01*
X174950380Y-111577380D01*
X174902761Y-111720238D01*
X174807523Y-111815476D01*
X174712285Y-111863095D01*
X174521809Y-111910714D01*
X174378952Y-111910714D01*
X174188476Y-111863095D01*
X174093238Y-111815476D01*
X173998000Y-111720238D01*
X173950380Y-111577380D01*
X173950380Y-111482142D01*
X173998000Y-111339285D01*
X174045619Y-111291666D01*
X174950380Y-110339285D02*
X174950380Y-110910714D01*
X174950380Y-110625000D02*
X173950380Y-110625000D01*
X174093238Y-110720238D01*
X174188476Y-110815476D01*
X174236095Y-110910714D01*
X142438380Y-86621857D02*
X141962190Y-86955190D01*
X142438380Y-87193285D02*
X141438380Y-87193285D01*
X141438380Y-86812333D01*
X141486000Y-86717095D01*
X141533619Y-86669476D01*
X141628857Y-86621857D01*
X141771714Y-86621857D01*
X141866952Y-86669476D01*
X141914571Y-86717095D01*
X141962190Y-86812333D01*
X141962190Y-87193285D01*
X142438380Y-85669476D02*
X142438380Y-86240904D01*
X142438380Y-85955190D02*
X141438380Y-85955190D01*
X141581238Y-86050428D01*
X141676476Y-86145666D01*
X141724095Y-86240904D01*
X141438380Y-84812333D02*
X141438380Y-85002809D01*
X141486000Y-85098047D01*
X141533619Y-85145666D01*
X141676476Y-85240904D01*
X141866952Y-85288523D01*
X142247904Y-85288523D01*
X142343142Y-85240904D01*
X142390761Y-85193285D01*
X142438380Y-85098047D01*
X142438380Y-84907571D01*
X142390761Y-84812333D01*
X142343142Y-84764714D01*
X142247904Y-84717095D01*
X142009809Y-84717095D01*
X141914571Y-84764714D01*
X141866952Y-84812333D01*
X141819333Y-84907571D01*
X141819333Y-85098047D01*
X141866952Y-85193285D01*
X141914571Y-85240904D01*
X142009809Y-85288523D01*
X149169380Y-116720857D02*
X148693190Y-117054190D01*
X149169380Y-117292285D02*
X148169380Y-117292285D01*
X148169380Y-116911333D01*
X148217000Y-116816095D01*
X148264619Y-116768476D01*
X148359857Y-116720857D01*
X148502714Y-116720857D01*
X148597952Y-116768476D01*
X148645571Y-116816095D01*
X148693190Y-116911333D01*
X148693190Y-117292285D01*
X149169380Y-115768476D02*
X149169380Y-116339904D01*
X149169380Y-116054190D02*
X148169380Y-116054190D01*
X148312238Y-116149428D01*
X148407476Y-116244666D01*
X148455095Y-116339904D01*
X148264619Y-115387523D02*
X148217000Y-115339904D01*
X148169380Y-115244666D01*
X148169380Y-115006571D01*
X148217000Y-114911333D01*
X148264619Y-114863714D01*
X148359857Y-114816095D01*
X148455095Y-114816095D01*
X148597952Y-114863714D01*
X149169380Y-115435142D01*
X149169380Y-114816095D01*
X152598380Y-100845857D02*
X152122190Y-101179190D01*
X152598380Y-101417285D02*
X151598380Y-101417285D01*
X151598380Y-101036333D01*
X151646000Y-100941095D01*
X151693619Y-100893476D01*
X151788857Y-100845857D01*
X151931714Y-100845857D01*
X152026952Y-100893476D01*
X152074571Y-100941095D01*
X152122190Y-101036333D01*
X152122190Y-101417285D01*
X152598380Y-99893476D02*
X152598380Y-100464904D01*
X152598380Y-100179190D02*
X151598380Y-100179190D01*
X151741238Y-100274428D01*
X151836476Y-100369666D01*
X151884095Y-100464904D01*
X151931714Y-99036333D02*
X152598380Y-99036333D01*
X151550761Y-99274428D02*
X152265047Y-99512523D01*
X152265047Y-98893476D01*
X153741380Y-87923666D02*
X153265190Y-88257000D01*
X153741380Y-88495095D02*
X152741380Y-88495095D01*
X152741380Y-88114142D01*
X152789000Y-88018904D01*
X152836619Y-87971285D01*
X152931857Y-87923666D01*
X153074714Y-87923666D01*
X153169952Y-87971285D01*
X153217571Y-88018904D01*
X153265190Y-88114142D01*
X153265190Y-88495095D01*
X153169952Y-87352238D02*
X153122333Y-87447476D01*
X153074714Y-87495095D01*
X152979476Y-87542714D01*
X152931857Y-87542714D01*
X152836619Y-87495095D01*
X152789000Y-87447476D01*
X152741380Y-87352238D01*
X152741380Y-87161761D01*
X152789000Y-87066523D01*
X152836619Y-87018904D01*
X152931857Y-86971285D01*
X152979476Y-86971285D01*
X153074714Y-87018904D01*
X153122333Y-87066523D01*
X153169952Y-87161761D01*
X153169952Y-87352238D01*
X153217571Y-87447476D01*
X153265190Y-87495095D01*
X153360428Y-87542714D01*
X153550904Y-87542714D01*
X153646142Y-87495095D01*
X153693761Y-87447476D01*
X153741380Y-87352238D01*
X153741380Y-87161761D01*
X153693761Y-87066523D01*
X153646142Y-87018904D01*
X153550904Y-86971285D01*
X153360428Y-86971285D01*
X153265190Y-87018904D01*
X153217571Y-87066523D01*
X153169952Y-87161761D01*
X153741380Y-95924666D02*
X153265190Y-96258000D01*
X153741380Y-96496095D02*
X152741380Y-96496095D01*
X152741380Y-96115142D01*
X152789000Y-96019904D01*
X152836619Y-95972285D01*
X152931857Y-95924666D01*
X153074714Y-95924666D01*
X153169952Y-95972285D01*
X153217571Y-96019904D01*
X153265190Y-96115142D01*
X153265190Y-96496095D01*
X152741380Y-95591333D02*
X152741380Y-94924666D01*
X153741380Y-95353238D01*
X175728333Y-78239380D02*
X175395000Y-77763190D01*
X175156904Y-78239380D02*
X175156904Y-77239380D01*
X175537857Y-77239380D01*
X175633095Y-77287000D01*
X175680714Y-77334619D01*
X175728333Y-77429857D01*
X175728333Y-77572714D01*
X175680714Y-77667952D01*
X175633095Y-77715571D01*
X175537857Y-77763190D01*
X175156904Y-77763190D01*
X176585476Y-77239380D02*
X176395000Y-77239380D01*
X176299761Y-77287000D01*
X176252142Y-77334619D01*
X176156904Y-77477476D01*
X176109285Y-77667952D01*
X176109285Y-78048904D01*
X176156904Y-78144142D01*
X176204523Y-78191761D01*
X176299761Y-78239380D01*
X176490238Y-78239380D01*
X176585476Y-78191761D01*
X176633095Y-78144142D01*
X176680714Y-78048904D01*
X176680714Y-77810809D01*
X176633095Y-77715571D01*
X176585476Y-77667952D01*
X176490238Y-77620333D01*
X176299761Y-77620333D01*
X176204523Y-77667952D01*
X176156904Y-77715571D01*
X176109285Y-77810809D01*
X159075380Y-108624666D02*
X158599190Y-108958000D01*
X159075380Y-109196095D02*
X158075380Y-109196095D01*
X158075380Y-108815142D01*
X158123000Y-108719904D01*
X158170619Y-108672285D01*
X158265857Y-108624666D01*
X158408714Y-108624666D01*
X158503952Y-108672285D01*
X158551571Y-108719904D01*
X158599190Y-108815142D01*
X158599190Y-109196095D01*
X159075380Y-108148476D02*
X159075380Y-107958000D01*
X159027761Y-107862761D01*
X158980142Y-107815142D01*
X158837285Y-107719904D01*
X158646809Y-107672285D01*
X158265857Y-107672285D01*
X158170619Y-107719904D01*
X158123000Y-107767523D01*
X158075380Y-107862761D01*
X158075380Y-108053238D01*
X158123000Y-108148476D01*
X158170619Y-108196095D01*
X158265857Y-108243714D01*
X158503952Y-108243714D01*
X158599190Y-108196095D01*
X158646809Y-108148476D01*
X158694428Y-108053238D01*
X158694428Y-107862761D01*
X158646809Y-107767523D01*
X158599190Y-107719904D01*
X158503952Y-107672285D01*
X144280000Y-97067571D02*
X144232380Y-97162809D01*
X144232380Y-97305666D01*
X144280000Y-97448523D01*
X144375238Y-97543761D01*
X144470476Y-97591380D01*
X144660952Y-97639000D01*
X144803809Y-97639000D01*
X144994285Y-97591380D01*
X145089523Y-97543761D01*
X145184761Y-97448523D01*
X145232380Y-97305666D01*
X145232380Y-97210428D01*
X145184761Y-97067571D01*
X145137142Y-97019952D01*
X144803809Y-97019952D01*
X144803809Y-97210428D01*
X144946666Y-96639000D02*
X144946666Y-96162809D01*
X145232380Y-96734238D02*
X144232380Y-96400904D01*
X145232380Y-96067571D01*
X145232380Y-95734238D02*
X144232380Y-95734238D01*
X145232380Y-95258047D02*
X144232380Y-95258047D01*
X145232380Y-94686619D01*
X144232380Y-94686619D01*
X150471142Y-86621857D02*
X150518761Y-86669476D01*
X150566380Y-86812333D01*
X150566380Y-86907571D01*
X150518761Y-87050428D01*
X150423523Y-87145666D01*
X150328285Y-87193285D01*
X150137809Y-87240904D01*
X149994952Y-87240904D01*
X149804476Y-87193285D01*
X149709238Y-87145666D01*
X149614000Y-87050428D01*
X149566380Y-86907571D01*
X149566380Y-86812333D01*
X149614000Y-86669476D01*
X149661619Y-86621857D01*
X149661619Y-86240904D02*
X149614000Y-86193285D01*
X149566380Y-86098047D01*
X149566380Y-85859952D01*
X149614000Y-85764714D01*
X149661619Y-85717095D01*
X149756857Y-85669476D01*
X149852095Y-85669476D01*
X149994952Y-85717095D01*
X150566380Y-86288523D01*
X150566380Y-85669476D01*
X149566380Y-85050428D02*
X149566380Y-84955190D01*
X149614000Y-84859952D01*
X149661619Y-84812333D01*
X149756857Y-84764714D01*
X149947333Y-84717095D01*
X150185428Y-84717095D01*
X150375904Y-84764714D01*
X150471142Y-84812333D01*
X150518761Y-84859952D01*
X150566380Y-84955190D01*
X150566380Y-85050428D01*
X150518761Y-85145666D01*
X150471142Y-85193285D01*
X150375904Y-85240904D01*
X150185428Y-85288523D01*
X149947333Y-85288523D01*
X149756857Y-85240904D01*
X149661619Y-85193285D01*
X149614000Y-85145666D01*
X149566380Y-85050428D01*
X159869142Y-92336857D02*
X159916761Y-92384476D01*
X159964380Y-92527333D01*
X159964380Y-92622571D01*
X159916761Y-92765428D01*
X159821523Y-92860666D01*
X159726285Y-92908285D01*
X159535809Y-92955904D01*
X159392952Y-92955904D01*
X159202476Y-92908285D01*
X159107238Y-92860666D01*
X159012000Y-92765428D01*
X158964380Y-92622571D01*
X158964380Y-92527333D01*
X159012000Y-92384476D01*
X159059619Y-92336857D01*
X159964380Y-91384476D02*
X159964380Y-91955904D01*
X159964380Y-91670190D02*
X158964380Y-91670190D01*
X159107238Y-91765428D01*
X159202476Y-91860666D01*
X159250095Y-91955904D01*
X159964380Y-90908285D02*
X159964380Y-90717809D01*
X159916761Y-90622571D01*
X159869142Y-90574952D01*
X159726285Y-90479714D01*
X159535809Y-90432095D01*
X159154857Y-90432095D01*
X159059619Y-90479714D01*
X159012000Y-90527333D01*
X158964380Y-90622571D01*
X158964380Y-90813047D01*
X159012000Y-90908285D01*
X159059619Y-90955904D01*
X159154857Y-91003523D01*
X159392952Y-91003523D01*
X159488190Y-90955904D01*
X159535809Y-90908285D01*
X159583428Y-90813047D01*
X159583428Y-90622571D01*
X159535809Y-90527333D01*
X159488190Y-90479714D01*
X159392952Y-90432095D01*
X164695142Y-92336857D02*
X164742761Y-92384476D01*
X164790380Y-92527333D01*
X164790380Y-92622571D01*
X164742761Y-92765428D01*
X164647523Y-92860666D01*
X164552285Y-92908285D01*
X164361809Y-92955904D01*
X164218952Y-92955904D01*
X164028476Y-92908285D01*
X163933238Y-92860666D01*
X163838000Y-92765428D01*
X163790380Y-92622571D01*
X163790380Y-92527333D01*
X163838000Y-92384476D01*
X163885619Y-92336857D01*
X164790380Y-91384476D02*
X164790380Y-91955904D01*
X164790380Y-91670190D02*
X163790380Y-91670190D01*
X163933238Y-91765428D01*
X164028476Y-91860666D01*
X164076095Y-91955904D01*
X163790380Y-91051142D02*
X163790380Y-90384476D01*
X164790380Y-90813047D01*
X153646142Y-116720857D02*
X153693761Y-116768476D01*
X153741380Y-116911333D01*
X153741380Y-117006571D01*
X153693761Y-117149428D01*
X153598523Y-117244666D01*
X153503285Y-117292285D01*
X153312809Y-117339904D01*
X153169952Y-117339904D01*
X152979476Y-117292285D01*
X152884238Y-117244666D01*
X152789000Y-117149428D01*
X152741380Y-117006571D01*
X152741380Y-116911333D01*
X152789000Y-116768476D01*
X152836619Y-116720857D01*
X153741380Y-115768476D02*
X153741380Y-116339904D01*
X153741380Y-116054190D02*
X152741380Y-116054190D01*
X152884238Y-116149428D01*
X152979476Y-116244666D01*
X153027095Y-116339904D01*
X153741380Y-114816095D02*
X153741380Y-115387523D01*
X153741380Y-115101809D02*
X152741380Y-115101809D01*
X152884238Y-115197047D01*
X152979476Y-115292285D01*
X153027095Y-115387523D01*
X139898380Y-109021238D02*
X139422190Y-109354571D01*
X139898380Y-109592666D02*
X138898380Y-109592666D01*
X138898380Y-109211714D01*
X138946000Y-109116476D01*
X138993619Y-109068857D01*
X139088857Y-109021238D01*
X139231714Y-109021238D01*
X139326952Y-109068857D01*
X139374571Y-109116476D01*
X139422190Y-109211714D01*
X139422190Y-109592666D01*
X139612666Y-108640285D02*
X139612666Y-108164095D01*
X139898380Y-108735523D02*
X138898380Y-108402190D01*
X139898380Y-108068857D01*
X138898380Y-107830761D02*
X139898380Y-107592666D01*
X139184095Y-107402190D01*
X139898380Y-107211714D01*
X138898380Y-106973619D01*
X139993619Y-106830761D02*
X139993619Y-106068857D01*
X139374571Y-105830761D02*
X139374571Y-105497428D01*
X139898380Y-105354571D02*
X139898380Y-105830761D01*
X138898380Y-105830761D01*
X138898380Y-105354571D01*
X139898380Y-104926000D02*
X138898380Y-104926000D01*
X139612666Y-104592666D01*
X138898380Y-104259333D01*
X139898380Y-104259333D01*
X138946000Y-103259333D02*
X138898380Y-103354571D01*
X138898380Y-103497428D01*
X138946000Y-103640285D01*
X139041238Y-103735523D01*
X139136476Y-103783142D01*
X139326952Y-103830761D01*
X139469809Y-103830761D01*
X139660285Y-103783142D01*
X139755523Y-103735523D01*
X139850761Y-103640285D01*
X139898380Y-103497428D01*
X139898380Y-103402190D01*
X139850761Y-103259333D01*
X139803142Y-103211714D01*
X139469809Y-103211714D01*
X139469809Y-103402190D01*
X141708142Y-89193666D02*
X141755761Y-89241285D01*
X141803380Y-89384142D01*
X141803380Y-89479380D01*
X141755761Y-89622238D01*
X141660523Y-89717476D01*
X141565285Y-89765095D01*
X141374809Y-89812714D01*
X141231952Y-89812714D01*
X141041476Y-89765095D01*
X140946238Y-89717476D01*
X140851000Y-89622238D01*
X140803380Y-89479380D01*
X140803380Y-89384142D01*
X140851000Y-89241285D01*
X140898619Y-89193666D01*
X141231952Y-88622238D02*
X141184333Y-88717476D01*
X141136714Y-88765095D01*
X141041476Y-88812714D01*
X140993857Y-88812714D01*
X140898619Y-88765095D01*
X140851000Y-88717476D01*
X140803380Y-88622238D01*
X140803380Y-88431761D01*
X140851000Y-88336523D01*
X140898619Y-88288904D01*
X140993857Y-88241285D01*
X141041476Y-88241285D01*
X141136714Y-88288904D01*
X141184333Y-88336523D01*
X141231952Y-88431761D01*
X141231952Y-88622238D01*
X141279571Y-88717476D01*
X141327190Y-88765095D01*
X141422428Y-88812714D01*
X141612904Y-88812714D01*
X141708142Y-88765095D01*
X141755761Y-88717476D01*
X141803380Y-88622238D01*
X141803380Y-88431761D01*
X141755761Y-88336523D01*
X141708142Y-88288904D01*
X141612904Y-88241285D01*
X141422428Y-88241285D01*
X141327190Y-88288904D01*
X141279571Y-88336523D01*
X141231952Y-88431761D01*
X159973190Y-78573380D02*
X160592238Y-78573380D01*
X160258904Y-78954333D01*
X160401761Y-78954333D01*
X160497000Y-79001952D01*
X160544619Y-79049571D01*
X160592238Y-79144809D01*
X160592238Y-79382904D01*
X160544619Y-79478142D01*
X160497000Y-79525761D01*
X160401761Y-79573380D01*
X160116047Y-79573380D01*
X160020809Y-79525761D01*
X159973190Y-79478142D01*
X161020809Y-79478142D02*
X161068428Y-79525761D01*
X161020809Y-79573380D01*
X160973190Y-79525761D01*
X161020809Y-79478142D01*
X161020809Y-79573380D01*
X161973190Y-78573380D02*
X161497000Y-78573380D01*
X161449380Y-79049571D01*
X161497000Y-79001952D01*
X161592238Y-78954333D01*
X161830333Y-78954333D01*
X161925571Y-79001952D01*
X161973190Y-79049571D01*
X162020809Y-79144809D01*
X162020809Y-79382904D01*
X161973190Y-79478142D01*
X161925571Y-79525761D01*
X161830333Y-79573380D01*
X161592238Y-79573380D01*
X161497000Y-79525761D01*
X161449380Y-79478142D01*
X162449380Y-79573380D02*
X162449380Y-78906714D01*
X162449380Y-79001952D02*
X162497000Y-78954333D01*
X162592238Y-78906714D01*
X162735095Y-78906714D01*
X162830333Y-78954333D01*
X162877952Y-79049571D01*
X162877952Y-79573380D01*
X162877952Y-79049571D02*
X162925571Y-78954333D01*
X163020809Y-78906714D01*
X163163666Y-78906714D01*
X163258904Y-78954333D01*
X163306523Y-79049571D01*
X163306523Y-79573380D01*
X163782714Y-79573380D02*
X163782714Y-78906714D01*
X163782714Y-79001952D02*
X163830333Y-78954333D01*
X163925571Y-78906714D01*
X164068428Y-78906714D01*
X164163666Y-78954333D01*
X164211285Y-79049571D01*
X164211285Y-79573380D01*
X164211285Y-79049571D02*
X164258904Y-78954333D01*
X164354142Y-78906714D01*
X164497000Y-78906714D01*
X164592238Y-78954333D01*
X164639857Y-79049571D01*
X164639857Y-79573380D01*
X165877952Y-79049571D02*
X166211285Y-79049571D01*
X166354142Y-79573380D02*
X165877952Y-79573380D01*
X165877952Y-78573380D01*
X166354142Y-78573380D01*
X166782714Y-79573380D02*
X166782714Y-78573380D01*
X167116047Y-79287666D01*
X167449380Y-78573380D01*
X167449380Y-79573380D01*
X168449380Y-78621000D02*
X168354142Y-78573380D01*
X168211285Y-78573380D01*
X168068428Y-78621000D01*
X167973190Y-78716238D01*
X167925571Y-78811476D01*
X167877952Y-79001952D01*
X167877952Y-79144809D01*
X167925571Y-79335285D01*
X167973190Y-79430523D01*
X168068428Y-79525761D01*
X168211285Y-79573380D01*
X168306523Y-79573380D01*
X168449380Y-79525761D01*
X168497000Y-79478142D01*
X168497000Y-79144809D01*
X168306523Y-79144809D01*
X170258904Y-79478142D02*
X170211285Y-79525761D01*
X170068428Y-79573380D01*
X169973190Y-79573380D01*
X169830333Y-79525761D01*
X169735095Y-79430523D01*
X169687476Y-79335285D01*
X169639857Y-79144809D01*
X169639857Y-79001952D01*
X169687476Y-78811476D01*
X169735095Y-78716238D01*
X169830333Y-78621000D01*
X169973190Y-78573380D01*
X170068428Y-78573380D01*
X170211285Y-78621000D01*
X170258904Y-78668619D01*
X170830333Y-79573380D02*
X170735095Y-79525761D01*
X170687476Y-79478142D01*
X170639857Y-79382904D01*
X170639857Y-79097190D01*
X170687476Y-79001952D01*
X170735095Y-78954333D01*
X170830333Y-78906714D01*
X170973190Y-78906714D01*
X171068428Y-78954333D01*
X171116047Y-79001952D01*
X171163666Y-79097190D01*
X171163666Y-79382904D01*
X171116047Y-79478142D01*
X171068428Y-79525761D01*
X170973190Y-79573380D01*
X170830333Y-79573380D01*
X171592238Y-78906714D02*
X171592238Y-79573380D01*
X171592238Y-79001952D02*
X171639857Y-78954333D01*
X171735095Y-78906714D01*
X171877952Y-78906714D01*
X171973190Y-78954333D01*
X172020809Y-79049571D01*
X172020809Y-79573380D01*
X172497000Y-78906714D02*
X172497000Y-79573380D01*
X172497000Y-79001952D02*
X172544619Y-78954333D01*
X172639857Y-78906714D01*
X172782714Y-78906714D01*
X172877952Y-78954333D01*
X172925571Y-79049571D01*
X172925571Y-79573380D01*
X161108000Y-112704571D02*
X161441333Y-112704571D01*
X161584190Y-113228380D02*
X161108000Y-113228380D01*
X161108000Y-112228380D01*
X161584190Y-112228380D01*
X162012761Y-113228380D02*
X162012761Y-112228380D01*
X162346095Y-112942666D01*
X162679428Y-112228380D01*
X162679428Y-113228380D01*
X163679428Y-112276000D02*
X163584190Y-112228380D01*
X163441333Y-112228380D01*
X163298476Y-112276000D01*
X163203238Y-112371238D01*
X163155619Y-112466476D01*
X163108000Y-112656952D01*
X163108000Y-112799809D01*
X163155619Y-112990285D01*
X163203238Y-113085523D01*
X163298476Y-113180761D01*
X163441333Y-113228380D01*
X163536571Y-113228380D01*
X163679428Y-113180761D01*
X163727047Y-113133142D01*
X163727047Y-112799809D01*
X163536571Y-112799809D01*
X165108000Y-112228380D02*
X165298476Y-112228380D01*
X165393714Y-112276000D01*
X165488952Y-112371238D01*
X165536571Y-112561714D01*
X165536571Y-112895047D01*
X165488952Y-113085523D01*
X165393714Y-113180761D01*
X165298476Y-113228380D01*
X165108000Y-113228380D01*
X165012761Y-113180761D01*
X164917523Y-113085523D01*
X164869904Y-112895047D01*
X164869904Y-112561714D01*
X164917523Y-112371238D01*
X165012761Y-112276000D01*
X165108000Y-112228380D01*
X165965142Y-112228380D02*
X165965142Y-113037904D01*
X166012761Y-113133142D01*
X166060380Y-113180761D01*
X166155619Y-113228380D01*
X166346095Y-113228380D01*
X166441333Y-113180761D01*
X166488952Y-113133142D01*
X166536571Y-113037904D01*
X166536571Y-112228380D01*
X166869904Y-112228380D02*
X167441333Y-112228380D01*
X167155619Y-113228380D02*
X167155619Y-112228380D01*
X167774666Y-113228380D02*
X167774666Y-112228380D01*
X168155619Y-112228380D01*
X168250857Y-112276000D01*
X168298476Y-112323619D01*
X168346095Y-112418857D01*
X168346095Y-112561714D01*
X168298476Y-112656952D01*
X168250857Y-112704571D01*
X168155619Y-112752190D01*
X167774666Y-112752190D01*
X168774666Y-112228380D02*
X168774666Y-113037904D01*
X168822285Y-113133142D01*
X168869904Y-113180761D01*
X168965142Y-113228380D01*
X169155619Y-113228380D01*
X169250857Y-113180761D01*
X169298476Y-113133142D01*
X169346095Y-113037904D01*
X169346095Y-112228380D01*
X169679428Y-112228380D02*
X170250857Y-112228380D01*
X169965142Y-113228380D02*
X169965142Y-112228380D01*
X155392380Y-96178666D02*
X154916190Y-96512000D01*
X155392380Y-96750095D02*
X154392380Y-96750095D01*
X154392380Y-96369142D01*
X154440000Y-96273904D01*
X154487619Y-96226285D01*
X154582857Y-96178666D01*
X154725714Y-96178666D01*
X154820952Y-96226285D01*
X154868571Y-96273904D01*
X154916190Y-96369142D01*
X154916190Y-96750095D01*
X154725714Y-95321523D02*
X155392380Y-95321523D01*
X154344761Y-95559619D02*
X155059047Y-95797714D01*
X155059047Y-95178666D01*
X155392380Y-87923666D02*
X154916190Y-88257000D01*
X155392380Y-88495095D02*
X154392380Y-88495095D01*
X154392380Y-88114142D01*
X154440000Y-88018904D01*
X154487619Y-87971285D01*
X154582857Y-87923666D01*
X154725714Y-87923666D01*
X154820952Y-87971285D01*
X154868571Y-88018904D01*
X154916190Y-88114142D01*
X154916190Y-88495095D01*
X154392380Y-87018904D02*
X154392380Y-87495095D01*
X154868571Y-87542714D01*
X154820952Y-87495095D01*
X154773333Y-87399857D01*
X154773333Y-87161761D01*
X154820952Y-87066523D01*
X154868571Y-87018904D01*
X154963809Y-86971285D01*
X155201904Y-86971285D01*
X155297142Y-87018904D01*
X155344761Y-87066523D01*
X155392380Y-87161761D01*
X155392380Y-87399857D01*
X155344761Y-87495095D01*
X155297142Y-87542714D01*
X145359380Y-111640857D02*
X144883190Y-111974190D01*
X145359380Y-112212285D02*
X144359380Y-112212285D01*
X144359380Y-111831333D01*
X144407000Y-111736095D01*
X144454619Y-111688476D01*
X144549857Y-111640857D01*
X144692714Y-111640857D01*
X144787952Y-111688476D01*
X144835571Y-111736095D01*
X144883190Y-111831333D01*
X144883190Y-112212285D01*
X145359380Y-110688476D02*
X145359380Y-111259904D01*
X145359380Y-110974190D02*
X144359380Y-110974190D01*
X144502238Y-111069428D01*
X144597476Y-111164666D01*
X144645095Y-111259904D01*
X144359380Y-110355142D02*
X144359380Y-109736095D01*
X144740333Y-110069428D01*
X144740333Y-109926571D01*
X144787952Y-109831333D01*
X144835571Y-109783714D01*
X144930809Y-109736095D01*
X145168904Y-109736095D01*
X145264142Y-109783714D01*
X145311761Y-109831333D01*
X145359380Y-109926571D01*
X145359380Y-110212285D01*
X145311761Y-110307523D01*
X145264142Y-110355142D01*
X147296142Y-89193666D02*
X147343761Y-89241285D01*
X147391380Y-89384142D01*
X147391380Y-89479380D01*
X147343761Y-89622238D01*
X147248523Y-89717476D01*
X147153285Y-89765095D01*
X146962809Y-89812714D01*
X146819952Y-89812714D01*
X146629476Y-89765095D01*
X146534238Y-89717476D01*
X146439000Y-89622238D01*
X146391380Y-89479380D01*
X146391380Y-89384142D01*
X146439000Y-89241285D01*
X146486619Y-89193666D01*
X146391380Y-88336523D02*
X146391380Y-88527000D01*
X146439000Y-88622238D01*
X146486619Y-88669857D01*
X146629476Y-88765095D01*
X146819952Y-88812714D01*
X147200904Y-88812714D01*
X147296142Y-88765095D01*
X147343761Y-88717476D01*
X147391380Y-88622238D01*
X147391380Y-88431761D01*
X147343761Y-88336523D01*
X147296142Y-88288904D01*
X147200904Y-88241285D01*
X146962809Y-88241285D01*
X146867571Y-88288904D01*
X146819952Y-88336523D01*
X146772333Y-88431761D01*
X146772333Y-88622238D01*
X146819952Y-88717476D01*
X146867571Y-88765095D01*
X146962809Y-88812714D01*
X147169142Y-103925666D02*
X147216761Y-103973285D01*
X147264380Y-104116142D01*
X147264380Y-104211380D01*
X147216761Y-104354238D01*
X147121523Y-104449476D01*
X147026285Y-104497095D01*
X146835809Y-104544714D01*
X146692952Y-104544714D01*
X146502476Y-104497095D01*
X146407238Y-104449476D01*
X146312000Y-104354238D01*
X146264380Y-104211380D01*
X146264380Y-104116142D01*
X146312000Y-103973285D01*
X146359619Y-103925666D01*
X147264380Y-103449476D02*
X147264380Y-103259000D01*
X147216761Y-103163761D01*
X147169142Y-103116142D01*
X147026285Y-103020904D01*
X146835809Y-102973285D01*
X146454857Y-102973285D01*
X146359619Y-103020904D01*
X146312000Y-103068523D01*
X146264380Y-103163761D01*
X146264380Y-103354238D01*
X146312000Y-103449476D01*
X146359619Y-103497095D01*
X146454857Y-103544714D01*
X146692952Y-103544714D01*
X146788190Y-103497095D01*
X146835809Y-103449476D01*
X146883428Y-103354238D01*
X146883428Y-103163761D01*
X146835809Y-103068523D01*
X146788190Y-103020904D01*
X146692952Y-102973285D01*
X156313142Y-114434857D02*
X156360761Y-114482476D01*
X156408380Y-114625333D01*
X156408380Y-114720571D01*
X156360761Y-114863428D01*
X156265523Y-114958666D01*
X156170285Y-115006285D01*
X155979809Y-115053904D01*
X155836952Y-115053904D01*
X155646476Y-115006285D01*
X155551238Y-114958666D01*
X155456000Y-114863428D01*
X155408380Y-114720571D01*
X155408380Y-114625333D01*
X155456000Y-114482476D01*
X155503619Y-114434857D01*
X156408380Y-113482476D02*
X156408380Y-114053904D01*
X156408380Y-113768190D02*
X155408380Y-113768190D01*
X155551238Y-113863428D01*
X155646476Y-113958666D01*
X155694095Y-114053904D01*
X155408380Y-112863428D02*
X155408380Y-112768190D01*
X155456000Y-112672952D01*
X155503619Y-112625333D01*
X155598857Y-112577714D01*
X155789333Y-112530095D01*
X156027428Y-112530095D01*
X156217904Y-112577714D01*
X156313142Y-112625333D01*
X156360761Y-112672952D01*
X156408380Y-112768190D01*
X156408380Y-112863428D01*
X156360761Y-112958666D01*
X156313142Y-113006285D01*
X156217904Y-113053904D01*
X156027428Y-113101523D01*
X155789333Y-113101523D01*
X155598857Y-113053904D01*
X155503619Y-113006285D01*
X155456000Y-112958666D01*
X155408380Y-112863428D01*
X159329380Y-124563095D02*
X158329380Y-124563095D01*
X158329380Y-124182142D01*
X158377000Y-124086904D01*
X158424619Y-124039285D01*
X158519857Y-123991666D01*
X158662714Y-123991666D01*
X158757952Y-124039285D01*
X158805571Y-124086904D01*
X158853190Y-124182142D01*
X158853190Y-124563095D01*
X159329380Y-123039285D02*
X159329380Y-123610714D01*
X159329380Y-123325000D02*
X158329380Y-123325000D01*
X158472238Y-123420238D01*
X158567476Y-123515476D01*
X158615095Y-123610714D01*
X176855380Y-124690095D02*
X175855380Y-124690095D01*
X175855380Y-124309142D01*
X175903000Y-124213904D01*
X175950619Y-124166285D01*
X176045857Y-124118666D01*
X176188714Y-124118666D01*
X176283952Y-124166285D01*
X176331571Y-124213904D01*
X176379190Y-124309142D01*
X176379190Y-124690095D01*
X175950619Y-123737714D02*
X175903000Y-123690095D01*
X175855380Y-123594857D01*
X175855380Y-123356761D01*
X175903000Y-123261523D01*
X175950619Y-123213904D01*
X176045857Y-123166285D01*
X176141095Y-123166285D01*
X176283952Y-123213904D01*
X176855380Y-123785333D01*
X176855380Y-123166285D01*
X155011380Y-76303095D02*
X154011380Y-76303095D01*
X154011380Y-75922142D01*
X154059000Y-75826904D01*
X154106619Y-75779285D01*
X154201857Y-75731666D01*
X154344714Y-75731666D01*
X154439952Y-75779285D01*
X154487571Y-75826904D01*
X154535190Y-75922142D01*
X154535190Y-76303095D01*
X154011380Y-75398333D02*
X154011380Y-74779285D01*
X154392333Y-75112619D01*
X154392333Y-74969761D01*
X154439952Y-74874523D01*
X154487571Y-74826904D01*
X154582809Y-74779285D01*
X154820904Y-74779285D01*
X154916142Y-74826904D01*
X154963761Y-74874523D01*
X155011380Y-74969761D01*
X155011380Y-75255476D01*
X154963761Y-75350714D01*
X154916142Y-75398333D01*
X176855380Y-76430095D02*
X175855380Y-76430095D01*
X175855380Y-76049142D01*
X175903000Y-75953904D01*
X175950619Y-75906285D01*
X176045857Y-75858666D01*
X176188714Y-75858666D01*
X176283952Y-75906285D01*
X176331571Y-75953904D01*
X176379190Y-76049142D01*
X176379190Y-76430095D01*
X176188714Y-75001523D02*
X176855380Y-75001523D01*
X175807761Y-75239619D02*
X176522047Y-75477714D01*
X176522047Y-74858666D01*
%LPC*%
D15*
X134366000Y-114808000D03*
X134366000Y-122758000D03*
X129866000Y-114808000D03*
X129866000Y-122758000D03*
G36*
G01*
X165248000Y-99397000D02*
X164698000Y-99397000D01*
G75*
G02*
X164498000Y-99197000I0J200000D01*
G01*
X164498000Y-98797000D01*
G75*
G02*
X164698000Y-98597000I200000J0D01*
G01*
X165248000Y-98597000D01*
G75*
G02*
X165448000Y-98797000I0J-200000D01*
G01*
X165448000Y-99197000D01*
G75*
G02*
X165248000Y-99397000I-200000J0D01*
G01*
G37*
G36*
G01*
X165248000Y-101047000D02*
X164698000Y-101047000D01*
G75*
G02*
X164498000Y-100847000I0J200000D01*
G01*
X164498000Y-100447000D01*
G75*
G02*
X164698000Y-100247000I200000J0D01*
G01*
X165248000Y-100247000D01*
G75*
G02*
X165448000Y-100447000I0J-200000D01*
G01*
X165448000Y-100847000D01*
G75*
G02*
X165248000Y-101047000I-200000J0D01*
G01*
G37*
D16*
X163195000Y-100395000D03*
X163195000Y-98995000D03*
D17*
X177673000Y-94869000D03*
G36*
G01*
X150678000Y-113034000D02*
X150678000Y-113534000D01*
G75*
G02*
X150453000Y-113759000I-225000J0D01*
G01*
X150003000Y-113759000D01*
G75*
G02*
X149778000Y-113534000I0J225000D01*
G01*
X149778000Y-113034000D01*
G75*
G02*
X150003000Y-112809000I225000J0D01*
G01*
X150453000Y-112809000D01*
G75*
G02*
X150678000Y-113034000I0J-225000D01*
G01*
G37*
G36*
G01*
X152228000Y-113034000D02*
X152228000Y-113534000D01*
G75*
G02*
X152003000Y-113759000I-225000J0D01*
G01*
X151553000Y-113759000D01*
G75*
G02*
X151328000Y-113534000I0J225000D01*
G01*
X151328000Y-113034000D01*
G75*
G02*
X151553000Y-112809000I225000J0D01*
G01*
X152003000Y-112809000D01*
G75*
G02*
X152228000Y-113034000I0J-225000D01*
G01*
G37*
D18*
X173228000Y-95377000D03*
D13*
G36*
X172478602Y-94077000D02*
G01*
X172478602Y-94052466D01*
X172483412Y-94003635D01*
X172492984Y-93955510D01*
X172507228Y-93908555D01*
X172526005Y-93863222D01*
X172549136Y-93819949D01*
X172576396Y-93779150D01*
X172607524Y-93741221D01*
X172642221Y-93706524D01*
X172680150Y-93675396D01*
X172720949Y-93648136D01*
X172764222Y-93625005D01*
X172809555Y-93606228D01*
X172856510Y-93591984D01*
X172904635Y-93582412D01*
X172953466Y-93577602D01*
X172978000Y-93577602D01*
X172978000Y-93577000D01*
X173478000Y-93577000D01*
X173478000Y-93577602D01*
X173502534Y-93577602D01*
X173551365Y-93582412D01*
X173599490Y-93591984D01*
X173646445Y-93606228D01*
X173691778Y-93625005D01*
X173735051Y-93648136D01*
X173775850Y-93675396D01*
X173813779Y-93706524D01*
X173848476Y-93741221D01*
X173879604Y-93779150D01*
X173906864Y-93819949D01*
X173929995Y-93863222D01*
X173948772Y-93908555D01*
X173963016Y-93955510D01*
X173972588Y-94003635D01*
X173977398Y-94052466D01*
X173977398Y-94077000D01*
X173978000Y-94077000D01*
X173978000Y-94627000D01*
X172478000Y-94627000D01*
X172478000Y-94077000D01*
X172478602Y-94077000D01*
G37*
G36*
X173978000Y-96127000D02*
G01*
X173978000Y-96677000D01*
X173977398Y-96677000D01*
X173977398Y-96701534D01*
X173972588Y-96750365D01*
X173963016Y-96798490D01*
X173948772Y-96845445D01*
X173929995Y-96890778D01*
X173906864Y-96934051D01*
X173879604Y-96974850D01*
X173848476Y-97012779D01*
X173813779Y-97047476D01*
X173775850Y-97078604D01*
X173735051Y-97105864D01*
X173691778Y-97128995D01*
X173646445Y-97147772D01*
X173599490Y-97162016D01*
X173551365Y-97171588D01*
X173502534Y-97176398D01*
X173478000Y-97176398D01*
X173478000Y-97177000D01*
X172978000Y-97177000D01*
X172978000Y-97176398D01*
X172953466Y-97176398D01*
X172904635Y-97171588D01*
X172856510Y-97162016D01*
X172809555Y-97147772D01*
X172764222Y-97128995D01*
X172720949Y-97105864D01*
X172680150Y-97078604D01*
X172642221Y-97047476D01*
X172607524Y-97012779D01*
X172576396Y-96974850D01*
X172549136Y-96934051D01*
X172526005Y-96890778D01*
X172507228Y-96845445D01*
X172492984Y-96798490D01*
X172483412Y-96750365D01*
X172478602Y-96701534D01*
X172478602Y-96677000D01*
X172478000Y-96677000D01*
X172478000Y-96127000D01*
X173978000Y-96127000D01*
G37*
G36*
G01*
X166209000Y-93740000D02*
X166209000Y-93540000D01*
G75*
G02*
X166309000Y-93440000I100000J0D01*
G01*
X167584000Y-93440000D01*
G75*
G02*
X167684000Y-93540000I0J-100000D01*
G01*
X167684000Y-93740000D01*
G75*
G02*
X167584000Y-93840000I-100000J0D01*
G01*
X166309000Y-93840000D01*
G75*
G02*
X166209000Y-93740000I0J100000D01*
G01*
G37*
G36*
G01*
X166209000Y-94390000D02*
X166209000Y-94190000D01*
G75*
G02*
X166309000Y-94090000I100000J0D01*
G01*
X167584000Y-94090000D01*
G75*
G02*
X167684000Y-94190000I0J-100000D01*
G01*
X167684000Y-94390000D01*
G75*
G02*
X167584000Y-94490000I-100000J0D01*
G01*
X166309000Y-94490000D01*
G75*
G02*
X166209000Y-94390000I0J100000D01*
G01*
G37*
G36*
G01*
X166209000Y-95040000D02*
X166209000Y-94840000D01*
G75*
G02*
X166309000Y-94740000I100000J0D01*
G01*
X167584000Y-94740000D01*
G75*
G02*
X167684000Y-94840000I0J-100000D01*
G01*
X167684000Y-95040000D01*
G75*
G02*
X167584000Y-95140000I-100000J0D01*
G01*
X166309000Y-95140000D01*
G75*
G02*
X166209000Y-95040000I0J100000D01*
G01*
G37*
G36*
G01*
X166209000Y-95690000D02*
X166209000Y-95490000D01*
G75*
G02*
X166309000Y-95390000I100000J0D01*
G01*
X167584000Y-95390000D01*
G75*
G02*
X167684000Y-95490000I0J-100000D01*
G01*
X167684000Y-95690000D01*
G75*
G02*
X167584000Y-95790000I-100000J0D01*
G01*
X166309000Y-95790000D01*
G75*
G02*
X166209000Y-95690000I0J100000D01*
G01*
G37*
G36*
G01*
X160484000Y-95690000D02*
X160484000Y-95490000D01*
G75*
G02*
X160584000Y-95390000I100000J0D01*
G01*
X161859000Y-95390000D01*
G75*
G02*
X161959000Y-95490000I0J-100000D01*
G01*
X161959000Y-95690000D01*
G75*
G02*
X161859000Y-95790000I-100000J0D01*
G01*
X160584000Y-95790000D01*
G75*
G02*
X160484000Y-95690000I0J100000D01*
G01*
G37*
G36*
G01*
X160484000Y-95040000D02*
X160484000Y-94840000D01*
G75*
G02*
X160584000Y-94740000I100000J0D01*
G01*
X161859000Y-94740000D01*
G75*
G02*
X161959000Y-94840000I0J-100000D01*
G01*
X161959000Y-95040000D01*
G75*
G02*
X161859000Y-95140000I-100000J0D01*
G01*
X160584000Y-95140000D01*
G75*
G02*
X160484000Y-95040000I0J100000D01*
G01*
G37*
G36*
G01*
X160484000Y-94390000D02*
X160484000Y-94190000D01*
G75*
G02*
X160584000Y-94090000I100000J0D01*
G01*
X161859000Y-94090000D01*
G75*
G02*
X161959000Y-94190000I0J-100000D01*
G01*
X161959000Y-94390000D01*
G75*
G02*
X161859000Y-94490000I-100000J0D01*
G01*
X160584000Y-94490000D01*
G75*
G02*
X160484000Y-94390000I0J100000D01*
G01*
G37*
G36*
G01*
X160484000Y-93740000D02*
X160484000Y-93540000D01*
G75*
G02*
X160584000Y-93440000I100000J0D01*
G01*
X161859000Y-93440000D01*
G75*
G02*
X161959000Y-93540000I0J-100000D01*
G01*
X161959000Y-93740000D01*
G75*
G02*
X161859000Y-93840000I-100000J0D01*
G01*
X160584000Y-93840000D01*
G75*
G02*
X160484000Y-93740000I0J100000D01*
G01*
G37*
D19*
X148250000Y-82210000D03*
X148250000Y-82860000D03*
X148250000Y-83510000D03*
X148250000Y-84160000D03*
X143850000Y-84160000D03*
X143850000Y-83510000D03*
X143850000Y-82860000D03*
X143850000Y-82210000D03*
X148803000Y-111465000D03*
X148803000Y-110815000D03*
X148803000Y-110165000D03*
X148803000Y-109515000D03*
X153203000Y-109515000D03*
X153203000Y-110165000D03*
X153203000Y-110815000D03*
X153203000Y-111465000D03*
G36*
G01*
X145972000Y-93071000D02*
X144522000Y-93071000D01*
G75*
G02*
X144472000Y-93021000I0J50000D01*
G01*
X144472000Y-92571000D01*
G75*
G02*
X144522000Y-92521000I50000J0D01*
G01*
X145972000Y-92521000D01*
G75*
G02*
X146022000Y-92571000I0J-50000D01*
G01*
X146022000Y-93021000D01*
G75*
G02*
X145972000Y-93071000I-50000J0D01*
G01*
G37*
G36*
G01*
X145972000Y-92421000D02*
X144522000Y-92421000D01*
G75*
G02*
X144472000Y-92371000I0J50000D01*
G01*
X144472000Y-91921000D01*
G75*
G02*
X144522000Y-91871000I50000J0D01*
G01*
X145972000Y-91871000D01*
G75*
G02*
X146022000Y-91921000I0J-50000D01*
G01*
X146022000Y-92371000D01*
G75*
G02*
X145972000Y-92421000I-50000J0D01*
G01*
G37*
G36*
G01*
X145972000Y-91771000D02*
X144522000Y-91771000D01*
G75*
G02*
X144472000Y-91721000I0J50000D01*
G01*
X144472000Y-91271000D01*
G75*
G02*
X144522000Y-91221000I50000J0D01*
G01*
X145972000Y-91221000D01*
G75*
G02*
X146022000Y-91271000I0J-50000D01*
G01*
X146022000Y-91721000D01*
G75*
G02*
X145972000Y-91771000I-50000J0D01*
G01*
G37*
G36*
G01*
X145972000Y-91121000D02*
X144522000Y-91121000D01*
G75*
G02*
X144472000Y-91071000I0J50000D01*
G01*
X144472000Y-90621000D01*
G75*
G02*
X144522000Y-90571000I50000J0D01*
G01*
X145972000Y-90571000D01*
G75*
G02*
X146022000Y-90621000I0J-50000D01*
G01*
X146022000Y-91071000D01*
G75*
G02*
X145972000Y-91121000I-50000J0D01*
G01*
G37*
G36*
G01*
X150372000Y-91121000D02*
X148922000Y-91121000D01*
G75*
G02*
X148872000Y-91071000I0J50000D01*
G01*
X148872000Y-90621000D01*
G75*
G02*
X148922000Y-90571000I50000J0D01*
G01*
X150372000Y-90571000D01*
G75*
G02*
X150422000Y-90621000I0J-50000D01*
G01*
X150422000Y-91071000D01*
G75*
G02*
X150372000Y-91121000I-50000J0D01*
G01*
G37*
G36*
G01*
X150372000Y-91771000D02*
X148922000Y-91771000D01*
G75*
G02*
X148872000Y-91721000I0J50000D01*
G01*
X148872000Y-91271000D01*
G75*
G02*
X148922000Y-91221000I50000J0D01*
G01*
X150372000Y-91221000D01*
G75*
G02*
X150422000Y-91271000I0J-50000D01*
G01*
X150422000Y-91721000D01*
G75*
G02*
X150372000Y-91771000I-50000J0D01*
G01*
G37*
G36*
G01*
X150372000Y-92421000D02*
X148922000Y-92421000D01*
G75*
G02*
X148872000Y-92371000I0J50000D01*
G01*
X148872000Y-91921000D01*
G75*
G02*
X148922000Y-91871000I50000J0D01*
G01*
X150372000Y-91871000D01*
G75*
G02*
X150422000Y-91921000I0J-50000D01*
G01*
X150422000Y-92371000D01*
G75*
G02*
X150372000Y-92421000I-50000J0D01*
G01*
G37*
G36*
G01*
X150372000Y-93071000D02*
X148922000Y-93071000D01*
G75*
G02*
X148872000Y-93021000I0J50000D01*
G01*
X148872000Y-92571000D01*
G75*
G02*
X148922000Y-92521000I50000J0D01*
G01*
X150372000Y-92521000D01*
G75*
G02*
X150422000Y-92571000I0J-50000D01*
G01*
X150422000Y-93021000D01*
G75*
G02*
X150372000Y-93071000I-50000J0D01*
G01*
G37*
D20*
X169251000Y-104963000D03*
X169251000Y-104013000D03*
X169251000Y-103063000D03*
X171871000Y-103063000D03*
X171871000Y-104013000D03*
X171871000Y-104963000D03*
D19*
X153203000Y-105578000D03*
X153203000Y-106228000D03*
X153203000Y-106878000D03*
X153203000Y-107528000D03*
X148803000Y-107528000D03*
X148803000Y-106878000D03*
X148803000Y-106228000D03*
X148803000Y-105578000D03*
D17*
X167259000Y-110109000D03*
X177673000Y-98298000D03*
G36*
G01*
X168762000Y-95167000D02*
X169312000Y-95167000D01*
G75*
G02*
X169512000Y-95367000I0J-200000D01*
G01*
X169512000Y-95767000D01*
G75*
G02*
X169312000Y-95967000I-200000J0D01*
G01*
X168762000Y-95967000D01*
G75*
G02*
X168562000Y-95767000I0J200000D01*
G01*
X168562000Y-95367000D01*
G75*
G02*
X168762000Y-95167000I200000J0D01*
G01*
G37*
G36*
G01*
X168762000Y-93517000D02*
X169312000Y-93517000D01*
G75*
G02*
X169512000Y-93717000I0J-200000D01*
G01*
X169512000Y-94117000D01*
G75*
G02*
X169312000Y-94317000I-200000J0D01*
G01*
X168762000Y-94317000D01*
G75*
G02*
X168562000Y-94117000I0J200000D01*
G01*
X168562000Y-93717000D01*
G75*
G02*
X168762000Y-93517000I200000J0D01*
G01*
G37*
G36*
G01*
X171090000Y-94317000D02*
X170540000Y-94317000D01*
G75*
G02*
X170340000Y-94117000I0J200000D01*
G01*
X170340000Y-93717000D01*
G75*
G02*
X170540000Y-93517000I200000J0D01*
G01*
X171090000Y-93517000D01*
G75*
G02*
X171290000Y-93717000I0J-200000D01*
G01*
X171290000Y-94117000D01*
G75*
G02*
X171090000Y-94317000I-200000J0D01*
G01*
G37*
G36*
G01*
X171090000Y-95967000D02*
X170540000Y-95967000D01*
G75*
G02*
X170340000Y-95767000I0J200000D01*
G01*
X170340000Y-95367000D01*
G75*
G02*
X170540000Y-95167000I200000J0D01*
G01*
X171090000Y-95167000D01*
G75*
G02*
X171290000Y-95367000I0J-200000D01*
G01*
X171290000Y-95767000D01*
G75*
G02*
X171090000Y-95967000I-200000J0D01*
G01*
G37*
G36*
G01*
X163532000Y-97134000D02*
X163532000Y-97684000D01*
G75*
G02*
X163332000Y-97884000I-200000J0D01*
G01*
X162932000Y-97884000D01*
G75*
G02*
X162732000Y-97684000I0J200000D01*
G01*
X162732000Y-97134000D01*
G75*
G02*
X162932000Y-96934000I200000J0D01*
G01*
X163332000Y-96934000D01*
G75*
G02*
X163532000Y-97134000I0J-200000D01*
G01*
G37*
G36*
G01*
X165182000Y-97134000D02*
X165182000Y-97684000D01*
G75*
G02*
X164982000Y-97884000I-200000J0D01*
G01*
X164582000Y-97884000D01*
G75*
G02*
X164382000Y-97684000I0J200000D01*
G01*
X164382000Y-97134000D01*
G75*
G02*
X164582000Y-96934000I200000J0D01*
G01*
X164982000Y-96934000D01*
G75*
G02*
X165182000Y-97134000I0J-200000D01*
G01*
G37*
G36*
G01*
X146133000Y-99039000D02*
X146133000Y-99589000D01*
G75*
G02*
X145933000Y-99789000I-200000J0D01*
G01*
X145533000Y-99789000D01*
G75*
G02*
X145333000Y-99589000I0J200000D01*
G01*
X145333000Y-99039000D01*
G75*
G02*
X145533000Y-98839000I200000J0D01*
G01*
X145933000Y-98839000D01*
G75*
G02*
X146133000Y-99039000I0J-200000D01*
G01*
G37*
G36*
G01*
X147783000Y-99039000D02*
X147783000Y-99589000D01*
G75*
G02*
X147583000Y-99789000I-200000J0D01*
G01*
X147183000Y-99789000D01*
G75*
G02*
X146983000Y-99589000I0J200000D01*
G01*
X146983000Y-99039000D01*
G75*
G02*
X147183000Y-98839000I200000J0D01*
G01*
X147583000Y-98839000D01*
G75*
G02*
X147783000Y-99039000I0J-200000D01*
G01*
G37*
G36*
G01*
X157120000Y-106255000D02*
X156570000Y-106255000D01*
G75*
G02*
X156370000Y-106055000I0J200000D01*
G01*
X156370000Y-105655000D01*
G75*
G02*
X156570000Y-105455000I200000J0D01*
G01*
X157120000Y-105455000D01*
G75*
G02*
X157320000Y-105655000I0J-200000D01*
G01*
X157320000Y-106055000D01*
G75*
G02*
X157120000Y-106255000I-200000J0D01*
G01*
G37*
G36*
G01*
X157120000Y-107905000D02*
X156570000Y-107905000D01*
G75*
G02*
X156370000Y-107705000I0J200000D01*
G01*
X156370000Y-107305000D01*
G75*
G02*
X156570000Y-107105000I200000J0D01*
G01*
X157120000Y-107105000D01*
G75*
G02*
X157320000Y-107305000I0J-200000D01*
G01*
X157320000Y-107705000D01*
G75*
G02*
X157120000Y-107905000I-200000J0D01*
G01*
G37*
G36*
G01*
X160126000Y-111423000D02*
X160676000Y-111423000D01*
G75*
G02*
X160876000Y-111623000I0J-200000D01*
G01*
X160876000Y-112023000D01*
G75*
G02*
X160676000Y-112223000I-200000J0D01*
G01*
X160126000Y-112223000D01*
G75*
G02*
X159926000Y-112023000I0J200000D01*
G01*
X159926000Y-111623000D01*
G75*
G02*
X160126000Y-111423000I200000J0D01*
G01*
G37*
G36*
G01*
X160126000Y-109773000D02*
X160676000Y-109773000D01*
G75*
G02*
X160876000Y-109973000I0J-200000D01*
G01*
X160876000Y-110373000D01*
G75*
G02*
X160676000Y-110573000I-200000J0D01*
G01*
X160126000Y-110573000D01*
G75*
G02*
X159926000Y-110373000I0J200000D01*
G01*
X159926000Y-109973000D01*
G75*
G02*
X160126000Y-109773000I200000J0D01*
G01*
G37*
G36*
G01*
X165248000Y-102572000D02*
X164698000Y-102572000D01*
G75*
G02*
X164498000Y-102372000I0J200000D01*
G01*
X164498000Y-101972000D01*
G75*
G02*
X164698000Y-101772000I200000J0D01*
G01*
X165248000Y-101772000D01*
G75*
G02*
X165448000Y-101972000I0J-200000D01*
G01*
X165448000Y-102372000D01*
G75*
G02*
X165248000Y-102572000I-200000J0D01*
G01*
G37*
G36*
G01*
X165248000Y-104222000D02*
X164698000Y-104222000D01*
G75*
G02*
X164498000Y-104022000I0J200000D01*
G01*
X164498000Y-103622000D01*
G75*
G02*
X164698000Y-103422000I200000J0D01*
G01*
X165248000Y-103422000D01*
G75*
G02*
X165448000Y-103622000I0J-200000D01*
G01*
X165448000Y-104022000D01*
G75*
G02*
X165248000Y-104222000I-200000J0D01*
G01*
G37*
G36*
G01*
X169945000Y-101542001D02*
X169945000Y-100641999D01*
G75*
G02*
X170194999Y-100392000I249999J0D01*
G01*
X170720001Y-100392000D01*
G75*
G02*
X170970000Y-100641999I0J-249999D01*
G01*
X170970000Y-101542001D01*
G75*
G02*
X170720001Y-101792000I-249999J0D01*
G01*
X170194999Y-101792000D01*
G75*
G02*
X169945000Y-101542001I0J249999D01*
G01*
G37*
G36*
G01*
X168120000Y-101542001D02*
X168120000Y-100641999D01*
G75*
G02*
X168369999Y-100392000I249999J0D01*
G01*
X168895001Y-100392000D01*
G75*
G02*
X169145000Y-100641999I0J-249999D01*
G01*
X169145000Y-101542001D01*
G75*
G02*
X168895001Y-101792000I-249999J0D01*
G01*
X168369999Y-101792000D01*
G75*
G02*
X168120000Y-101542001I0J249999D01*
G01*
G37*
G36*
G01*
X174174999Y-100730000D02*
X175075001Y-100730000D01*
G75*
G02*
X175325000Y-100979999I0J-249999D01*
G01*
X175325000Y-101505001D01*
G75*
G02*
X175075001Y-101755000I-249999J0D01*
G01*
X174174999Y-101755000D01*
G75*
G02*
X173925000Y-101505001I0J249999D01*
G01*
X173925000Y-100979999D01*
G75*
G02*
X174174999Y-100730000I249999J0D01*
G01*
G37*
G36*
G01*
X174174999Y-98905000D02*
X175075001Y-98905000D01*
G75*
G02*
X175325000Y-99154999I0J-249999D01*
G01*
X175325000Y-99680001D01*
G75*
G02*
X175075001Y-99930000I-249999J0D01*
G01*
X174174999Y-99930000D01*
G75*
G02*
X173925000Y-99680001I0J249999D01*
G01*
X173925000Y-99154999D01*
G75*
G02*
X174174999Y-98905000I249999J0D01*
G01*
G37*
G36*
G01*
X167132250Y-102372000D02*
X166369750Y-102372000D01*
G75*
G02*
X166151000Y-102153250I0J218750D01*
G01*
X166151000Y-101715750D01*
G75*
G02*
X166369750Y-101497000I218750J0D01*
G01*
X167132250Y-101497000D01*
G75*
G02*
X167351000Y-101715750I0J-218750D01*
G01*
X167351000Y-102153250D01*
G75*
G02*
X167132250Y-102372000I-218750J0D01*
G01*
G37*
G36*
G01*
X167132250Y-104497000D02*
X166369750Y-104497000D01*
G75*
G02*
X166151000Y-104278250I0J218750D01*
G01*
X166151000Y-103840750D01*
G75*
G02*
X166369750Y-103622000I218750J0D01*
G01*
X167132250Y-103622000D01*
G75*
G02*
X167351000Y-103840750I0J-218750D01*
G01*
X167351000Y-104278250D01*
G75*
G02*
X167132250Y-104497000I-218750J0D01*
G01*
G37*
G36*
G01*
X171440000Y-109474250D02*
X171440000Y-108711750D01*
G75*
G02*
X171658750Y-108493000I218750J0D01*
G01*
X172096250Y-108493000D01*
G75*
G02*
X172315000Y-108711750I0J-218750D01*
G01*
X172315000Y-109474250D01*
G75*
G02*
X172096250Y-109693000I-218750J0D01*
G01*
X171658750Y-109693000D01*
G75*
G02*
X171440000Y-109474250I0J218750D01*
G01*
G37*
G36*
G01*
X169315000Y-109474250D02*
X169315000Y-108711750D01*
G75*
G02*
X169533750Y-108493000I218750J0D01*
G01*
X169971250Y-108493000D01*
G75*
G02*
X170190000Y-108711750I0J-218750D01*
G01*
X170190000Y-109474250D01*
G75*
G02*
X169971250Y-109693000I-218750J0D01*
G01*
X169533750Y-109693000D01*
G75*
G02*
X169315000Y-109474250I0J218750D01*
G01*
G37*
G36*
G01*
X144343000Y-80641000D02*
X144343000Y-80141000D01*
G75*
G02*
X144568000Y-79916000I225000J0D01*
G01*
X145018000Y-79916000D01*
G75*
G02*
X145243000Y-80141000I0J-225000D01*
G01*
X145243000Y-80641000D01*
G75*
G02*
X145018000Y-80866000I-225000J0D01*
G01*
X144568000Y-80866000D01*
G75*
G02*
X144343000Y-80641000I0J225000D01*
G01*
G37*
G36*
G01*
X142793000Y-80641000D02*
X142793000Y-80141000D01*
G75*
G02*
X143018000Y-79916000I225000J0D01*
G01*
X143468000Y-79916000D01*
G75*
G02*
X143693000Y-80141000I0J-225000D01*
G01*
X143693000Y-80641000D01*
G75*
G02*
X143468000Y-80866000I-225000J0D01*
G01*
X143018000Y-80866000D01*
G75*
G02*
X142793000Y-80641000I0J225000D01*
G01*
G37*
G36*
G01*
X147757000Y-80141000D02*
X147757000Y-80641000D01*
G75*
G02*
X147532000Y-80866000I-225000J0D01*
G01*
X147082000Y-80866000D01*
G75*
G02*
X146857000Y-80641000I0J225000D01*
G01*
X146857000Y-80141000D01*
G75*
G02*
X147082000Y-79916000I225000J0D01*
G01*
X147532000Y-79916000D01*
G75*
G02*
X147757000Y-80141000I0J-225000D01*
G01*
G37*
G36*
G01*
X149307000Y-80141000D02*
X149307000Y-80641000D01*
G75*
G02*
X149082000Y-80866000I-225000J0D01*
G01*
X148632000Y-80866000D01*
G75*
G02*
X148407000Y-80641000I0J225000D01*
G01*
X148407000Y-80141000D01*
G75*
G02*
X148632000Y-79916000I225000J0D01*
G01*
X149082000Y-79916000D01*
G75*
G02*
X149307000Y-80141000I0J-225000D01*
G01*
G37*
G36*
G01*
X152710000Y-103509000D02*
X152710000Y-104009000D01*
G75*
G02*
X152485000Y-104234000I-225000J0D01*
G01*
X152035000Y-104234000D01*
G75*
G02*
X151810000Y-104009000I0J225000D01*
G01*
X151810000Y-103509000D01*
G75*
G02*
X152035000Y-103284000I225000J0D01*
G01*
X152485000Y-103284000D01*
G75*
G02*
X152710000Y-103509000I0J-225000D01*
G01*
G37*
G36*
G01*
X154260000Y-103509000D02*
X154260000Y-104009000D01*
G75*
G02*
X154035000Y-104234000I-225000J0D01*
G01*
X153585000Y-104234000D01*
G75*
G02*
X153360000Y-104009000I0J225000D01*
G01*
X153360000Y-103509000D01*
G75*
G02*
X153585000Y-103284000I225000J0D01*
G01*
X154035000Y-103284000D01*
G75*
G02*
X154260000Y-103509000I0J-225000D01*
G01*
G37*
G36*
G01*
X151888000Y-94163000D02*
X151388000Y-94163000D01*
G75*
G02*
X151163000Y-93938000I0J225000D01*
G01*
X151163000Y-93488000D01*
G75*
G02*
X151388000Y-93263000I225000J0D01*
G01*
X151888000Y-93263000D01*
G75*
G02*
X152113000Y-93488000I0J-225000D01*
G01*
X152113000Y-93938000D01*
G75*
G02*
X151888000Y-94163000I-225000J0D01*
G01*
G37*
G36*
G01*
X151888000Y-95713000D02*
X151388000Y-95713000D01*
G75*
G02*
X151163000Y-95488000I0J225000D01*
G01*
X151163000Y-95038000D01*
G75*
G02*
X151388000Y-94813000I225000J0D01*
G01*
X151888000Y-94813000D01*
G75*
G02*
X152113000Y-95038000I0J-225000D01*
G01*
X152113000Y-95488000D01*
G75*
G02*
X151888000Y-95713000I-225000J0D01*
G01*
G37*
G36*
G01*
X151888000Y-90988000D02*
X151388000Y-90988000D01*
G75*
G02*
X151163000Y-90763000I0J225000D01*
G01*
X151163000Y-90313000D01*
G75*
G02*
X151388000Y-90088000I225000J0D01*
G01*
X151888000Y-90088000D01*
G75*
G02*
X152113000Y-90313000I0J-225000D01*
G01*
X152113000Y-90763000D01*
G75*
G02*
X151888000Y-90988000I-225000J0D01*
G01*
G37*
G36*
G01*
X151888000Y-92538000D02*
X151388000Y-92538000D01*
G75*
G02*
X151163000Y-92313000I0J225000D01*
G01*
X151163000Y-91863000D01*
G75*
G02*
X151388000Y-91638000I225000J0D01*
G01*
X151888000Y-91638000D01*
G75*
G02*
X152113000Y-91863000I0J-225000D01*
G01*
X152113000Y-92313000D01*
G75*
G02*
X151888000Y-92538000I-225000J0D01*
G01*
G37*
G36*
G01*
X151888000Y-87813000D02*
X151388000Y-87813000D01*
G75*
G02*
X151163000Y-87588000I0J225000D01*
G01*
X151163000Y-87138000D01*
G75*
G02*
X151388000Y-86913000I225000J0D01*
G01*
X151888000Y-86913000D01*
G75*
G02*
X152113000Y-87138000I0J-225000D01*
G01*
X152113000Y-87588000D01*
G75*
G02*
X151888000Y-87813000I-225000J0D01*
G01*
G37*
G36*
G01*
X151888000Y-89363000D02*
X151388000Y-89363000D01*
G75*
G02*
X151163000Y-89138000I0J225000D01*
G01*
X151163000Y-88688000D01*
G75*
G02*
X151388000Y-88463000I225000J0D01*
G01*
X151888000Y-88463000D01*
G75*
G02*
X152113000Y-88688000I0J-225000D01*
G01*
X152113000Y-89138000D01*
G75*
G02*
X151888000Y-89363000I-225000J0D01*
G01*
G37*
G36*
G01*
X164498000Y-107130000D02*
X165448000Y-107130000D01*
G75*
G02*
X165698000Y-107380000I0J-250000D01*
G01*
X165698000Y-107880000D01*
G75*
G02*
X165448000Y-108130000I-250000J0D01*
G01*
X164498000Y-108130000D01*
G75*
G02*
X164248000Y-107880000I0J250000D01*
G01*
X164248000Y-107380000D01*
G75*
G02*
X164498000Y-107130000I250000J0D01*
G01*
G37*
G36*
G01*
X164498000Y-105230000D02*
X165448000Y-105230000D01*
G75*
G02*
X165698000Y-105480000I0J-250000D01*
G01*
X165698000Y-105980000D01*
G75*
G02*
X165448000Y-106230000I-250000J0D01*
G01*
X164498000Y-106230000D01*
G75*
G02*
X164248000Y-105980000I0J250000D01*
G01*
X164248000Y-105480000D01*
G75*
G02*
X164498000Y-105230000I250000J0D01*
G01*
G37*
G36*
G01*
X176436000Y-102238000D02*
X177386000Y-102238000D01*
G75*
G02*
X177636000Y-102488000I0J-250000D01*
G01*
X177636000Y-102988000D01*
G75*
G02*
X177386000Y-103238000I-250000J0D01*
G01*
X176436000Y-103238000D01*
G75*
G02*
X176186000Y-102988000I0J250000D01*
G01*
X176186000Y-102488000D01*
G75*
G02*
X176436000Y-102238000I250000J0D01*
G01*
G37*
G36*
G01*
X176436000Y-100338000D02*
X177386000Y-100338000D01*
G75*
G02*
X177636000Y-100588000I0J-250000D01*
G01*
X177636000Y-101088000D01*
G75*
G02*
X177386000Y-101338000I-250000J0D01*
G01*
X176436000Y-101338000D01*
G75*
G02*
X176186000Y-101088000I0J250000D01*
G01*
X176186000Y-100588000D01*
G75*
G02*
X176436000Y-100338000I250000J0D01*
G01*
G37*
G36*
G01*
X171991000Y-100780000D02*
X172941000Y-100780000D01*
G75*
G02*
X173191000Y-101030000I0J-250000D01*
G01*
X173191000Y-101530000D01*
G75*
G02*
X172941000Y-101780000I-250000J0D01*
G01*
X171991000Y-101780000D01*
G75*
G02*
X171741000Y-101530000I0J250000D01*
G01*
X171741000Y-101030000D01*
G75*
G02*
X171991000Y-100780000I250000J0D01*
G01*
G37*
G36*
G01*
X171991000Y-98880000D02*
X172941000Y-98880000D01*
G75*
G02*
X173191000Y-99130000I0J-250000D01*
G01*
X173191000Y-99630000D01*
G75*
G02*
X172941000Y-99880000I-250000J0D01*
G01*
X171991000Y-99880000D01*
G75*
G02*
X171741000Y-99630000I0J250000D01*
G01*
X171741000Y-99130000D01*
G75*
G02*
X171991000Y-98880000I250000J0D01*
G01*
G37*
G36*
G01*
X172662000Y-107536000D02*
X172662000Y-106586000D01*
G75*
G02*
X172912000Y-106336000I250000J0D01*
G01*
X173412000Y-106336000D01*
G75*
G02*
X173662000Y-106586000I0J-250000D01*
G01*
X173662000Y-107536000D01*
G75*
G02*
X173412000Y-107786000I-250000J0D01*
G01*
X172912000Y-107786000D01*
G75*
G02*
X172662000Y-107536000I0J250000D01*
G01*
G37*
G36*
G01*
X170762000Y-107536000D02*
X170762000Y-106586000D01*
G75*
G02*
X171012000Y-106336000I250000J0D01*
G01*
X171512000Y-106336000D01*
G75*
G02*
X171762000Y-106586000I0J-250000D01*
G01*
X171762000Y-107536000D01*
G75*
G02*
X171512000Y-107786000I-250000J0D01*
G01*
X171012000Y-107786000D01*
G75*
G02*
X170762000Y-107536000I0J250000D01*
G01*
G37*
G36*
G01*
X172027000Y-111600000D02*
X172027000Y-110650000D01*
G75*
G02*
X172277000Y-110400000I250000J0D01*
G01*
X172777000Y-110400000D01*
G75*
G02*
X173027000Y-110650000I0J-250000D01*
G01*
X173027000Y-111600000D01*
G75*
G02*
X172777000Y-111850000I-250000J0D01*
G01*
X172277000Y-111850000D01*
G75*
G02*
X172027000Y-111600000I0J250000D01*
G01*
G37*
G36*
G01*
X170127000Y-111600000D02*
X170127000Y-110650000D01*
G75*
G02*
X170377000Y-110400000I250000J0D01*
G01*
X170877000Y-110400000D01*
G75*
G02*
X171127000Y-110650000I0J-250000D01*
G01*
X171127000Y-111600000D01*
G75*
G02*
X170877000Y-111850000I-250000J0D01*
G01*
X170377000Y-111850000D01*
G75*
G02*
X170127000Y-111600000I0J250000D01*
G01*
G37*
G36*
G01*
X144925600Y-86279400D02*
X144925600Y-85729400D01*
G75*
G02*
X145125600Y-85529400I200000J0D01*
G01*
X145525600Y-85529400D01*
G75*
G02*
X145725600Y-85729400I0J-200000D01*
G01*
X145725600Y-86279400D01*
G75*
G02*
X145525600Y-86479400I-200000J0D01*
G01*
X145125600Y-86479400D01*
G75*
G02*
X144925600Y-86279400I0J200000D01*
G01*
G37*
G36*
G01*
X143275600Y-86279400D02*
X143275600Y-85729400D01*
G75*
G02*
X143475600Y-85529400I200000J0D01*
G01*
X143875600Y-85529400D01*
G75*
G02*
X144075600Y-85729400I0J-200000D01*
G01*
X144075600Y-86279400D01*
G75*
G02*
X143875600Y-86479400I-200000J0D01*
G01*
X143475600Y-86479400D01*
G75*
G02*
X143275600Y-86279400I0J200000D01*
G01*
G37*
G36*
G01*
X150389000Y-115653000D02*
X149839000Y-115653000D01*
G75*
G02*
X149639000Y-115453000I0J200000D01*
G01*
X149639000Y-115053000D01*
G75*
G02*
X149839000Y-114853000I200000J0D01*
G01*
X150389000Y-114853000D01*
G75*
G02*
X150589000Y-115053000I0J-200000D01*
G01*
X150589000Y-115453000D01*
G75*
G02*
X150389000Y-115653000I-200000J0D01*
G01*
G37*
G36*
G01*
X150389000Y-117303000D02*
X149839000Y-117303000D01*
G75*
G02*
X149639000Y-117103000I0J200000D01*
G01*
X149639000Y-116703000D01*
G75*
G02*
X149839000Y-116503000I200000J0D01*
G01*
X150389000Y-116503000D01*
G75*
G02*
X150589000Y-116703000I0J-200000D01*
G01*
X150589000Y-117103000D01*
G75*
G02*
X150389000Y-117303000I-200000J0D01*
G01*
G37*
G36*
G01*
X149435000Y-99039000D02*
X149435000Y-99589000D01*
G75*
G02*
X149235000Y-99789000I-200000J0D01*
G01*
X148835000Y-99789000D01*
G75*
G02*
X148635000Y-99589000I0J200000D01*
G01*
X148635000Y-99039000D01*
G75*
G02*
X148835000Y-98839000I200000J0D01*
G01*
X149235000Y-98839000D01*
G75*
G02*
X149435000Y-99039000I0J-200000D01*
G01*
G37*
G36*
G01*
X151085000Y-99039000D02*
X151085000Y-99589000D01*
G75*
G02*
X150885000Y-99789000I-200000J0D01*
G01*
X150485000Y-99789000D01*
G75*
G02*
X150285000Y-99589000I0J200000D01*
G01*
X150285000Y-99039000D01*
G75*
G02*
X150485000Y-98839000I200000J0D01*
G01*
X150885000Y-98839000D01*
G75*
G02*
X151085000Y-99039000I0J-200000D01*
G01*
G37*
G36*
G01*
X153564000Y-89745000D02*
X153014000Y-89745000D01*
G75*
G02*
X152814000Y-89545000I0J200000D01*
G01*
X152814000Y-89145000D01*
G75*
G02*
X153014000Y-88945000I200000J0D01*
G01*
X153564000Y-88945000D01*
G75*
G02*
X153764000Y-89145000I0J-200000D01*
G01*
X153764000Y-89545000D01*
G75*
G02*
X153564000Y-89745000I-200000J0D01*
G01*
G37*
G36*
G01*
X153564000Y-91395000D02*
X153014000Y-91395000D01*
G75*
G02*
X152814000Y-91195000I0J200000D01*
G01*
X152814000Y-90795000D01*
G75*
G02*
X153014000Y-90595000I200000J0D01*
G01*
X153564000Y-90595000D01*
G75*
G02*
X153764000Y-90795000I0J-200000D01*
G01*
X153764000Y-91195000D01*
G75*
G02*
X153564000Y-91395000I-200000J0D01*
G01*
G37*
G36*
G01*
X153014000Y-93897000D02*
X153564000Y-93897000D01*
G75*
G02*
X153764000Y-94097000I0J-200000D01*
G01*
X153764000Y-94497000D01*
G75*
G02*
X153564000Y-94697000I-200000J0D01*
G01*
X153014000Y-94697000D01*
G75*
G02*
X152814000Y-94497000I0J200000D01*
G01*
X152814000Y-94097000D01*
G75*
G02*
X153014000Y-93897000I200000J0D01*
G01*
G37*
G36*
G01*
X153014000Y-92247000D02*
X153564000Y-92247000D01*
G75*
G02*
X153764000Y-92447000I0J-200000D01*
G01*
X153764000Y-92847000D01*
G75*
G02*
X153564000Y-93047000I-200000J0D01*
G01*
X153014000Y-93047000D01*
G75*
G02*
X152814000Y-92847000I0J200000D01*
G01*
X152814000Y-92447000D01*
G75*
G02*
X153014000Y-92247000I200000J0D01*
G01*
G37*
G36*
G01*
X176170000Y-79585000D02*
X175620000Y-79585000D01*
G75*
G02*
X175420000Y-79385000I0J200000D01*
G01*
X175420000Y-78985000D01*
G75*
G02*
X175620000Y-78785000I200000J0D01*
G01*
X176170000Y-78785000D01*
G75*
G02*
X176370000Y-78985000I0J-200000D01*
G01*
X176370000Y-79385000D01*
G75*
G02*
X176170000Y-79585000I-200000J0D01*
G01*
G37*
G36*
G01*
X176170000Y-81235000D02*
X175620000Y-81235000D01*
G75*
G02*
X175420000Y-81035000I0J200000D01*
G01*
X175420000Y-80635000D01*
G75*
G02*
X175620000Y-80435000I200000J0D01*
G01*
X176170000Y-80435000D01*
G75*
G02*
X176370000Y-80635000I0J-200000D01*
G01*
X176370000Y-81035000D01*
G75*
G02*
X176170000Y-81235000I-200000J0D01*
G01*
G37*
G36*
G01*
X158898000Y-110573000D02*
X158348000Y-110573000D01*
G75*
G02*
X158148000Y-110373000I0J200000D01*
G01*
X158148000Y-109973000D01*
G75*
G02*
X158348000Y-109773000I200000J0D01*
G01*
X158898000Y-109773000D01*
G75*
G02*
X159098000Y-109973000I0J-200000D01*
G01*
X159098000Y-110373000D01*
G75*
G02*
X158898000Y-110573000I-200000J0D01*
G01*
G37*
G36*
G01*
X158898000Y-112223000D02*
X158348000Y-112223000D01*
G75*
G02*
X158148000Y-112023000I0J200000D01*
G01*
X158148000Y-111623000D01*
G75*
G02*
X158348000Y-111423000I200000J0D01*
G01*
X158898000Y-111423000D01*
G75*
G02*
X159098000Y-111623000I0J-200000D01*
G01*
X159098000Y-112023000D01*
G75*
G02*
X158898000Y-112223000I-200000J0D01*
G01*
G37*
D21*
X146409000Y-97139000D03*
X146409000Y-95139000D03*
D22*
X149659000Y-96139000D03*
G36*
G01*
X148229200Y-86254400D02*
X148229200Y-85754400D01*
G75*
G02*
X148454200Y-85529400I225000J0D01*
G01*
X148904200Y-85529400D01*
G75*
G02*
X149129200Y-85754400I0J-225000D01*
G01*
X149129200Y-86254400D01*
G75*
G02*
X148904200Y-86479400I-225000J0D01*
G01*
X148454200Y-86479400D01*
G75*
G02*
X148229200Y-86254400I0J225000D01*
G01*
G37*
G36*
G01*
X146679200Y-86254400D02*
X146679200Y-85754400D01*
G75*
G02*
X146904200Y-85529400I225000J0D01*
G01*
X147354200Y-85529400D01*
G75*
G02*
X147579200Y-85754400I0J-225000D01*
G01*
X147579200Y-86254400D01*
G75*
G02*
X147354200Y-86479400I-225000J0D01*
G01*
X146904200Y-86479400D01*
G75*
G02*
X146679200Y-86254400I0J225000D01*
G01*
G37*
G36*
G01*
X161996000Y-92071000D02*
X161996000Y-91571000D01*
G75*
G02*
X162221000Y-91346000I225000J0D01*
G01*
X162671000Y-91346000D01*
G75*
G02*
X162896000Y-91571000I0J-225000D01*
G01*
X162896000Y-92071000D01*
G75*
G02*
X162671000Y-92296000I-225000J0D01*
G01*
X162221000Y-92296000D01*
G75*
G02*
X161996000Y-92071000I0J225000D01*
G01*
G37*
G36*
G01*
X160446000Y-92071000D02*
X160446000Y-91571000D01*
G75*
G02*
X160671000Y-91346000I225000J0D01*
G01*
X161121000Y-91346000D01*
G75*
G02*
X161346000Y-91571000I0J-225000D01*
G01*
X161346000Y-92071000D01*
G75*
G02*
X161121000Y-92296000I-225000J0D01*
G01*
X160671000Y-92296000D01*
G75*
G02*
X160446000Y-92071000I0J225000D01*
G01*
G37*
G36*
G01*
X166172000Y-91571000D02*
X166172000Y-92071000D01*
G75*
G02*
X165947000Y-92296000I-225000J0D01*
G01*
X165497000Y-92296000D01*
G75*
G02*
X165272000Y-92071000I0J225000D01*
G01*
X165272000Y-91571000D01*
G75*
G02*
X165497000Y-91346000I225000J0D01*
G01*
X165947000Y-91346000D01*
G75*
G02*
X166172000Y-91571000I0J-225000D01*
G01*
G37*
G36*
G01*
X167722000Y-91571000D02*
X167722000Y-92071000D01*
G75*
G02*
X167497000Y-92296000I-225000J0D01*
G01*
X167047000Y-92296000D01*
G75*
G02*
X166822000Y-92071000I0J225000D01*
G01*
X166822000Y-91571000D01*
G75*
G02*
X167047000Y-91346000I225000J0D01*
G01*
X167497000Y-91346000D01*
G75*
G02*
X167722000Y-91571000I0J-225000D01*
G01*
G37*
G36*
G01*
X151515000Y-116403000D02*
X152015000Y-116403000D01*
G75*
G02*
X152240000Y-116628000I0J-225000D01*
G01*
X152240000Y-117078000D01*
G75*
G02*
X152015000Y-117303000I-225000J0D01*
G01*
X151515000Y-117303000D01*
G75*
G02*
X151290000Y-117078000I0J225000D01*
G01*
X151290000Y-116628000D01*
G75*
G02*
X151515000Y-116403000I225000J0D01*
G01*
G37*
G36*
G01*
X151515000Y-114853000D02*
X152015000Y-114853000D01*
G75*
G02*
X152240000Y-115078000I0J-225000D01*
G01*
X152240000Y-115528000D01*
G75*
G02*
X152015000Y-115753000I-225000J0D01*
G01*
X151515000Y-115753000D01*
G75*
G02*
X151290000Y-115528000I0J225000D01*
G01*
X151290000Y-115078000D01*
G75*
G02*
X151515000Y-114853000I225000J0D01*
G01*
G37*
D17*
X141859000Y-106426000D03*
G36*
G01*
X143962000Y-89277000D02*
X143962000Y-88777000D01*
G75*
G02*
X144187000Y-88552000I225000J0D01*
G01*
X144637000Y-88552000D01*
G75*
G02*
X144862000Y-88777000I0J-225000D01*
G01*
X144862000Y-89277000D01*
G75*
G02*
X144637000Y-89502000I-225000J0D01*
G01*
X144187000Y-89502000D01*
G75*
G02*
X143962000Y-89277000I0J225000D01*
G01*
G37*
G36*
G01*
X142412000Y-89277000D02*
X142412000Y-88777000D01*
G75*
G02*
X142637000Y-88552000I225000J0D01*
G01*
X143087000Y-88552000D01*
G75*
G02*
X143312000Y-88777000I0J-225000D01*
G01*
X143312000Y-89277000D01*
G75*
G02*
X143087000Y-89502000I-225000J0D01*
G01*
X142637000Y-89502000D01*
G75*
G02*
X142412000Y-89277000I0J225000D01*
G01*
G37*
D23*
X162556000Y-85217000D03*
X169556000Y-85217000D03*
D24*
X161256000Y-81517000D03*
D25*
X170656000Y-81517000D03*
X168656000Y-88917000D03*
D26*
X172720000Y-117475000D03*
X170180000Y-117475000D03*
X167640000Y-117475000D03*
X165100000Y-117475000D03*
X162560000Y-117475000D03*
X160020000Y-117475000D03*
X160020000Y-114935000D03*
X162560000Y-114935000D03*
X165100000Y-114935000D03*
X167640000Y-114935000D03*
X170180000Y-114935000D03*
X172720000Y-114935000D03*
G36*
G01*
X155215000Y-93047000D02*
X154665000Y-93047000D01*
G75*
G02*
X154465000Y-92847000I0J200000D01*
G01*
X154465000Y-92447000D01*
G75*
G02*
X154665000Y-92247000I200000J0D01*
G01*
X155215000Y-92247000D01*
G75*
G02*
X155415000Y-92447000I0J-200000D01*
G01*
X155415000Y-92847000D01*
G75*
G02*
X155215000Y-93047000I-200000J0D01*
G01*
G37*
G36*
G01*
X155215000Y-94697000D02*
X154665000Y-94697000D01*
G75*
G02*
X154465000Y-94497000I0J200000D01*
G01*
X154465000Y-94097000D01*
G75*
G02*
X154665000Y-93897000I200000J0D01*
G01*
X155215000Y-93897000D01*
G75*
G02*
X155415000Y-94097000I0J-200000D01*
G01*
X155415000Y-94497000D01*
G75*
G02*
X155215000Y-94697000I-200000J0D01*
G01*
G37*
G36*
G01*
X154665000Y-90595000D02*
X155215000Y-90595000D01*
G75*
G02*
X155415000Y-90795000I0J-200000D01*
G01*
X155415000Y-91195000D01*
G75*
G02*
X155215000Y-91395000I-200000J0D01*
G01*
X154665000Y-91395000D01*
G75*
G02*
X154465000Y-91195000I0J200000D01*
G01*
X154465000Y-90795000D01*
G75*
G02*
X154665000Y-90595000I200000J0D01*
G01*
G37*
G36*
G01*
X154665000Y-88945000D02*
X155215000Y-88945000D01*
G75*
G02*
X155415000Y-89145000I0J-200000D01*
G01*
X155415000Y-89545000D01*
G75*
G02*
X155215000Y-89745000I-200000J0D01*
G01*
X154665000Y-89745000D01*
G75*
G02*
X154465000Y-89545000I0J200000D01*
G01*
X154465000Y-89145000D01*
G75*
G02*
X154665000Y-88945000I200000J0D01*
G01*
G37*
G36*
G01*
X146156000Y-111423000D02*
X146706000Y-111423000D01*
G75*
G02*
X146906000Y-111623000I0J-200000D01*
G01*
X146906000Y-112023000D01*
G75*
G02*
X146706000Y-112223000I-200000J0D01*
G01*
X146156000Y-112223000D01*
G75*
G02*
X145956000Y-112023000I0J200000D01*
G01*
X145956000Y-111623000D01*
G75*
G02*
X146156000Y-111423000I200000J0D01*
G01*
G37*
G36*
G01*
X146156000Y-109773000D02*
X146706000Y-109773000D01*
G75*
G02*
X146906000Y-109973000I0J-200000D01*
G01*
X146906000Y-110373000D01*
G75*
G02*
X146706000Y-110573000I-200000J0D01*
G01*
X146156000Y-110573000D01*
G75*
G02*
X145956000Y-110373000I0J200000D01*
G01*
X145956000Y-109973000D01*
G75*
G02*
X146156000Y-109773000I200000J0D01*
G01*
G37*
G36*
G01*
X148773000Y-88777000D02*
X148773000Y-89277000D01*
G75*
G02*
X148548000Y-89502000I-225000J0D01*
G01*
X148098000Y-89502000D01*
G75*
G02*
X147873000Y-89277000I0J225000D01*
G01*
X147873000Y-88777000D01*
G75*
G02*
X148098000Y-88552000I225000J0D01*
G01*
X148548000Y-88552000D01*
G75*
G02*
X148773000Y-88777000I0J-225000D01*
G01*
G37*
G36*
G01*
X150323000Y-88777000D02*
X150323000Y-89277000D01*
G75*
G02*
X150098000Y-89502000I-225000J0D01*
G01*
X149648000Y-89502000D01*
G75*
G02*
X149423000Y-89277000I0J225000D01*
G01*
X149423000Y-88777000D01*
G75*
G02*
X149648000Y-88552000I225000J0D01*
G01*
X150098000Y-88552000D01*
G75*
G02*
X150323000Y-88777000I0J-225000D01*
G01*
G37*
G36*
G01*
X149423000Y-104009000D02*
X149423000Y-103509000D01*
G75*
G02*
X149648000Y-103284000I225000J0D01*
G01*
X150098000Y-103284000D01*
G75*
G02*
X150323000Y-103509000I0J-225000D01*
G01*
X150323000Y-104009000D01*
G75*
G02*
X150098000Y-104234000I-225000J0D01*
G01*
X149648000Y-104234000D01*
G75*
G02*
X149423000Y-104009000I0J225000D01*
G01*
G37*
G36*
G01*
X147873000Y-104009000D02*
X147873000Y-103509000D01*
G75*
G02*
X148098000Y-103284000I225000J0D01*
G01*
X148548000Y-103284000D01*
G75*
G02*
X148773000Y-103509000I0J-225000D01*
G01*
X148773000Y-104009000D01*
G75*
G02*
X148548000Y-104234000I-225000J0D01*
G01*
X148098000Y-104234000D01*
G75*
G02*
X147873000Y-104009000I0J225000D01*
G01*
G37*
G36*
G01*
X157095000Y-110673000D02*
X156595000Y-110673000D01*
G75*
G02*
X156370000Y-110448000I0J225000D01*
G01*
X156370000Y-109998000D01*
G75*
G02*
X156595000Y-109773000I225000J0D01*
G01*
X157095000Y-109773000D01*
G75*
G02*
X157320000Y-109998000I0J-225000D01*
G01*
X157320000Y-110448000D01*
G75*
G02*
X157095000Y-110673000I-225000J0D01*
G01*
G37*
G36*
G01*
X157095000Y-112223000D02*
X156595000Y-112223000D01*
G75*
G02*
X156370000Y-111998000I0J225000D01*
G01*
X156370000Y-111548000D01*
G75*
G02*
X156595000Y-111323000I225000J0D01*
G01*
X157095000Y-111323000D01*
G75*
G02*
X157320000Y-111548000I0J-225000D01*
G01*
X157320000Y-111998000D01*
G75*
G02*
X157095000Y-112223000I-225000J0D01*
G01*
G37*
D27*
X138938000Y-123825000D03*
X141478000Y-123825000D03*
X144018000Y-123825000D03*
X146558000Y-123825000D03*
X149098000Y-123825000D03*
X151638000Y-123825000D03*
X154178000Y-123825000D03*
X156718000Y-123825000D03*
X161798000Y-123825000D03*
X164338000Y-123825000D03*
X166878000Y-123825000D03*
X169418000Y-123825000D03*
X171958000Y-123825000D03*
X174498000Y-123825000D03*
X129794000Y-75565000D03*
X132334000Y-75565000D03*
X134874000Y-75565000D03*
X137414000Y-75565000D03*
X139954000Y-75565000D03*
X142494000Y-75565000D03*
X145034000Y-75565000D03*
X147574000Y-75565000D03*
X150114000Y-75565000D03*
X152654000Y-75565000D03*
X156718000Y-75565000D03*
X159258000Y-75565000D03*
X161798000Y-75565000D03*
X164338000Y-75565000D03*
X166878000Y-75565000D03*
X169418000Y-75565000D03*
X171958000Y-75565000D03*
X174498000Y-75565000D03*
D28*
X124968000Y-123825000D03*
X177038000Y-118745000D03*
X126238000Y-75565000D03*
X177038000Y-90805000D03*
M02*
