G04 #@! TF.GenerationSoftware,KiCad,Pcbnew,(5.1.8)-1*
G04 #@! TF.CreationDate,2021-05-07T12:58:46-05:00*
G04 #@! TF.ProjectId,DEVLPR,4445564c-5052-42e6-9b69-6361645f7063,rev?*
G04 #@! TF.SameCoordinates,Original*
G04 #@! TF.FileFunction,Copper,L2,Bot*
G04 #@! TF.FilePolarity,Positive*
%FSLAX46Y46*%
G04 Gerber Fmt 4.6, Leading zero omitted, Abs format (unit mm)*
G04 Created by KiCad (PCBNEW (5.1.8)-1) date 2021-05-07 12:58:46*
%MOMM*%
%LPD*%
G01*
G04 APERTURE LIST*
G04 #@! TA.AperFunction,ComponentPad*
%ADD10C,2.020000*%
G04 #@! TD*
G04 #@! TA.AperFunction,ComponentPad*
%ADD11C,2.000000*%
G04 #@! TD*
G04 #@! TA.AperFunction,ComponentPad*
%ADD12O,1.727200X2.032000*%
G04 #@! TD*
G04 #@! TA.AperFunction,ComponentPad*
%ADD13C,4.064000*%
G04 #@! TD*
G04 #@! TA.AperFunction,ViaPad*
%ADD14C,0.600000*%
G04 #@! TD*
G04 #@! TA.AperFunction,ViaPad*
%ADD15C,0.800000*%
G04 #@! TD*
G04 #@! TA.AperFunction,Conductor*
%ADD16C,0.200000*%
G04 #@! TD*
G04 #@! TA.AperFunction,Conductor*
%ADD17C,0.300000*%
G04 #@! TD*
G04 #@! TA.AperFunction,Conductor*
%ADD18C,0.254000*%
G04 #@! TD*
G04 #@! TA.AperFunction,Conductor*
%ADD19C,0.100000*%
G04 #@! TD*
G04 APERTURE END LIST*
D10*
X165100000Y-90678000D03*
X172466000Y-106934000D03*
X147828000Y-82296000D03*
X148285200Y-90906600D03*
D11*
X172720000Y-118110000D03*
X170180000Y-118110000D03*
X167640000Y-118110000D03*
X165100000Y-118110000D03*
X162560000Y-118110000D03*
X160020000Y-118110000D03*
X160020000Y-115570000D03*
X162560000Y-115570000D03*
X165100000Y-115570000D03*
X167640000Y-115570000D03*
X170180000Y-115570000D03*
X172720000Y-115570000D03*
D12*
X138938000Y-123825000D03*
X141478000Y-123825000D03*
X144018000Y-123825000D03*
X146558000Y-123825000D03*
X149098000Y-123825000D03*
X151638000Y-123825000D03*
X154178000Y-123825000D03*
X156718000Y-123825000D03*
X161798000Y-123825000D03*
X164338000Y-123825000D03*
X166878000Y-123825000D03*
X169418000Y-123825000D03*
X171958000Y-123825000D03*
X174498000Y-123825000D03*
X129794000Y-75565000D03*
X132334000Y-75565000D03*
X134874000Y-75565000D03*
X137414000Y-75565000D03*
X139954000Y-75565000D03*
X142494000Y-75565000D03*
X145034000Y-75565000D03*
X147574000Y-75565000D03*
X150114000Y-75565000D03*
X152654000Y-75565000D03*
X156718000Y-75565000D03*
X159258000Y-75565000D03*
X161798000Y-75565000D03*
X164338000Y-75565000D03*
X166878000Y-75565000D03*
X169418000Y-75565000D03*
X171958000Y-75565000D03*
X174498000Y-75565000D03*
D13*
X124968000Y-123825000D03*
X177038000Y-118745000D03*
X126238000Y-75565000D03*
X177038000Y-90805000D03*
D14*
X124714000Y-87757000D03*
X131318000Y-87503000D03*
X143510000Y-83439000D03*
X135128000Y-83439000D03*
X137160000Y-87376000D03*
X171856400Y-91084400D03*
X128117600Y-103733600D03*
X127203200Y-99466400D03*
X135280400Y-103987600D03*
X133502400Y-102108000D03*
X152654000Y-91490800D03*
X157784800Y-107188000D03*
X151688800Y-108102400D03*
X141020800Y-102616000D03*
X142392400Y-103022400D03*
X143916400Y-111607600D03*
X159054800Y-97002600D03*
X159105600Y-100965000D03*
X148386800Y-96799400D03*
X153212800Y-95910400D03*
X146558000Y-96113600D03*
X139344400Y-105206800D03*
X133908800Y-105359200D03*
X140055600Y-115570000D03*
X146304000Y-115570000D03*
X153060400Y-115519200D03*
D15*
X148132800Y-87376000D03*
X152654000Y-87731600D03*
X143916400Y-90525600D03*
X143916400Y-94284800D03*
X156362400Y-97205800D03*
D14*
X130606800Y-99415600D03*
X132080000Y-99974400D03*
X132181600Y-108915200D03*
X131368800Y-105308400D03*
X140970000Y-106578400D03*
X138328400Y-106578400D03*
X158953200Y-94691200D03*
X161544000Y-94589600D03*
X161442400Y-85648800D03*
X157530800Y-85750400D03*
X151485600Y-85750400D03*
D16*
X146761200Y-95910400D02*
X146558000Y-96113600D01*
X153212800Y-95910400D02*
X146761200Y-95910400D01*
X134061200Y-105206800D02*
X133908800Y-105359200D01*
X139344400Y-105206800D02*
X134061200Y-105206800D01*
X140055600Y-115570000D02*
X146304000Y-115570000D01*
X159969200Y-115519200D02*
X160020000Y-115570000D01*
X153060400Y-115519200D02*
X159969200Y-115519200D01*
X160020000Y-115570000D02*
X162560000Y-115570000D01*
X162560000Y-115570000D02*
X165100000Y-115570000D01*
X165100000Y-115570000D02*
X167640000Y-115570000D01*
X170180000Y-115570000D02*
X167640000Y-115570000D01*
X172720000Y-115570000D02*
X170180000Y-115570000D01*
D17*
X152298400Y-87376000D02*
X152654000Y-87731600D01*
X148132800Y-87376000D02*
X152298400Y-87376000D01*
X143916400Y-90525600D02*
X143916400Y-94284800D01*
X156362400Y-96545400D02*
X156362400Y-97205800D01*
X154101800Y-94284800D02*
X156362400Y-96545400D01*
X143916400Y-94284800D02*
X154101800Y-94284800D01*
D16*
X131521200Y-99415600D02*
X132080000Y-99974400D01*
X130606800Y-99415600D02*
X131521200Y-99415600D01*
X132029200Y-109067600D02*
X132181600Y-108915200D01*
X131368800Y-105308400D02*
X131368800Y-108661200D01*
X131622800Y-108915200D02*
X132181600Y-108915200D01*
X131368800Y-108661200D02*
X131622800Y-108915200D01*
X140970000Y-106578400D02*
X138328400Y-106578400D01*
X161442400Y-94691200D02*
X161544000Y-94589600D01*
X158953200Y-94691200D02*
X161442400Y-94691200D01*
X157632400Y-85648800D02*
X157530800Y-85750400D01*
X161442400Y-85648800D02*
X157632400Y-85648800D01*
X151485600Y-85750400D02*
X157530800Y-85750400D01*
D18*
X124166406Y-73864887D02*
X123874536Y-74301702D01*
X123673492Y-74787065D01*
X123571000Y-75302323D01*
X123571000Y-75827677D01*
X123673492Y-76342935D01*
X123874536Y-76828298D01*
X124166406Y-77265113D01*
X124537887Y-77636594D01*
X124974702Y-77928464D01*
X125460065Y-78129508D01*
X125975323Y-78232000D01*
X126500677Y-78232000D01*
X127015935Y-78129508D01*
X127501298Y-77928464D01*
X127938113Y-77636594D01*
X128309594Y-77265113D01*
X128601464Y-76828298D01*
X128657001Y-76694219D01*
X128729203Y-76782197D01*
X128957395Y-76969469D01*
X129217737Y-77108625D01*
X129500224Y-77194316D01*
X129794000Y-77223251D01*
X130087777Y-77194316D01*
X130370264Y-77108625D01*
X130630606Y-76969469D01*
X130858797Y-76782197D01*
X131046069Y-76554006D01*
X131064000Y-76520459D01*
X131081931Y-76554006D01*
X131269203Y-76782197D01*
X131497395Y-76969469D01*
X131757737Y-77108625D01*
X132040224Y-77194316D01*
X132334000Y-77223251D01*
X132627777Y-77194316D01*
X132910264Y-77108625D01*
X133170606Y-76969469D01*
X133398797Y-76782197D01*
X133586069Y-76554006D01*
X133604000Y-76520459D01*
X133621931Y-76554006D01*
X133809203Y-76782197D01*
X134037395Y-76969469D01*
X134297737Y-77108625D01*
X134580224Y-77194316D01*
X134874000Y-77223251D01*
X135167777Y-77194316D01*
X135450264Y-77108625D01*
X135710606Y-76969469D01*
X135938797Y-76782197D01*
X136126069Y-76554006D01*
X136147424Y-76514053D01*
X136295514Y-76716729D01*
X136511965Y-76915733D01*
X136763081Y-77068686D01*
X137039211Y-77169709D01*
X137054974Y-77172358D01*
X137287000Y-77051217D01*
X137287000Y-75692000D01*
X137267000Y-75692000D01*
X137267000Y-75438000D01*
X137287000Y-75438000D01*
X137287000Y-74078783D01*
X137541000Y-74078783D01*
X137541000Y-75438000D01*
X137561000Y-75438000D01*
X137561000Y-75692000D01*
X137541000Y-75692000D01*
X137541000Y-77051217D01*
X137773026Y-77172358D01*
X137788789Y-77169709D01*
X138064919Y-77068686D01*
X138316035Y-76915733D01*
X138532486Y-76716729D01*
X138680576Y-76514053D01*
X138701931Y-76554006D01*
X138889203Y-76782197D01*
X139117395Y-76969469D01*
X139377737Y-77108625D01*
X139660224Y-77194316D01*
X139954000Y-77223251D01*
X140247777Y-77194316D01*
X140530264Y-77108625D01*
X140790606Y-76969469D01*
X141018797Y-76782197D01*
X141206069Y-76554006D01*
X141224000Y-76520459D01*
X141241931Y-76554006D01*
X141429203Y-76782197D01*
X141657395Y-76969469D01*
X141917737Y-77108625D01*
X142200224Y-77194316D01*
X142494000Y-77223251D01*
X142787777Y-77194316D01*
X143070264Y-77108625D01*
X143330606Y-76969469D01*
X143558797Y-76782197D01*
X143746069Y-76554006D01*
X143764000Y-76520459D01*
X143781931Y-76554006D01*
X143969203Y-76782197D01*
X144197395Y-76969469D01*
X144457737Y-77108625D01*
X144740224Y-77194316D01*
X145034000Y-77223251D01*
X145327777Y-77194316D01*
X145610264Y-77108625D01*
X145870606Y-76969469D01*
X146098797Y-76782197D01*
X146286069Y-76554006D01*
X146304000Y-76520459D01*
X146321931Y-76554006D01*
X146509203Y-76782197D01*
X146737395Y-76969469D01*
X146997737Y-77108625D01*
X147280224Y-77194316D01*
X147574000Y-77223251D01*
X147867777Y-77194316D01*
X148150264Y-77108625D01*
X148410606Y-76969469D01*
X148638797Y-76782197D01*
X148826069Y-76554006D01*
X148844000Y-76520459D01*
X148861931Y-76554006D01*
X149049203Y-76782197D01*
X149277395Y-76969469D01*
X149537737Y-77108625D01*
X149820224Y-77194316D01*
X150114000Y-77223251D01*
X150407777Y-77194316D01*
X150690264Y-77108625D01*
X150950606Y-76969469D01*
X151178797Y-76782197D01*
X151366069Y-76554006D01*
X151384000Y-76520459D01*
X151401931Y-76554006D01*
X151589203Y-76782197D01*
X151817395Y-76969469D01*
X152077737Y-77108625D01*
X152360224Y-77194316D01*
X152654000Y-77223251D01*
X152947777Y-77194316D01*
X153230264Y-77108625D01*
X153490606Y-76969469D01*
X153718797Y-76782197D01*
X153906069Y-76554006D01*
X154045225Y-76293663D01*
X154130916Y-76011176D01*
X154152600Y-75791018D01*
X154152600Y-75338982D01*
X155219400Y-75338982D01*
X155219400Y-75791019D01*
X155241084Y-76011177D01*
X155326775Y-76293664D01*
X155465931Y-76554006D01*
X155653203Y-76782197D01*
X155881395Y-76969469D01*
X156141737Y-77108625D01*
X156424224Y-77194316D01*
X156718000Y-77223251D01*
X157011777Y-77194316D01*
X157294264Y-77108625D01*
X157554606Y-76969469D01*
X157782797Y-76782197D01*
X157970069Y-76554006D01*
X157988000Y-76520459D01*
X158005931Y-76554006D01*
X158193203Y-76782197D01*
X158421395Y-76969469D01*
X158681737Y-77108625D01*
X158964224Y-77194316D01*
X159258000Y-77223251D01*
X159551777Y-77194316D01*
X159834264Y-77108625D01*
X160094606Y-76969469D01*
X160322797Y-76782197D01*
X160510069Y-76554006D01*
X160528000Y-76520459D01*
X160545931Y-76554006D01*
X160733203Y-76782197D01*
X160961395Y-76969469D01*
X161221737Y-77108625D01*
X161504224Y-77194316D01*
X161798000Y-77223251D01*
X162091777Y-77194316D01*
X162374264Y-77108625D01*
X162634606Y-76969469D01*
X162862797Y-76782197D01*
X163050069Y-76554006D01*
X163068000Y-76520459D01*
X163085931Y-76554006D01*
X163273203Y-76782197D01*
X163501395Y-76969469D01*
X163761737Y-77108625D01*
X164044224Y-77194316D01*
X164338000Y-77223251D01*
X164631777Y-77194316D01*
X164914264Y-77108625D01*
X165174606Y-76969469D01*
X165402797Y-76782197D01*
X165590069Y-76554006D01*
X165608000Y-76520459D01*
X165625931Y-76554006D01*
X165813203Y-76782197D01*
X166041395Y-76969469D01*
X166301737Y-77108625D01*
X166584224Y-77194316D01*
X166878000Y-77223251D01*
X167171777Y-77194316D01*
X167454264Y-77108625D01*
X167714606Y-76969469D01*
X167942797Y-76782197D01*
X168130069Y-76554006D01*
X168148000Y-76520459D01*
X168165931Y-76554006D01*
X168353203Y-76782197D01*
X168581395Y-76969469D01*
X168841737Y-77108625D01*
X169124224Y-77194316D01*
X169418000Y-77223251D01*
X169711777Y-77194316D01*
X169994264Y-77108625D01*
X170254606Y-76969469D01*
X170482797Y-76782197D01*
X170670069Y-76554006D01*
X170688000Y-76520459D01*
X170705931Y-76554006D01*
X170893203Y-76782197D01*
X171121395Y-76969469D01*
X171381737Y-77108625D01*
X171664224Y-77194316D01*
X171958000Y-77223251D01*
X172251777Y-77194316D01*
X172534264Y-77108625D01*
X172794606Y-76969469D01*
X173022797Y-76782197D01*
X173210069Y-76554006D01*
X173228000Y-76520459D01*
X173245931Y-76554006D01*
X173433203Y-76782197D01*
X173661395Y-76969469D01*
X173921737Y-77108625D01*
X174204224Y-77194316D01*
X174498000Y-77223251D01*
X174791777Y-77194316D01*
X175074264Y-77108625D01*
X175334606Y-76969469D01*
X175562797Y-76782197D01*
X175750069Y-76554006D01*
X175889225Y-76293663D01*
X175974916Y-76011176D01*
X175996600Y-75791018D01*
X175996600Y-75338981D01*
X175974916Y-75118823D01*
X175889225Y-74836336D01*
X175750069Y-74575994D01*
X175562797Y-74347803D01*
X175334605Y-74160531D01*
X175074263Y-74021375D01*
X174791776Y-73935684D01*
X174498000Y-73906749D01*
X174204223Y-73935684D01*
X173921736Y-74021375D01*
X173661394Y-74160531D01*
X173433203Y-74347803D01*
X173245931Y-74575995D01*
X173228000Y-74609541D01*
X173210069Y-74575994D01*
X173022797Y-74347803D01*
X172794605Y-74160531D01*
X172534263Y-74021375D01*
X172251776Y-73935684D01*
X171958000Y-73906749D01*
X171664223Y-73935684D01*
X171381736Y-74021375D01*
X171121394Y-74160531D01*
X170893203Y-74347803D01*
X170705931Y-74575995D01*
X170688000Y-74609541D01*
X170670069Y-74575994D01*
X170482797Y-74347803D01*
X170254605Y-74160531D01*
X169994263Y-74021375D01*
X169711776Y-73935684D01*
X169418000Y-73906749D01*
X169124223Y-73935684D01*
X168841736Y-74021375D01*
X168581394Y-74160531D01*
X168353203Y-74347803D01*
X168165931Y-74575995D01*
X168148000Y-74609541D01*
X168130069Y-74575994D01*
X167942797Y-74347803D01*
X167714605Y-74160531D01*
X167454263Y-74021375D01*
X167171776Y-73935684D01*
X166878000Y-73906749D01*
X166584223Y-73935684D01*
X166301736Y-74021375D01*
X166041394Y-74160531D01*
X165813203Y-74347803D01*
X165625931Y-74575995D01*
X165608000Y-74609541D01*
X165590069Y-74575994D01*
X165402797Y-74347803D01*
X165174605Y-74160531D01*
X164914263Y-74021375D01*
X164631776Y-73935684D01*
X164338000Y-73906749D01*
X164044223Y-73935684D01*
X163761736Y-74021375D01*
X163501394Y-74160531D01*
X163273203Y-74347803D01*
X163085931Y-74575995D01*
X163068000Y-74609541D01*
X163050069Y-74575994D01*
X162862797Y-74347803D01*
X162634605Y-74160531D01*
X162374263Y-74021375D01*
X162091776Y-73935684D01*
X161798000Y-73906749D01*
X161504223Y-73935684D01*
X161221736Y-74021375D01*
X160961394Y-74160531D01*
X160733203Y-74347803D01*
X160545931Y-74575995D01*
X160528000Y-74609541D01*
X160510069Y-74575994D01*
X160322797Y-74347803D01*
X160094605Y-74160531D01*
X159834263Y-74021375D01*
X159551776Y-73935684D01*
X159258000Y-73906749D01*
X158964223Y-73935684D01*
X158681736Y-74021375D01*
X158421394Y-74160531D01*
X158193203Y-74347803D01*
X158005931Y-74575995D01*
X157988000Y-74609541D01*
X157970069Y-74575994D01*
X157782797Y-74347803D01*
X157554605Y-74160531D01*
X157294263Y-74021375D01*
X157011776Y-73935684D01*
X156718000Y-73906749D01*
X156424223Y-73935684D01*
X156141736Y-74021375D01*
X155881394Y-74160531D01*
X155653203Y-74347803D01*
X155465931Y-74575995D01*
X155326775Y-74836337D01*
X155241084Y-75118824D01*
X155219400Y-75338982D01*
X154152600Y-75338982D01*
X154152600Y-75338981D01*
X154130916Y-75118823D01*
X154045225Y-74836336D01*
X153906069Y-74575994D01*
X153718797Y-74347803D01*
X153490605Y-74160531D01*
X153230263Y-74021375D01*
X152947776Y-73935684D01*
X152654000Y-73906749D01*
X152360223Y-73935684D01*
X152077736Y-74021375D01*
X151817394Y-74160531D01*
X151589203Y-74347803D01*
X151401931Y-74575995D01*
X151384000Y-74609541D01*
X151366069Y-74575994D01*
X151178797Y-74347803D01*
X150950605Y-74160531D01*
X150690263Y-74021375D01*
X150407776Y-73935684D01*
X150114000Y-73906749D01*
X149820223Y-73935684D01*
X149537736Y-74021375D01*
X149277394Y-74160531D01*
X149049203Y-74347803D01*
X148861931Y-74575995D01*
X148844000Y-74609541D01*
X148826069Y-74575994D01*
X148638797Y-74347803D01*
X148410605Y-74160531D01*
X148150263Y-74021375D01*
X147867776Y-73935684D01*
X147574000Y-73906749D01*
X147280223Y-73935684D01*
X146997736Y-74021375D01*
X146737394Y-74160531D01*
X146509203Y-74347803D01*
X146321931Y-74575995D01*
X146304000Y-74609541D01*
X146286069Y-74575994D01*
X146098797Y-74347803D01*
X145870605Y-74160531D01*
X145610263Y-74021375D01*
X145327776Y-73935684D01*
X145034000Y-73906749D01*
X144740223Y-73935684D01*
X144457736Y-74021375D01*
X144197394Y-74160531D01*
X143969203Y-74347803D01*
X143781931Y-74575995D01*
X143764000Y-74609541D01*
X143746069Y-74575994D01*
X143558797Y-74347803D01*
X143330605Y-74160531D01*
X143070263Y-74021375D01*
X142787776Y-73935684D01*
X142494000Y-73906749D01*
X142200223Y-73935684D01*
X141917736Y-74021375D01*
X141657394Y-74160531D01*
X141429203Y-74347803D01*
X141241931Y-74575995D01*
X141224000Y-74609541D01*
X141206069Y-74575994D01*
X141018797Y-74347803D01*
X140790605Y-74160531D01*
X140530263Y-74021375D01*
X140247776Y-73935684D01*
X139954000Y-73906749D01*
X139660223Y-73935684D01*
X139377736Y-74021375D01*
X139117394Y-74160531D01*
X138889203Y-74347803D01*
X138701931Y-74575995D01*
X138680576Y-74615947D01*
X138532486Y-74413271D01*
X138316035Y-74214267D01*
X138064919Y-74061314D01*
X137788789Y-73960291D01*
X137773026Y-73957642D01*
X137541000Y-74078783D01*
X137287000Y-74078783D01*
X137054974Y-73957642D01*
X137039211Y-73960291D01*
X136763081Y-74061314D01*
X136511965Y-74214267D01*
X136295514Y-74413271D01*
X136147424Y-74615947D01*
X136126069Y-74575994D01*
X135938797Y-74347803D01*
X135710605Y-74160531D01*
X135450263Y-74021375D01*
X135167776Y-73935684D01*
X134874000Y-73906749D01*
X134580223Y-73935684D01*
X134297736Y-74021375D01*
X134037394Y-74160531D01*
X133809203Y-74347803D01*
X133621931Y-74575995D01*
X133604000Y-74609541D01*
X133586069Y-74575994D01*
X133398797Y-74347803D01*
X133170605Y-74160531D01*
X132910263Y-74021375D01*
X132627776Y-73935684D01*
X132334000Y-73906749D01*
X132040223Y-73935684D01*
X131757736Y-74021375D01*
X131497394Y-74160531D01*
X131269203Y-74347803D01*
X131081931Y-74575995D01*
X131064000Y-74609541D01*
X131046069Y-74575994D01*
X130858797Y-74347803D01*
X130630605Y-74160531D01*
X130370263Y-74021375D01*
X130087776Y-73935684D01*
X129794000Y-73906749D01*
X129500223Y-73935684D01*
X129217736Y-74021375D01*
X128957394Y-74160531D01*
X128729203Y-74347803D01*
X128657001Y-74435781D01*
X128601464Y-74301702D01*
X128309594Y-73864887D01*
X128179707Y-73735000D01*
X175219909Y-73735000D01*
X176328001Y-74843093D01*
X176328000Y-85944125D01*
X176324565Y-85979000D01*
X176328000Y-86013875D01*
X176328000Y-86013876D01*
X176338273Y-86118183D01*
X176378872Y-86252019D01*
X176444800Y-86375362D01*
X176533525Y-86483474D01*
X176560617Y-86505708D01*
X178868001Y-88813093D01*
X178868001Y-88863294D01*
X178738113Y-88733406D01*
X178301298Y-88441536D01*
X177815935Y-88240492D01*
X177300677Y-88138000D01*
X176775323Y-88138000D01*
X176260065Y-88240492D01*
X175774702Y-88441536D01*
X175337887Y-88733406D01*
X174966406Y-89104887D01*
X174674536Y-89541702D01*
X174473492Y-90027065D01*
X174371000Y-90542323D01*
X174371000Y-91067677D01*
X174473492Y-91582935D01*
X174674536Y-92068298D01*
X174966406Y-92505113D01*
X175337887Y-92876594D01*
X175774702Y-93168464D01*
X176260065Y-93369508D01*
X176775323Y-93472000D01*
X177300677Y-93472000D01*
X177815935Y-93369508D01*
X178301298Y-93168464D01*
X178738113Y-92876594D01*
X178868001Y-92746706D01*
X178868000Y-116803293D01*
X178738113Y-116673406D01*
X178301298Y-116381536D01*
X177815935Y-116180492D01*
X177300677Y-116078000D01*
X176775323Y-116078000D01*
X176260065Y-116180492D01*
X175774702Y-116381536D01*
X175337887Y-116673406D01*
X174966406Y-117044887D01*
X174674536Y-117481702D01*
X174473492Y-117967065D01*
X174371000Y-118482323D01*
X174371000Y-119007677D01*
X174473492Y-119522935D01*
X174674536Y-120008298D01*
X174966406Y-120445113D01*
X175337887Y-120816594D01*
X175774702Y-121108464D01*
X176260065Y-121309508D01*
X176775323Y-121412000D01*
X177300677Y-121412000D01*
X177815935Y-121309508D01*
X178301298Y-121108464D01*
X178738113Y-120816594D01*
X178868000Y-120686707D01*
X178868000Y-120990908D01*
X176560617Y-123298292D01*
X176533526Y-123320525D01*
X176511293Y-123347616D01*
X176444801Y-123428637D01*
X176378872Y-123551981D01*
X176338274Y-123685816D01*
X176324565Y-123825000D01*
X176328001Y-123859885D01*
X176328000Y-125655000D01*
X126909707Y-125655000D01*
X127039594Y-125525113D01*
X127331464Y-125088298D01*
X127532508Y-124602935D01*
X127635000Y-124087677D01*
X127635000Y-123598982D01*
X137439400Y-123598982D01*
X137439400Y-124051019D01*
X137461084Y-124271177D01*
X137546775Y-124553664D01*
X137685931Y-124814006D01*
X137873203Y-125042197D01*
X138101395Y-125229469D01*
X138361737Y-125368625D01*
X138644224Y-125454316D01*
X138938000Y-125483251D01*
X139231777Y-125454316D01*
X139514264Y-125368625D01*
X139774606Y-125229469D01*
X140002797Y-125042197D01*
X140190069Y-124814006D01*
X140208000Y-124780459D01*
X140225931Y-124814006D01*
X140413203Y-125042197D01*
X140641395Y-125229469D01*
X140901737Y-125368625D01*
X141184224Y-125454316D01*
X141478000Y-125483251D01*
X141771777Y-125454316D01*
X142054264Y-125368625D01*
X142314606Y-125229469D01*
X142542797Y-125042197D01*
X142730069Y-124814006D01*
X142748000Y-124780459D01*
X142765931Y-124814006D01*
X142953203Y-125042197D01*
X143181395Y-125229469D01*
X143441737Y-125368625D01*
X143724224Y-125454316D01*
X144018000Y-125483251D01*
X144311777Y-125454316D01*
X144594264Y-125368625D01*
X144854606Y-125229469D01*
X145082797Y-125042197D01*
X145270069Y-124814006D01*
X145288000Y-124780459D01*
X145305931Y-124814006D01*
X145493203Y-125042197D01*
X145721395Y-125229469D01*
X145981737Y-125368625D01*
X146264224Y-125454316D01*
X146558000Y-125483251D01*
X146851777Y-125454316D01*
X147134264Y-125368625D01*
X147394606Y-125229469D01*
X147622797Y-125042197D01*
X147810069Y-124814006D01*
X147828000Y-124780459D01*
X147845931Y-124814006D01*
X148033203Y-125042197D01*
X148261395Y-125229469D01*
X148521737Y-125368625D01*
X148804224Y-125454316D01*
X149098000Y-125483251D01*
X149391777Y-125454316D01*
X149674264Y-125368625D01*
X149934606Y-125229469D01*
X150162797Y-125042197D01*
X150350069Y-124814006D01*
X150371424Y-124774053D01*
X150519514Y-124976729D01*
X150735965Y-125175733D01*
X150987081Y-125328686D01*
X151263211Y-125429709D01*
X151278974Y-125432358D01*
X151511000Y-125311217D01*
X151511000Y-123952000D01*
X151765000Y-123952000D01*
X151765000Y-125311217D01*
X151997026Y-125432358D01*
X152012789Y-125429709D01*
X152288919Y-125328686D01*
X152540035Y-125175733D01*
X152756486Y-124976729D01*
X152908000Y-124769367D01*
X153059514Y-124976729D01*
X153275965Y-125175733D01*
X153527081Y-125328686D01*
X153803211Y-125429709D01*
X153818974Y-125432358D01*
X154051000Y-125311217D01*
X154051000Y-123952000D01*
X151765000Y-123952000D01*
X151511000Y-123952000D01*
X151491000Y-123952000D01*
X151491000Y-123698000D01*
X151511000Y-123698000D01*
X151511000Y-122338783D01*
X151765000Y-122338783D01*
X151765000Y-123698000D01*
X154051000Y-123698000D01*
X154051000Y-122338783D01*
X154305000Y-122338783D01*
X154305000Y-123698000D01*
X154325000Y-123698000D01*
X154325000Y-123952000D01*
X154305000Y-123952000D01*
X154305000Y-125311217D01*
X154537026Y-125432358D01*
X154552789Y-125429709D01*
X154828919Y-125328686D01*
X155080035Y-125175733D01*
X155296486Y-124976729D01*
X155444576Y-124774053D01*
X155465931Y-124814006D01*
X155653203Y-125042197D01*
X155881395Y-125229469D01*
X156141737Y-125368625D01*
X156424224Y-125454316D01*
X156718000Y-125483251D01*
X157011777Y-125454316D01*
X157294264Y-125368625D01*
X157554606Y-125229469D01*
X157782797Y-125042197D01*
X157970069Y-124814006D01*
X158109225Y-124553663D01*
X158194916Y-124271176D01*
X158216600Y-124051018D01*
X158216600Y-123598982D01*
X160299400Y-123598982D01*
X160299400Y-124051019D01*
X160321084Y-124271177D01*
X160406775Y-124553664D01*
X160545931Y-124814006D01*
X160733203Y-125042197D01*
X160961395Y-125229469D01*
X161221737Y-125368625D01*
X161504224Y-125454316D01*
X161798000Y-125483251D01*
X162091777Y-125454316D01*
X162374264Y-125368625D01*
X162634606Y-125229469D01*
X162862797Y-125042197D01*
X163050069Y-124814006D01*
X163068000Y-124780459D01*
X163085931Y-124814006D01*
X163273203Y-125042197D01*
X163501395Y-125229469D01*
X163761737Y-125368625D01*
X164044224Y-125454316D01*
X164338000Y-125483251D01*
X164631777Y-125454316D01*
X164914264Y-125368625D01*
X165174606Y-125229469D01*
X165402797Y-125042197D01*
X165590069Y-124814006D01*
X165608000Y-124780459D01*
X165625931Y-124814006D01*
X165813203Y-125042197D01*
X166041395Y-125229469D01*
X166301737Y-125368625D01*
X166584224Y-125454316D01*
X166878000Y-125483251D01*
X167171777Y-125454316D01*
X167454264Y-125368625D01*
X167714606Y-125229469D01*
X167942797Y-125042197D01*
X168130069Y-124814006D01*
X168148000Y-124780459D01*
X168165931Y-124814006D01*
X168353203Y-125042197D01*
X168581395Y-125229469D01*
X168841737Y-125368625D01*
X169124224Y-125454316D01*
X169418000Y-125483251D01*
X169711777Y-125454316D01*
X169994264Y-125368625D01*
X170254606Y-125229469D01*
X170482797Y-125042197D01*
X170670069Y-124814006D01*
X170688000Y-124780459D01*
X170705931Y-124814006D01*
X170893203Y-125042197D01*
X171121395Y-125229469D01*
X171381737Y-125368625D01*
X171664224Y-125454316D01*
X171958000Y-125483251D01*
X172251777Y-125454316D01*
X172534264Y-125368625D01*
X172794606Y-125229469D01*
X173022797Y-125042197D01*
X173210069Y-124814006D01*
X173228000Y-124780459D01*
X173245931Y-124814006D01*
X173433203Y-125042197D01*
X173661395Y-125229469D01*
X173921737Y-125368625D01*
X174204224Y-125454316D01*
X174498000Y-125483251D01*
X174791777Y-125454316D01*
X175074264Y-125368625D01*
X175334606Y-125229469D01*
X175562797Y-125042197D01*
X175750069Y-124814006D01*
X175889225Y-124553663D01*
X175974916Y-124271176D01*
X175996600Y-124051018D01*
X175996600Y-123598981D01*
X175974916Y-123378823D01*
X175889225Y-123096336D01*
X175750069Y-122835994D01*
X175562797Y-122607803D01*
X175334605Y-122420531D01*
X175074263Y-122281375D01*
X174791776Y-122195684D01*
X174498000Y-122166749D01*
X174204223Y-122195684D01*
X173921736Y-122281375D01*
X173661394Y-122420531D01*
X173433203Y-122607803D01*
X173245931Y-122835995D01*
X173228000Y-122869541D01*
X173210069Y-122835994D01*
X173022797Y-122607803D01*
X172794605Y-122420531D01*
X172534263Y-122281375D01*
X172251776Y-122195684D01*
X171958000Y-122166749D01*
X171664223Y-122195684D01*
X171381736Y-122281375D01*
X171121394Y-122420531D01*
X170893203Y-122607803D01*
X170705931Y-122835995D01*
X170688000Y-122869541D01*
X170670069Y-122835994D01*
X170482797Y-122607803D01*
X170254605Y-122420531D01*
X169994263Y-122281375D01*
X169711776Y-122195684D01*
X169418000Y-122166749D01*
X169124223Y-122195684D01*
X168841736Y-122281375D01*
X168581394Y-122420531D01*
X168353203Y-122607803D01*
X168165931Y-122835995D01*
X168148000Y-122869541D01*
X168130069Y-122835994D01*
X167942797Y-122607803D01*
X167714605Y-122420531D01*
X167454263Y-122281375D01*
X167171776Y-122195684D01*
X166878000Y-122166749D01*
X166584223Y-122195684D01*
X166301736Y-122281375D01*
X166041394Y-122420531D01*
X165813203Y-122607803D01*
X165625931Y-122835995D01*
X165608000Y-122869541D01*
X165590069Y-122835994D01*
X165402797Y-122607803D01*
X165174605Y-122420531D01*
X164914263Y-122281375D01*
X164631776Y-122195684D01*
X164338000Y-122166749D01*
X164044223Y-122195684D01*
X163761736Y-122281375D01*
X163501394Y-122420531D01*
X163273203Y-122607803D01*
X163085931Y-122835995D01*
X163068000Y-122869541D01*
X163050069Y-122835994D01*
X162862797Y-122607803D01*
X162634605Y-122420531D01*
X162374263Y-122281375D01*
X162091776Y-122195684D01*
X161798000Y-122166749D01*
X161504223Y-122195684D01*
X161221736Y-122281375D01*
X160961394Y-122420531D01*
X160733203Y-122607803D01*
X160545931Y-122835995D01*
X160406775Y-123096337D01*
X160321084Y-123378824D01*
X160299400Y-123598982D01*
X158216600Y-123598982D01*
X158216600Y-123598981D01*
X158194916Y-123378823D01*
X158109225Y-123096336D01*
X157970069Y-122835994D01*
X157782797Y-122607803D01*
X157554605Y-122420531D01*
X157294263Y-122281375D01*
X157011776Y-122195684D01*
X156718000Y-122166749D01*
X156424223Y-122195684D01*
X156141736Y-122281375D01*
X155881394Y-122420531D01*
X155653203Y-122607803D01*
X155465931Y-122835995D01*
X155444576Y-122875947D01*
X155296486Y-122673271D01*
X155080035Y-122474267D01*
X154828919Y-122321314D01*
X154552789Y-122220291D01*
X154537026Y-122217642D01*
X154305000Y-122338783D01*
X154051000Y-122338783D01*
X153818974Y-122217642D01*
X153803211Y-122220291D01*
X153527081Y-122321314D01*
X153275965Y-122474267D01*
X153059514Y-122673271D01*
X152908000Y-122880633D01*
X152756486Y-122673271D01*
X152540035Y-122474267D01*
X152288919Y-122321314D01*
X152012789Y-122220291D01*
X151997026Y-122217642D01*
X151765000Y-122338783D01*
X151511000Y-122338783D01*
X151278974Y-122217642D01*
X151263211Y-122220291D01*
X150987081Y-122321314D01*
X150735965Y-122474267D01*
X150519514Y-122673271D01*
X150371424Y-122875947D01*
X150350069Y-122835994D01*
X150162797Y-122607803D01*
X149934605Y-122420531D01*
X149674263Y-122281375D01*
X149391776Y-122195684D01*
X149098000Y-122166749D01*
X148804223Y-122195684D01*
X148521736Y-122281375D01*
X148261394Y-122420531D01*
X148033203Y-122607803D01*
X147845931Y-122835995D01*
X147828000Y-122869541D01*
X147810069Y-122835994D01*
X147622797Y-122607803D01*
X147394605Y-122420531D01*
X147134263Y-122281375D01*
X146851776Y-122195684D01*
X146558000Y-122166749D01*
X146264223Y-122195684D01*
X145981736Y-122281375D01*
X145721394Y-122420531D01*
X145493203Y-122607803D01*
X145305931Y-122835995D01*
X145288000Y-122869541D01*
X145270069Y-122835994D01*
X145082797Y-122607803D01*
X144854605Y-122420531D01*
X144594263Y-122281375D01*
X144311776Y-122195684D01*
X144018000Y-122166749D01*
X143724223Y-122195684D01*
X143441736Y-122281375D01*
X143181394Y-122420531D01*
X142953203Y-122607803D01*
X142765931Y-122835995D01*
X142748000Y-122869541D01*
X142730069Y-122835994D01*
X142542797Y-122607803D01*
X142314605Y-122420531D01*
X142054263Y-122281375D01*
X141771776Y-122195684D01*
X141478000Y-122166749D01*
X141184223Y-122195684D01*
X140901736Y-122281375D01*
X140641394Y-122420531D01*
X140413203Y-122607803D01*
X140225931Y-122835995D01*
X140208000Y-122869541D01*
X140190069Y-122835994D01*
X140002797Y-122607803D01*
X139774605Y-122420531D01*
X139514263Y-122281375D01*
X139231776Y-122195684D01*
X138938000Y-122166749D01*
X138644223Y-122195684D01*
X138361736Y-122281375D01*
X138101394Y-122420531D01*
X137873203Y-122607803D01*
X137685931Y-122835995D01*
X137546775Y-123096337D01*
X137461084Y-123378824D01*
X137439400Y-123598982D01*
X127635000Y-123598982D01*
X127635000Y-123562323D01*
X127532508Y-123047065D01*
X127331464Y-122561702D01*
X127039594Y-122124887D01*
X126668113Y-121753406D01*
X126231298Y-121461536D01*
X125745935Y-121260492D01*
X125230677Y-121158000D01*
X124705323Y-121158000D01*
X124190065Y-121260492D01*
X123704702Y-121461536D01*
X123267887Y-121753406D01*
X122896406Y-122124887D01*
X122604536Y-122561702D01*
X122403492Y-123047065D01*
X122301000Y-123562323D01*
X122301000Y-124087677D01*
X122403492Y-124602935D01*
X122604536Y-125088298D01*
X122896406Y-125525113D01*
X123026293Y-125655000D01*
X111708000Y-125655000D01*
X111708000Y-115477911D01*
X139120600Y-115477911D01*
X139120600Y-115662089D01*
X139156532Y-115842729D01*
X139227014Y-116012889D01*
X139329338Y-116166028D01*
X139459572Y-116296262D01*
X139612711Y-116398586D01*
X139782871Y-116469068D01*
X139963511Y-116505000D01*
X140147689Y-116505000D01*
X140328329Y-116469068D01*
X140498489Y-116398586D01*
X140638551Y-116305000D01*
X145721049Y-116305000D01*
X145861111Y-116398586D01*
X146031271Y-116469068D01*
X146211911Y-116505000D01*
X146396089Y-116505000D01*
X146576729Y-116469068D01*
X146746889Y-116398586D01*
X146900028Y-116296262D01*
X147030262Y-116166028D01*
X147132586Y-116012889D01*
X147203068Y-115842729D01*
X147239000Y-115662089D01*
X147239000Y-115477911D01*
X147228896Y-115427111D01*
X152125400Y-115427111D01*
X152125400Y-115611289D01*
X152161332Y-115791929D01*
X152231814Y-115962089D01*
X152334138Y-116115228D01*
X152464372Y-116245462D01*
X152617511Y-116347786D01*
X152787671Y-116418268D01*
X152968311Y-116454200D01*
X153152489Y-116454200D01*
X153333129Y-116418268D01*
X153503289Y-116347786D01*
X153643351Y-116254200D01*
X158533694Y-116254200D01*
X158571082Y-116344463D01*
X158750013Y-116612252D01*
X158977748Y-116839987D01*
X158977767Y-116840000D01*
X158977748Y-116840013D01*
X158750013Y-117067748D01*
X158571082Y-117335537D01*
X158447832Y-117633088D01*
X158385000Y-117948967D01*
X158385000Y-118271033D01*
X158447832Y-118586912D01*
X158571082Y-118884463D01*
X158750013Y-119152252D01*
X158977748Y-119379987D01*
X159245537Y-119558918D01*
X159543088Y-119682168D01*
X159858967Y-119745000D01*
X160181033Y-119745000D01*
X160496912Y-119682168D01*
X160794463Y-119558918D01*
X161062252Y-119379987D01*
X161289987Y-119152252D01*
X161290000Y-119152233D01*
X161290013Y-119152252D01*
X161517748Y-119379987D01*
X161785537Y-119558918D01*
X162083088Y-119682168D01*
X162398967Y-119745000D01*
X162721033Y-119745000D01*
X163036912Y-119682168D01*
X163334463Y-119558918D01*
X163602252Y-119379987D01*
X163829987Y-119152252D01*
X163830000Y-119152233D01*
X163830013Y-119152252D01*
X164057748Y-119379987D01*
X164325537Y-119558918D01*
X164623088Y-119682168D01*
X164938967Y-119745000D01*
X165261033Y-119745000D01*
X165576912Y-119682168D01*
X165874463Y-119558918D01*
X166142252Y-119379987D01*
X166369987Y-119152252D01*
X166370000Y-119152233D01*
X166370013Y-119152252D01*
X166597748Y-119379987D01*
X166865537Y-119558918D01*
X167163088Y-119682168D01*
X167478967Y-119745000D01*
X167801033Y-119745000D01*
X168116912Y-119682168D01*
X168414463Y-119558918D01*
X168682252Y-119379987D01*
X168909987Y-119152252D01*
X168910000Y-119152233D01*
X168910013Y-119152252D01*
X169137748Y-119379987D01*
X169405537Y-119558918D01*
X169703088Y-119682168D01*
X170018967Y-119745000D01*
X170341033Y-119745000D01*
X170656912Y-119682168D01*
X170954463Y-119558918D01*
X171222252Y-119379987D01*
X171449987Y-119152252D01*
X171450000Y-119152233D01*
X171450013Y-119152252D01*
X171677748Y-119379987D01*
X171945537Y-119558918D01*
X172243088Y-119682168D01*
X172558967Y-119745000D01*
X172881033Y-119745000D01*
X173196912Y-119682168D01*
X173494463Y-119558918D01*
X173762252Y-119379987D01*
X173989987Y-119152252D01*
X174168918Y-118884463D01*
X174292168Y-118586912D01*
X174355000Y-118271033D01*
X174355000Y-117948967D01*
X174292168Y-117633088D01*
X174168918Y-117335537D01*
X173989987Y-117067748D01*
X173762252Y-116840013D01*
X173762233Y-116840000D01*
X173762252Y-116839987D01*
X173989987Y-116612252D01*
X174168918Y-116344463D01*
X174292168Y-116046912D01*
X174355000Y-115731033D01*
X174355000Y-115408967D01*
X174292168Y-115093088D01*
X174168918Y-114795537D01*
X173989987Y-114527748D01*
X173762252Y-114300013D01*
X173494463Y-114121082D01*
X173196912Y-113997832D01*
X172881033Y-113935000D01*
X172558967Y-113935000D01*
X172243088Y-113997832D01*
X171945537Y-114121082D01*
X171677748Y-114300013D01*
X171450013Y-114527748D01*
X171450000Y-114527767D01*
X171449987Y-114527748D01*
X171222252Y-114300013D01*
X170954463Y-114121082D01*
X170656912Y-113997832D01*
X170341033Y-113935000D01*
X170018967Y-113935000D01*
X169703088Y-113997832D01*
X169405537Y-114121082D01*
X169137748Y-114300013D01*
X168910013Y-114527748D01*
X168910000Y-114527767D01*
X168909987Y-114527748D01*
X168682252Y-114300013D01*
X168414463Y-114121082D01*
X168116912Y-113997832D01*
X167801033Y-113935000D01*
X167478967Y-113935000D01*
X167163088Y-113997832D01*
X166865537Y-114121082D01*
X166597748Y-114300013D01*
X166370013Y-114527748D01*
X166370000Y-114527767D01*
X166369987Y-114527748D01*
X166142252Y-114300013D01*
X165874463Y-114121082D01*
X165576912Y-113997832D01*
X165261033Y-113935000D01*
X164938967Y-113935000D01*
X164623088Y-113997832D01*
X164325537Y-114121082D01*
X164057748Y-114300013D01*
X163830013Y-114527748D01*
X163830000Y-114527767D01*
X163829987Y-114527748D01*
X163602252Y-114300013D01*
X163334463Y-114121082D01*
X163036912Y-113997832D01*
X162721033Y-113935000D01*
X162398967Y-113935000D01*
X162083088Y-113997832D01*
X161785537Y-114121082D01*
X161517748Y-114300013D01*
X161290013Y-114527748D01*
X161290000Y-114527767D01*
X161289987Y-114527748D01*
X161062252Y-114300013D01*
X160794463Y-114121082D01*
X160496912Y-113997832D01*
X160181033Y-113935000D01*
X159858967Y-113935000D01*
X159543088Y-113997832D01*
X159245537Y-114121082D01*
X158977748Y-114300013D01*
X158750013Y-114527748D01*
X158578657Y-114784200D01*
X153643351Y-114784200D01*
X153503289Y-114690614D01*
X153333129Y-114620132D01*
X153152489Y-114584200D01*
X152968311Y-114584200D01*
X152787671Y-114620132D01*
X152617511Y-114690614D01*
X152464372Y-114792938D01*
X152334138Y-114923172D01*
X152231814Y-115076311D01*
X152161332Y-115246471D01*
X152125400Y-115427111D01*
X147228896Y-115427111D01*
X147203068Y-115297271D01*
X147132586Y-115127111D01*
X147030262Y-114973972D01*
X146900028Y-114843738D01*
X146746889Y-114741414D01*
X146576729Y-114670932D01*
X146396089Y-114635000D01*
X146211911Y-114635000D01*
X146031271Y-114670932D01*
X145861111Y-114741414D01*
X145721049Y-114835000D01*
X140638551Y-114835000D01*
X140498489Y-114741414D01*
X140328329Y-114670932D01*
X140147689Y-114635000D01*
X139963511Y-114635000D01*
X139782871Y-114670932D01*
X139612711Y-114741414D01*
X139459572Y-114843738D01*
X139329338Y-114973972D01*
X139227014Y-115127111D01*
X139156532Y-115297271D01*
X139120600Y-115477911D01*
X111708000Y-115477911D01*
X111708000Y-105216311D01*
X130433800Y-105216311D01*
X130433800Y-105400489D01*
X130469732Y-105581129D01*
X130540214Y-105751289D01*
X130633800Y-105891351D01*
X130633801Y-108625085D01*
X130630244Y-108661200D01*
X130644435Y-108805285D01*
X130686464Y-108943833D01*
X130754714Y-109071520D01*
X130846563Y-109183438D01*
X130874608Y-109206454D01*
X131077541Y-109409387D01*
X131100562Y-109437438D01*
X131212480Y-109529287D01*
X131340167Y-109597537D01*
X131478715Y-109639565D01*
X131579673Y-109649508D01*
X131618881Y-109681686D01*
X131746567Y-109749936D01*
X131772690Y-109757861D01*
X131908871Y-109814268D01*
X132089511Y-109850200D01*
X132273689Y-109850200D01*
X132454329Y-109814268D01*
X132624489Y-109743786D01*
X132777628Y-109641462D01*
X132907862Y-109511228D01*
X133010186Y-109358089D01*
X133080668Y-109187929D01*
X133116600Y-109007289D01*
X133116600Y-108823111D01*
X133080668Y-108642471D01*
X133010186Y-108472311D01*
X132907862Y-108319172D01*
X132777628Y-108188938D01*
X132624489Y-108086614D01*
X132454329Y-108016132D01*
X132273689Y-107980200D01*
X132103800Y-107980200D01*
X132103800Y-105891351D01*
X132197386Y-105751289D01*
X132267868Y-105581129D01*
X132303800Y-105400489D01*
X132303800Y-105267111D01*
X132973800Y-105267111D01*
X132973800Y-105451289D01*
X133009732Y-105631929D01*
X133080214Y-105802089D01*
X133182538Y-105955228D01*
X133312772Y-106085462D01*
X133465911Y-106187786D01*
X133636071Y-106258268D01*
X133816711Y-106294200D01*
X134000889Y-106294200D01*
X134181529Y-106258268D01*
X134351689Y-106187786D01*
X134504828Y-106085462D01*
X134635062Y-105955228D01*
X134644034Y-105941800D01*
X137642710Y-105941800D01*
X137602138Y-105982372D01*
X137499814Y-106135511D01*
X137429332Y-106305671D01*
X137393400Y-106486311D01*
X137393400Y-106670489D01*
X137429332Y-106851129D01*
X137499814Y-107021289D01*
X137602138Y-107174428D01*
X137732372Y-107304662D01*
X137885511Y-107406986D01*
X138055671Y-107477468D01*
X138236311Y-107513400D01*
X138420489Y-107513400D01*
X138601129Y-107477468D01*
X138771289Y-107406986D01*
X138911351Y-107313400D01*
X140387049Y-107313400D01*
X140527111Y-107406986D01*
X140697271Y-107477468D01*
X140877911Y-107513400D01*
X141062089Y-107513400D01*
X141242729Y-107477468D01*
X141412889Y-107406986D01*
X141566028Y-107304662D01*
X141696262Y-107174428D01*
X141798586Y-107021289D01*
X141869068Y-106851129D01*
X141884811Y-106771982D01*
X170821000Y-106771982D01*
X170821000Y-107096018D01*
X170884217Y-107413829D01*
X171008220Y-107713199D01*
X171188245Y-107982626D01*
X171417374Y-108211755D01*
X171686801Y-108391780D01*
X171986171Y-108515783D01*
X172303982Y-108579000D01*
X172628018Y-108579000D01*
X172945829Y-108515783D01*
X173245199Y-108391780D01*
X173514626Y-108211755D01*
X173743755Y-107982626D01*
X173923780Y-107713199D01*
X174047783Y-107413829D01*
X174111000Y-107096018D01*
X174111000Y-106771982D01*
X174047783Y-106454171D01*
X173923780Y-106154801D01*
X173743755Y-105885374D01*
X173514626Y-105656245D01*
X173245199Y-105476220D01*
X172945829Y-105352217D01*
X172628018Y-105289000D01*
X172303982Y-105289000D01*
X171986171Y-105352217D01*
X171686801Y-105476220D01*
X171417374Y-105656245D01*
X171188245Y-105885374D01*
X171008220Y-106154801D01*
X170884217Y-106454171D01*
X170821000Y-106771982D01*
X141884811Y-106771982D01*
X141905000Y-106670489D01*
X141905000Y-106486311D01*
X141869068Y-106305671D01*
X141798586Y-106135511D01*
X141696262Y-105982372D01*
X141566028Y-105852138D01*
X141412889Y-105749814D01*
X141242729Y-105679332D01*
X141062089Y-105643400D01*
X140877911Y-105643400D01*
X140697271Y-105679332D01*
X140527111Y-105749814D01*
X140387049Y-105843400D01*
X140030090Y-105843400D01*
X140070662Y-105802828D01*
X140172986Y-105649689D01*
X140243468Y-105479529D01*
X140279400Y-105298889D01*
X140279400Y-105114711D01*
X140243468Y-104934071D01*
X140172986Y-104763911D01*
X140070662Y-104610772D01*
X139940428Y-104480538D01*
X139787289Y-104378214D01*
X139617129Y-104307732D01*
X139436489Y-104271800D01*
X139252311Y-104271800D01*
X139071671Y-104307732D01*
X138901511Y-104378214D01*
X138761449Y-104471800D01*
X134209698Y-104471800D01*
X134181529Y-104460132D01*
X134000889Y-104424200D01*
X133816711Y-104424200D01*
X133636071Y-104460132D01*
X133465911Y-104530614D01*
X133312772Y-104632938D01*
X133182538Y-104763172D01*
X133080214Y-104916311D01*
X133009732Y-105086471D01*
X132973800Y-105267111D01*
X132303800Y-105267111D01*
X132303800Y-105216311D01*
X132267868Y-105035671D01*
X132197386Y-104865511D01*
X132095062Y-104712372D01*
X131964828Y-104582138D01*
X131811689Y-104479814D01*
X131641529Y-104409332D01*
X131460889Y-104373400D01*
X131276711Y-104373400D01*
X131096071Y-104409332D01*
X130925911Y-104479814D01*
X130772772Y-104582138D01*
X130642538Y-104712372D01*
X130540214Y-104865511D01*
X130469732Y-105035671D01*
X130433800Y-105216311D01*
X111708000Y-105216311D01*
X111708000Y-99323511D01*
X129671800Y-99323511D01*
X129671800Y-99507689D01*
X129707732Y-99688329D01*
X129778214Y-99858489D01*
X129880538Y-100011628D01*
X130010772Y-100141862D01*
X130163911Y-100244186D01*
X130334071Y-100314668D01*
X130514711Y-100350600D01*
X130698889Y-100350600D01*
X130879529Y-100314668D01*
X131049689Y-100244186D01*
X131165018Y-100167126D01*
X131180932Y-100247129D01*
X131251414Y-100417289D01*
X131353738Y-100570428D01*
X131483972Y-100700662D01*
X131637111Y-100802986D01*
X131807271Y-100873468D01*
X131987911Y-100909400D01*
X132172089Y-100909400D01*
X132352729Y-100873468D01*
X132522889Y-100802986D01*
X132676028Y-100700662D01*
X132806262Y-100570428D01*
X132908586Y-100417289D01*
X132979068Y-100247129D01*
X133015000Y-100066489D01*
X133015000Y-99882311D01*
X132979068Y-99701671D01*
X132908586Y-99531511D01*
X132806262Y-99378372D01*
X132676028Y-99248138D01*
X132522889Y-99145814D01*
X132352729Y-99075332D01*
X132187515Y-99042468D01*
X132066458Y-98921412D01*
X132043438Y-98893362D01*
X131931520Y-98801513D01*
X131803833Y-98733263D01*
X131665285Y-98691235D01*
X131557305Y-98680600D01*
X131521200Y-98677044D01*
X131485095Y-98680600D01*
X131189751Y-98680600D01*
X131158532Y-98659740D01*
X164881000Y-98659740D01*
X164881000Y-98952260D01*
X164938068Y-99239158D01*
X165050010Y-99509411D01*
X165212525Y-99752632D01*
X165419368Y-99959475D01*
X165662589Y-100121990D01*
X165932842Y-100233932D01*
X166219740Y-100291000D01*
X166512260Y-100291000D01*
X166799158Y-100233932D01*
X167069411Y-100121990D01*
X167312632Y-99959475D01*
X167519475Y-99752632D01*
X167681990Y-99509411D01*
X167793932Y-99239158D01*
X167851000Y-98952260D01*
X167851000Y-98659740D01*
X171881000Y-98659740D01*
X171881000Y-98952260D01*
X171938068Y-99239158D01*
X172050010Y-99509411D01*
X172212525Y-99752632D01*
X172419368Y-99959475D01*
X172662589Y-100121990D01*
X172932842Y-100233932D01*
X173219740Y-100291000D01*
X173512260Y-100291000D01*
X173799158Y-100233932D01*
X174069411Y-100121990D01*
X174312632Y-99959475D01*
X174519475Y-99752632D01*
X174681990Y-99509411D01*
X174793932Y-99239158D01*
X174851000Y-98952260D01*
X174851000Y-98659740D01*
X174793932Y-98372842D01*
X174681990Y-98102589D01*
X174519475Y-97859368D01*
X174312632Y-97652525D01*
X174069411Y-97490010D01*
X173799158Y-97378068D01*
X173512260Y-97321000D01*
X173219740Y-97321000D01*
X172932842Y-97378068D01*
X172662589Y-97490010D01*
X172419368Y-97652525D01*
X172212525Y-97859368D01*
X172050010Y-98102589D01*
X171938068Y-98372842D01*
X171881000Y-98659740D01*
X167851000Y-98659740D01*
X167793932Y-98372842D01*
X167681990Y-98102589D01*
X167519475Y-97859368D01*
X167312632Y-97652525D01*
X167069411Y-97490010D01*
X166799158Y-97378068D01*
X166512260Y-97321000D01*
X166219740Y-97321000D01*
X165932842Y-97378068D01*
X165662589Y-97490010D01*
X165419368Y-97652525D01*
X165212525Y-97859368D01*
X165050010Y-98102589D01*
X164938068Y-98372842D01*
X164881000Y-98659740D01*
X131158532Y-98659740D01*
X131049689Y-98587014D01*
X130879529Y-98516532D01*
X130698889Y-98480600D01*
X130514711Y-98480600D01*
X130334071Y-98516532D01*
X130163911Y-98587014D01*
X130010772Y-98689338D01*
X129880538Y-98819572D01*
X129778214Y-98972711D01*
X129707732Y-99142871D01*
X129671800Y-99323511D01*
X111708000Y-99323511D01*
X111708000Y-90423661D01*
X142881400Y-90423661D01*
X142881400Y-90627539D01*
X142921174Y-90827498D01*
X142999195Y-91015856D01*
X143112463Y-91185374D01*
X143131400Y-91204311D01*
X143131401Y-93606088D01*
X143112463Y-93625026D01*
X142999195Y-93794544D01*
X142921174Y-93982902D01*
X142881400Y-94182861D01*
X142881400Y-94386739D01*
X142921174Y-94586698D01*
X142999195Y-94775056D01*
X143112463Y-94944574D01*
X143256626Y-95088737D01*
X143426144Y-95202005D01*
X143614502Y-95280026D01*
X143814461Y-95319800D01*
X144018339Y-95319800D01*
X144218298Y-95280026D01*
X144406656Y-95202005D01*
X144576174Y-95088737D01*
X144595111Y-95069800D01*
X152798916Y-95069800D01*
X152769911Y-95081814D01*
X152629849Y-95175400D01*
X146797294Y-95175400D01*
X146761199Y-95171845D01*
X146725104Y-95175400D01*
X146725095Y-95175400D01*
X146664169Y-95181401D01*
X146650089Y-95178600D01*
X146465911Y-95178600D01*
X146285271Y-95214532D01*
X146115111Y-95285014D01*
X145961972Y-95387338D01*
X145831738Y-95517572D01*
X145729414Y-95670711D01*
X145658932Y-95840871D01*
X145623000Y-96021511D01*
X145623000Y-96205689D01*
X145658932Y-96386329D01*
X145729414Y-96556489D01*
X145831738Y-96709628D01*
X145961972Y-96839862D01*
X146115111Y-96942186D01*
X146285271Y-97012668D01*
X146465911Y-97048600D01*
X146650089Y-97048600D01*
X146830729Y-97012668D01*
X147000889Y-96942186D01*
X147154028Y-96839862D01*
X147284262Y-96709628D01*
X147327178Y-96645400D01*
X152629849Y-96645400D01*
X152769911Y-96738986D01*
X152940071Y-96809468D01*
X153120711Y-96845400D01*
X153304889Y-96845400D01*
X153485529Y-96809468D01*
X153655689Y-96738986D01*
X153808828Y-96636662D01*
X153939062Y-96506428D01*
X154041386Y-96353289D01*
X154111868Y-96183129D01*
X154147800Y-96002489D01*
X154147800Y-95818311D01*
X154111868Y-95637671D01*
X154041386Y-95467511D01*
X153939062Y-95314372D01*
X153808828Y-95184138D01*
X153655689Y-95081814D01*
X153626684Y-95069800D01*
X153776643Y-95069800D01*
X155438514Y-96731672D01*
X155367174Y-96903902D01*
X155327400Y-97103861D01*
X155327400Y-97307739D01*
X155367174Y-97507698D01*
X155445195Y-97696056D01*
X155558463Y-97865574D01*
X155702626Y-98009737D01*
X155872144Y-98123005D01*
X156060502Y-98201026D01*
X156260461Y-98240800D01*
X156464339Y-98240800D01*
X156664298Y-98201026D01*
X156852656Y-98123005D01*
X157022174Y-98009737D01*
X157166337Y-97865574D01*
X157279605Y-97696056D01*
X157357626Y-97507698D01*
X157397400Y-97307739D01*
X157397400Y-97103861D01*
X157357626Y-96903902D01*
X157279605Y-96715544D01*
X157166337Y-96546026D01*
X157149611Y-96529300D01*
X157147400Y-96506846D01*
X157147400Y-96506839D01*
X157136041Y-96391513D01*
X157134469Y-96386329D01*
X157091154Y-96243540D01*
X157018262Y-96107167D01*
X156920164Y-95987636D01*
X156890217Y-95963059D01*
X155526269Y-94599111D01*
X158018200Y-94599111D01*
X158018200Y-94783289D01*
X158054132Y-94963929D01*
X158124614Y-95134089D01*
X158226938Y-95287228D01*
X158357172Y-95417462D01*
X158510311Y-95519786D01*
X158680471Y-95590268D01*
X158861111Y-95626200D01*
X159045289Y-95626200D01*
X159225929Y-95590268D01*
X159396089Y-95519786D01*
X159536151Y-95426200D01*
X161120459Y-95426200D01*
X161271271Y-95488668D01*
X161451911Y-95524600D01*
X161636089Y-95524600D01*
X161816729Y-95488668D01*
X161986889Y-95418186D01*
X162140028Y-95315862D01*
X162270262Y-95185628D01*
X162372586Y-95032489D01*
X162443068Y-94862329D01*
X162479000Y-94681689D01*
X162479000Y-94497511D01*
X162443068Y-94316871D01*
X162372586Y-94146711D01*
X162270262Y-93993572D01*
X162140028Y-93863338D01*
X161986889Y-93761014D01*
X161816729Y-93690532D01*
X161636089Y-93654600D01*
X161451911Y-93654600D01*
X161271271Y-93690532D01*
X161101111Y-93761014D01*
X160947972Y-93863338D01*
X160855110Y-93956200D01*
X159536151Y-93956200D01*
X159396089Y-93862614D01*
X159225929Y-93792132D01*
X159045289Y-93756200D01*
X158861111Y-93756200D01*
X158680471Y-93792132D01*
X158510311Y-93862614D01*
X158357172Y-93964938D01*
X158226938Y-94095172D01*
X158124614Y-94248311D01*
X158054132Y-94418471D01*
X158018200Y-94599111D01*
X155526269Y-94599111D01*
X154684147Y-93756990D01*
X154659564Y-93727036D01*
X154540033Y-93628938D01*
X154403660Y-93556046D01*
X154255687Y-93511159D01*
X154140361Y-93499800D01*
X154140353Y-93499800D01*
X154101800Y-93496003D01*
X154063247Y-93499800D01*
X144701400Y-93499800D01*
X144701400Y-91204311D01*
X144720337Y-91185374D01*
X144833605Y-91015856D01*
X144911626Y-90827498D01*
X144928118Y-90744582D01*
X146640200Y-90744582D01*
X146640200Y-91068618D01*
X146703417Y-91386429D01*
X146827420Y-91685799D01*
X147007445Y-91955226D01*
X147236574Y-92184355D01*
X147506001Y-92364380D01*
X147805371Y-92488383D01*
X148123182Y-92551600D01*
X148447218Y-92551600D01*
X148765029Y-92488383D01*
X149064399Y-92364380D01*
X149333826Y-92184355D01*
X149562955Y-91955226D01*
X149742980Y-91685799D01*
X149866983Y-91386429D01*
X149930200Y-91068618D01*
X149930200Y-90744582D01*
X149884729Y-90515982D01*
X163455000Y-90515982D01*
X163455000Y-90840018D01*
X163518217Y-91157829D01*
X163642220Y-91457199D01*
X163822245Y-91726626D01*
X164051374Y-91955755D01*
X164320801Y-92135780D01*
X164620171Y-92259783D01*
X164937982Y-92323000D01*
X165262018Y-92323000D01*
X165579829Y-92259783D01*
X165879199Y-92135780D01*
X166148626Y-91955755D01*
X166377755Y-91726626D01*
X166557780Y-91457199D01*
X166681783Y-91157829D01*
X166745000Y-90840018D01*
X166745000Y-90515982D01*
X166681783Y-90198171D01*
X166557780Y-89898801D01*
X166377755Y-89629374D01*
X166148626Y-89400245D01*
X165879199Y-89220220D01*
X165579829Y-89096217D01*
X165262018Y-89033000D01*
X164937982Y-89033000D01*
X164620171Y-89096217D01*
X164320801Y-89220220D01*
X164051374Y-89400245D01*
X163822245Y-89629374D01*
X163642220Y-89898801D01*
X163518217Y-90198171D01*
X163455000Y-90515982D01*
X149884729Y-90515982D01*
X149866983Y-90426771D01*
X149742980Y-90127401D01*
X149562955Y-89857974D01*
X149333826Y-89628845D01*
X149064399Y-89448820D01*
X148765029Y-89324817D01*
X148447218Y-89261600D01*
X148123182Y-89261600D01*
X147805371Y-89324817D01*
X147506001Y-89448820D01*
X147236574Y-89628845D01*
X147007445Y-89857974D01*
X146827420Y-90127401D01*
X146703417Y-90426771D01*
X146640200Y-90744582D01*
X144928118Y-90744582D01*
X144951400Y-90627539D01*
X144951400Y-90423661D01*
X144911626Y-90223702D01*
X144833605Y-90035344D01*
X144720337Y-89865826D01*
X144576174Y-89721663D01*
X144406656Y-89608395D01*
X144218298Y-89530374D01*
X144018339Y-89490600D01*
X143814461Y-89490600D01*
X143614502Y-89530374D01*
X143426144Y-89608395D01*
X143256626Y-89721663D01*
X143112463Y-89865826D01*
X142999195Y-90035344D01*
X142921174Y-90223702D01*
X142881400Y-90423661D01*
X111708000Y-90423661D01*
X111708000Y-87274061D01*
X147097800Y-87274061D01*
X147097800Y-87477939D01*
X147137574Y-87677898D01*
X147215595Y-87866256D01*
X147328863Y-88035774D01*
X147473026Y-88179937D01*
X147642544Y-88293205D01*
X147830902Y-88371226D01*
X148030861Y-88411000D01*
X148234739Y-88411000D01*
X148434698Y-88371226D01*
X148623056Y-88293205D01*
X148792574Y-88179937D01*
X148811511Y-88161000D01*
X151711587Y-88161000D01*
X151736795Y-88221856D01*
X151850063Y-88391374D01*
X151994226Y-88535537D01*
X152163744Y-88648805D01*
X152352102Y-88726826D01*
X152552061Y-88766600D01*
X152755939Y-88766600D01*
X152955898Y-88726826D01*
X153144256Y-88648805D01*
X153313774Y-88535537D01*
X153457937Y-88391374D01*
X153571205Y-88221856D01*
X153649226Y-88033498D01*
X153689000Y-87833539D01*
X153689000Y-87629661D01*
X153649226Y-87429702D01*
X153571205Y-87241344D01*
X153457937Y-87071826D01*
X153313774Y-86927663D01*
X153144256Y-86814395D01*
X152955898Y-86736374D01*
X152755939Y-86696600D01*
X152692596Y-86696600D01*
X152600260Y-86647246D01*
X152452287Y-86602359D01*
X152336961Y-86591000D01*
X152336953Y-86591000D01*
X152298400Y-86587203D01*
X152259847Y-86591000D01*
X151899484Y-86591000D01*
X151928489Y-86578986D01*
X152068551Y-86485400D01*
X156947849Y-86485400D01*
X157087911Y-86578986D01*
X157258071Y-86649468D01*
X157438711Y-86685400D01*
X157622889Y-86685400D01*
X157803529Y-86649468D01*
X157973689Y-86578986D01*
X158126828Y-86476662D01*
X158219690Y-86383800D01*
X160859449Y-86383800D01*
X160999511Y-86477386D01*
X161169671Y-86547868D01*
X161350311Y-86583800D01*
X161534489Y-86583800D01*
X161715129Y-86547868D01*
X161885289Y-86477386D01*
X162038428Y-86375062D01*
X162168662Y-86244828D01*
X162270986Y-86091689D01*
X162341468Y-85921529D01*
X162377400Y-85740889D01*
X162377400Y-85556711D01*
X162341468Y-85376071D01*
X162270986Y-85205911D01*
X162168662Y-85052772D01*
X162038428Y-84922538D01*
X161885289Y-84820214D01*
X161715129Y-84749732D01*
X161534489Y-84713800D01*
X161350311Y-84713800D01*
X161169671Y-84749732D01*
X160999511Y-84820214D01*
X160859449Y-84913800D01*
X157954341Y-84913800D01*
X157803529Y-84851332D01*
X157622889Y-84815400D01*
X157438711Y-84815400D01*
X157258071Y-84851332D01*
X157087911Y-84921814D01*
X156947849Y-85015400D01*
X152068551Y-85015400D01*
X151928489Y-84921814D01*
X151758329Y-84851332D01*
X151577689Y-84815400D01*
X151393511Y-84815400D01*
X151212871Y-84851332D01*
X151042711Y-84921814D01*
X150889572Y-85024138D01*
X150759338Y-85154372D01*
X150657014Y-85307511D01*
X150586532Y-85477671D01*
X150550600Y-85658311D01*
X150550600Y-85842489D01*
X150586532Y-86023129D01*
X150657014Y-86193289D01*
X150759338Y-86346428D01*
X150889572Y-86476662D01*
X151042711Y-86578986D01*
X151071716Y-86591000D01*
X148811511Y-86591000D01*
X148792574Y-86572063D01*
X148623056Y-86458795D01*
X148434698Y-86380774D01*
X148234739Y-86341000D01*
X148030861Y-86341000D01*
X147830902Y-86380774D01*
X147642544Y-86458795D01*
X147473026Y-86572063D01*
X147328863Y-86716226D01*
X147215595Y-86885744D01*
X147137574Y-87074102D01*
X147097800Y-87274061D01*
X111708000Y-87274061D01*
X111708000Y-82133982D01*
X146183000Y-82133982D01*
X146183000Y-82458018D01*
X146246217Y-82775829D01*
X146370220Y-83075199D01*
X146550245Y-83344626D01*
X146779374Y-83573755D01*
X147048801Y-83753780D01*
X147348171Y-83877783D01*
X147665982Y-83941000D01*
X147990018Y-83941000D01*
X148307829Y-83877783D01*
X148607199Y-83753780D01*
X148876626Y-83573755D01*
X149105755Y-83344626D01*
X149285780Y-83075199D01*
X149409783Y-82775829D01*
X149473000Y-82458018D01*
X149473000Y-82133982D01*
X149409783Y-81816171D01*
X149285780Y-81516801D01*
X149105755Y-81247374D01*
X148876626Y-81018245D01*
X148607199Y-80838220D01*
X148307829Y-80714217D01*
X147990018Y-80651000D01*
X147665982Y-80651000D01*
X147348171Y-80714217D01*
X147048801Y-80838220D01*
X146779374Y-81018245D01*
X146550245Y-81247374D01*
X146370220Y-81516801D01*
X146246217Y-81816171D01*
X146183000Y-82133982D01*
X111708000Y-82133982D01*
X111708000Y-73735000D01*
X124296293Y-73735000D01*
X124166406Y-73864887D01*
G04 #@! TA.AperFunction,Conductor*
D19*
G36*
X124166406Y-73864887D02*
G01*
X123874536Y-74301702D01*
X123673492Y-74787065D01*
X123571000Y-75302323D01*
X123571000Y-75827677D01*
X123673492Y-76342935D01*
X123874536Y-76828298D01*
X124166406Y-77265113D01*
X124537887Y-77636594D01*
X124974702Y-77928464D01*
X125460065Y-78129508D01*
X125975323Y-78232000D01*
X126500677Y-78232000D01*
X127015935Y-78129508D01*
X127501298Y-77928464D01*
X127938113Y-77636594D01*
X128309594Y-77265113D01*
X128601464Y-76828298D01*
X128657001Y-76694219D01*
X128729203Y-76782197D01*
X128957395Y-76969469D01*
X129217737Y-77108625D01*
X129500224Y-77194316D01*
X129794000Y-77223251D01*
X130087777Y-77194316D01*
X130370264Y-77108625D01*
X130630606Y-76969469D01*
X130858797Y-76782197D01*
X131046069Y-76554006D01*
X131064000Y-76520459D01*
X131081931Y-76554006D01*
X131269203Y-76782197D01*
X131497395Y-76969469D01*
X131757737Y-77108625D01*
X132040224Y-77194316D01*
X132334000Y-77223251D01*
X132627777Y-77194316D01*
X132910264Y-77108625D01*
X133170606Y-76969469D01*
X133398797Y-76782197D01*
X133586069Y-76554006D01*
X133604000Y-76520459D01*
X133621931Y-76554006D01*
X133809203Y-76782197D01*
X134037395Y-76969469D01*
X134297737Y-77108625D01*
X134580224Y-77194316D01*
X134874000Y-77223251D01*
X135167777Y-77194316D01*
X135450264Y-77108625D01*
X135710606Y-76969469D01*
X135938797Y-76782197D01*
X136126069Y-76554006D01*
X136147424Y-76514053D01*
X136295514Y-76716729D01*
X136511965Y-76915733D01*
X136763081Y-77068686D01*
X137039211Y-77169709D01*
X137054974Y-77172358D01*
X137287000Y-77051217D01*
X137287000Y-75692000D01*
X137267000Y-75692000D01*
X137267000Y-75438000D01*
X137287000Y-75438000D01*
X137287000Y-74078783D01*
X137541000Y-74078783D01*
X137541000Y-75438000D01*
X137561000Y-75438000D01*
X137561000Y-75692000D01*
X137541000Y-75692000D01*
X137541000Y-77051217D01*
X137773026Y-77172358D01*
X137788789Y-77169709D01*
X138064919Y-77068686D01*
X138316035Y-76915733D01*
X138532486Y-76716729D01*
X138680576Y-76514053D01*
X138701931Y-76554006D01*
X138889203Y-76782197D01*
X139117395Y-76969469D01*
X139377737Y-77108625D01*
X139660224Y-77194316D01*
X139954000Y-77223251D01*
X140247777Y-77194316D01*
X140530264Y-77108625D01*
X140790606Y-76969469D01*
X141018797Y-76782197D01*
X141206069Y-76554006D01*
X141224000Y-76520459D01*
X141241931Y-76554006D01*
X141429203Y-76782197D01*
X141657395Y-76969469D01*
X141917737Y-77108625D01*
X142200224Y-77194316D01*
X142494000Y-77223251D01*
X142787777Y-77194316D01*
X143070264Y-77108625D01*
X143330606Y-76969469D01*
X143558797Y-76782197D01*
X143746069Y-76554006D01*
X143764000Y-76520459D01*
X143781931Y-76554006D01*
X143969203Y-76782197D01*
X144197395Y-76969469D01*
X144457737Y-77108625D01*
X144740224Y-77194316D01*
X145034000Y-77223251D01*
X145327777Y-77194316D01*
X145610264Y-77108625D01*
X145870606Y-76969469D01*
X146098797Y-76782197D01*
X146286069Y-76554006D01*
X146304000Y-76520459D01*
X146321931Y-76554006D01*
X146509203Y-76782197D01*
X146737395Y-76969469D01*
X146997737Y-77108625D01*
X147280224Y-77194316D01*
X147574000Y-77223251D01*
X147867777Y-77194316D01*
X148150264Y-77108625D01*
X148410606Y-76969469D01*
X148638797Y-76782197D01*
X148826069Y-76554006D01*
X148844000Y-76520459D01*
X148861931Y-76554006D01*
X149049203Y-76782197D01*
X149277395Y-76969469D01*
X149537737Y-77108625D01*
X149820224Y-77194316D01*
X150114000Y-77223251D01*
X150407777Y-77194316D01*
X150690264Y-77108625D01*
X150950606Y-76969469D01*
X151178797Y-76782197D01*
X151366069Y-76554006D01*
X151384000Y-76520459D01*
X151401931Y-76554006D01*
X151589203Y-76782197D01*
X151817395Y-76969469D01*
X152077737Y-77108625D01*
X152360224Y-77194316D01*
X152654000Y-77223251D01*
X152947777Y-77194316D01*
X153230264Y-77108625D01*
X153490606Y-76969469D01*
X153718797Y-76782197D01*
X153906069Y-76554006D01*
X154045225Y-76293663D01*
X154130916Y-76011176D01*
X154152600Y-75791018D01*
X154152600Y-75338982D01*
X155219400Y-75338982D01*
X155219400Y-75791019D01*
X155241084Y-76011177D01*
X155326775Y-76293664D01*
X155465931Y-76554006D01*
X155653203Y-76782197D01*
X155881395Y-76969469D01*
X156141737Y-77108625D01*
X156424224Y-77194316D01*
X156718000Y-77223251D01*
X157011777Y-77194316D01*
X157294264Y-77108625D01*
X157554606Y-76969469D01*
X157782797Y-76782197D01*
X157970069Y-76554006D01*
X157988000Y-76520459D01*
X158005931Y-76554006D01*
X158193203Y-76782197D01*
X158421395Y-76969469D01*
X158681737Y-77108625D01*
X158964224Y-77194316D01*
X159258000Y-77223251D01*
X159551777Y-77194316D01*
X159834264Y-77108625D01*
X160094606Y-76969469D01*
X160322797Y-76782197D01*
X160510069Y-76554006D01*
X160528000Y-76520459D01*
X160545931Y-76554006D01*
X160733203Y-76782197D01*
X160961395Y-76969469D01*
X161221737Y-77108625D01*
X161504224Y-77194316D01*
X161798000Y-77223251D01*
X162091777Y-77194316D01*
X162374264Y-77108625D01*
X162634606Y-76969469D01*
X162862797Y-76782197D01*
X163050069Y-76554006D01*
X163068000Y-76520459D01*
X163085931Y-76554006D01*
X163273203Y-76782197D01*
X163501395Y-76969469D01*
X163761737Y-77108625D01*
X164044224Y-77194316D01*
X164338000Y-77223251D01*
X164631777Y-77194316D01*
X164914264Y-77108625D01*
X165174606Y-76969469D01*
X165402797Y-76782197D01*
X165590069Y-76554006D01*
X165608000Y-76520459D01*
X165625931Y-76554006D01*
X165813203Y-76782197D01*
X166041395Y-76969469D01*
X166301737Y-77108625D01*
X166584224Y-77194316D01*
X166878000Y-77223251D01*
X167171777Y-77194316D01*
X167454264Y-77108625D01*
X167714606Y-76969469D01*
X167942797Y-76782197D01*
X168130069Y-76554006D01*
X168148000Y-76520459D01*
X168165931Y-76554006D01*
X168353203Y-76782197D01*
X168581395Y-76969469D01*
X168841737Y-77108625D01*
X169124224Y-77194316D01*
X169418000Y-77223251D01*
X169711777Y-77194316D01*
X169994264Y-77108625D01*
X170254606Y-76969469D01*
X170482797Y-76782197D01*
X170670069Y-76554006D01*
X170688000Y-76520459D01*
X170705931Y-76554006D01*
X170893203Y-76782197D01*
X171121395Y-76969469D01*
X171381737Y-77108625D01*
X171664224Y-77194316D01*
X171958000Y-77223251D01*
X172251777Y-77194316D01*
X172534264Y-77108625D01*
X172794606Y-76969469D01*
X173022797Y-76782197D01*
X173210069Y-76554006D01*
X173228000Y-76520459D01*
X173245931Y-76554006D01*
X173433203Y-76782197D01*
X173661395Y-76969469D01*
X173921737Y-77108625D01*
X174204224Y-77194316D01*
X174498000Y-77223251D01*
X174791777Y-77194316D01*
X175074264Y-77108625D01*
X175334606Y-76969469D01*
X175562797Y-76782197D01*
X175750069Y-76554006D01*
X175889225Y-76293663D01*
X175974916Y-76011176D01*
X175996600Y-75791018D01*
X175996600Y-75338981D01*
X175974916Y-75118823D01*
X175889225Y-74836336D01*
X175750069Y-74575994D01*
X175562797Y-74347803D01*
X175334605Y-74160531D01*
X175074263Y-74021375D01*
X174791776Y-73935684D01*
X174498000Y-73906749D01*
X174204223Y-73935684D01*
X173921736Y-74021375D01*
X173661394Y-74160531D01*
X173433203Y-74347803D01*
X173245931Y-74575995D01*
X173228000Y-74609541D01*
X173210069Y-74575994D01*
X173022797Y-74347803D01*
X172794605Y-74160531D01*
X172534263Y-74021375D01*
X172251776Y-73935684D01*
X171958000Y-73906749D01*
X171664223Y-73935684D01*
X171381736Y-74021375D01*
X171121394Y-74160531D01*
X170893203Y-74347803D01*
X170705931Y-74575995D01*
X170688000Y-74609541D01*
X170670069Y-74575994D01*
X170482797Y-74347803D01*
X170254605Y-74160531D01*
X169994263Y-74021375D01*
X169711776Y-73935684D01*
X169418000Y-73906749D01*
X169124223Y-73935684D01*
X168841736Y-74021375D01*
X168581394Y-74160531D01*
X168353203Y-74347803D01*
X168165931Y-74575995D01*
X168148000Y-74609541D01*
X168130069Y-74575994D01*
X167942797Y-74347803D01*
X167714605Y-74160531D01*
X167454263Y-74021375D01*
X167171776Y-73935684D01*
X166878000Y-73906749D01*
X166584223Y-73935684D01*
X166301736Y-74021375D01*
X166041394Y-74160531D01*
X165813203Y-74347803D01*
X165625931Y-74575995D01*
X165608000Y-74609541D01*
X165590069Y-74575994D01*
X165402797Y-74347803D01*
X165174605Y-74160531D01*
X164914263Y-74021375D01*
X164631776Y-73935684D01*
X164338000Y-73906749D01*
X164044223Y-73935684D01*
X163761736Y-74021375D01*
X163501394Y-74160531D01*
X163273203Y-74347803D01*
X163085931Y-74575995D01*
X163068000Y-74609541D01*
X163050069Y-74575994D01*
X162862797Y-74347803D01*
X162634605Y-74160531D01*
X162374263Y-74021375D01*
X162091776Y-73935684D01*
X161798000Y-73906749D01*
X161504223Y-73935684D01*
X161221736Y-74021375D01*
X160961394Y-74160531D01*
X160733203Y-74347803D01*
X160545931Y-74575995D01*
X160528000Y-74609541D01*
X160510069Y-74575994D01*
X160322797Y-74347803D01*
X160094605Y-74160531D01*
X159834263Y-74021375D01*
X159551776Y-73935684D01*
X159258000Y-73906749D01*
X158964223Y-73935684D01*
X158681736Y-74021375D01*
X158421394Y-74160531D01*
X158193203Y-74347803D01*
X158005931Y-74575995D01*
X157988000Y-74609541D01*
X157970069Y-74575994D01*
X157782797Y-74347803D01*
X157554605Y-74160531D01*
X157294263Y-74021375D01*
X157011776Y-73935684D01*
X156718000Y-73906749D01*
X156424223Y-73935684D01*
X156141736Y-74021375D01*
X155881394Y-74160531D01*
X155653203Y-74347803D01*
X155465931Y-74575995D01*
X155326775Y-74836337D01*
X155241084Y-75118824D01*
X155219400Y-75338982D01*
X154152600Y-75338982D01*
X154152600Y-75338981D01*
X154130916Y-75118823D01*
X154045225Y-74836336D01*
X153906069Y-74575994D01*
X153718797Y-74347803D01*
X153490605Y-74160531D01*
X153230263Y-74021375D01*
X152947776Y-73935684D01*
X152654000Y-73906749D01*
X152360223Y-73935684D01*
X152077736Y-74021375D01*
X151817394Y-74160531D01*
X151589203Y-74347803D01*
X151401931Y-74575995D01*
X151384000Y-74609541D01*
X151366069Y-74575994D01*
X151178797Y-74347803D01*
X150950605Y-74160531D01*
X150690263Y-74021375D01*
X150407776Y-73935684D01*
X150114000Y-73906749D01*
X149820223Y-73935684D01*
X149537736Y-74021375D01*
X149277394Y-74160531D01*
X149049203Y-74347803D01*
X148861931Y-74575995D01*
X148844000Y-74609541D01*
X148826069Y-74575994D01*
X148638797Y-74347803D01*
X148410605Y-74160531D01*
X148150263Y-74021375D01*
X147867776Y-73935684D01*
X147574000Y-73906749D01*
X147280223Y-73935684D01*
X146997736Y-74021375D01*
X146737394Y-74160531D01*
X146509203Y-74347803D01*
X146321931Y-74575995D01*
X146304000Y-74609541D01*
X146286069Y-74575994D01*
X146098797Y-74347803D01*
X145870605Y-74160531D01*
X145610263Y-74021375D01*
X145327776Y-73935684D01*
X145034000Y-73906749D01*
X144740223Y-73935684D01*
X144457736Y-74021375D01*
X144197394Y-74160531D01*
X143969203Y-74347803D01*
X143781931Y-74575995D01*
X143764000Y-74609541D01*
X143746069Y-74575994D01*
X143558797Y-74347803D01*
X143330605Y-74160531D01*
X143070263Y-74021375D01*
X142787776Y-73935684D01*
X142494000Y-73906749D01*
X142200223Y-73935684D01*
X141917736Y-74021375D01*
X141657394Y-74160531D01*
X141429203Y-74347803D01*
X141241931Y-74575995D01*
X141224000Y-74609541D01*
X141206069Y-74575994D01*
X141018797Y-74347803D01*
X140790605Y-74160531D01*
X140530263Y-74021375D01*
X140247776Y-73935684D01*
X139954000Y-73906749D01*
X139660223Y-73935684D01*
X139377736Y-74021375D01*
X139117394Y-74160531D01*
X138889203Y-74347803D01*
X138701931Y-74575995D01*
X138680576Y-74615947D01*
X138532486Y-74413271D01*
X138316035Y-74214267D01*
X138064919Y-74061314D01*
X137788789Y-73960291D01*
X137773026Y-73957642D01*
X137541000Y-74078783D01*
X137287000Y-74078783D01*
X137054974Y-73957642D01*
X137039211Y-73960291D01*
X136763081Y-74061314D01*
X136511965Y-74214267D01*
X136295514Y-74413271D01*
X136147424Y-74615947D01*
X136126069Y-74575994D01*
X135938797Y-74347803D01*
X135710605Y-74160531D01*
X135450263Y-74021375D01*
X135167776Y-73935684D01*
X134874000Y-73906749D01*
X134580223Y-73935684D01*
X134297736Y-74021375D01*
X134037394Y-74160531D01*
X133809203Y-74347803D01*
X133621931Y-74575995D01*
X133604000Y-74609541D01*
X133586069Y-74575994D01*
X133398797Y-74347803D01*
X133170605Y-74160531D01*
X132910263Y-74021375D01*
X132627776Y-73935684D01*
X132334000Y-73906749D01*
X132040223Y-73935684D01*
X131757736Y-74021375D01*
X131497394Y-74160531D01*
X131269203Y-74347803D01*
X131081931Y-74575995D01*
X131064000Y-74609541D01*
X131046069Y-74575994D01*
X130858797Y-74347803D01*
X130630605Y-74160531D01*
X130370263Y-74021375D01*
X130087776Y-73935684D01*
X129794000Y-73906749D01*
X129500223Y-73935684D01*
X129217736Y-74021375D01*
X128957394Y-74160531D01*
X128729203Y-74347803D01*
X128657001Y-74435781D01*
X128601464Y-74301702D01*
X128309594Y-73864887D01*
X128179707Y-73735000D01*
X175219909Y-73735000D01*
X176328001Y-74843093D01*
X176328000Y-85944125D01*
X176324565Y-85979000D01*
X176328000Y-86013875D01*
X176328000Y-86013876D01*
X176338273Y-86118183D01*
X176378872Y-86252019D01*
X176444800Y-86375362D01*
X176533525Y-86483474D01*
X176560617Y-86505708D01*
X178868001Y-88813093D01*
X178868001Y-88863294D01*
X178738113Y-88733406D01*
X178301298Y-88441536D01*
X177815935Y-88240492D01*
X177300677Y-88138000D01*
X176775323Y-88138000D01*
X176260065Y-88240492D01*
X175774702Y-88441536D01*
X175337887Y-88733406D01*
X174966406Y-89104887D01*
X174674536Y-89541702D01*
X174473492Y-90027065D01*
X174371000Y-90542323D01*
X174371000Y-91067677D01*
X174473492Y-91582935D01*
X174674536Y-92068298D01*
X174966406Y-92505113D01*
X175337887Y-92876594D01*
X175774702Y-93168464D01*
X176260065Y-93369508D01*
X176775323Y-93472000D01*
X177300677Y-93472000D01*
X177815935Y-93369508D01*
X178301298Y-93168464D01*
X178738113Y-92876594D01*
X178868001Y-92746706D01*
X178868000Y-116803293D01*
X178738113Y-116673406D01*
X178301298Y-116381536D01*
X177815935Y-116180492D01*
X177300677Y-116078000D01*
X176775323Y-116078000D01*
X176260065Y-116180492D01*
X175774702Y-116381536D01*
X175337887Y-116673406D01*
X174966406Y-117044887D01*
X174674536Y-117481702D01*
X174473492Y-117967065D01*
X174371000Y-118482323D01*
X174371000Y-119007677D01*
X174473492Y-119522935D01*
X174674536Y-120008298D01*
X174966406Y-120445113D01*
X175337887Y-120816594D01*
X175774702Y-121108464D01*
X176260065Y-121309508D01*
X176775323Y-121412000D01*
X177300677Y-121412000D01*
X177815935Y-121309508D01*
X178301298Y-121108464D01*
X178738113Y-120816594D01*
X178868000Y-120686707D01*
X178868000Y-120990908D01*
X176560617Y-123298292D01*
X176533526Y-123320525D01*
X176511293Y-123347616D01*
X176444801Y-123428637D01*
X176378872Y-123551981D01*
X176338274Y-123685816D01*
X176324565Y-123825000D01*
X176328001Y-123859885D01*
X176328000Y-125655000D01*
X126909707Y-125655000D01*
X127039594Y-125525113D01*
X127331464Y-125088298D01*
X127532508Y-124602935D01*
X127635000Y-124087677D01*
X127635000Y-123598982D01*
X137439400Y-123598982D01*
X137439400Y-124051019D01*
X137461084Y-124271177D01*
X137546775Y-124553664D01*
X137685931Y-124814006D01*
X137873203Y-125042197D01*
X138101395Y-125229469D01*
X138361737Y-125368625D01*
X138644224Y-125454316D01*
X138938000Y-125483251D01*
X139231777Y-125454316D01*
X139514264Y-125368625D01*
X139774606Y-125229469D01*
X140002797Y-125042197D01*
X140190069Y-124814006D01*
X140208000Y-124780459D01*
X140225931Y-124814006D01*
X140413203Y-125042197D01*
X140641395Y-125229469D01*
X140901737Y-125368625D01*
X141184224Y-125454316D01*
X141478000Y-125483251D01*
X141771777Y-125454316D01*
X142054264Y-125368625D01*
X142314606Y-125229469D01*
X142542797Y-125042197D01*
X142730069Y-124814006D01*
X142748000Y-124780459D01*
X142765931Y-124814006D01*
X142953203Y-125042197D01*
X143181395Y-125229469D01*
X143441737Y-125368625D01*
X143724224Y-125454316D01*
X144018000Y-125483251D01*
X144311777Y-125454316D01*
X144594264Y-125368625D01*
X144854606Y-125229469D01*
X145082797Y-125042197D01*
X145270069Y-124814006D01*
X145288000Y-124780459D01*
X145305931Y-124814006D01*
X145493203Y-125042197D01*
X145721395Y-125229469D01*
X145981737Y-125368625D01*
X146264224Y-125454316D01*
X146558000Y-125483251D01*
X146851777Y-125454316D01*
X147134264Y-125368625D01*
X147394606Y-125229469D01*
X147622797Y-125042197D01*
X147810069Y-124814006D01*
X147828000Y-124780459D01*
X147845931Y-124814006D01*
X148033203Y-125042197D01*
X148261395Y-125229469D01*
X148521737Y-125368625D01*
X148804224Y-125454316D01*
X149098000Y-125483251D01*
X149391777Y-125454316D01*
X149674264Y-125368625D01*
X149934606Y-125229469D01*
X150162797Y-125042197D01*
X150350069Y-124814006D01*
X150371424Y-124774053D01*
X150519514Y-124976729D01*
X150735965Y-125175733D01*
X150987081Y-125328686D01*
X151263211Y-125429709D01*
X151278974Y-125432358D01*
X151511000Y-125311217D01*
X151511000Y-123952000D01*
X151765000Y-123952000D01*
X151765000Y-125311217D01*
X151997026Y-125432358D01*
X152012789Y-125429709D01*
X152288919Y-125328686D01*
X152540035Y-125175733D01*
X152756486Y-124976729D01*
X152908000Y-124769367D01*
X153059514Y-124976729D01*
X153275965Y-125175733D01*
X153527081Y-125328686D01*
X153803211Y-125429709D01*
X153818974Y-125432358D01*
X154051000Y-125311217D01*
X154051000Y-123952000D01*
X151765000Y-123952000D01*
X151511000Y-123952000D01*
X151491000Y-123952000D01*
X151491000Y-123698000D01*
X151511000Y-123698000D01*
X151511000Y-122338783D01*
X151765000Y-122338783D01*
X151765000Y-123698000D01*
X154051000Y-123698000D01*
X154051000Y-122338783D01*
X154305000Y-122338783D01*
X154305000Y-123698000D01*
X154325000Y-123698000D01*
X154325000Y-123952000D01*
X154305000Y-123952000D01*
X154305000Y-125311217D01*
X154537026Y-125432358D01*
X154552789Y-125429709D01*
X154828919Y-125328686D01*
X155080035Y-125175733D01*
X155296486Y-124976729D01*
X155444576Y-124774053D01*
X155465931Y-124814006D01*
X155653203Y-125042197D01*
X155881395Y-125229469D01*
X156141737Y-125368625D01*
X156424224Y-125454316D01*
X156718000Y-125483251D01*
X157011777Y-125454316D01*
X157294264Y-125368625D01*
X157554606Y-125229469D01*
X157782797Y-125042197D01*
X157970069Y-124814006D01*
X158109225Y-124553663D01*
X158194916Y-124271176D01*
X158216600Y-124051018D01*
X158216600Y-123598982D01*
X160299400Y-123598982D01*
X160299400Y-124051019D01*
X160321084Y-124271177D01*
X160406775Y-124553664D01*
X160545931Y-124814006D01*
X160733203Y-125042197D01*
X160961395Y-125229469D01*
X161221737Y-125368625D01*
X161504224Y-125454316D01*
X161798000Y-125483251D01*
X162091777Y-125454316D01*
X162374264Y-125368625D01*
X162634606Y-125229469D01*
X162862797Y-125042197D01*
X163050069Y-124814006D01*
X163068000Y-124780459D01*
X163085931Y-124814006D01*
X163273203Y-125042197D01*
X163501395Y-125229469D01*
X163761737Y-125368625D01*
X164044224Y-125454316D01*
X164338000Y-125483251D01*
X164631777Y-125454316D01*
X164914264Y-125368625D01*
X165174606Y-125229469D01*
X165402797Y-125042197D01*
X165590069Y-124814006D01*
X165608000Y-124780459D01*
X165625931Y-124814006D01*
X165813203Y-125042197D01*
X166041395Y-125229469D01*
X166301737Y-125368625D01*
X166584224Y-125454316D01*
X166878000Y-125483251D01*
X167171777Y-125454316D01*
X167454264Y-125368625D01*
X167714606Y-125229469D01*
X167942797Y-125042197D01*
X168130069Y-124814006D01*
X168148000Y-124780459D01*
X168165931Y-124814006D01*
X168353203Y-125042197D01*
X168581395Y-125229469D01*
X168841737Y-125368625D01*
X169124224Y-125454316D01*
X169418000Y-125483251D01*
X169711777Y-125454316D01*
X169994264Y-125368625D01*
X170254606Y-125229469D01*
X170482797Y-125042197D01*
X170670069Y-124814006D01*
X170688000Y-124780459D01*
X170705931Y-124814006D01*
X170893203Y-125042197D01*
X171121395Y-125229469D01*
X171381737Y-125368625D01*
X171664224Y-125454316D01*
X171958000Y-125483251D01*
X172251777Y-125454316D01*
X172534264Y-125368625D01*
X172794606Y-125229469D01*
X173022797Y-125042197D01*
X173210069Y-124814006D01*
X173228000Y-124780459D01*
X173245931Y-124814006D01*
X173433203Y-125042197D01*
X173661395Y-125229469D01*
X173921737Y-125368625D01*
X174204224Y-125454316D01*
X174498000Y-125483251D01*
X174791777Y-125454316D01*
X175074264Y-125368625D01*
X175334606Y-125229469D01*
X175562797Y-125042197D01*
X175750069Y-124814006D01*
X175889225Y-124553663D01*
X175974916Y-124271176D01*
X175996600Y-124051018D01*
X175996600Y-123598981D01*
X175974916Y-123378823D01*
X175889225Y-123096336D01*
X175750069Y-122835994D01*
X175562797Y-122607803D01*
X175334605Y-122420531D01*
X175074263Y-122281375D01*
X174791776Y-122195684D01*
X174498000Y-122166749D01*
X174204223Y-122195684D01*
X173921736Y-122281375D01*
X173661394Y-122420531D01*
X173433203Y-122607803D01*
X173245931Y-122835995D01*
X173228000Y-122869541D01*
X173210069Y-122835994D01*
X173022797Y-122607803D01*
X172794605Y-122420531D01*
X172534263Y-122281375D01*
X172251776Y-122195684D01*
X171958000Y-122166749D01*
X171664223Y-122195684D01*
X171381736Y-122281375D01*
X171121394Y-122420531D01*
X170893203Y-122607803D01*
X170705931Y-122835995D01*
X170688000Y-122869541D01*
X170670069Y-122835994D01*
X170482797Y-122607803D01*
X170254605Y-122420531D01*
X169994263Y-122281375D01*
X169711776Y-122195684D01*
X169418000Y-122166749D01*
X169124223Y-122195684D01*
X168841736Y-122281375D01*
X168581394Y-122420531D01*
X168353203Y-122607803D01*
X168165931Y-122835995D01*
X168148000Y-122869541D01*
X168130069Y-122835994D01*
X167942797Y-122607803D01*
X167714605Y-122420531D01*
X167454263Y-122281375D01*
X167171776Y-122195684D01*
X166878000Y-122166749D01*
X166584223Y-122195684D01*
X166301736Y-122281375D01*
X166041394Y-122420531D01*
X165813203Y-122607803D01*
X165625931Y-122835995D01*
X165608000Y-122869541D01*
X165590069Y-122835994D01*
X165402797Y-122607803D01*
X165174605Y-122420531D01*
X164914263Y-122281375D01*
X164631776Y-122195684D01*
X164338000Y-122166749D01*
X164044223Y-122195684D01*
X163761736Y-122281375D01*
X163501394Y-122420531D01*
X163273203Y-122607803D01*
X163085931Y-122835995D01*
X163068000Y-122869541D01*
X163050069Y-122835994D01*
X162862797Y-122607803D01*
X162634605Y-122420531D01*
X162374263Y-122281375D01*
X162091776Y-122195684D01*
X161798000Y-122166749D01*
X161504223Y-122195684D01*
X161221736Y-122281375D01*
X160961394Y-122420531D01*
X160733203Y-122607803D01*
X160545931Y-122835995D01*
X160406775Y-123096337D01*
X160321084Y-123378824D01*
X160299400Y-123598982D01*
X158216600Y-123598982D01*
X158216600Y-123598981D01*
X158194916Y-123378823D01*
X158109225Y-123096336D01*
X157970069Y-122835994D01*
X157782797Y-122607803D01*
X157554605Y-122420531D01*
X157294263Y-122281375D01*
X157011776Y-122195684D01*
X156718000Y-122166749D01*
X156424223Y-122195684D01*
X156141736Y-122281375D01*
X155881394Y-122420531D01*
X155653203Y-122607803D01*
X155465931Y-122835995D01*
X155444576Y-122875947D01*
X155296486Y-122673271D01*
X155080035Y-122474267D01*
X154828919Y-122321314D01*
X154552789Y-122220291D01*
X154537026Y-122217642D01*
X154305000Y-122338783D01*
X154051000Y-122338783D01*
X153818974Y-122217642D01*
X153803211Y-122220291D01*
X153527081Y-122321314D01*
X153275965Y-122474267D01*
X153059514Y-122673271D01*
X152908000Y-122880633D01*
X152756486Y-122673271D01*
X152540035Y-122474267D01*
X152288919Y-122321314D01*
X152012789Y-122220291D01*
X151997026Y-122217642D01*
X151765000Y-122338783D01*
X151511000Y-122338783D01*
X151278974Y-122217642D01*
X151263211Y-122220291D01*
X150987081Y-122321314D01*
X150735965Y-122474267D01*
X150519514Y-122673271D01*
X150371424Y-122875947D01*
X150350069Y-122835994D01*
X150162797Y-122607803D01*
X149934605Y-122420531D01*
X149674263Y-122281375D01*
X149391776Y-122195684D01*
X149098000Y-122166749D01*
X148804223Y-122195684D01*
X148521736Y-122281375D01*
X148261394Y-122420531D01*
X148033203Y-122607803D01*
X147845931Y-122835995D01*
X147828000Y-122869541D01*
X147810069Y-122835994D01*
X147622797Y-122607803D01*
X147394605Y-122420531D01*
X147134263Y-122281375D01*
X146851776Y-122195684D01*
X146558000Y-122166749D01*
X146264223Y-122195684D01*
X145981736Y-122281375D01*
X145721394Y-122420531D01*
X145493203Y-122607803D01*
X145305931Y-122835995D01*
X145288000Y-122869541D01*
X145270069Y-122835994D01*
X145082797Y-122607803D01*
X144854605Y-122420531D01*
X144594263Y-122281375D01*
X144311776Y-122195684D01*
X144018000Y-122166749D01*
X143724223Y-122195684D01*
X143441736Y-122281375D01*
X143181394Y-122420531D01*
X142953203Y-122607803D01*
X142765931Y-122835995D01*
X142748000Y-122869541D01*
X142730069Y-122835994D01*
X142542797Y-122607803D01*
X142314605Y-122420531D01*
X142054263Y-122281375D01*
X141771776Y-122195684D01*
X141478000Y-122166749D01*
X141184223Y-122195684D01*
X140901736Y-122281375D01*
X140641394Y-122420531D01*
X140413203Y-122607803D01*
X140225931Y-122835995D01*
X140208000Y-122869541D01*
X140190069Y-122835994D01*
X140002797Y-122607803D01*
X139774605Y-122420531D01*
X139514263Y-122281375D01*
X139231776Y-122195684D01*
X138938000Y-122166749D01*
X138644223Y-122195684D01*
X138361736Y-122281375D01*
X138101394Y-122420531D01*
X137873203Y-122607803D01*
X137685931Y-122835995D01*
X137546775Y-123096337D01*
X137461084Y-123378824D01*
X137439400Y-123598982D01*
X127635000Y-123598982D01*
X127635000Y-123562323D01*
X127532508Y-123047065D01*
X127331464Y-122561702D01*
X127039594Y-122124887D01*
X126668113Y-121753406D01*
X126231298Y-121461536D01*
X125745935Y-121260492D01*
X125230677Y-121158000D01*
X124705323Y-121158000D01*
X124190065Y-121260492D01*
X123704702Y-121461536D01*
X123267887Y-121753406D01*
X122896406Y-122124887D01*
X122604536Y-122561702D01*
X122403492Y-123047065D01*
X122301000Y-123562323D01*
X122301000Y-124087677D01*
X122403492Y-124602935D01*
X122604536Y-125088298D01*
X122896406Y-125525113D01*
X123026293Y-125655000D01*
X111708000Y-125655000D01*
X111708000Y-115477911D01*
X139120600Y-115477911D01*
X139120600Y-115662089D01*
X139156532Y-115842729D01*
X139227014Y-116012889D01*
X139329338Y-116166028D01*
X139459572Y-116296262D01*
X139612711Y-116398586D01*
X139782871Y-116469068D01*
X139963511Y-116505000D01*
X140147689Y-116505000D01*
X140328329Y-116469068D01*
X140498489Y-116398586D01*
X140638551Y-116305000D01*
X145721049Y-116305000D01*
X145861111Y-116398586D01*
X146031271Y-116469068D01*
X146211911Y-116505000D01*
X146396089Y-116505000D01*
X146576729Y-116469068D01*
X146746889Y-116398586D01*
X146900028Y-116296262D01*
X147030262Y-116166028D01*
X147132586Y-116012889D01*
X147203068Y-115842729D01*
X147239000Y-115662089D01*
X147239000Y-115477911D01*
X147228896Y-115427111D01*
X152125400Y-115427111D01*
X152125400Y-115611289D01*
X152161332Y-115791929D01*
X152231814Y-115962089D01*
X152334138Y-116115228D01*
X152464372Y-116245462D01*
X152617511Y-116347786D01*
X152787671Y-116418268D01*
X152968311Y-116454200D01*
X153152489Y-116454200D01*
X153333129Y-116418268D01*
X153503289Y-116347786D01*
X153643351Y-116254200D01*
X158533694Y-116254200D01*
X158571082Y-116344463D01*
X158750013Y-116612252D01*
X158977748Y-116839987D01*
X158977767Y-116840000D01*
X158977748Y-116840013D01*
X158750013Y-117067748D01*
X158571082Y-117335537D01*
X158447832Y-117633088D01*
X158385000Y-117948967D01*
X158385000Y-118271033D01*
X158447832Y-118586912D01*
X158571082Y-118884463D01*
X158750013Y-119152252D01*
X158977748Y-119379987D01*
X159245537Y-119558918D01*
X159543088Y-119682168D01*
X159858967Y-119745000D01*
X160181033Y-119745000D01*
X160496912Y-119682168D01*
X160794463Y-119558918D01*
X161062252Y-119379987D01*
X161289987Y-119152252D01*
X161290000Y-119152233D01*
X161290013Y-119152252D01*
X161517748Y-119379987D01*
X161785537Y-119558918D01*
X162083088Y-119682168D01*
X162398967Y-119745000D01*
X162721033Y-119745000D01*
X163036912Y-119682168D01*
X163334463Y-119558918D01*
X163602252Y-119379987D01*
X163829987Y-119152252D01*
X163830000Y-119152233D01*
X163830013Y-119152252D01*
X164057748Y-119379987D01*
X164325537Y-119558918D01*
X164623088Y-119682168D01*
X164938967Y-119745000D01*
X165261033Y-119745000D01*
X165576912Y-119682168D01*
X165874463Y-119558918D01*
X166142252Y-119379987D01*
X166369987Y-119152252D01*
X166370000Y-119152233D01*
X166370013Y-119152252D01*
X166597748Y-119379987D01*
X166865537Y-119558918D01*
X167163088Y-119682168D01*
X167478967Y-119745000D01*
X167801033Y-119745000D01*
X168116912Y-119682168D01*
X168414463Y-119558918D01*
X168682252Y-119379987D01*
X168909987Y-119152252D01*
X168910000Y-119152233D01*
X168910013Y-119152252D01*
X169137748Y-119379987D01*
X169405537Y-119558918D01*
X169703088Y-119682168D01*
X170018967Y-119745000D01*
X170341033Y-119745000D01*
X170656912Y-119682168D01*
X170954463Y-119558918D01*
X171222252Y-119379987D01*
X171449987Y-119152252D01*
X171450000Y-119152233D01*
X171450013Y-119152252D01*
X171677748Y-119379987D01*
X171945537Y-119558918D01*
X172243088Y-119682168D01*
X172558967Y-119745000D01*
X172881033Y-119745000D01*
X173196912Y-119682168D01*
X173494463Y-119558918D01*
X173762252Y-119379987D01*
X173989987Y-119152252D01*
X174168918Y-118884463D01*
X174292168Y-118586912D01*
X174355000Y-118271033D01*
X174355000Y-117948967D01*
X174292168Y-117633088D01*
X174168918Y-117335537D01*
X173989987Y-117067748D01*
X173762252Y-116840013D01*
X173762233Y-116840000D01*
X173762252Y-116839987D01*
X173989987Y-116612252D01*
X174168918Y-116344463D01*
X174292168Y-116046912D01*
X174355000Y-115731033D01*
X174355000Y-115408967D01*
X174292168Y-115093088D01*
X174168918Y-114795537D01*
X173989987Y-114527748D01*
X173762252Y-114300013D01*
X173494463Y-114121082D01*
X173196912Y-113997832D01*
X172881033Y-113935000D01*
X172558967Y-113935000D01*
X172243088Y-113997832D01*
X171945537Y-114121082D01*
X171677748Y-114300013D01*
X171450013Y-114527748D01*
X171450000Y-114527767D01*
X171449987Y-114527748D01*
X171222252Y-114300013D01*
X170954463Y-114121082D01*
X170656912Y-113997832D01*
X170341033Y-113935000D01*
X170018967Y-113935000D01*
X169703088Y-113997832D01*
X169405537Y-114121082D01*
X169137748Y-114300013D01*
X168910013Y-114527748D01*
X168910000Y-114527767D01*
X168909987Y-114527748D01*
X168682252Y-114300013D01*
X168414463Y-114121082D01*
X168116912Y-113997832D01*
X167801033Y-113935000D01*
X167478967Y-113935000D01*
X167163088Y-113997832D01*
X166865537Y-114121082D01*
X166597748Y-114300013D01*
X166370013Y-114527748D01*
X166370000Y-114527767D01*
X166369987Y-114527748D01*
X166142252Y-114300013D01*
X165874463Y-114121082D01*
X165576912Y-113997832D01*
X165261033Y-113935000D01*
X164938967Y-113935000D01*
X164623088Y-113997832D01*
X164325537Y-114121082D01*
X164057748Y-114300013D01*
X163830013Y-114527748D01*
X163830000Y-114527767D01*
X163829987Y-114527748D01*
X163602252Y-114300013D01*
X163334463Y-114121082D01*
X163036912Y-113997832D01*
X162721033Y-113935000D01*
X162398967Y-113935000D01*
X162083088Y-113997832D01*
X161785537Y-114121082D01*
X161517748Y-114300013D01*
X161290013Y-114527748D01*
X161290000Y-114527767D01*
X161289987Y-114527748D01*
X161062252Y-114300013D01*
X160794463Y-114121082D01*
X160496912Y-113997832D01*
X160181033Y-113935000D01*
X159858967Y-113935000D01*
X159543088Y-113997832D01*
X159245537Y-114121082D01*
X158977748Y-114300013D01*
X158750013Y-114527748D01*
X158578657Y-114784200D01*
X153643351Y-114784200D01*
X153503289Y-114690614D01*
X153333129Y-114620132D01*
X153152489Y-114584200D01*
X152968311Y-114584200D01*
X152787671Y-114620132D01*
X152617511Y-114690614D01*
X152464372Y-114792938D01*
X152334138Y-114923172D01*
X152231814Y-115076311D01*
X152161332Y-115246471D01*
X152125400Y-115427111D01*
X147228896Y-115427111D01*
X147203068Y-115297271D01*
X147132586Y-115127111D01*
X147030262Y-114973972D01*
X146900028Y-114843738D01*
X146746889Y-114741414D01*
X146576729Y-114670932D01*
X146396089Y-114635000D01*
X146211911Y-114635000D01*
X146031271Y-114670932D01*
X145861111Y-114741414D01*
X145721049Y-114835000D01*
X140638551Y-114835000D01*
X140498489Y-114741414D01*
X140328329Y-114670932D01*
X140147689Y-114635000D01*
X139963511Y-114635000D01*
X139782871Y-114670932D01*
X139612711Y-114741414D01*
X139459572Y-114843738D01*
X139329338Y-114973972D01*
X139227014Y-115127111D01*
X139156532Y-115297271D01*
X139120600Y-115477911D01*
X111708000Y-115477911D01*
X111708000Y-105216311D01*
X130433800Y-105216311D01*
X130433800Y-105400489D01*
X130469732Y-105581129D01*
X130540214Y-105751289D01*
X130633800Y-105891351D01*
X130633801Y-108625085D01*
X130630244Y-108661200D01*
X130644435Y-108805285D01*
X130686464Y-108943833D01*
X130754714Y-109071520D01*
X130846563Y-109183438D01*
X130874608Y-109206454D01*
X131077541Y-109409387D01*
X131100562Y-109437438D01*
X131212480Y-109529287D01*
X131340167Y-109597537D01*
X131478715Y-109639565D01*
X131579673Y-109649508D01*
X131618881Y-109681686D01*
X131746567Y-109749936D01*
X131772690Y-109757861D01*
X131908871Y-109814268D01*
X132089511Y-109850200D01*
X132273689Y-109850200D01*
X132454329Y-109814268D01*
X132624489Y-109743786D01*
X132777628Y-109641462D01*
X132907862Y-109511228D01*
X133010186Y-109358089D01*
X133080668Y-109187929D01*
X133116600Y-109007289D01*
X133116600Y-108823111D01*
X133080668Y-108642471D01*
X133010186Y-108472311D01*
X132907862Y-108319172D01*
X132777628Y-108188938D01*
X132624489Y-108086614D01*
X132454329Y-108016132D01*
X132273689Y-107980200D01*
X132103800Y-107980200D01*
X132103800Y-105891351D01*
X132197386Y-105751289D01*
X132267868Y-105581129D01*
X132303800Y-105400489D01*
X132303800Y-105267111D01*
X132973800Y-105267111D01*
X132973800Y-105451289D01*
X133009732Y-105631929D01*
X133080214Y-105802089D01*
X133182538Y-105955228D01*
X133312772Y-106085462D01*
X133465911Y-106187786D01*
X133636071Y-106258268D01*
X133816711Y-106294200D01*
X134000889Y-106294200D01*
X134181529Y-106258268D01*
X134351689Y-106187786D01*
X134504828Y-106085462D01*
X134635062Y-105955228D01*
X134644034Y-105941800D01*
X137642710Y-105941800D01*
X137602138Y-105982372D01*
X137499814Y-106135511D01*
X137429332Y-106305671D01*
X137393400Y-106486311D01*
X137393400Y-106670489D01*
X137429332Y-106851129D01*
X137499814Y-107021289D01*
X137602138Y-107174428D01*
X137732372Y-107304662D01*
X137885511Y-107406986D01*
X138055671Y-107477468D01*
X138236311Y-107513400D01*
X138420489Y-107513400D01*
X138601129Y-107477468D01*
X138771289Y-107406986D01*
X138911351Y-107313400D01*
X140387049Y-107313400D01*
X140527111Y-107406986D01*
X140697271Y-107477468D01*
X140877911Y-107513400D01*
X141062089Y-107513400D01*
X141242729Y-107477468D01*
X141412889Y-107406986D01*
X141566028Y-107304662D01*
X141696262Y-107174428D01*
X141798586Y-107021289D01*
X141869068Y-106851129D01*
X141884811Y-106771982D01*
X170821000Y-106771982D01*
X170821000Y-107096018D01*
X170884217Y-107413829D01*
X171008220Y-107713199D01*
X171188245Y-107982626D01*
X171417374Y-108211755D01*
X171686801Y-108391780D01*
X171986171Y-108515783D01*
X172303982Y-108579000D01*
X172628018Y-108579000D01*
X172945829Y-108515783D01*
X173245199Y-108391780D01*
X173514626Y-108211755D01*
X173743755Y-107982626D01*
X173923780Y-107713199D01*
X174047783Y-107413829D01*
X174111000Y-107096018D01*
X174111000Y-106771982D01*
X174047783Y-106454171D01*
X173923780Y-106154801D01*
X173743755Y-105885374D01*
X173514626Y-105656245D01*
X173245199Y-105476220D01*
X172945829Y-105352217D01*
X172628018Y-105289000D01*
X172303982Y-105289000D01*
X171986171Y-105352217D01*
X171686801Y-105476220D01*
X171417374Y-105656245D01*
X171188245Y-105885374D01*
X171008220Y-106154801D01*
X170884217Y-106454171D01*
X170821000Y-106771982D01*
X141884811Y-106771982D01*
X141905000Y-106670489D01*
X141905000Y-106486311D01*
X141869068Y-106305671D01*
X141798586Y-106135511D01*
X141696262Y-105982372D01*
X141566028Y-105852138D01*
X141412889Y-105749814D01*
X141242729Y-105679332D01*
X141062089Y-105643400D01*
X140877911Y-105643400D01*
X140697271Y-105679332D01*
X140527111Y-105749814D01*
X140387049Y-105843400D01*
X140030090Y-105843400D01*
X140070662Y-105802828D01*
X140172986Y-105649689D01*
X140243468Y-105479529D01*
X140279400Y-105298889D01*
X140279400Y-105114711D01*
X140243468Y-104934071D01*
X140172986Y-104763911D01*
X140070662Y-104610772D01*
X139940428Y-104480538D01*
X139787289Y-104378214D01*
X139617129Y-104307732D01*
X139436489Y-104271800D01*
X139252311Y-104271800D01*
X139071671Y-104307732D01*
X138901511Y-104378214D01*
X138761449Y-104471800D01*
X134209698Y-104471800D01*
X134181529Y-104460132D01*
X134000889Y-104424200D01*
X133816711Y-104424200D01*
X133636071Y-104460132D01*
X133465911Y-104530614D01*
X133312772Y-104632938D01*
X133182538Y-104763172D01*
X133080214Y-104916311D01*
X133009732Y-105086471D01*
X132973800Y-105267111D01*
X132303800Y-105267111D01*
X132303800Y-105216311D01*
X132267868Y-105035671D01*
X132197386Y-104865511D01*
X132095062Y-104712372D01*
X131964828Y-104582138D01*
X131811689Y-104479814D01*
X131641529Y-104409332D01*
X131460889Y-104373400D01*
X131276711Y-104373400D01*
X131096071Y-104409332D01*
X130925911Y-104479814D01*
X130772772Y-104582138D01*
X130642538Y-104712372D01*
X130540214Y-104865511D01*
X130469732Y-105035671D01*
X130433800Y-105216311D01*
X111708000Y-105216311D01*
X111708000Y-99323511D01*
X129671800Y-99323511D01*
X129671800Y-99507689D01*
X129707732Y-99688329D01*
X129778214Y-99858489D01*
X129880538Y-100011628D01*
X130010772Y-100141862D01*
X130163911Y-100244186D01*
X130334071Y-100314668D01*
X130514711Y-100350600D01*
X130698889Y-100350600D01*
X130879529Y-100314668D01*
X131049689Y-100244186D01*
X131165018Y-100167126D01*
X131180932Y-100247129D01*
X131251414Y-100417289D01*
X131353738Y-100570428D01*
X131483972Y-100700662D01*
X131637111Y-100802986D01*
X131807271Y-100873468D01*
X131987911Y-100909400D01*
X132172089Y-100909400D01*
X132352729Y-100873468D01*
X132522889Y-100802986D01*
X132676028Y-100700662D01*
X132806262Y-100570428D01*
X132908586Y-100417289D01*
X132979068Y-100247129D01*
X133015000Y-100066489D01*
X133015000Y-99882311D01*
X132979068Y-99701671D01*
X132908586Y-99531511D01*
X132806262Y-99378372D01*
X132676028Y-99248138D01*
X132522889Y-99145814D01*
X132352729Y-99075332D01*
X132187515Y-99042468D01*
X132066458Y-98921412D01*
X132043438Y-98893362D01*
X131931520Y-98801513D01*
X131803833Y-98733263D01*
X131665285Y-98691235D01*
X131557305Y-98680600D01*
X131521200Y-98677044D01*
X131485095Y-98680600D01*
X131189751Y-98680600D01*
X131158532Y-98659740D01*
X164881000Y-98659740D01*
X164881000Y-98952260D01*
X164938068Y-99239158D01*
X165050010Y-99509411D01*
X165212525Y-99752632D01*
X165419368Y-99959475D01*
X165662589Y-100121990D01*
X165932842Y-100233932D01*
X166219740Y-100291000D01*
X166512260Y-100291000D01*
X166799158Y-100233932D01*
X167069411Y-100121990D01*
X167312632Y-99959475D01*
X167519475Y-99752632D01*
X167681990Y-99509411D01*
X167793932Y-99239158D01*
X167851000Y-98952260D01*
X167851000Y-98659740D01*
X171881000Y-98659740D01*
X171881000Y-98952260D01*
X171938068Y-99239158D01*
X172050010Y-99509411D01*
X172212525Y-99752632D01*
X172419368Y-99959475D01*
X172662589Y-100121990D01*
X172932842Y-100233932D01*
X173219740Y-100291000D01*
X173512260Y-100291000D01*
X173799158Y-100233932D01*
X174069411Y-100121990D01*
X174312632Y-99959475D01*
X174519475Y-99752632D01*
X174681990Y-99509411D01*
X174793932Y-99239158D01*
X174851000Y-98952260D01*
X174851000Y-98659740D01*
X174793932Y-98372842D01*
X174681990Y-98102589D01*
X174519475Y-97859368D01*
X174312632Y-97652525D01*
X174069411Y-97490010D01*
X173799158Y-97378068D01*
X173512260Y-97321000D01*
X173219740Y-97321000D01*
X172932842Y-97378068D01*
X172662589Y-97490010D01*
X172419368Y-97652525D01*
X172212525Y-97859368D01*
X172050010Y-98102589D01*
X171938068Y-98372842D01*
X171881000Y-98659740D01*
X167851000Y-98659740D01*
X167793932Y-98372842D01*
X167681990Y-98102589D01*
X167519475Y-97859368D01*
X167312632Y-97652525D01*
X167069411Y-97490010D01*
X166799158Y-97378068D01*
X166512260Y-97321000D01*
X166219740Y-97321000D01*
X165932842Y-97378068D01*
X165662589Y-97490010D01*
X165419368Y-97652525D01*
X165212525Y-97859368D01*
X165050010Y-98102589D01*
X164938068Y-98372842D01*
X164881000Y-98659740D01*
X131158532Y-98659740D01*
X131049689Y-98587014D01*
X130879529Y-98516532D01*
X130698889Y-98480600D01*
X130514711Y-98480600D01*
X130334071Y-98516532D01*
X130163911Y-98587014D01*
X130010772Y-98689338D01*
X129880538Y-98819572D01*
X129778214Y-98972711D01*
X129707732Y-99142871D01*
X129671800Y-99323511D01*
X111708000Y-99323511D01*
X111708000Y-90423661D01*
X142881400Y-90423661D01*
X142881400Y-90627539D01*
X142921174Y-90827498D01*
X142999195Y-91015856D01*
X143112463Y-91185374D01*
X143131400Y-91204311D01*
X143131401Y-93606088D01*
X143112463Y-93625026D01*
X142999195Y-93794544D01*
X142921174Y-93982902D01*
X142881400Y-94182861D01*
X142881400Y-94386739D01*
X142921174Y-94586698D01*
X142999195Y-94775056D01*
X143112463Y-94944574D01*
X143256626Y-95088737D01*
X143426144Y-95202005D01*
X143614502Y-95280026D01*
X143814461Y-95319800D01*
X144018339Y-95319800D01*
X144218298Y-95280026D01*
X144406656Y-95202005D01*
X144576174Y-95088737D01*
X144595111Y-95069800D01*
X152798916Y-95069800D01*
X152769911Y-95081814D01*
X152629849Y-95175400D01*
X146797294Y-95175400D01*
X146761199Y-95171845D01*
X146725104Y-95175400D01*
X146725095Y-95175400D01*
X146664169Y-95181401D01*
X146650089Y-95178600D01*
X146465911Y-95178600D01*
X146285271Y-95214532D01*
X146115111Y-95285014D01*
X145961972Y-95387338D01*
X145831738Y-95517572D01*
X145729414Y-95670711D01*
X145658932Y-95840871D01*
X145623000Y-96021511D01*
X145623000Y-96205689D01*
X145658932Y-96386329D01*
X145729414Y-96556489D01*
X145831738Y-96709628D01*
X145961972Y-96839862D01*
X146115111Y-96942186D01*
X146285271Y-97012668D01*
X146465911Y-97048600D01*
X146650089Y-97048600D01*
X146830729Y-97012668D01*
X147000889Y-96942186D01*
X147154028Y-96839862D01*
X147284262Y-96709628D01*
X147327178Y-96645400D01*
X152629849Y-96645400D01*
X152769911Y-96738986D01*
X152940071Y-96809468D01*
X153120711Y-96845400D01*
X153304889Y-96845400D01*
X153485529Y-96809468D01*
X153655689Y-96738986D01*
X153808828Y-96636662D01*
X153939062Y-96506428D01*
X154041386Y-96353289D01*
X154111868Y-96183129D01*
X154147800Y-96002489D01*
X154147800Y-95818311D01*
X154111868Y-95637671D01*
X154041386Y-95467511D01*
X153939062Y-95314372D01*
X153808828Y-95184138D01*
X153655689Y-95081814D01*
X153626684Y-95069800D01*
X153776643Y-95069800D01*
X155438514Y-96731672D01*
X155367174Y-96903902D01*
X155327400Y-97103861D01*
X155327400Y-97307739D01*
X155367174Y-97507698D01*
X155445195Y-97696056D01*
X155558463Y-97865574D01*
X155702626Y-98009737D01*
X155872144Y-98123005D01*
X156060502Y-98201026D01*
X156260461Y-98240800D01*
X156464339Y-98240800D01*
X156664298Y-98201026D01*
X156852656Y-98123005D01*
X157022174Y-98009737D01*
X157166337Y-97865574D01*
X157279605Y-97696056D01*
X157357626Y-97507698D01*
X157397400Y-97307739D01*
X157397400Y-97103861D01*
X157357626Y-96903902D01*
X157279605Y-96715544D01*
X157166337Y-96546026D01*
X157149611Y-96529300D01*
X157147400Y-96506846D01*
X157147400Y-96506839D01*
X157136041Y-96391513D01*
X157134469Y-96386329D01*
X157091154Y-96243540D01*
X157018262Y-96107167D01*
X156920164Y-95987636D01*
X156890217Y-95963059D01*
X155526269Y-94599111D01*
X158018200Y-94599111D01*
X158018200Y-94783289D01*
X158054132Y-94963929D01*
X158124614Y-95134089D01*
X158226938Y-95287228D01*
X158357172Y-95417462D01*
X158510311Y-95519786D01*
X158680471Y-95590268D01*
X158861111Y-95626200D01*
X159045289Y-95626200D01*
X159225929Y-95590268D01*
X159396089Y-95519786D01*
X159536151Y-95426200D01*
X161120459Y-95426200D01*
X161271271Y-95488668D01*
X161451911Y-95524600D01*
X161636089Y-95524600D01*
X161816729Y-95488668D01*
X161986889Y-95418186D01*
X162140028Y-95315862D01*
X162270262Y-95185628D01*
X162372586Y-95032489D01*
X162443068Y-94862329D01*
X162479000Y-94681689D01*
X162479000Y-94497511D01*
X162443068Y-94316871D01*
X162372586Y-94146711D01*
X162270262Y-93993572D01*
X162140028Y-93863338D01*
X161986889Y-93761014D01*
X161816729Y-93690532D01*
X161636089Y-93654600D01*
X161451911Y-93654600D01*
X161271271Y-93690532D01*
X161101111Y-93761014D01*
X160947972Y-93863338D01*
X160855110Y-93956200D01*
X159536151Y-93956200D01*
X159396089Y-93862614D01*
X159225929Y-93792132D01*
X159045289Y-93756200D01*
X158861111Y-93756200D01*
X158680471Y-93792132D01*
X158510311Y-93862614D01*
X158357172Y-93964938D01*
X158226938Y-94095172D01*
X158124614Y-94248311D01*
X158054132Y-94418471D01*
X158018200Y-94599111D01*
X155526269Y-94599111D01*
X154684147Y-93756990D01*
X154659564Y-93727036D01*
X154540033Y-93628938D01*
X154403660Y-93556046D01*
X154255687Y-93511159D01*
X154140361Y-93499800D01*
X154140353Y-93499800D01*
X154101800Y-93496003D01*
X154063247Y-93499800D01*
X144701400Y-93499800D01*
X144701400Y-91204311D01*
X144720337Y-91185374D01*
X144833605Y-91015856D01*
X144911626Y-90827498D01*
X144928118Y-90744582D01*
X146640200Y-90744582D01*
X146640200Y-91068618D01*
X146703417Y-91386429D01*
X146827420Y-91685799D01*
X147007445Y-91955226D01*
X147236574Y-92184355D01*
X147506001Y-92364380D01*
X147805371Y-92488383D01*
X148123182Y-92551600D01*
X148447218Y-92551600D01*
X148765029Y-92488383D01*
X149064399Y-92364380D01*
X149333826Y-92184355D01*
X149562955Y-91955226D01*
X149742980Y-91685799D01*
X149866983Y-91386429D01*
X149930200Y-91068618D01*
X149930200Y-90744582D01*
X149884729Y-90515982D01*
X163455000Y-90515982D01*
X163455000Y-90840018D01*
X163518217Y-91157829D01*
X163642220Y-91457199D01*
X163822245Y-91726626D01*
X164051374Y-91955755D01*
X164320801Y-92135780D01*
X164620171Y-92259783D01*
X164937982Y-92323000D01*
X165262018Y-92323000D01*
X165579829Y-92259783D01*
X165879199Y-92135780D01*
X166148626Y-91955755D01*
X166377755Y-91726626D01*
X166557780Y-91457199D01*
X166681783Y-91157829D01*
X166745000Y-90840018D01*
X166745000Y-90515982D01*
X166681783Y-90198171D01*
X166557780Y-89898801D01*
X166377755Y-89629374D01*
X166148626Y-89400245D01*
X165879199Y-89220220D01*
X165579829Y-89096217D01*
X165262018Y-89033000D01*
X164937982Y-89033000D01*
X164620171Y-89096217D01*
X164320801Y-89220220D01*
X164051374Y-89400245D01*
X163822245Y-89629374D01*
X163642220Y-89898801D01*
X163518217Y-90198171D01*
X163455000Y-90515982D01*
X149884729Y-90515982D01*
X149866983Y-90426771D01*
X149742980Y-90127401D01*
X149562955Y-89857974D01*
X149333826Y-89628845D01*
X149064399Y-89448820D01*
X148765029Y-89324817D01*
X148447218Y-89261600D01*
X148123182Y-89261600D01*
X147805371Y-89324817D01*
X147506001Y-89448820D01*
X147236574Y-89628845D01*
X147007445Y-89857974D01*
X146827420Y-90127401D01*
X146703417Y-90426771D01*
X146640200Y-90744582D01*
X144928118Y-90744582D01*
X144951400Y-90627539D01*
X144951400Y-90423661D01*
X144911626Y-90223702D01*
X144833605Y-90035344D01*
X144720337Y-89865826D01*
X144576174Y-89721663D01*
X144406656Y-89608395D01*
X144218298Y-89530374D01*
X144018339Y-89490600D01*
X143814461Y-89490600D01*
X143614502Y-89530374D01*
X143426144Y-89608395D01*
X143256626Y-89721663D01*
X143112463Y-89865826D01*
X142999195Y-90035344D01*
X142921174Y-90223702D01*
X142881400Y-90423661D01*
X111708000Y-90423661D01*
X111708000Y-87274061D01*
X147097800Y-87274061D01*
X147097800Y-87477939D01*
X147137574Y-87677898D01*
X147215595Y-87866256D01*
X147328863Y-88035774D01*
X147473026Y-88179937D01*
X147642544Y-88293205D01*
X147830902Y-88371226D01*
X148030861Y-88411000D01*
X148234739Y-88411000D01*
X148434698Y-88371226D01*
X148623056Y-88293205D01*
X148792574Y-88179937D01*
X148811511Y-88161000D01*
X151711587Y-88161000D01*
X151736795Y-88221856D01*
X151850063Y-88391374D01*
X151994226Y-88535537D01*
X152163744Y-88648805D01*
X152352102Y-88726826D01*
X152552061Y-88766600D01*
X152755939Y-88766600D01*
X152955898Y-88726826D01*
X153144256Y-88648805D01*
X153313774Y-88535537D01*
X153457937Y-88391374D01*
X153571205Y-88221856D01*
X153649226Y-88033498D01*
X153689000Y-87833539D01*
X153689000Y-87629661D01*
X153649226Y-87429702D01*
X153571205Y-87241344D01*
X153457937Y-87071826D01*
X153313774Y-86927663D01*
X153144256Y-86814395D01*
X152955898Y-86736374D01*
X152755939Y-86696600D01*
X152692596Y-86696600D01*
X152600260Y-86647246D01*
X152452287Y-86602359D01*
X152336961Y-86591000D01*
X152336953Y-86591000D01*
X152298400Y-86587203D01*
X152259847Y-86591000D01*
X151899484Y-86591000D01*
X151928489Y-86578986D01*
X152068551Y-86485400D01*
X156947849Y-86485400D01*
X157087911Y-86578986D01*
X157258071Y-86649468D01*
X157438711Y-86685400D01*
X157622889Y-86685400D01*
X157803529Y-86649468D01*
X157973689Y-86578986D01*
X158126828Y-86476662D01*
X158219690Y-86383800D01*
X160859449Y-86383800D01*
X160999511Y-86477386D01*
X161169671Y-86547868D01*
X161350311Y-86583800D01*
X161534489Y-86583800D01*
X161715129Y-86547868D01*
X161885289Y-86477386D01*
X162038428Y-86375062D01*
X162168662Y-86244828D01*
X162270986Y-86091689D01*
X162341468Y-85921529D01*
X162377400Y-85740889D01*
X162377400Y-85556711D01*
X162341468Y-85376071D01*
X162270986Y-85205911D01*
X162168662Y-85052772D01*
X162038428Y-84922538D01*
X161885289Y-84820214D01*
X161715129Y-84749732D01*
X161534489Y-84713800D01*
X161350311Y-84713800D01*
X161169671Y-84749732D01*
X160999511Y-84820214D01*
X160859449Y-84913800D01*
X157954341Y-84913800D01*
X157803529Y-84851332D01*
X157622889Y-84815400D01*
X157438711Y-84815400D01*
X157258071Y-84851332D01*
X157087911Y-84921814D01*
X156947849Y-85015400D01*
X152068551Y-85015400D01*
X151928489Y-84921814D01*
X151758329Y-84851332D01*
X151577689Y-84815400D01*
X151393511Y-84815400D01*
X151212871Y-84851332D01*
X151042711Y-84921814D01*
X150889572Y-85024138D01*
X150759338Y-85154372D01*
X150657014Y-85307511D01*
X150586532Y-85477671D01*
X150550600Y-85658311D01*
X150550600Y-85842489D01*
X150586532Y-86023129D01*
X150657014Y-86193289D01*
X150759338Y-86346428D01*
X150889572Y-86476662D01*
X151042711Y-86578986D01*
X151071716Y-86591000D01*
X148811511Y-86591000D01*
X148792574Y-86572063D01*
X148623056Y-86458795D01*
X148434698Y-86380774D01*
X148234739Y-86341000D01*
X148030861Y-86341000D01*
X147830902Y-86380774D01*
X147642544Y-86458795D01*
X147473026Y-86572063D01*
X147328863Y-86716226D01*
X147215595Y-86885744D01*
X147137574Y-87074102D01*
X147097800Y-87274061D01*
X111708000Y-87274061D01*
X111708000Y-82133982D01*
X146183000Y-82133982D01*
X146183000Y-82458018D01*
X146246217Y-82775829D01*
X146370220Y-83075199D01*
X146550245Y-83344626D01*
X146779374Y-83573755D01*
X147048801Y-83753780D01*
X147348171Y-83877783D01*
X147665982Y-83941000D01*
X147990018Y-83941000D01*
X148307829Y-83877783D01*
X148607199Y-83753780D01*
X148876626Y-83573755D01*
X149105755Y-83344626D01*
X149285780Y-83075199D01*
X149409783Y-82775829D01*
X149473000Y-82458018D01*
X149473000Y-82133982D01*
X149409783Y-81816171D01*
X149285780Y-81516801D01*
X149105755Y-81247374D01*
X148876626Y-81018245D01*
X148607199Y-80838220D01*
X148307829Y-80714217D01*
X147990018Y-80651000D01*
X147665982Y-80651000D01*
X147348171Y-80714217D01*
X147048801Y-80838220D01*
X146779374Y-81018245D01*
X146550245Y-81247374D01*
X146370220Y-81516801D01*
X146246217Y-81816171D01*
X146183000Y-82133982D01*
X111708000Y-82133982D01*
X111708000Y-73735000D01*
X124296293Y-73735000D01*
X124166406Y-73864887D01*
G37*
G04 #@! TD.AperFunction*
M02*
