%FSLAX45Y45*%
G04 Gerber Fmt 4.5, Leading zero omitted, Abs format (unit mm)*
G04 Created by KiCad (PCBNEW (5.1.8)-1) date 2021-05-07 12:59:07*
%MOMM*%
%LPD*%
G01*
G04 APERTURE LIST*
%TA.AperFunction,Profile*%
%ADD10C,0.150000*%
%TD*%
%ADD11C,0.200000*%
%ADD12C,0.300000*%
G04 APERTURE END LIST*
D10*
X17703800Y-7454900D02*
X17551400Y-7302500D01*
X17703800Y-8597900D02*
X17703800Y-7454900D01*
X17957800Y-8851900D02*
X17703800Y-8597900D01*
X17957800Y-12128500D02*
X17957800Y-8851900D01*
X17703800Y-12382500D02*
X17957800Y-12128500D01*
X17703800Y-12636500D02*
X17703800Y-12382500D01*
X11099800Y-12636500D02*
X17703800Y-12636500D01*
X11099800Y-7302500D02*
X11099800Y-12636500D01*
X17551400Y-7302500D02*
X11099800Y-7302500D01*
D11*
X16551600Y-9795600D02*
X16721600Y-9965600D01*
X16721600Y-9795600D02*
X16551600Y-9965600D01*
X17251600Y-9795600D02*
X17421600Y-9965600D01*
X17421600Y-9795600D02*
X17251600Y-9965600D01*
D12*
X11378728Y-13109714D02*
X11378728Y-12809714D01*
X11450157Y-12809714D01*
X11493014Y-12824000D01*
X11521586Y-12852571D01*
X11535871Y-12881143D01*
X11550157Y-12938286D01*
X11550157Y-12981143D01*
X11535871Y-13038286D01*
X11521586Y-13066857D01*
X11493014Y-13095429D01*
X11450157Y-13109714D01*
X11378728Y-13109714D01*
X11678728Y-13109714D02*
X11678728Y-12909714D01*
X11678728Y-12966857D02*
X11693014Y-12938286D01*
X11707300Y-12924000D01*
X11735871Y-12909714D01*
X11764443Y-12909714D01*
X11864443Y-13109714D02*
X11864443Y-12909714D01*
X11864443Y-12809714D02*
X11850157Y-12824000D01*
X11864443Y-12838286D01*
X11878728Y-12824000D01*
X11864443Y-12809714D01*
X11864443Y-12838286D01*
X12050157Y-13109714D02*
X12021586Y-13095429D01*
X12007300Y-13066857D01*
X12007300Y-12809714D01*
X12207300Y-13109714D02*
X12178728Y-13095429D01*
X12164443Y-13066857D01*
X12164443Y-12809714D01*
X12550157Y-13109714D02*
X12550157Y-12809714D01*
X12650157Y-13024000D01*
X12750157Y-12809714D01*
X12750157Y-13109714D01*
X13021586Y-13109714D02*
X13021586Y-12952571D01*
X13007300Y-12924000D01*
X12978728Y-12909714D01*
X12921586Y-12909714D01*
X12893014Y-12924000D01*
X13021586Y-13095429D02*
X12993014Y-13109714D01*
X12921586Y-13109714D01*
X12893014Y-13095429D01*
X12878728Y-13066857D01*
X12878728Y-13038286D01*
X12893014Y-13009714D01*
X12921586Y-12995429D01*
X12993014Y-12995429D01*
X13021586Y-12981143D01*
X13164443Y-12909714D02*
X13164443Y-13209714D01*
X13164443Y-12924000D02*
X13193014Y-12909714D01*
X13250157Y-12909714D01*
X13278728Y-12924000D01*
X13293014Y-12938286D01*
X13307300Y-12966857D01*
X13307300Y-13052571D01*
X13293014Y-13081143D01*
X13278728Y-13095429D01*
X13250157Y-13109714D01*
X13193014Y-13109714D01*
X13164443Y-13095429D01*
X13435871Y-13081143D02*
X13450157Y-13095429D01*
X13435871Y-13109714D01*
X13421586Y-13095429D01*
X13435871Y-13081143D01*
X13435871Y-13109714D01*
X13435871Y-12924000D02*
X13450157Y-12938286D01*
X13435871Y-12952571D01*
X13421586Y-12938286D01*
X13435871Y-12924000D01*
X13435871Y-12952571D01*
X10922300Y-13519000D02*
X11092300Y-13689000D01*
X11092300Y-13519000D02*
X10922300Y-13689000D01*
X11535871Y-13739714D02*
X11364443Y-13739714D01*
X11450157Y-13739714D02*
X11450157Y-13439714D01*
X11421586Y-13482571D01*
X11393014Y-13511143D01*
X11364443Y-13525429D01*
X11664443Y-13711143D02*
X11678728Y-13725429D01*
X11664443Y-13739714D01*
X11650157Y-13725429D01*
X11664443Y-13711143D01*
X11664443Y-13739714D01*
X11778728Y-13439714D02*
X11978728Y-13439714D01*
X11850157Y-13739714D01*
X12150157Y-13439714D02*
X12178728Y-13439714D01*
X12207300Y-13454000D01*
X12221586Y-13468286D01*
X12235871Y-13496857D01*
X12250157Y-13554000D01*
X12250157Y-13625429D01*
X12235871Y-13682571D01*
X12221586Y-13711143D01*
X12207300Y-13725429D01*
X12178728Y-13739714D01*
X12150157Y-13739714D01*
X12121586Y-13725429D01*
X12107300Y-13711143D01*
X12093014Y-13682571D01*
X12078728Y-13625429D01*
X12078728Y-13554000D01*
X12093014Y-13496857D01*
X12107300Y-13468286D01*
X12121586Y-13454000D01*
X12150157Y-13439714D01*
X12378728Y-13739714D02*
X12378728Y-13539714D01*
X12378728Y-13568286D02*
X12393014Y-13554000D01*
X12421586Y-13539714D01*
X12464443Y-13539714D01*
X12493014Y-13554000D01*
X12507300Y-13582571D01*
X12507300Y-13739714D01*
X12507300Y-13582571D02*
X12521586Y-13554000D01*
X12550157Y-13539714D01*
X12593014Y-13539714D01*
X12621586Y-13554000D01*
X12635871Y-13582571D01*
X12635871Y-13739714D01*
X12778728Y-13739714D02*
X12778728Y-13539714D01*
X12778728Y-13568286D02*
X12793014Y-13554000D01*
X12821586Y-13539714D01*
X12864443Y-13539714D01*
X12893014Y-13554000D01*
X12907300Y-13582571D01*
X12907300Y-13739714D01*
X12907300Y-13582571D02*
X12921586Y-13554000D01*
X12950157Y-13539714D01*
X12993014Y-13539714D01*
X13021586Y-13554000D01*
X13035871Y-13582571D01*
X13035871Y-13739714D01*
X13621586Y-13425429D02*
X13364443Y-13811143D01*
X14007300Y-13439714D02*
X14035871Y-13439714D01*
X14064443Y-13454000D01*
X14078728Y-13468286D01*
X14093014Y-13496857D01*
X14107300Y-13554000D01*
X14107300Y-13625429D01*
X14093014Y-13682571D01*
X14078728Y-13711143D01*
X14064443Y-13725429D01*
X14035871Y-13739714D01*
X14007300Y-13739714D01*
X13978728Y-13725429D01*
X13964443Y-13711143D01*
X13950157Y-13682571D01*
X13935871Y-13625429D01*
X13935871Y-13554000D01*
X13950157Y-13496857D01*
X13964443Y-13468286D01*
X13978728Y-13454000D01*
X14007300Y-13439714D01*
X14235871Y-13711143D02*
X14250157Y-13725429D01*
X14235871Y-13739714D01*
X14221586Y-13725429D01*
X14235871Y-13711143D01*
X14235871Y-13739714D01*
X14435871Y-13439714D02*
X14464443Y-13439714D01*
X14493014Y-13454000D01*
X14507300Y-13468286D01*
X14521586Y-13496857D01*
X14535871Y-13554000D01*
X14535871Y-13625429D01*
X14521586Y-13682571D01*
X14507300Y-13711143D01*
X14493014Y-13725429D01*
X14464443Y-13739714D01*
X14435871Y-13739714D01*
X14407300Y-13725429D01*
X14393014Y-13711143D01*
X14378728Y-13682571D01*
X14364443Y-13625429D01*
X14364443Y-13554000D01*
X14378728Y-13496857D01*
X14393014Y-13468286D01*
X14407300Y-13454000D01*
X14435871Y-13439714D01*
X14793014Y-13439714D02*
X14735871Y-13439714D01*
X14707300Y-13454000D01*
X14693014Y-13468286D01*
X14664443Y-13511143D01*
X14650157Y-13568286D01*
X14650157Y-13682571D01*
X14664443Y-13711143D01*
X14678728Y-13725429D01*
X14707300Y-13739714D01*
X14764443Y-13739714D01*
X14793014Y-13725429D01*
X14807300Y-13711143D01*
X14821586Y-13682571D01*
X14821586Y-13611143D01*
X14807300Y-13582571D01*
X14793014Y-13568286D01*
X14764443Y-13554000D01*
X14707300Y-13554000D01*
X14678728Y-13568286D01*
X14664443Y-13582571D01*
X14650157Y-13611143D01*
X14921586Y-13439714D02*
X15121586Y-13439714D01*
X14993014Y-13739714D01*
X15221586Y-13439714D02*
X15221586Y-13496857D01*
X15335871Y-13439714D02*
X15335871Y-13496857D01*
X15778728Y-13854000D02*
X15764443Y-13839714D01*
X15735871Y-13796857D01*
X15721586Y-13768286D01*
X15707300Y-13725429D01*
X15693014Y-13654000D01*
X15693014Y-13596857D01*
X15707300Y-13525429D01*
X15721586Y-13482571D01*
X15735871Y-13454000D01*
X15764443Y-13411143D01*
X15778728Y-13396857D01*
X15878728Y-13468286D02*
X15893014Y-13454000D01*
X15921586Y-13439714D01*
X15993014Y-13439714D01*
X16021586Y-13454000D01*
X16035871Y-13468286D01*
X16050157Y-13496857D01*
X16050157Y-13525429D01*
X16035871Y-13568286D01*
X15864443Y-13739714D01*
X16050157Y-13739714D01*
X16407300Y-13739714D02*
X16407300Y-13439714D01*
X16535871Y-13739714D02*
X16535871Y-13582571D01*
X16521586Y-13554000D01*
X16493014Y-13539714D01*
X16450157Y-13539714D01*
X16421586Y-13554000D01*
X16407300Y-13568286D01*
X16721586Y-13739714D02*
X16693014Y-13725429D01*
X16678728Y-13711143D01*
X16664443Y-13682571D01*
X16664443Y-13596857D01*
X16678728Y-13568286D01*
X16693014Y-13554000D01*
X16721586Y-13539714D01*
X16764443Y-13539714D01*
X16793014Y-13554000D01*
X16807300Y-13568286D01*
X16821586Y-13596857D01*
X16821586Y-13682571D01*
X16807300Y-13711143D01*
X16793014Y-13725429D01*
X16764443Y-13739714D01*
X16721586Y-13739714D01*
X16993014Y-13739714D02*
X16964443Y-13725429D01*
X16950157Y-13696857D01*
X16950157Y-13439714D01*
X17221586Y-13725429D02*
X17193014Y-13739714D01*
X17135871Y-13739714D01*
X17107300Y-13725429D01*
X17093014Y-13696857D01*
X17093014Y-13582571D01*
X17107300Y-13554000D01*
X17135871Y-13539714D01*
X17193014Y-13539714D01*
X17221586Y-13554000D01*
X17235871Y-13582571D01*
X17235871Y-13611143D01*
X17093014Y-13639714D01*
X17350157Y-13725429D02*
X17378728Y-13739714D01*
X17435871Y-13739714D01*
X17464443Y-13725429D01*
X17478728Y-13696857D01*
X17478728Y-13682571D01*
X17464443Y-13654000D01*
X17435871Y-13639714D01*
X17393014Y-13639714D01*
X17364443Y-13625429D01*
X17350157Y-13596857D01*
X17350157Y-13582571D01*
X17364443Y-13554000D01*
X17393014Y-13539714D01*
X17435871Y-13539714D01*
X17464443Y-13554000D01*
X17578728Y-13854000D02*
X17593014Y-13839714D01*
X17621586Y-13796857D01*
X17635871Y-13768286D01*
X17650157Y-13725429D01*
X17664443Y-13654000D01*
X17664443Y-13596857D01*
X17650157Y-13525429D01*
X17635871Y-13482571D01*
X17621586Y-13454000D01*
X17593014Y-13411143D01*
X17578728Y-13396857D01*
X18121586Y-13854000D02*
X18107300Y-13839714D01*
X18078728Y-13796857D01*
X18064443Y-13768286D01*
X18050157Y-13725429D01*
X18035871Y-13654000D01*
X18035871Y-13596857D01*
X18050157Y-13525429D01*
X18064443Y-13482571D01*
X18078728Y-13454000D01*
X18107300Y-13411143D01*
X18121586Y-13396857D01*
X18235871Y-13539714D02*
X18235871Y-13739714D01*
X18235871Y-13568286D02*
X18250157Y-13554000D01*
X18278728Y-13539714D01*
X18321586Y-13539714D01*
X18350157Y-13554000D01*
X18364443Y-13582571D01*
X18364443Y-13739714D01*
X18550157Y-13739714D02*
X18521586Y-13725429D01*
X18507300Y-13711143D01*
X18493014Y-13682571D01*
X18493014Y-13596857D01*
X18507300Y-13568286D01*
X18521586Y-13554000D01*
X18550157Y-13539714D01*
X18593014Y-13539714D01*
X18621586Y-13554000D01*
X18635871Y-13568286D01*
X18650157Y-13596857D01*
X18650157Y-13682571D01*
X18635871Y-13711143D01*
X18621586Y-13725429D01*
X18593014Y-13739714D01*
X18550157Y-13739714D01*
X18735871Y-13539714D02*
X18850157Y-13539714D01*
X18778728Y-13439714D02*
X18778728Y-13696857D01*
X18793014Y-13725429D01*
X18821586Y-13739714D01*
X18850157Y-13739714D01*
X19178728Y-13539714D02*
X19178728Y-13839714D01*
X19178728Y-13554000D02*
X19207300Y-13539714D01*
X19264443Y-13539714D01*
X19293014Y-13554000D01*
X19307300Y-13568286D01*
X19321586Y-13596857D01*
X19321586Y-13682571D01*
X19307300Y-13711143D01*
X19293014Y-13725429D01*
X19264443Y-13739714D01*
X19207300Y-13739714D01*
X19178728Y-13725429D01*
X19493014Y-13739714D02*
X19464443Y-13725429D01*
X19450157Y-13696857D01*
X19450157Y-13439714D01*
X19735871Y-13739714D02*
X19735871Y-13582571D01*
X19721586Y-13554000D01*
X19693014Y-13539714D01*
X19635871Y-13539714D01*
X19607300Y-13554000D01*
X19735871Y-13725429D02*
X19707300Y-13739714D01*
X19635871Y-13739714D01*
X19607300Y-13725429D01*
X19593014Y-13696857D01*
X19593014Y-13668286D01*
X19607300Y-13639714D01*
X19635871Y-13625429D01*
X19707300Y-13625429D01*
X19735871Y-13611143D01*
X19835871Y-13539714D02*
X19950157Y-13539714D01*
X19878728Y-13439714D02*
X19878728Y-13696857D01*
X19893014Y-13725429D01*
X19921586Y-13739714D01*
X19950157Y-13739714D01*
X20164443Y-13725429D02*
X20135871Y-13739714D01*
X20078728Y-13739714D01*
X20050157Y-13725429D01*
X20035871Y-13696857D01*
X20035871Y-13582571D01*
X20050157Y-13554000D01*
X20078728Y-13539714D01*
X20135871Y-13539714D01*
X20164443Y-13554000D01*
X20178728Y-13582571D01*
X20178728Y-13611143D01*
X20035871Y-13639714D01*
X20435871Y-13739714D02*
X20435871Y-13439714D01*
X20435871Y-13725429D02*
X20407300Y-13739714D01*
X20350157Y-13739714D01*
X20321586Y-13725429D01*
X20307300Y-13711143D01*
X20293014Y-13682571D01*
X20293014Y-13596857D01*
X20307300Y-13568286D01*
X20321586Y-13554000D01*
X20350157Y-13539714D01*
X20407300Y-13539714D01*
X20435871Y-13554000D01*
X20550157Y-13854000D02*
X20564443Y-13839714D01*
X20593014Y-13796857D01*
X20607300Y-13768286D01*
X20621586Y-13725429D01*
X20635871Y-13654000D01*
X20635871Y-13596857D01*
X20621586Y-13525429D01*
X20607300Y-13482571D01*
X20593014Y-13454000D01*
X20564443Y-13411143D01*
X20550157Y-13396857D01*
M02*
