M48
; DRILL file {KiCad (5.1.9)-1} date 12/17/21 16:24:58
; FORMAT={-:-/ absolute / metric / decimal}
; #@! TF.CreationDate,2021-12-17T16:24:58-06:00
; #@! TF.GenerationSoftware,Kicad,Pcbnew,(5.1.9)-1
; #@! TF.FileFunction,Plated,1,4,PTH
FMAT,2
METRIC
T1C0.300
T2C0.400
T3C1.016
T4C1.020
T5C3.048
%
G90
G05
T1
X129.83Y-118.836
X141.859Y-89.027
X142.24Y-80.391
X142.494Y-82.804
X144.399Y-106.934
X145.288Y-83.439
X145.796Y-88.138
X145.796Y-116.967
X146.304Y-102.616
X146.431Y-93.98
X146.431Y-112.776
X147.32Y-89.662
X147.32Y-103.759
X147.447Y-106.934
X148.209Y-84.963
X148.844Y-116.967
X149.86Y-80.391
X149.86Y-88.011
X151.765Y-114.3
X152.654Y-87.376
X152.654Y-95.25
X153.162Y-108.458
X153.289Y-96.012
X154.432Y-110.109
X154.559Y-106.553
X154.813Y-103.759
X155.829Y-110.109
X155.956Y-94.234
X155.956Y-105.918
X156.083Y-89.408
X156.337Y-102.489
X156.845Y-112.776
X158.75Y-88.9
X159.004Y-96.774
X159.766Y-91.948
X159.766Y-94.996
X160.401Y-112.903
X162.179Y-97.409
X162.179Y-100.457
X164.973Y-108.712
X166.624Y-88.9
X167.005Y-96.901
X168.275Y-91.821
X172.974Y-104.013
X173.609Y-111.125
X174.371Y-79.121
X176.911Y-103.886
T2
X142.113Y-100.584
X145.288Y-93.726
X146.177Y-78.359
X147.32Y-79.375
X147.447Y-110.998
X148.209Y-101.346
X148.336Y-88.011
X149.098Y-113.284
X149.352Y-108.585
X149.733Y-82.804
X151.384Y-102.997
X156.845Y-78.613
X157.226Y-88.773
X158.623Y-112.903
X161.671Y-103.886
X162.179Y-90.678
X162.433Y-108.966
X163.957Y-103.886
X165.735Y-90.805
X166.878Y-92.964
X169.291Y-105.918
X169.545Y-111.125
X169.799Y-107.696
T3
X129.794Y-75.565
X132.334Y-75.565
X134.874Y-75.565
X137.414Y-75.565
X138.938Y-123.825
X139.954Y-75.565
X141.478Y-123.825
X142.494Y-75.565
X144.018Y-123.825
X145.034Y-75.565
X146.558Y-123.825
X147.574Y-75.565
X149.098Y-123.825
X150.114Y-75.565
X151.638Y-123.825
X152.654Y-75.565
X154.178Y-123.825
X156.718Y-75.565
X156.718Y-123.825
X159.258Y-75.565
X161.798Y-75.565
X161.798Y-123.825
X164.338Y-75.565
X164.338Y-123.825
X166.878Y-75.565
X166.878Y-123.825
X169.418Y-75.565
X169.418Y-123.825
X171.958Y-75.565
X171.958Y-123.825
X174.498Y-75.565
X174.498Y-123.825
T4
X141.859Y-106.426
X160.02Y-114.935
X160.02Y-117.475
X162.56Y-114.935
X162.56Y-117.475
X165.1Y-114.935
X165.1Y-117.475
X167.259Y-110.109
X167.64Y-114.935
X167.64Y-117.475
X170.18Y-114.935
X170.18Y-117.475
X172.72Y-114.935
X172.72Y-117.475
X177.673Y-94.869
X177.673Y-98.298
T5
X124.968Y-123.825
X126.238Y-75.565
X177.038Y-90.805
X177.038Y-118.745
T0
M30
