M48
; DRILL file {KiCad (5.1.8)-1} date 05/07/21 12:59:07
; FORMAT={-:-/ absolute / metric / decimal}
; #@! TF.CreationDate,2021-05-07T12:59:07-05:00
; #@! TF.GenerationSoftware,Kicad,Pcbnew,(5.1.8)-1
; #@! TF.FileFunction,Plated,1,2,PTH
FMAT,2
METRIC
T1C0.300
T2C0.400
T3C1.016
T4C1.020
T5C3.048
%
G90
G05
T1
X124.714Y-87.757
X127.203Y-99.466
X128.118Y-103.734
X130.607Y-99.416
X131.318Y-87.503
X131.369Y-105.308
X132.08Y-99.974
X132.182Y-108.915
X133.502Y-102.108
X133.909Y-105.359
X135.128Y-83.439
X135.28Y-103.988
X137.16Y-87.376
X138.328Y-106.578
X139.344Y-105.207
X140.056Y-115.57
X140.97Y-106.578
X141.021Y-102.616
X142.392Y-103.022
X143.51Y-83.439
X143.916Y-111.608
X146.304Y-115.57
X146.558Y-96.114
X148.387Y-96.799
X151.486Y-85.75
X151.689Y-108.102
X152.654Y-91.491
X153.06Y-115.519
X153.213Y-95.91
X157.531Y-85.75
X157.785Y-107.188
X158.953Y-94.691
X159.055Y-97.003
X159.106Y-100.965
X161.442Y-85.649
X161.544Y-94.59
X171.856Y-91.084
T2
X143.916Y-90.526
X143.916Y-94.285
X148.133Y-87.376
X152.654Y-87.732
X156.362Y-97.206
T3
X129.794Y-75.565
X132.334Y-75.565
X134.874Y-75.565
X137.414Y-75.565
X139.954Y-75.565
X142.494Y-75.565
X145.034Y-75.565
X147.574Y-75.565
X150.114Y-75.565
X152.654Y-75.565
X161.798Y-123.825
X164.338Y-123.825
X166.878Y-123.825
X169.418Y-123.825
X171.958Y-123.825
X174.498Y-123.825
X156.718Y-75.565
X159.258Y-75.565
X161.798Y-75.565
X164.338Y-75.565
X166.878Y-75.565
X169.418Y-75.565
X171.958Y-75.565
X174.498Y-75.565
X138.938Y-123.825
X141.478Y-123.825
X144.018Y-123.825
X146.558Y-123.825
X149.098Y-123.825
X151.638Y-123.825
X154.178Y-123.825
X156.718Y-123.825
T4
X148.285Y-90.907
X160.02Y-115.57
X160.02Y-118.11
X162.56Y-115.57
X162.56Y-118.11
X165.1Y-115.57
X165.1Y-118.11
X167.64Y-115.57
X167.64Y-118.11
X170.18Y-115.57
X170.18Y-118.11
X172.72Y-115.57
X172.72Y-118.11
X165.1Y-90.678
X172.466Y-106.934
X147.828Y-82.296
T5
X177.038Y-118.745
X177.038Y-90.805
X126.238Y-75.565
X124.968Y-123.825
T0
M30
