G04 #@! TF.GenerationSoftware,KiCad,Pcbnew,(5.1.8)-1*
G04 #@! TF.CreationDate,2021-03-26T14:12:46-05:00*
G04 #@! TF.ProjectId,Shield,53686965-6c64-42e6-9b69-6361645f7063,rev?*
G04 #@! TF.SameCoordinates,Original*
G04 #@! TF.FileFunction,Copper,L2,Bot*
G04 #@! TF.FilePolarity,Positive*
%FSLAX46Y46*%
G04 Gerber Fmt 4.6, Leading zero omitted, Abs format (unit mm)*
G04 Created by KiCad (PCBNEW (5.1.8)-1) date 2021-03-26 14:12:46*
%MOMM*%
%LPD*%
G01*
G04 APERTURE LIST*
G04 #@! TA.AperFunction,ComponentPad*
%ADD10O,1.700000X1.700000*%
G04 #@! TD*
G04 #@! TA.AperFunction,ComponentPad*
%ADD11R,1.700000X1.700000*%
G04 #@! TD*
G04 #@! TA.AperFunction,ComponentPad*
%ADD12O,1.727200X2.032000*%
G04 #@! TD*
G04 #@! TA.AperFunction,ComponentPad*
%ADD13C,4.064000*%
G04 #@! TD*
G04 #@! TA.AperFunction,ViaPad*
%ADD14C,0.600000*%
G04 #@! TD*
G04 #@! TA.AperFunction,Conductor*
%ADD15C,0.200000*%
G04 #@! TD*
G04 #@! TA.AperFunction,Conductor*
%ADD16C,0.254000*%
G04 #@! TD*
G04 #@! TA.AperFunction,Conductor*
%ADD17C,0.100000*%
G04 #@! TD*
G04 APERTURE END LIST*
D10*
X144272000Y-117475000D03*
X144272000Y-114935000D03*
X146812000Y-117475000D03*
X146812000Y-114935000D03*
X149352000Y-117475000D03*
X149352000Y-114935000D03*
X151892000Y-117475000D03*
X151892000Y-114935000D03*
X154432000Y-117475000D03*
X154432000Y-114935000D03*
X156972000Y-117475000D03*
X156972000Y-114935000D03*
X159512000Y-117475000D03*
X159512000Y-114935000D03*
X162052000Y-117475000D03*
D11*
X162052000Y-114935000D03*
D12*
X138938000Y-123825000D03*
X141478000Y-123825000D03*
X144018000Y-123825000D03*
X146558000Y-123825000D03*
X149098000Y-123825000D03*
X151638000Y-123825000D03*
X154178000Y-123825000D03*
X156718000Y-123825000D03*
X161798000Y-123825000D03*
X164338000Y-123825000D03*
X166878000Y-123825000D03*
X169418000Y-123825000D03*
X171958000Y-123825000D03*
X174498000Y-123825000D03*
X129794000Y-75565000D03*
X132334000Y-75565000D03*
X134874000Y-75565000D03*
X137414000Y-75565000D03*
X139954000Y-75565000D03*
X142494000Y-75565000D03*
X145034000Y-75565000D03*
X147574000Y-75565000D03*
X150114000Y-75565000D03*
X152654000Y-75565000D03*
X156718000Y-75565000D03*
X159258000Y-75565000D03*
X161798000Y-75565000D03*
X164338000Y-75565000D03*
X166878000Y-75565000D03*
X169418000Y-75565000D03*
X171958000Y-75565000D03*
X174498000Y-75565000D03*
D13*
X124968000Y-123825000D03*
X177038000Y-118745000D03*
X126238000Y-75565000D03*
X177038000Y-90805000D03*
D14*
X136906000Y-103886000D03*
X138303000Y-102743000D03*
X136906000Y-100203000D03*
X130048000Y-100711000D03*
X133731000Y-109982000D03*
X132715000Y-109982000D03*
X146812000Y-97155000D03*
X139700000Y-97663000D03*
X148082000Y-89535000D03*
X153543000Y-97536000D03*
X123317000Y-118364000D03*
X128016000Y-117856000D03*
X116586000Y-110236000D03*
X115316000Y-110236000D03*
X114173000Y-110236000D03*
X164592000Y-98171000D03*
X162814000Y-96647000D03*
X169545000Y-110236000D03*
X172974000Y-109347000D03*
X172339000Y-97536000D03*
X162179000Y-103759000D03*
X160909000Y-101981000D03*
X135636000Y-106426000D03*
X170688000Y-106045000D03*
X147701000Y-107950000D03*
X149479000Y-108077000D03*
X160528000Y-119634000D03*
X146939000Y-119380000D03*
X164846000Y-113411000D03*
X170180000Y-113030000D03*
X145034000Y-113157000D03*
X157734000Y-112141000D03*
X165481000Y-112014000D03*
X160401000Y-98552000D03*
X162179000Y-98552000D03*
X156464000Y-108966000D03*
X163322000Y-107950000D03*
X168910000Y-114300000D03*
X163703000Y-113792000D03*
X167005000Y-108204000D03*
X164846000Y-108458000D03*
X166116000Y-119253000D03*
X170942000Y-120142000D03*
X147955000Y-112522000D03*
X164846000Y-110998000D03*
X132715000Y-78105000D03*
X135382000Y-78105000D03*
X140589000Y-78105000D03*
X170688000Y-79375000D03*
X170688000Y-89789000D03*
X170688000Y-96266000D03*
X146177000Y-98552000D03*
X154940000Y-97917000D03*
X153162000Y-120269000D03*
X173990000Y-121031000D03*
X153543000Y-90297000D03*
X153543000Y-81407000D03*
X151892000Y-77978000D03*
X139700000Y-77470000D03*
X134874000Y-77470000D03*
X147066000Y-99822000D03*
X153289000Y-100584000D03*
X149733000Y-109093000D03*
X156591000Y-107823000D03*
X152908000Y-109982000D03*
X165608000Y-109728000D03*
X171831000Y-105156000D03*
X168275000Y-104902000D03*
X162687000Y-109093000D03*
X171196000Y-109347000D03*
X169037000Y-105918000D03*
X161290000Y-106426000D03*
X142367000Y-94869000D03*
X144907000Y-94869000D03*
X145415000Y-111506000D03*
X138811000Y-112014000D03*
X133604000Y-112014000D03*
X130048000Y-112395000D03*
X142875000Y-95631000D03*
X144399000Y-95504000D03*
X137414000Y-104521000D03*
X144907000Y-104521000D03*
D15*
X137160000Y-103886000D02*
X138303000Y-102743000D01*
X136906000Y-103886000D02*
X137160000Y-103886000D01*
X144272000Y-117475000D02*
X146812000Y-117475000D01*
X147193000Y-119634000D02*
X146939000Y-119380000D01*
X160528000Y-119634000D02*
X147193000Y-119634000D01*
X165227000Y-113030000D02*
X170180000Y-113030000D01*
X164846000Y-113411000D02*
X165227000Y-113030000D01*
X164592000Y-113157000D02*
X164846000Y-113411000D01*
X145034000Y-113157000D02*
X164592000Y-113157000D01*
X165354000Y-112141000D02*
X165481000Y-112014000D01*
X157734000Y-112141000D02*
X165354000Y-112141000D01*
X160401000Y-98552000D02*
X162179000Y-98552000D01*
X156464000Y-108966000D02*
X161798000Y-108966000D01*
X161798000Y-108966000D02*
X162433000Y-108331000D01*
X162941000Y-108331000D02*
X163322000Y-107950000D01*
X162433000Y-108331000D02*
X162941000Y-108331000D01*
X164211000Y-114300000D02*
X163703000Y-113792000D01*
X168910000Y-114300000D02*
X164211000Y-114300000D01*
X165100000Y-108204000D02*
X164846000Y-108458000D01*
X167005000Y-108204000D02*
X165100000Y-108204000D01*
X166116000Y-119253000D02*
X166116000Y-119761000D01*
X166497000Y-120142000D02*
X170942000Y-120142000D01*
X166116000Y-119761000D02*
X166497000Y-120142000D01*
X147955000Y-112522000D02*
X148971000Y-111506000D01*
X164338000Y-111506000D02*
X164846000Y-110998000D01*
X148971000Y-111506000D02*
X164338000Y-111506000D01*
X132715000Y-78105000D02*
X135382000Y-78105000D01*
X140589000Y-78105000D02*
X150876000Y-78105000D01*
X150876000Y-78105000D02*
X151384000Y-78613000D01*
X169926000Y-78613000D02*
X170688000Y-79375000D01*
X151384000Y-78613000D02*
X169926000Y-78613000D01*
X170688000Y-89789000D02*
X170688000Y-96266000D01*
X149352000Y-117475000D02*
X151892000Y-117475000D01*
X146177000Y-98552000D02*
X154305000Y-98552000D01*
X154305000Y-98552000D02*
X154940000Y-97917000D01*
X153162000Y-120269000D02*
X153670000Y-120777000D01*
X173736000Y-120777000D02*
X173990000Y-121031000D01*
X153670000Y-120777000D02*
X173736000Y-120777000D01*
X153543000Y-90297000D02*
X153543000Y-81407000D01*
X151892000Y-77978000D02*
X151384000Y-77470000D01*
X151384000Y-77470000D02*
X139700000Y-77470000D01*
X131699000Y-77470000D02*
X129794000Y-75565000D01*
X134874000Y-77470000D02*
X131699000Y-77470000D01*
X152527000Y-99822000D02*
X153289000Y-100584000D01*
X147066000Y-99822000D02*
X152527000Y-99822000D01*
X149733000Y-109093000D02*
X150368000Y-108458000D01*
X155956000Y-108458000D02*
X156591000Y-107823000D01*
X150368000Y-108458000D02*
X155956000Y-108458000D01*
X152908000Y-109982000D02*
X153289000Y-109601000D01*
X165481000Y-109601000D02*
X165608000Y-109728000D01*
X153289000Y-109601000D02*
X165481000Y-109601000D01*
X168529000Y-105156000D02*
X168275000Y-104902000D01*
X171831000Y-105156000D02*
X168529000Y-105156000D01*
X170942000Y-109093000D02*
X171196000Y-109347000D01*
X162687000Y-109093000D02*
X170942000Y-109093000D01*
X168529000Y-106426000D02*
X161290000Y-106426000D01*
X169037000Y-105918000D02*
X168529000Y-106426000D01*
X154432000Y-117475000D02*
X156972000Y-117475000D01*
X159512000Y-117475000D02*
X162052000Y-117475000D01*
X156972000Y-117475000D02*
X159512000Y-117475000D01*
X142367000Y-94869000D02*
X144907000Y-94869000D01*
X145415000Y-111506000D02*
X144907000Y-112014000D01*
X144907000Y-112014000D02*
X138811000Y-112014000D01*
X130429000Y-112014000D02*
X130048000Y-112395000D01*
X133604000Y-112014000D02*
X130429000Y-112014000D01*
X144272000Y-95631000D02*
X144399000Y-95504000D01*
X142875000Y-95631000D02*
X144272000Y-95631000D01*
X137414000Y-104521000D02*
X144907000Y-104521000D01*
D16*
X124166406Y-73864887D02*
X123874536Y-74301702D01*
X123673492Y-74787065D01*
X123571000Y-75302323D01*
X123571000Y-75827677D01*
X123673492Y-76342935D01*
X123874536Y-76828298D01*
X124166406Y-77265113D01*
X124537887Y-77636594D01*
X124974702Y-77928464D01*
X125460065Y-78129508D01*
X125975323Y-78232000D01*
X126500677Y-78232000D01*
X127015935Y-78129508D01*
X127501298Y-77928464D01*
X127938113Y-77636594D01*
X128309594Y-77265113D01*
X128601464Y-76828298D01*
X128657001Y-76694219D01*
X128729203Y-76782197D01*
X128957395Y-76969469D01*
X129217737Y-77108625D01*
X129500224Y-77194316D01*
X129794000Y-77223251D01*
X130087777Y-77194316D01*
X130314956Y-77125402D01*
X131153746Y-77964193D01*
X131176762Y-77992238D01*
X131288680Y-78084087D01*
X131416367Y-78152337D01*
X131554915Y-78194365D01*
X131699000Y-78208556D01*
X131735105Y-78205000D01*
X131781574Y-78205000D01*
X131815932Y-78377729D01*
X131886414Y-78547889D01*
X131988738Y-78701028D01*
X132118972Y-78831262D01*
X132272111Y-78933586D01*
X132442271Y-79004068D01*
X132622911Y-79040000D01*
X132807089Y-79040000D01*
X132987729Y-79004068D01*
X133157889Y-78933586D01*
X133297951Y-78840000D01*
X134799049Y-78840000D01*
X134939111Y-78933586D01*
X135109271Y-79004068D01*
X135289911Y-79040000D01*
X135474089Y-79040000D01*
X135654729Y-79004068D01*
X135824889Y-78933586D01*
X135978028Y-78831262D01*
X136108262Y-78701028D01*
X136210586Y-78547889D01*
X136281068Y-78377729D01*
X136317000Y-78197089D01*
X136317000Y-78012911D01*
X136281068Y-77832271D01*
X136210586Y-77662111D01*
X136108262Y-77508972D01*
X135978028Y-77378738D01*
X135824889Y-77276414D01*
X135785571Y-77260128D01*
X135773068Y-77197271D01*
X135702586Y-77027111D01*
X135676317Y-76987797D01*
X135710606Y-76969469D01*
X135938797Y-76782197D01*
X136126069Y-76554006D01*
X136147424Y-76514053D01*
X136295514Y-76716729D01*
X136511965Y-76915733D01*
X136763081Y-77068686D01*
X137039211Y-77169709D01*
X137054974Y-77172358D01*
X137287000Y-77051217D01*
X137287000Y-75692000D01*
X137267000Y-75692000D01*
X137267000Y-75438000D01*
X137287000Y-75438000D01*
X137287000Y-74078783D01*
X137541000Y-74078783D01*
X137541000Y-75438000D01*
X137561000Y-75438000D01*
X137561000Y-75692000D01*
X137541000Y-75692000D01*
X137541000Y-77051217D01*
X137773026Y-77172358D01*
X137788789Y-77169709D01*
X138064919Y-77068686D01*
X138316035Y-76915733D01*
X138532486Y-76716729D01*
X138680576Y-76514053D01*
X138701931Y-76554006D01*
X138889203Y-76782197D01*
X138986041Y-76861669D01*
X138973738Y-76873972D01*
X138871414Y-77027111D01*
X138800932Y-77197271D01*
X138765000Y-77377911D01*
X138765000Y-77562089D01*
X138800932Y-77742729D01*
X138871414Y-77912889D01*
X138973738Y-78066028D01*
X139103972Y-78196262D01*
X139257111Y-78298586D01*
X139427271Y-78369068D01*
X139607911Y-78405000D01*
X139701228Y-78405000D01*
X139760414Y-78547889D01*
X139862738Y-78701028D01*
X139992972Y-78831262D01*
X140146111Y-78933586D01*
X140316271Y-79004068D01*
X140496911Y-79040000D01*
X140681089Y-79040000D01*
X140861729Y-79004068D01*
X141031889Y-78933586D01*
X141171951Y-78840000D01*
X150571554Y-78840000D01*
X150838746Y-79107192D01*
X150861762Y-79135238D01*
X150973680Y-79227087D01*
X151101367Y-79295337D01*
X151239915Y-79337365D01*
X151347895Y-79348000D01*
X151347904Y-79348000D01*
X151383999Y-79351555D01*
X151420094Y-79348000D01*
X169621554Y-79348000D01*
X169756068Y-79482515D01*
X169788932Y-79647729D01*
X169859414Y-79817889D01*
X169961738Y-79971028D01*
X170091972Y-80101262D01*
X170245111Y-80203586D01*
X170415271Y-80274068D01*
X170595911Y-80310000D01*
X170780089Y-80310000D01*
X170960729Y-80274068D01*
X171130889Y-80203586D01*
X171284028Y-80101262D01*
X171414262Y-79971028D01*
X171516586Y-79817889D01*
X171587068Y-79647729D01*
X171623000Y-79467089D01*
X171623000Y-79282911D01*
X171587068Y-79102271D01*
X171516586Y-78932111D01*
X171414262Y-78778972D01*
X171284028Y-78648738D01*
X171130889Y-78546414D01*
X170960729Y-78475932D01*
X170795515Y-78443068D01*
X170471258Y-78118812D01*
X170448238Y-78090762D01*
X170336320Y-77998913D01*
X170208633Y-77930663D01*
X170070085Y-77888635D01*
X169926000Y-77874444D01*
X169889895Y-77878000D01*
X152825426Y-77878000D01*
X152791068Y-77705271D01*
X152720586Y-77535111D01*
X152618262Y-77381972D01*
X152488028Y-77251738D01*
X152409328Y-77199152D01*
X152654000Y-77223251D01*
X152947777Y-77194316D01*
X153230264Y-77108625D01*
X153490606Y-76969469D01*
X153718797Y-76782197D01*
X153906069Y-76554006D01*
X154045225Y-76293663D01*
X154130916Y-76011176D01*
X154152600Y-75791018D01*
X154152600Y-75338982D01*
X155219400Y-75338982D01*
X155219400Y-75791019D01*
X155241084Y-76011177D01*
X155326775Y-76293664D01*
X155465931Y-76554006D01*
X155653203Y-76782197D01*
X155881395Y-76969469D01*
X156141737Y-77108625D01*
X156424224Y-77194316D01*
X156718000Y-77223251D01*
X157011777Y-77194316D01*
X157294264Y-77108625D01*
X157554606Y-76969469D01*
X157782797Y-76782197D01*
X157970069Y-76554006D01*
X157988000Y-76520459D01*
X158005931Y-76554006D01*
X158193203Y-76782197D01*
X158421395Y-76969469D01*
X158681737Y-77108625D01*
X158964224Y-77194316D01*
X159258000Y-77223251D01*
X159551777Y-77194316D01*
X159834264Y-77108625D01*
X160094606Y-76969469D01*
X160322797Y-76782197D01*
X160510069Y-76554006D01*
X160528000Y-76520459D01*
X160545931Y-76554006D01*
X160733203Y-76782197D01*
X160961395Y-76969469D01*
X161221737Y-77108625D01*
X161504224Y-77194316D01*
X161798000Y-77223251D01*
X162091777Y-77194316D01*
X162374264Y-77108625D01*
X162634606Y-76969469D01*
X162862797Y-76782197D01*
X163050069Y-76554006D01*
X163068000Y-76520459D01*
X163085931Y-76554006D01*
X163273203Y-76782197D01*
X163501395Y-76969469D01*
X163761737Y-77108625D01*
X164044224Y-77194316D01*
X164338000Y-77223251D01*
X164631777Y-77194316D01*
X164914264Y-77108625D01*
X165174606Y-76969469D01*
X165402797Y-76782197D01*
X165590069Y-76554006D01*
X165608000Y-76520459D01*
X165625931Y-76554006D01*
X165813203Y-76782197D01*
X166041395Y-76969469D01*
X166301737Y-77108625D01*
X166584224Y-77194316D01*
X166878000Y-77223251D01*
X167171777Y-77194316D01*
X167454264Y-77108625D01*
X167714606Y-76969469D01*
X167942797Y-76782197D01*
X168130069Y-76554006D01*
X168148000Y-76520459D01*
X168165931Y-76554006D01*
X168353203Y-76782197D01*
X168581395Y-76969469D01*
X168841737Y-77108625D01*
X169124224Y-77194316D01*
X169418000Y-77223251D01*
X169711777Y-77194316D01*
X169994264Y-77108625D01*
X170254606Y-76969469D01*
X170482797Y-76782197D01*
X170670069Y-76554006D01*
X170688000Y-76520459D01*
X170705931Y-76554006D01*
X170893203Y-76782197D01*
X171121395Y-76969469D01*
X171381737Y-77108625D01*
X171664224Y-77194316D01*
X171958000Y-77223251D01*
X172251777Y-77194316D01*
X172534264Y-77108625D01*
X172794606Y-76969469D01*
X173022797Y-76782197D01*
X173210069Y-76554006D01*
X173228000Y-76520459D01*
X173245931Y-76554006D01*
X173433203Y-76782197D01*
X173661395Y-76969469D01*
X173921737Y-77108625D01*
X174204224Y-77194316D01*
X174498000Y-77223251D01*
X174791777Y-77194316D01*
X175074264Y-77108625D01*
X175334606Y-76969469D01*
X175562797Y-76782197D01*
X175750069Y-76554006D01*
X175889225Y-76293663D01*
X175974916Y-76011176D01*
X175996600Y-75791018D01*
X175996600Y-75338981D01*
X175974916Y-75118823D01*
X175889225Y-74836336D01*
X175750069Y-74575994D01*
X175562797Y-74347803D01*
X175334605Y-74160531D01*
X175074263Y-74021375D01*
X174791776Y-73935684D01*
X174498000Y-73906749D01*
X174204223Y-73935684D01*
X173921736Y-74021375D01*
X173661394Y-74160531D01*
X173433203Y-74347803D01*
X173245931Y-74575995D01*
X173228000Y-74609541D01*
X173210069Y-74575994D01*
X173022797Y-74347803D01*
X172794605Y-74160531D01*
X172534263Y-74021375D01*
X172251776Y-73935684D01*
X171958000Y-73906749D01*
X171664223Y-73935684D01*
X171381736Y-74021375D01*
X171121394Y-74160531D01*
X170893203Y-74347803D01*
X170705931Y-74575995D01*
X170688000Y-74609541D01*
X170670069Y-74575994D01*
X170482797Y-74347803D01*
X170254605Y-74160531D01*
X169994263Y-74021375D01*
X169711776Y-73935684D01*
X169418000Y-73906749D01*
X169124223Y-73935684D01*
X168841736Y-74021375D01*
X168581394Y-74160531D01*
X168353203Y-74347803D01*
X168165931Y-74575995D01*
X168148000Y-74609541D01*
X168130069Y-74575994D01*
X167942797Y-74347803D01*
X167714605Y-74160531D01*
X167454263Y-74021375D01*
X167171776Y-73935684D01*
X166878000Y-73906749D01*
X166584223Y-73935684D01*
X166301736Y-74021375D01*
X166041394Y-74160531D01*
X165813203Y-74347803D01*
X165625931Y-74575995D01*
X165608000Y-74609541D01*
X165590069Y-74575994D01*
X165402797Y-74347803D01*
X165174605Y-74160531D01*
X164914263Y-74021375D01*
X164631776Y-73935684D01*
X164338000Y-73906749D01*
X164044223Y-73935684D01*
X163761736Y-74021375D01*
X163501394Y-74160531D01*
X163273203Y-74347803D01*
X163085931Y-74575995D01*
X163068000Y-74609541D01*
X163050069Y-74575994D01*
X162862797Y-74347803D01*
X162634605Y-74160531D01*
X162374263Y-74021375D01*
X162091776Y-73935684D01*
X161798000Y-73906749D01*
X161504223Y-73935684D01*
X161221736Y-74021375D01*
X160961394Y-74160531D01*
X160733203Y-74347803D01*
X160545931Y-74575995D01*
X160528000Y-74609541D01*
X160510069Y-74575994D01*
X160322797Y-74347803D01*
X160094605Y-74160531D01*
X159834263Y-74021375D01*
X159551776Y-73935684D01*
X159258000Y-73906749D01*
X158964223Y-73935684D01*
X158681736Y-74021375D01*
X158421394Y-74160531D01*
X158193203Y-74347803D01*
X158005931Y-74575995D01*
X157988000Y-74609541D01*
X157970069Y-74575994D01*
X157782797Y-74347803D01*
X157554605Y-74160531D01*
X157294263Y-74021375D01*
X157011776Y-73935684D01*
X156718000Y-73906749D01*
X156424223Y-73935684D01*
X156141736Y-74021375D01*
X155881394Y-74160531D01*
X155653203Y-74347803D01*
X155465931Y-74575995D01*
X155326775Y-74836337D01*
X155241084Y-75118824D01*
X155219400Y-75338982D01*
X154152600Y-75338982D01*
X154152600Y-75338981D01*
X154130916Y-75118823D01*
X154045225Y-74836336D01*
X153906069Y-74575994D01*
X153718797Y-74347803D01*
X153490605Y-74160531D01*
X153230263Y-74021375D01*
X152947776Y-73935684D01*
X152654000Y-73906749D01*
X152360223Y-73935684D01*
X152077736Y-74021375D01*
X151817394Y-74160531D01*
X151589203Y-74347803D01*
X151401931Y-74575995D01*
X151384000Y-74609541D01*
X151366069Y-74575994D01*
X151178797Y-74347803D01*
X150950605Y-74160531D01*
X150690263Y-74021375D01*
X150407776Y-73935684D01*
X150114000Y-73906749D01*
X149820223Y-73935684D01*
X149537736Y-74021375D01*
X149277394Y-74160531D01*
X149049203Y-74347803D01*
X148861931Y-74575995D01*
X148844000Y-74609541D01*
X148826069Y-74575994D01*
X148638797Y-74347803D01*
X148410605Y-74160531D01*
X148150263Y-74021375D01*
X147867776Y-73935684D01*
X147574000Y-73906749D01*
X147280223Y-73935684D01*
X146997736Y-74021375D01*
X146737394Y-74160531D01*
X146509203Y-74347803D01*
X146321931Y-74575995D01*
X146304000Y-74609541D01*
X146286069Y-74575994D01*
X146098797Y-74347803D01*
X145870605Y-74160531D01*
X145610263Y-74021375D01*
X145327776Y-73935684D01*
X145034000Y-73906749D01*
X144740223Y-73935684D01*
X144457736Y-74021375D01*
X144197394Y-74160531D01*
X143969203Y-74347803D01*
X143781931Y-74575995D01*
X143764000Y-74609541D01*
X143746069Y-74575994D01*
X143558797Y-74347803D01*
X143330605Y-74160531D01*
X143070263Y-74021375D01*
X142787776Y-73935684D01*
X142494000Y-73906749D01*
X142200223Y-73935684D01*
X141917736Y-74021375D01*
X141657394Y-74160531D01*
X141429203Y-74347803D01*
X141241931Y-74575995D01*
X141224000Y-74609541D01*
X141206069Y-74575994D01*
X141018797Y-74347803D01*
X140790605Y-74160531D01*
X140530263Y-74021375D01*
X140247776Y-73935684D01*
X139954000Y-73906749D01*
X139660223Y-73935684D01*
X139377736Y-74021375D01*
X139117394Y-74160531D01*
X138889203Y-74347803D01*
X138701931Y-74575995D01*
X138680576Y-74615947D01*
X138532486Y-74413271D01*
X138316035Y-74214267D01*
X138064919Y-74061314D01*
X137788789Y-73960291D01*
X137773026Y-73957642D01*
X137541000Y-74078783D01*
X137287000Y-74078783D01*
X137054974Y-73957642D01*
X137039211Y-73960291D01*
X136763081Y-74061314D01*
X136511965Y-74214267D01*
X136295514Y-74413271D01*
X136147424Y-74615947D01*
X136126069Y-74575994D01*
X135938797Y-74347803D01*
X135710605Y-74160531D01*
X135450263Y-74021375D01*
X135167776Y-73935684D01*
X134874000Y-73906749D01*
X134580223Y-73935684D01*
X134297736Y-74021375D01*
X134037394Y-74160531D01*
X133809203Y-74347803D01*
X133621931Y-74575995D01*
X133604000Y-74609541D01*
X133586069Y-74575994D01*
X133398797Y-74347803D01*
X133170605Y-74160531D01*
X132910263Y-74021375D01*
X132627776Y-73935684D01*
X132334000Y-73906749D01*
X132040223Y-73935684D01*
X131757736Y-74021375D01*
X131497394Y-74160531D01*
X131269203Y-74347803D01*
X131081931Y-74575995D01*
X131064000Y-74609541D01*
X131046069Y-74575994D01*
X130858797Y-74347803D01*
X130630605Y-74160531D01*
X130370263Y-74021375D01*
X130087776Y-73935684D01*
X129794000Y-73906749D01*
X129500223Y-73935684D01*
X129217736Y-74021375D01*
X128957394Y-74160531D01*
X128729203Y-74347803D01*
X128657001Y-74435781D01*
X128601464Y-74301702D01*
X128309594Y-73864887D01*
X128179707Y-73735000D01*
X175219909Y-73735000D01*
X176328001Y-74843093D01*
X176328000Y-85944125D01*
X176324565Y-85979000D01*
X176328000Y-86013875D01*
X176328000Y-86013876D01*
X176338273Y-86118183D01*
X176378872Y-86252019D01*
X176444800Y-86375362D01*
X176533525Y-86483474D01*
X176560617Y-86505708D01*
X178868001Y-88813093D01*
X178868001Y-88863294D01*
X178738113Y-88733406D01*
X178301298Y-88441536D01*
X177815935Y-88240492D01*
X177300677Y-88138000D01*
X176775323Y-88138000D01*
X176260065Y-88240492D01*
X175774702Y-88441536D01*
X175337887Y-88733406D01*
X174966406Y-89104887D01*
X174674536Y-89541702D01*
X174473492Y-90027065D01*
X174371000Y-90542323D01*
X174371000Y-91067677D01*
X174473492Y-91582935D01*
X174674536Y-92068298D01*
X174966406Y-92505113D01*
X175337887Y-92876594D01*
X175774702Y-93168464D01*
X176260065Y-93369508D01*
X176775323Y-93472000D01*
X177300677Y-93472000D01*
X177815935Y-93369508D01*
X178301298Y-93168464D01*
X178738113Y-92876594D01*
X178868001Y-92746706D01*
X178868000Y-116803293D01*
X178738113Y-116673406D01*
X178301298Y-116381536D01*
X177815935Y-116180492D01*
X177300677Y-116078000D01*
X176775323Y-116078000D01*
X176260065Y-116180492D01*
X175774702Y-116381536D01*
X175337887Y-116673406D01*
X174966406Y-117044887D01*
X174674536Y-117481702D01*
X174473492Y-117967065D01*
X174371000Y-118482323D01*
X174371000Y-119007677D01*
X174473492Y-119522935D01*
X174674536Y-120008298D01*
X174966406Y-120445113D01*
X175337887Y-120816594D01*
X175774702Y-121108464D01*
X176260065Y-121309508D01*
X176775323Y-121412000D01*
X177300677Y-121412000D01*
X177815935Y-121309508D01*
X178301298Y-121108464D01*
X178738113Y-120816594D01*
X178868000Y-120686707D01*
X178868000Y-120990908D01*
X176560617Y-123298292D01*
X176533526Y-123320525D01*
X176511293Y-123347616D01*
X176444801Y-123428637D01*
X176378872Y-123551981D01*
X176338274Y-123685816D01*
X176324565Y-123825000D01*
X176328001Y-123859885D01*
X176328000Y-125655000D01*
X126909707Y-125655000D01*
X127039594Y-125525113D01*
X127331464Y-125088298D01*
X127532508Y-124602935D01*
X127635000Y-124087677D01*
X127635000Y-123598982D01*
X137439400Y-123598982D01*
X137439400Y-124051019D01*
X137461084Y-124271177D01*
X137546775Y-124553664D01*
X137685931Y-124814006D01*
X137873203Y-125042197D01*
X138101395Y-125229469D01*
X138361737Y-125368625D01*
X138644224Y-125454316D01*
X138938000Y-125483251D01*
X139231777Y-125454316D01*
X139514264Y-125368625D01*
X139774606Y-125229469D01*
X140002797Y-125042197D01*
X140190069Y-124814006D01*
X140208000Y-124780459D01*
X140225931Y-124814006D01*
X140413203Y-125042197D01*
X140641395Y-125229469D01*
X140901737Y-125368625D01*
X141184224Y-125454316D01*
X141478000Y-125483251D01*
X141771777Y-125454316D01*
X142054264Y-125368625D01*
X142314606Y-125229469D01*
X142542797Y-125042197D01*
X142730069Y-124814006D01*
X142748000Y-124780459D01*
X142765931Y-124814006D01*
X142953203Y-125042197D01*
X143181395Y-125229469D01*
X143441737Y-125368625D01*
X143724224Y-125454316D01*
X144018000Y-125483251D01*
X144311777Y-125454316D01*
X144594264Y-125368625D01*
X144854606Y-125229469D01*
X145082797Y-125042197D01*
X145270069Y-124814006D01*
X145288000Y-124780459D01*
X145305931Y-124814006D01*
X145493203Y-125042197D01*
X145721395Y-125229469D01*
X145981737Y-125368625D01*
X146264224Y-125454316D01*
X146558000Y-125483251D01*
X146851777Y-125454316D01*
X147134264Y-125368625D01*
X147394606Y-125229469D01*
X147622797Y-125042197D01*
X147810069Y-124814006D01*
X147828000Y-124780459D01*
X147845931Y-124814006D01*
X148033203Y-125042197D01*
X148261395Y-125229469D01*
X148521737Y-125368625D01*
X148804224Y-125454316D01*
X149098000Y-125483251D01*
X149391777Y-125454316D01*
X149674264Y-125368625D01*
X149934606Y-125229469D01*
X150162797Y-125042197D01*
X150350069Y-124814006D01*
X150371424Y-124774053D01*
X150519514Y-124976729D01*
X150735965Y-125175733D01*
X150987081Y-125328686D01*
X151263211Y-125429709D01*
X151278974Y-125432358D01*
X151511000Y-125311217D01*
X151511000Y-123952000D01*
X151765000Y-123952000D01*
X151765000Y-125311217D01*
X151997026Y-125432358D01*
X152012789Y-125429709D01*
X152288919Y-125328686D01*
X152540035Y-125175733D01*
X152756486Y-124976729D01*
X152908000Y-124769367D01*
X153059514Y-124976729D01*
X153275965Y-125175733D01*
X153527081Y-125328686D01*
X153803211Y-125429709D01*
X153818974Y-125432358D01*
X154051000Y-125311217D01*
X154051000Y-123952000D01*
X151765000Y-123952000D01*
X151511000Y-123952000D01*
X151491000Y-123952000D01*
X151491000Y-123698000D01*
X151511000Y-123698000D01*
X151511000Y-122338783D01*
X151765000Y-122338783D01*
X151765000Y-123698000D01*
X154051000Y-123698000D01*
X154051000Y-122338783D01*
X154305000Y-122338783D01*
X154305000Y-123698000D01*
X154325000Y-123698000D01*
X154325000Y-123952000D01*
X154305000Y-123952000D01*
X154305000Y-125311217D01*
X154537026Y-125432358D01*
X154552789Y-125429709D01*
X154828919Y-125328686D01*
X155080035Y-125175733D01*
X155296486Y-124976729D01*
X155444576Y-124774053D01*
X155465931Y-124814006D01*
X155653203Y-125042197D01*
X155881395Y-125229469D01*
X156141737Y-125368625D01*
X156424224Y-125454316D01*
X156718000Y-125483251D01*
X157011777Y-125454316D01*
X157294264Y-125368625D01*
X157554606Y-125229469D01*
X157782797Y-125042197D01*
X157970069Y-124814006D01*
X158109225Y-124553663D01*
X158194916Y-124271176D01*
X158216600Y-124051018D01*
X158216600Y-123598982D01*
X160299400Y-123598982D01*
X160299400Y-124051019D01*
X160321084Y-124271177D01*
X160406775Y-124553664D01*
X160545931Y-124814006D01*
X160733203Y-125042197D01*
X160961395Y-125229469D01*
X161221737Y-125368625D01*
X161504224Y-125454316D01*
X161798000Y-125483251D01*
X162091777Y-125454316D01*
X162374264Y-125368625D01*
X162634606Y-125229469D01*
X162862797Y-125042197D01*
X163050069Y-124814006D01*
X163068000Y-124780459D01*
X163085931Y-124814006D01*
X163273203Y-125042197D01*
X163501395Y-125229469D01*
X163761737Y-125368625D01*
X164044224Y-125454316D01*
X164338000Y-125483251D01*
X164631777Y-125454316D01*
X164914264Y-125368625D01*
X165174606Y-125229469D01*
X165402797Y-125042197D01*
X165590069Y-124814006D01*
X165608000Y-124780459D01*
X165625931Y-124814006D01*
X165813203Y-125042197D01*
X166041395Y-125229469D01*
X166301737Y-125368625D01*
X166584224Y-125454316D01*
X166878000Y-125483251D01*
X167171777Y-125454316D01*
X167454264Y-125368625D01*
X167714606Y-125229469D01*
X167942797Y-125042197D01*
X168130069Y-124814006D01*
X168148000Y-124780459D01*
X168165931Y-124814006D01*
X168353203Y-125042197D01*
X168581395Y-125229469D01*
X168841737Y-125368625D01*
X169124224Y-125454316D01*
X169418000Y-125483251D01*
X169711777Y-125454316D01*
X169994264Y-125368625D01*
X170254606Y-125229469D01*
X170482797Y-125042197D01*
X170670069Y-124814006D01*
X170688000Y-124780459D01*
X170705931Y-124814006D01*
X170893203Y-125042197D01*
X171121395Y-125229469D01*
X171381737Y-125368625D01*
X171664224Y-125454316D01*
X171958000Y-125483251D01*
X172251777Y-125454316D01*
X172534264Y-125368625D01*
X172794606Y-125229469D01*
X173022797Y-125042197D01*
X173210069Y-124814006D01*
X173228000Y-124780459D01*
X173245931Y-124814006D01*
X173433203Y-125042197D01*
X173661395Y-125229469D01*
X173921737Y-125368625D01*
X174204224Y-125454316D01*
X174498000Y-125483251D01*
X174791777Y-125454316D01*
X175074264Y-125368625D01*
X175334606Y-125229469D01*
X175562797Y-125042197D01*
X175750069Y-124814006D01*
X175889225Y-124553663D01*
X175974916Y-124271176D01*
X175996600Y-124051018D01*
X175996600Y-123598981D01*
X175974916Y-123378823D01*
X175889225Y-123096336D01*
X175750069Y-122835994D01*
X175562797Y-122607803D01*
X175334605Y-122420531D01*
X175074263Y-122281375D01*
X174791776Y-122195684D01*
X174498000Y-122166749D01*
X174204223Y-122195684D01*
X173921736Y-122281375D01*
X173661394Y-122420531D01*
X173433203Y-122607803D01*
X173245931Y-122835995D01*
X173228000Y-122869541D01*
X173210069Y-122835994D01*
X173022797Y-122607803D01*
X172794605Y-122420531D01*
X172534263Y-122281375D01*
X172251776Y-122195684D01*
X171958000Y-122166749D01*
X171664223Y-122195684D01*
X171381736Y-122281375D01*
X171121394Y-122420531D01*
X170893203Y-122607803D01*
X170705931Y-122835995D01*
X170688000Y-122869541D01*
X170670069Y-122835994D01*
X170482797Y-122607803D01*
X170254605Y-122420531D01*
X169994263Y-122281375D01*
X169711776Y-122195684D01*
X169418000Y-122166749D01*
X169124223Y-122195684D01*
X168841736Y-122281375D01*
X168581394Y-122420531D01*
X168353203Y-122607803D01*
X168165931Y-122835995D01*
X168148000Y-122869541D01*
X168130069Y-122835994D01*
X167942797Y-122607803D01*
X167714605Y-122420531D01*
X167454263Y-122281375D01*
X167171776Y-122195684D01*
X166878000Y-122166749D01*
X166584223Y-122195684D01*
X166301736Y-122281375D01*
X166041394Y-122420531D01*
X165813203Y-122607803D01*
X165625931Y-122835995D01*
X165608000Y-122869541D01*
X165590069Y-122835994D01*
X165402797Y-122607803D01*
X165174605Y-122420531D01*
X164914263Y-122281375D01*
X164631776Y-122195684D01*
X164338000Y-122166749D01*
X164044223Y-122195684D01*
X163761736Y-122281375D01*
X163501394Y-122420531D01*
X163273203Y-122607803D01*
X163085931Y-122835995D01*
X163068000Y-122869541D01*
X163050069Y-122835994D01*
X162862797Y-122607803D01*
X162634605Y-122420531D01*
X162374263Y-122281375D01*
X162091776Y-122195684D01*
X161798000Y-122166749D01*
X161504223Y-122195684D01*
X161221736Y-122281375D01*
X160961394Y-122420531D01*
X160733203Y-122607803D01*
X160545931Y-122835995D01*
X160406775Y-123096337D01*
X160321084Y-123378824D01*
X160299400Y-123598982D01*
X158216600Y-123598982D01*
X158216600Y-123598981D01*
X158194916Y-123378823D01*
X158109225Y-123096336D01*
X157970069Y-122835994D01*
X157782797Y-122607803D01*
X157554605Y-122420531D01*
X157294263Y-122281375D01*
X157011776Y-122195684D01*
X156718000Y-122166749D01*
X156424223Y-122195684D01*
X156141736Y-122281375D01*
X155881394Y-122420531D01*
X155653203Y-122607803D01*
X155465931Y-122835995D01*
X155444576Y-122875947D01*
X155296486Y-122673271D01*
X155080035Y-122474267D01*
X154828919Y-122321314D01*
X154552789Y-122220291D01*
X154537026Y-122217642D01*
X154305000Y-122338783D01*
X154051000Y-122338783D01*
X153818974Y-122217642D01*
X153803211Y-122220291D01*
X153527081Y-122321314D01*
X153275965Y-122474267D01*
X153059514Y-122673271D01*
X152908000Y-122880633D01*
X152756486Y-122673271D01*
X152540035Y-122474267D01*
X152288919Y-122321314D01*
X152012789Y-122220291D01*
X151997026Y-122217642D01*
X151765000Y-122338783D01*
X151511000Y-122338783D01*
X151278974Y-122217642D01*
X151263211Y-122220291D01*
X150987081Y-122321314D01*
X150735965Y-122474267D01*
X150519514Y-122673271D01*
X150371424Y-122875947D01*
X150350069Y-122835994D01*
X150162797Y-122607803D01*
X149934605Y-122420531D01*
X149674263Y-122281375D01*
X149391776Y-122195684D01*
X149098000Y-122166749D01*
X148804223Y-122195684D01*
X148521736Y-122281375D01*
X148261394Y-122420531D01*
X148033203Y-122607803D01*
X147845931Y-122835995D01*
X147828000Y-122869541D01*
X147810069Y-122835994D01*
X147622797Y-122607803D01*
X147394605Y-122420531D01*
X147134263Y-122281375D01*
X146851776Y-122195684D01*
X146558000Y-122166749D01*
X146264223Y-122195684D01*
X145981736Y-122281375D01*
X145721394Y-122420531D01*
X145493203Y-122607803D01*
X145305931Y-122835995D01*
X145288000Y-122869541D01*
X145270069Y-122835994D01*
X145082797Y-122607803D01*
X144854605Y-122420531D01*
X144594263Y-122281375D01*
X144311776Y-122195684D01*
X144018000Y-122166749D01*
X143724223Y-122195684D01*
X143441736Y-122281375D01*
X143181394Y-122420531D01*
X142953203Y-122607803D01*
X142765931Y-122835995D01*
X142748000Y-122869541D01*
X142730069Y-122835994D01*
X142542797Y-122607803D01*
X142314605Y-122420531D01*
X142054263Y-122281375D01*
X141771776Y-122195684D01*
X141478000Y-122166749D01*
X141184223Y-122195684D01*
X140901736Y-122281375D01*
X140641394Y-122420531D01*
X140413203Y-122607803D01*
X140225931Y-122835995D01*
X140208000Y-122869541D01*
X140190069Y-122835994D01*
X140002797Y-122607803D01*
X139774605Y-122420531D01*
X139514263Y-122281375D01*
X139231776Y-122195684D01*
X138938000Y-122166749D01*
X138644223Y-122195684D01*
X138361736Y-122281375D01*
X138101394Y-122420531D01*
X137873203Y-122607803D01*
X137685931Y-122835995D01*
X137546775Y-123096337D01*
X137461084Y-123378824D01*
X137439400Y-123598982D01*
X127635000Y-123598982D01*
X127635000Y-123562323D01*
X127532508Y-123047065D01*
X127331464Y-122561702D01*
X127039594Y-122124887D01*
X126668113Y-121753406D01*
X126231298Y-121461536D01*
X125745935Y-121260492D01*
X125230677Y-121158000D01*
X124705323Y-121158000D01*
X124190065Y-121260492D01*
X123704702Y-121461536D01*
X123267887Y-121753406D01*
X122896406Y-122124887D01*
X122604536Y-122561702D01*
X122403492Y-123047065D01*
X122301000Y-123562323D01*
X122301000Y-124087677D01*
X122403492Y-124602935D01*
X122604536Y-125088298D01*
X122896406Y-125525113D01*
X123026293Y-125655000D01*
X111708000Y-125655000D01*
X111708000Y-112302911D01*
X129113000Y-112302911D01*
X129113000Y-112487089D01*
X129148932Y-112667729D01*
X129219414Y-112837889D01*
X129321738Y-112991028D01*
X129451972Y-113121262D01*
X129605111Y-113223586D01*
X129775271Y-113294068D01*
X129955911Y-113330000D01*
X130140089Y-113330000D01*
X130320729Y-113294068D01*
X130490889Y-113223586D01*
X130644028Y-113121262D01*
X130774262Y-112991028D01*
X130876586Y-112837889D01*
X130913405Y-112749000D01*
X133021049Y-112749000D01*
X133161111Y-112842586D01*
X133331271Y-112913068D01*
X133511911Y-112949000D01*
X133696089Y-112949000D01*
X133876729Y-112913068D01*
X134046889Y-112842586D01*
X134200028Y-112740262D01*
X134330262Y-112610028D01*
X134432586Y-112456889D01*
X134503068Y-112286729D01*
X134539000Y-112106089D01*
X134539000Y-111921911D01*
X137876000Y-111921911D01*
X137876000Y-112106089D01*
X137911932Y-112286729D01*
X137982414Y-112456889D01*
X138084738Y-112610028D01*
X138214972Y-112740262D01*
X138368111Y-112842586D01*
X138538271Y-112913068D01*
X138718911Y-112949000D01*
X138903089Y-112949000D01*
X139083729Y-112913068D01*
X139253889Y-112842586D01*
X139393951Y-112749000D01*
X144190963Y-112749000D01*
X144134932Y-112884271D01*
X144099000Y-113064911D01*
X144099000Y-113249089D01*
X144134932Y-113429729D01*
X144143328Y-113450000D01*
X144125740Y-113450000D01*
X143838842Y-113507068D01*
X143568589Y-113619010D01*
X143325368Y-113781525D01*
X143118525Y-113988368D01*
X142956010Y-114231589D01*
X142844068Y-114501842D01*
X142787000Y-114788740D01*
X142787000Y-115081260D01*
X142844068Y-115368158D01*
X142956010Y-115638411D01*
X143118525Y-115881632D01*
X143325368Y-116088475D01*
X143499760Y-116205000D01*
X143325368Y-116321525D01*
X143118525Y-116528368D01*
X142956010Y-116771589D01*
X142844068Y-117041842D01*
X142787000Y-117328740D01*
X142787000Y-117621260D01*
X142844068Y-117908158D01*
X142956010Y-118178411D01*
X143118525Y-118421632D01*
X143325368Y-118628475D01*
X143568589Y-118790990D01*
X143838842Y-118902932D01*
X144125740Y-118960000D01*
X144418260Y-118960000D01*
X144705158Y-118902932D01*
X144975411Y-118790990D01*
X145218632Y-118628475D01*
X145425475Y-118421632D01*
X145542000Y-118247240D01*
X145658525Y-118421632D01*
X145865368Y-118628475D01*
X146108589Y-118790990D01*
X146186489Y-118823257D01*
X146110414Y-118937111D01*
X146039932Y-119107271D01*
X146004000Y-119287911D01*
X146004000Y-119472089D01*
X146039932Y-119652729D01*
X146110414Y-119822889D01*
X146212738Y-119976028D01*
X146342972Y-120106262D01*
X146496111Y-120208586D01*
X146666271Y-120279068D01*
X146846911Y-120315000D01*
X146907866Y-120315000D01*
X146910367Y-120316337D01*
X147048915Y-120358365D01*
X147156895Y-120369000D01*
X147156904Y-120369000D01*
X147192999Y-120372555D01*
X147229094Y-120369000D01*
X152228574Y-120369000D01*
X152262932Y-120541729D01*
X152333414Y-120711889D01*
X152435738Y-120865028D01*
X152565972Y-120995262D01*
X152719111Y-121097586D01*
X152889271Y-121168068D01*
X153054485Y-121200931D01*
X153124746Y-121271192D01*
X153147762Y-121299238D01*
X153259680Y-121391087D01*
X153387367Y-121459337D01*
X153525915Y-121501365D01*
X153633895Y-121512000D01*
X153633904Y-121512000D01*
X153669999Y-121515555D01*
X153706094Y-121512000D01*
X173186879Y-121512000D01*
X173263738Y-121627028D01*
X173393972Y-121757262D01*
X173547111Y-121859586D01*
X173717271Y-121930068D01*
X173897911Y-121966000D01*
X174082089Y-121966000D01*
X174262729Y-121930068D01*
X174432889Y-121859586D01*
X174586028Y-121757262D01*
X174716262Y-121627028D01*
X174818586Y-121473889D01*
X174889068Y-121303729D01*
X174925000Y-121123089D01*
X174925000Y-120938911D01*
X174889068Y-120758271D01*
X174818586Y-120588111D01*
X174716262Y-120434972D01*
X174586028Y-120304738D01*
X174432889Y-120202414D01*
X174262729Y-120131932D01*
X174082089Y-120096000D01*
X174021134Y-120096000D01*
X174018633Y-120094663D01*
X173880085Y-120052635D01*
X173880084Y-120052635D01*
X173736000Y-120038444D01*
X173699895Y-120042000D01*
X171875426Y-120042000D01*
X171841068Y-119869271D01*
X171770586Y-119699111D01*
X171668262Y-119545972D01*
X171538028Y-119415738D01*
X171384889Y-119313414D01*
X171214729Y-119242932D01*
X171034089Y-119207000D01*
X170849911Y-119207000D01*
X170669271Y-119242932D01*
X170499111Y-119313414D01*
X170359049Y-119407000D01*
X167038685Y-119407000D01*
X167051000Y-119345089D01*
X167051000Y-119160911D01*
X167015068Y-118980271D01*
X166944586Y-118810111D01*
X166842262Y-118656972D01*
X166712028Y-118526738D01*
X166558889Y-118424414D01*
X166388729Y-118353932D01*
X166208089Y-118318000D01*
X166023911Y-118318000D01*
X165843271Y-118353932D01*
X165673111Y-118424414D01*
X165519972Y-118526738D01*
X165389738Y-118656972D01*
X165287414Y-118810111D01*
X165216932Y-118980271D01*
X165181000Y-119160911D01*
X165181000Y-119345089D01*
X165216932Y-119525729D01*
X165287414Y-119695889D01*
X165385487Y-119842666D01*
X165391635Y-119905085D01*
X165433168Y-120042000D01*
X161371037Y-120042000D01*
X161427068Y-119906729D01*
X161463000Y-119726089D01*
X161463000Y-119541911D01*
X161427068Y-119361271D01*
X161356586Y-119191111D01*
X161254262Y-119037972D01*
X161124028Y-118907738D01*
X160970889Y-118805414D01*
X160800729Y-118734932D01*
X160620089Y-118699000D01*
X160435911Y-118699000D01*
X160317974Y-118722459D01*
X160458632Y-118628475D01*
X160665475Y-118421632D01*
X160782000Y-118247240D01*
X160898525Y-118421632D01*
X161105368Y-118628475D01*
X161348589Y-118790990D01*
X161618842Y-118902932D01*
X161905740Y-118960000D01*
X162198260Y-118960000D01*
X162485158Y-118902932D01*
X162755411Y-118790990D01*
X162998632Y-118628475D01*
X163205475Y-118421632D01*
X163367990Y-118178411D01*
X163479932Y-117908158D01*
X163537000Y-117621260D01*
X163537000Y-117328740D01*
X163479932Y-117041842D01*
X163367990Y-116771589D01*
X163205475Y-116528368D01*
X163073620Y-116396513D01*
X163146180Y-116374502D01*
X163256494Y-116315537D01*
X163353185Y-116236185D01*
X163432537Y-116139494D01*
X163491502Y-116029180D01*
X163527812Y-115909482D01*
X163540072Y-115785000D01*
X163540072Y-114712909D01*
X163595485Y-114723931D01*
X163665746Y-114794192D01*
X163688762Y-114822238D01*
X163800680Y-114914087D01*
X163928367Y-114982337D01*
X164066915Y-115024365D01*
X164174895Y-115035000D01*
X164174904Y-115035000D01*
X164210999Y-115038555D01*
X164247094Y-115035000D01*
X168327049Y-115035000D01*
X168467111Y-115128586D01*
X168637271Y-115199068D01*
X168817911Y-115235000D01*
X169002089Y-115235000D01*
X169182729Y-115199068D01*
X169352889Y-115128586D01*
X169506028Y-115026262D01*
X169636262Y-114896028D01*
X169738586Y-114742889D01*
X169809068Y-114572729D01*
X169845000Y-114392089D01*
X169845000Y-114207911D01*
X169809068Y-114027271D01*
X169739629Y-113859629D01*
X169907271Y-113929068D01*
X170087911Y-113965000D01*
X170272089Y-113965000D01*
X170452729Y-113929068D01*
X170622889Y-113858586D01*
X170776028Y-113756262D01*
X170906262Y-113626028D01*
X171008586Y-113472889D01*
X171079068Y-113302729D01*
X171115000Y-113122089D01*
X171115000Y-112937911D01*
X171079068Y-112757271D01*
X171008586Y-112587111D01*
X170906262Y-112433972D01*
X170776028Y-112303738D01*
X170622889Y-112201414D01*
X170452729Y-112130932D01*
X170272089Y-112095000D01*
X170087911Y-112095000D01*
X169907271Y-112130932D01*
X169737111Y-112201414D01*
X169597049Y-112295000D01*
X166376642Y-112295000D01*
X166380068Y-112286729D01*
X166416000Y-112106089D01*
X166416000Y-111921911D01*
X166380068Y-111741271D01*
X166309586Y-111571111D01*
X166207262Y-111417972D01*
X166077028Y-111287738D01*
X165923889Y-111185414D01*
X165774359Y-111123477D01*
X165781000Y-111090089D01*
X165781000Y-110905911D01*
X165745068Y-110725271D01*
X165717814Y-110659474D01*
X165880729Y-110627068D01*
X166050889Y-110556586D01*
X166204028Y-110454262D01*
X166334262Y-110324028D01*
X166436586Y-110170889D01*
X166507068Y-110000729D01*
X166541426Y-109828000D01*
X170392879Y-109828000D01*
X170469738Y-109943028D01*
X170599972Y-110073262D01*
X170753111Y-110175586D01*
X170923271Y-110246068D01*
X171103911Y-110282000D01*
X171288089Y-110282000D01*
X171468729Y-110246068D01*
X171638889Y-110175586D01*
X171792028Y-110073262D01*
X171922262Y-109943028D01*
X172024586Y-109789889D01*
X172095068Y-109619729D01*
X172131000Y-109439089D01*
X172131000Y-109254911D01*
X172095068Y-109074271D01*
X172024586Y-108904111D01*
X171922262Y-108750972D01*
X171792028Y-108620738D01*
X171638889Y-108518414D01*
X171468729Y-108447932D01*
X171288089Y-108412000D01*
X171227134Y-108412000D01*
X171224633Y-108410663D01*
X171086085Y-108368635D01*
X171066824Y-108366738D01*
X170942000Y-108354444D01*
X170905895Y-108358000D01*
X167927685Y-108358000D01*
X167940000Y-108296089D01*
X167940000Y-108111911D01*
X167904068Y-107931271D01*
X167833586Y-107761111D01*
X167731262Y-107607972D01*
X167601028Y-107477738D01*
X167447889Y-107375414D01*
X167277729Y-107304932D01*
X167097089Y-107269000D01*
X166912911Y-107269000D01*
X166732271Y-107304932D01*
X166562111Y-107375414D01*
X166422049Y-107469000D01*
X165136094Y-107469000D01*
X165099999Y-107465445D01*
X165063904Y-107469000D01*
X165063895Y-107469000D01*
X164955915Y-107479635D01*
X164817367Y-107521663D01*
X164814866Y-107523000D01*
X164753911Y-107523000D01*
X164573271Y-107558932D01*
X164403111Y-107629414D01*
X164249972Y-107731738D01*
X164234900Y-107746810D01*
X164221068Y-107677271D01*
X164150586Y-107507111D01*
X164048262Y-107353972D01*
X163918028Y-107223738D01*
X163824134Y-107161000D01*
X168492895Y-107161000D01*
X168529000Y-107164556D01*
X168565105Y-107161000D01*
X168673085Y-107150365D01*
X168811633Y-107108337D01*
X168939320Y-107040087D01*
X169051238Y-106948238D01*
X169074258Y-106920188D01*
X169144515Y-106849932D01*
X169309729Y-106817068D01*
X169479889Y-106746586D01*
X169633028Y-106644262D01*
X169763262Y-106514028D01*
X169865586Y-106360889D01*
X169936068Y-106190729D01*
X169972000Y-106010089D01*
X169972000Y-105891000D01*
X171248049Y-105891000D01*
X171388111Y-105984586D01*
X171558271Y-106055068D01*
X171738911Y-106091000D01*
X171923089Y-106091000D01*
X172103729Y-106055068D01*
X172273889Y-105984586D01*
X172427028Y-105882262D01*
X172557262Y-105752028D01*
X172659586Y-105598889D01*
X172730068Y-105428729D01*
X172766000Y-105248089D01*
X172766000Y-105063911D01*
X172730068Y-104883271D01*
X172659586Y-104713111D01*
X172557262Y-104559972D01*
X172427028Y-104429738D01*
X172273889Y-104327414D01*
X172103729Y-104256932D01*
X171923089Y-104221000D01*
X171738911Y-104221000D01*
X171558271Y-104256932D01*
X171388111Y-104327414D01*
X171248049Y-104421000D01*
X169078121Y-104421000D01*
X169001262Y-104305972D01*
X168871028Y-104175738D01*
X168717889Y-104073414D01*
X168547729Y-104002932D01*
X168367089Y-103967000D01*
X168182911Y-103967000D01*
X168002271Y-104002932D01*
X167832111Y-104073414D01*
X167678972Y-104175738D01*
X167548738Y-104305972D01*
X167446414Y-104459111D01*
X167375932Y-104629271D01*
X167340000Y-104809911D01*
X167340000Y-104994089D01*
X167375932Y-105174729D01*
X167446414Y-105344889D01*
X167548738Y-105498028D01*
X167678972Y-105628262D01*
X167772866Y-105691000D01*
X161872951Y-105691000D01*
X161732889Y-105597414D01*
X161562729Y-105526932D01*
X161382089Y-105491000D01*
X161197911Y-105491000D01*
X161017271Y-105526932D01*
X160847111Y-105597414D01*
X160693972Y-105699738D01*
X160563738Y-105829972D01*
X160461414Y-105983111D01*
X160390932Y-106153271D01*
X160355000Y-106333911D01*
X160355000Y-106518089D01*
X160390932Y-106698729D01*
X160461414Y-106868889D01*
X160563738Y-107022028D01*
X160693972Y-107152262D01*
X160847111Y-107254586D01*
X161017271Y-107325068D01*
X161197911Y-107361000D01*
X161382089Y-107361000D01*
X161562729Y-107325068D01*
X161732889Y-107254586D01*
X161872951Y-107161000D01*
X162819866Y-107161000D01*
X162725972Y-107223738D01*
X162595738Y-107353972D01*
X162493414Y-107507111D01*
X162457086Y-107594816D01*
X162433000Y-107592444D01*
X162288915Y-107606635D01*
X162150366Y-107648663D01*
X162088441Y-107681763D01*
X162022680Y-107716913D01*
X161910762Y-107808762D01*
X161887746Y-107836807D01*
X161493554Y-108231000D01*
X157434037Y-108231000D01*
X157490068Y-108095729D01*
X157526000Y-107915089D01*
X157526000Y-107730911D01*
X157490068Y-107550271D01*
X157419586Y-107380111D01*
X157317262Y-107226972D01*
X157187028Y-107096738D01*
X157033889Y-106994414D01*
X156863729Y-106923932D01*
X156683089Y-106888000D01*
X156498911Y-106888000D01*
X156318271Y-106923932D01*
X156148111Y-106994414D01*
X155994972Y-107096738D01*
X155864738Y-107226972D01*
X155762414Y-107380111D01*
X155691932Y-107550271D01*
X155659068Y-107715485D01*
X155651554Y-107723000D01*
X150404105Y-107723000D01*
X150368000Y-107719444D01*
X150223915Y-107733635D01*
X150085366Y-107775663D01*
X149970974Y-107836807D01*
X149957680Y-107843913D01*
X149845762Y-107935762D01*
X149822746Y-107963807D01*
X149625485Y-108161068D01*
X149460271Y-108193932D01*
X149290111Y-108264414D01*
X149136972Y-108366738D01*
X149006738Y-108496972D01*
X148904414Y-108650111D01*
X148833932Y-108820271D01*
X148798000Y-109000911D01*
X148798000Y-109185089D01*
X148833932Y-109365729D01*
X148904414Y-109535889D01*
X149006738Y-109689028D01*
X149136972Y-109819262D01*
X149290111Y-109921586D01*
X149460271Y-109992068D01*
X149640911Y-110028000D01*
X149825089Y-110028000D01*
X150005729Y-109992068D01*
X150175889Y-109921586D01*
X150329028Y-109819262D01*
X150459262Y-109689028D01*
X150561586Y-109535889D01*
X150632068Y-109365729D01*
X150664932Y-109200515D01*
X150672447Y-109193000D01*
X152405866Y-109193000D01*
X152311972Y-109255738D01*
X152181738Y-109385972D01*
X152079414Y-109539111D01*
X152008932Y-109709271D01*
X151973000Y-109889911D01*
X151973000Y-110074089D01*
X152008932Y-110254729D01*
X152079414Y-110424889D01*
X152181738Y-110578028D01*
X152311972Y-110708262D01*
X152405866Y-110771000D01*
X149007105Y-110771000D01*
X148971000Y-110767444D01*
X148826914Y-110781635D01*
X148784886Y-110794384D01*
X148688367Y-110823663D01*
X148560680Y-110891913D01*
X148448762Y-110983762D01*
X148425746Y-111011807D01*
X147847485Y-111590068D01*
X147682271Y-111622932D01*
X147512111Y-111693414D01*
X147358972Y-111795738D01*
X147228738Y-111925972D01*
X147126414Y-112079111D01*
X147055932Y-112249271D01*
X147021574Y-112422000D01*
X145616951Y-112422000D01*
X145613660Y-112419801D01*
X145687729Y-112405068D01*
X145857889Y-112334586D01*
X146011028Y-112232262D01*
X146141262Y-112102028D01*
X146243586Y-111948889D01*
X146314068Y-111778729D01*
X146350000Y-111598089D01*
X146350000Y-111413911D01*
X146314068Y-111233271D01*
X146243586Y-111063111D01*
X146141262Y-110909972D01*
X146011028Y-110779738D01*
X145857889Y-110677414D01*
X145687729Y-110606932D01*
X145507089Y-110571000D01*
X145322911Y-110571000D01*
X145142271Y-110606932D01*
X144972111Y-110677414D01*
X144818972Y-110779738D01*
X144688738Y-110909972D01*
X144586414Y-111063111D01*
X144515932Y-111233271D01*
X144506836Y-111279000D01*
X139393951Y-111279000D01*
X139253889Y-111185414D01*
X139083729Y-111114932D01*
X138903089Y-111079000D01*
X138718911Y-111079000D01*
X138538271Y-111114932D01*
X138368111Y-111185414D01*
X138214972Y-111287738D01*
X138084738Y-111417972D01*
X137982414Y-111571111D01*
X137911932Y-111741271D01*
X137876000Y-111921911D01*
X134539000Y-111921911D01*
X134503068Y-111741271D01*
X134432586Y-111571111D01*
X134330262Y-111417972D01*
X134200028Y-111287738D01*
X134046889Y-111185414D01*
X133876729Y-111114932D01*
X133696089Y-111079000D01*
X133511911Y-111079000D01*
X133331271Y-111114932D01*
X133161111Y-111185414D01*
X133021049Y-111279000D01*
X130465094Y-111279000D01*
X130428999Y-111275445D01*
X130392904Y-111279000D01*
X130392895Y-111279000D01*
X130284915Y-111289635D01*
X130146367Y-111331663D01*
X130018680Y-111399913D01*
X129942122Y-111462743D01*
X129775271Y-111495932D01*
X129605111Y-111566414D01*
X129451972Y-111668738D01*
X129321738Y-111798972D01*
X129219414Y-111952111D01*
X129148932Y-112122271D01*
X129113000Y-112302911D01*
X111708000Y-112302911D01*
X111708000Y-104374740D01*
X114963000Y-104374740D01*
X114963000Y-104667260D01*
X115020068Y-104954158D01*
X115132010Y-105224411D01*
X115294525Y-105467632D01*
X115501368Y-105674475D01*
X115744589Y-105836990D01*
X116014842Y-105948932D01*
X116301740Y-106006000D01*
X116594260Y-106006000D01*
X116881158Y-105948932D01*
X117151411Y-105836990D01*
X117394632Y-105674475D01*
X117601475Y-105467632D01*
X117763990Y-105224411D01*
X117875932Y-104954158D01*
X117933000Y-104667260D01*
X117933000Y-104374740D01*
X121963000Y-104374740D01*
X121963000Y-104667260D01*
X122020068Y-104954158D01*
X122132010Y-105224411D01*
X122294525Y-105467632D01*
X122501368Y-105674475D01*
X122744589Y-105836990D01*
X123014842Y-105948932D01*
X123301740Y-106006000D01*
X123594260Y-106006000D01*
X123881158Y-105948932D01*
X124151411Y-105836990D01*
X124394632Y-105674475D01*
X124601475Y-105467632D01*
X124763990Y-105224411D01*
X124875932Y-104954158D01*
X124933000Y-104667260D01*
X124933000Y-104374740D01*
X124875932Y-104087842D01*
X124763990Y-103817589D01*
X124748169Y-103793911D01*
X135971000Y-103793911D01*
X135971000Y-103978089D01*
X136006932Y-104158729D01*
X136077414Y-104328889D01*
X136179738Y-104482028D01*
X136309972Y-104612262D01*
X136463111Y-104714586D01*
X136502429Y-104730872D01*
X136514932Y-104793729D01*
X136585414Y-104963889D01*
X136687738Y-105117028D01*
X136817972Y-105247262D01*
X136971111Y-105349586D01*
X137141271Y-105420068D01*
X137321911Y-105456000D01*
X137506089Y-105456000D01*
X137686729Y-105420068D01*
X137856889Y-105349586D01*
X137996951Y-105256000D01*
X144324049Y-105256000D01*
X144464111Y-105349586D01*
X144634271Y-105420068D01*
X144814911Y-105456000D01*
X144999089Y-105456000D01*
X145179729Y-105420068D01*
X145349889Y-105349586D01*
X145503028Y-105247262D01*
X145633262Y-105117028D01*
X145735586Y-104963889D01*
X145806068Y-104793729D01*
X145842000Y-104613089D01*
X145842000Y-104428911D01*
X145806068Y-104248271D01*
X145735586Y-104078111D01*
X145633262Y-103924972D01*
X145503028Y-103794738D01*
X145349889Y-103692414D01*
X145179729Y-103621932D01*
X144999089Y-103586000D01*
X144814911Y-103586000D01*
X144634271Y-103621932D01*
X144464111Y-103692414D01*
X144324049Y-103786000D01*
X138299447Y-103786000D01*
X138410515Y-103674932D01*
X138575729Y-103642068D01*
X138745889Y-103571586D01*
X138899028Y-103469262D01*
X139029262Y-103339028D01*
X139131586Y-103185889D01*
X139202068Y-103015729D01*
X139238000Y-102835089D01*
X139238000Y-102650911D01*
X139202068Y-102470271D01*
X139131586Y-102300111D01*
X139029262Y-102146972D01*
X138899028Y-102016738D01*
X138745889Y-101914414D01*
X138575729Y-101843932D01*
X138395089Y-101808000D01*
X138210911Y-101808000D01*
X138030271Y-101843932D01*
X137860111Y-101914414D01*
X137706972Y-102016738D01*
X137576738Y-102146972D01*
X137474414Y-102300111D01*
X137403932Y-102470271D01*
X137371068Y-102635485D01*
X137046020Y-102960534D01*
X136998089Y-102951000D01*
X136813911Y-102951000D01*
X136633271Y-102986932D01*
X136463111Y-103057414D01*
X136309972Y-103159738D01*
X136179738Y-103289972D01*
X136077414Y-103443111D01*
X136006932Y-103613271D01*
X135971000Y-103793911D01*
X124748169Y-103793911D01*
X124601475Y-103574368D01*
X124394632Y-103367525D01*
X124151411Y-103205010D01*
X123881158Y-103093068D01*
X123594260Y-103036000D01*
X123301740Y-103036000D01*
X123014842Y-103093068D01*
X122744589Y-103205010D01*
X122501368Y-103367525D01*
X122294525Y-103574368D01*
X122132010Y-103817589D01*
X122020068Y-104087842D01*
X121963000Y-104374740D01*
X117933000Y-104374740D01*
X117875932Y-104087842D01*
X117763990Y-103817589D01*
X117601475Y-103574368D01*
X117394632Y-103367525D01*
X117151411Y-103205010D01*
X116881158Y-103093068D01*
X116594260Y-103036000D01*
X116301740Y-103036000D01*
X116014842Y-103093068D01*
X115744589Y-103205010D01*
X115501368Y-103367525D01*
X115294525Y-103574368D01*
X115132010Y-103817589D01*
X115020068Y-104087842D01*
X114963000Y-104374740D01*
X111708000Y-104374740D01*
X111708000Y-98459911D01*
X145242000Y-98459911D01*
X145242000Y-98644089D01*
X145277932Y-98824729D01*
X145348414Y-98994889D01*
X145450738Y-99148028D01*
X145580972Y-99278262D01*
X145734111Y-99380586D01*
X145904271Y-99451068D01*
X146084911Y-99487000D01*
X146192725Y-99487000D01*
X146166932Y-99549271D01*
X146131000Y-99729911D01*
X146131000Y-99914089D01*
X146166932Y-100094729D01*
X146237414Y-100264889D01*
X146339738Y-100418028D01*
X146469972Y-100548262D01*
X146623111Y-100650586D01*
X146793271Y-100721068D01*
X146973911Y-100757000D01*
X147158089Y-100757000D01*
X147338729Y-100721068D01*
X147508889Y-100650586D01*
X147648951Y-100557000D01*
X152222554Y-100557000D01*
X152357068Y-100691515D01*
X152389932Y-100856729D01*
X152460414Y-101026889D01*
X152562738Y-101180028D01*
X152692972Y-101310262D01*
X152846111Y-101412586D01*
X153016271Y-101483068D01*
X153196911Y-101519000D01*
X153381089Y-101519000D01*
X153561729Y-101483068D01*
X153731889Y-101412586D01*
X153885028Y-101310262D01*
X154015262Y-101180028D01*
X154117586Y-101026889D01*
X154188068Y-100856729D01*
X154224000Y-100676089D01*
X154224000Y-100491911D01*
X154188068Y-100311271D01*
X154117586Y-100141111D01*
X154015262Y-99987972D01*
X153885028Y-99857738D01*
X153731889Y-99755414D01*
X153561729Y-99684932D01*
X153396515Y-99652068D01*
X153072258Y-99327812D01*
X153049238Y-99299762D01*
X153033688Y-99287000D01*
X154268895Y-99287000D01*
X154305000Y-99290556D01*
X154341105Y-99287000D01*
X154449085Y-99276365D01*
X154587633Y-99234337D01*
X154715320Y-99166087D01*
X154827238Y-99074238D01*
X154850258Y-99046188D01*
X155047515Y-98848932D01*
X155212729Y-98816068D01*
X155382889Y-98745586D01*
X155536028Y-98643262D01*
X155666262Y-98513028D01*
X155701753Y-98459911D01*
X159466000Y-98459911D01*
X159466000Y-98644089D01*
X159501932Y-98824729D01*
X159572414Y-98994889D01*
X159674738Y-99148028D01*
X159804972Y-99278262D01*
X159958111Y-99380586D01*
X160128271Y-99451068D01*
X160308911Y-99487000D01*
X160493089Y-99487000D01*
X160673729Y-99451068D01*
X160843889Y-99380586D01*
X160983951Y-99287000D01*
X161596049Y-99287000D01*
X161736111Y-99380586D01*
X161906271Y-99451068D01*
X162086911Y-99487000D01*
X162271089Y-99487000D01*
X162451729Y-99451068D01*
X162621889Y-99380586D01*
X162775028Y-99278262D01*
X162905262Y-99148028D01*
X163007586Y-98994889D01*
X163078068Y-98824729D01*
X163114000Y-98644089D01*
X163114000Y-98459911D01*
X163078068Y-98279271D01*
X163007586Y-98109111D01*
X162905262Y-97955972D01*
X162775028Y-97825738D01*
X162621889Y-97723414D01*
X162451729Y-97652932D01*
X162271089Y-97617000D01*
X162086911Y-97617000D01*
X161906271Y-97652932D01*
X161736111Y-97723414D01*
X161596049Y-97817000D01*
X160983951Y-97817000D01*
X160843889Y-97723414D01*
X160673729Y-97652932D01*
X160493089Y-97617000D01*
X160308911Y-97617000D01*
X160128271Y-97652932D01*
X159958111Y-97723414D01*
X159804972Y-97825738D01*
X159674738Y-97955972D01*
X159572414Y-98109111D01*
X159501932Y-98279271D01*
X159466000Y-98459911D01*
X155701753Y-98459911D01*
X155768586Y-98359889D01*
X155839068Y-98189729D01*
X155875000Y-98009089D01*
X155875000Y-97824911D01*
X155839068Y-97644271D01*
X155768586Y-97474111D01*
X155666262Y-97320972D01*
X155536028Y-97190738D01*
X155382889Y-97088414D01*
X155212729Y-97017932D01*
X155032089Y-96982000D01*
X154847911Y-96982000D01*
X154667271Y-97017932D01*
X154497111Y-97088414D01*
X154343972Y-97190738D01*
X154213738Y-97320972D01*
X154111414Y-97474111D01*
X154040932Y-97644271D01*
X154008068Y-97809485D01*
X154000554Y-97817000D01*
X146759951Y-97817000D01*
X146619889Y-97723414D01*
X146449729Y-97652932D01*
X146269089Y-97617000D01*
X146084911Y-97617000D01*
X145904271Y-97652932D01*
X145734111Y-97723414D01*
X145580972Y-97825738D01*
X145450738Y-97955972D01*
X145348414Y-98109111D01*
X145277932Y-98279271D01*
X145242000Y-98459911D01*
X111708000Y-98459911D01*
X111708000Y-94776911D01*
X141432000Y-94776911D01*
X141432000Y-94961089D01*
X141467932Y-95141729D01*
X141538414Y-95311889D01*
X141640738Y-95465028D01*
X141770972Y-95595262D01*
X141924111Y-95697586D01*
X141940000Y-95704167D01*
X141940000Y-95723089D01*
X141975932Y-95903729D01*
X142046414Y-96073889D01*
X142148738Y-96227028D01*
X142278972Y-96357262D01*
X142432111Y-96459586D01*
X142602271Y-96530068D01*
X142782911Y-96566000D01*
X142967089Y-96566000D01*
X143147729Y-96530068D01*
X143317889Y-96459586D01*
X143457951Y-96366000D01*
X144036780Y-96366000D01*
X144126271Y-96403068D01*
X144306911Y-96439000D01*
X144491089Y-96439000D01*
X144671729Y-96403068D01*
X144841889Y-96332586D01*
X144995028Y-96230262D01*
X145125262Y-96100028D01*
X145227586Y-95946889D01*
X145298068Y-95776729D01*
X145310571Y-95713872D01*
X145349889Y-95697586D01*
X145503028Y-95595262D01*
X145633262Y-95465028D01*
X145735586Y-95311889D01*
X145806068Y-95141729D01*
X145842000Y-94961089D01*
X145842000Y-94776911D01*
X145806068Y-94596271D01*
X145735586Y-94426111D01*
X145633262Y-94272972D01*
X145503028Y-94142738D01*
X145349889Y-94040414D01*
X145179729Y-93969932D01*
X144999089Y-93934000D01*
X144814911Y-93934000D01*
X144634271Y-93969932D01*
X144464111Y-94040414D01*
X144324049Y-94134000D01*
X142949951Y-94134000D01*
X142809889Y-94040414D01*
X142639729Y-93969932D01*
X142459089Y-93934000D01*
X142274911Y-93934000D01*
X142094271Y-93969932D01*
X141924111Y-94040414D01*
X141770972Y-94142738D01*
X141640738Y-94272972D01*
X141538414Y-94426111D01*
X141467932Y-94596271D01*
X141432000Y-94776911D01*
X111708000Y-94776911D01*
X111708000Y-81314911D01*
X152608000Y-81314911D01*
X152608000Y-81499089D01*
X152643932Y-81679729D01*
X152714414Y-81849889D01*
X152808001Y-81989952D01*
X152808000Y-89714049D01*
X152714414Y-89854111D01*
X152643932Y-90024271D01*
X152608000Y-90204911D01*
X152608000Y-90389089D01*
X152643932Y-90569729D01*
X152714414Y-90739889D01*
X152816738Y-90893028D01*
X152946972Y-91023262D01*
X153100111Y-91125586D01*
X153270271Y-91196068D01*
X153450911Y-91232000D01*
X153635089Y-91232000D01*
X153815729Y-91196068D01*
X153985889Y-91125586D01*
X154139028Y-91023262D01*
X154269262Y-90893028D01*
X154371586Y-90739889D01*
X154442068Y-90569729D01*
X154478000Y-90389089D01*
X154478000Y-90204911D01*
X154442068Y-90024271D01*
X154371586Y-89854111D01*
X154278000Y-89714049D01*
X154278000Y-89696911D01*
X169753000Y-89696911D01*
X169753000Y-89881089D01*
X169788932Y-90061729D01*
X169859414Y-90231889D01*
X169953000Y-90371951D01*
X169953001Y-95683048D01*
X169859414Y-95823111D01*
X169788932Y-95993271D01*
X169753000Y-96173911D01*
X169753000Y-96358089D01*
X169788932Y-96538729D01*
X169859414Y-96708889D01*
X169961738Y-96862028D01*
X170091972Y-96992262D01*
X170245111Y-97094586D01*
X170415271Y-97165068D01*
X170595911Y-97201000D01*
X170780089Y-97201000D01*
X170960729Y-97165068D01*
X171130889Y-97094586D01*
X171284028Y-96992262D01*
X171414262Y-96862028D01*
X171516586Y-96708889D01*
X171587068Y-96538729D01*
X171623000Y-96358089D01*
X171623000Y-96173911D01*
X171587068Y-95993271D01*
X171516586Y-95823111D01*
X171423000Y-95683049D01*
X171423000Y-90371951D01*
X171516586Y-90231889D01*
X171587068Y-90061729D01*
X171623000Y-89881089D01*
X171623000Y-89696911D01*
X171587068Y-89516271D01*
X171516586Y-89346111D01*
X171414262Y-89192972D01*
X171284028Y-89062738D01*
X171130889Y-88960414D01*
X170960729Y-88889932D01*
X170780089Y-88854000D01*
X170595911Y-88854000D01*
X170415271Y-88889932D01*
X170245111Y-88960414D01*
X170091972Y-89062738D01*
X169961738Y-89192972D01*
X169859414Y-89346111D01*
X169788932Y-89516271D01*
X169753000Y-89696911D01*
X154278000Y-89696911D01*
X154278000Y-81989951D01*
X154371586Y-81849889D01*
X154442068Y-81679729D01*
X154478000Y-81499089D01*
X154478000Y-81314911D01*
X154442068Y-81134271D01*
X154371586Y-80964111D01*
X154269262Y-80810972D01*
X154139028Y-80680738D01*
X153985889Y-80578414D01*
X153815729Y-80507932D01*
X153635089Y-80472000D01*
X153450911Y-80472000D01*
X153270271Y-80507932D01*
X153100111Y-80578414D01*
X152946972Y-80680738D01*
X152816738Y-80810972D01*
X152714414Y-80964111D01*
X152643932Y-81134271D01*
X152608000Y-81314911D01*
X111708000Y-81314911D01*
X111708000Y-73735000D01*
X124296293Y-73735000D01*
X124166406Y-73864887D01*
G04 #@! TA.AperFunction,Conductor*
D17*
G36*
X124166406Y-73864887D02*
G01*
X123874536Y-74301702D01*
X123673492Y-74787065D01*
X123571000Y-75302323D01*
X123571000Y-75827677D01*
X123673492Y-76342935D01*
X123874536Y-76828298D01*
X124166406Y-77265113D01*
X124537887Y-77636594D01*
X124974702Y-77928464D01*
X125460065Y-78129508D01*
X125975323Y-78232000D01*
X126500677Y-78232000D01*
X127015935Y-78129508D01*
X127501298Y-77928464D01*
X127938113Y-77636594D01*
X128309594Y-77265113D01*
X128601464Y-76828298D01*
X128657001Y-76694219D01*
X128729203Y-76782197D01*
X128957395Y-76969469D01*
X129217737Y-77108625D01*
X129500224Y-77194316D01*
X129794000Y-77223251D01*
X130087777Y-77194316D01*
X130314956Y-77125402D01*
X131153746Y-77964193D01*
X131176762Y-77992238D01*
X131288680Y-78084087D01*
X131416367Y-78152337D01*
X131554915Y-78194365D01*
X131699000Y-78208556D01*
X131735105Y-78205000D01*
X131781574Y-78205000D01*
X131815932Y-78377729D01*
X131886414Y-78547889D01*
X131988738Y-78701028D01*
X132118972Y-78831262D01*
X132272111Y-78933586D01*
X132442271Y-79004068D01*
X132622911Y-79040000D01*
X132807089Y-79040000D01*
X132987729Y-79004068D01*
X133157889Y-78933586D01*
X133297951Y-78840000D01*
X134799049Y-78840000D01*
X134939111Y-78933586D01*
X135109271Y-79004068D01*
X135289911Y-79040000D01*
X135474089Y-79040000D01*
X135654729Y-79004068D01*
X135824889Y-78933586D01*
X135978028Y-78831262D01*
X136108262Y-78701028D01*
X136210586Y-78547889D01*
X136281068Y-78377729D01*
X136317000Y-78197089D01*
X136317000Y-78012911D01*
X136281068Y-77832271D01*
X136210586Y-77662111D01*
X136108262Y-77508972D01*
X135978028Y-77378738D01*
X135824889Y-77276414D01*
X135785571Y-77260128D01*
X135773068Y-77197271D01*
X135702586Y-77027111D01*
X135676317Y-76987797D01*
X135710606Y-76969469D01*
X135938797Y-76782197D01*
X136126069Y-76554006D01*
X136147424Y-76514053D01*
X136295514Y-76716729D01*
X136511965Y-76915733D01*
X136763081Y-77068686D01*
X137039211Y-77169709D01*
X137054974Y-77172358D01*
X137287000Y-77051217D01*
X137287000Y-75692000D01*
X137267000Y-75692000D01*
X137267000Y-75438000D01*
X137287000Y-75438000D01*
X137287000Y-74078783D01*
X137541000Y-74078783D01*
X137541000Y-75438000D01*
X137561000Y-75438000D01*
X137561000Y-75692000D01*
X137541000Y-75692000D01*
X137541000Y-77051217D01*
X137773026Y-77172358D01*
X137788789Y-77169709D01*
X138064919Y-77068686D01*
X138316035Y-76915733D01*
X138532486Y-76716729D01*
X138680576Y-76514053D01*
X138701931Y-76554006D01*
X138889203Y-76782197D01*
X138986041Y-76861669D01*
X138973738Y-76873972D01*
X138871414Y-77027111D01*
X138800932Y-77197271D01*
X138765000Y-77377911D01*
X138765000Y-77562089D01*
X138800932Y-77742729D01*
X138871414Y-77912889D01*
X138973738Y-78066028D01*
X139103972Y-78196262D01*
X139257111Y-78298586D01*
X139427271Y-78369068D01*
X139607911Y-78405000D01*
X139701228Y-78405000D01*
X139760414Y-78547889D01*
X139862738Y-78701028D01*
X139992972Y-78831262D01*
X140146111Y-78933586D01*
X140316271Y-79004068D01*
X140496911Y-79040000D01*
X140681089Y-79040000D01*
X140861729Y-79004068D01*
X141031889Y-78933586D01*
X141171951Y-78840000D01*
X150571554Y-78840000D01*
X150838746Y-79107192D01*
X150861762Y-79135238D01*
X150973680Y-79227087D01*
X151101367Y-79295337D01*
X151239915Y-79337365D01*
X151347895Y-79348000D01*
X151347904Y-79348000D01*
X151383999Y-79351555D01*
X151420094Y-79348000D01*
X169621554Y-79348000D01*
X169756068Y-79482515D01*
X169788932Y-79647729D01*
X169859414Y-79817889D01*
X169961738Y-79971028D01*
X170091972Y-80101262D01*
X170245111Y-80203586D01*
X170415271Y-80274068D01*
X170595911Y-80310000D01*
X170780089Y-80310000D01*
X170960729Y-80274068D01*
X171130889Y-80203586D01*
X171284028Y-80101262D01*
X171414262Y-79971028D01*
X171516586Y-79817889D01*
X171587068Y-79647729D01*
X171623000Y-79467089D01*
X171623000Y-79282911D01*
X171587068Y-79102271D01*
X171516586Y-78932111D01*
X171414262Y-78778972D01*
X171284028Y-78648738D01*
X171130889Y-78546414D01*
X170960729Y-78475932D01*
X170795515Y-78443068D01*
X170471258Y-78118812D01*
X170448238Y-78090762D01*
X170336320Y-77998913D01*
X170208633Y-77930663D01*
X170070085Y-77888635D01*
X169926000Y-77874444D01*
X169889895Y-77878000D01*
X152825426Y-77878000D01*
X152791068Y-77705271D01*
X152720586Y-77535111D01*
X152618262Y-77381972D01*
X152488028Y-77251738D01*
X152409328Y-77199152D01*
X152654000Y-77223251D01*
X152947777Y-77194316D01*
X153230264Y-77108625D01*
X153490606Y-76969469D01*
X153718797Y-76782197D01*
X153906069Y-76554006D01*
X154045225Y-76293663D01*
X154130916Y-76011176D01*
X154152600Y-75791018D01*
X154152600Y-75338982D01*
X155219400Y-75338982D01*
X155219400Y-75791019D01*
X155241084Y-76011177D01*
X155326775Y-76293664D01*
X155465931Y-76554006D01*
X155653203Y-76782197D01*
X155881395Y-76969469D01*
X156141737Y-77108625D01*
X156424224Y-77194316D01*
X156718000Y-77223251D01*
X157011777Y-77194316D01*
X157294264Y-77108625D01*
X157554606Y-76969469D01*
X157782797Y-76782197D01*
X157970069Y-76554006D01*
X157988000Y-76520459D01*
X158005931Y-76554006D01*
X158193203Y-76782197D01*
X158421395Y-76969469D01*
X158681737Y-77108625D01*
X158964224Y-77194316D01*
X159258000Y-77223251D01*
X159551777Y-77194316D01*
X159834264Y-77108625D01*
X160094606Y-76969469D01*
X160322797Y-76782197D01*
X160510069Y-76554006D01*
X160528000Y-76520459D01*
X160545931Y-76554006D01*
X160733203Y-76782197D01*
X160961395Y-76969469D01*
X161221737Y-77108625D01*
X161504224Y-77194316D01*
X161798000Y-77223251D01*
X162091777Y-77194316D01*
X162374264Y-77108625D01*
X162634606Y-76969469D01*
X162862797Y-76782197D01*
X163050069Y-76554006D01*
X163068000Y-76520459D01*
X163085931Y-76554006D01*
X163273203Y-76782197D01*
X163501395Y-76969469D01*
X163761737Y-77108625D01*
X164044224Y-77194316D01*
X164338000Y-77223251D01*
X164631777Y-77194316D01*
X164914264Y-77108625D01*
X165174606Y-76969469D01*
X165402797Y-76782197D01*
X165590069Y-76554006D01*
X165608000Y-76520459D01*
X165625931Y-76554006D01*
X165813203Y-76782197D01*
X166041395Y-76969469D01*
X166301737Y-77108625D01*
X166584224Y-77194316D01*
X166878000Y-77223251D01*
X167171777Y-77194316D01*
X167454264Y-77108625D01*
X167714606Y-76969469D01*
X167942797Y-76782197D01*
X168130069Y-76554006D01*
X168148000Y-76520459D01*
X168165931Y-76554006D01*
X168353203Y-76782197D01*
X168581395Y-76969469D01*
X168841737Y-77108625D01*
X169124224Y-77194316D01*
X169418000Y-77223251D01*
X169711777Y-77194316D01*
X169994264Y-77108625D01*
X170254606Y-76969469D01*
X170482797Y-76782197D01*
X170670069Y-76554006D01*
X170688000Y-76520459D01*
X170705931Y-76554006D01*
X170893203Y-76782197D01*
X171121395Y-76969469D01*
X171381737Y-77108625D01*
X171664224Y-77194316D01*
X171958000Y-77223251D01*
X172251777Y-77194316D01*
X172534264Y-77108625D01*
X172794606Y-76969469D01*
X173022797Y-76782197D01*
X173210069Y-76554006D01*
X173228000Y-76520459D01*
X173245931Y-76554006D01*
X173433203Y-76782197D01*
X173661395Y-76969469D01*
X173921737Y-77108625D01*
X174204224Y-77194316D01*
X174498000Y-77223251D01*
X174791777Y-77194316D01*
X175074264Y-77108625D01*
X175334606Y-76969469D01*
X175562797Y-76782197D01*
X175750069Y-76554006D01*
X175889225Y-76293663D01*
X175974916Y-76011176D01*
X175996600Y-75791018D01*
X175996600Y-75338981D01*
X175974916Y-75118823D01*
X175889225Y-74836336D01*
X175750069Y-74575994D01*
X175562797Y-74347803D01*
X175334605Y-74160531D01*
X175074263Y-74021375D01*
X174791776Y-73935684D01*
X174498000Y-73906749D01*
X174204223Y-73935684D01*
X173921736Y-74021375D01*
X173661394Y-74160531D01*
X173433203Y-74347803D01*
X173245931Y-74575995D01*
X173228000Y-74609541D01*
X173210069Y-74575994D01*
X173022797Y-74347803D01*
X172794605Y-74160531D01*
X172534263Y-74021375D01*
X172251776Y-73935684D01*
X171958000Y-73906749D01*
X171664223Y-73935684D01*
X171381736Y-74021375D01*
X171121394Y-74160531D01*
X170893203Y-74347803D01*
X170705931Y-74575995D01*
X170688000Y-74609541D01*
X170670069Y-74575994D01*
X170482797Y-74347803D01*
X170254605Y-74160531D01*
X169994263Y-74021375D01*
X169711776Y-73935684D01*
X169418000Y-73906749D01*
X169124223Y-73935684D01*
X168841736Y-74021375D01*
X168581394Y-74160531D01*
X168353203Y-74347803D01*
X168165931Y-74575995D01*
X168148000Y-74609541D01*
X168130069Y-74575994D01*
X167942797Y-74347803D01*
X167714605Y-74160531D01*
X167454263Y-74021375D01*
X167171776Y-73935684D01*
X166878000Y-73906749D01*
X166584223Y-73935684D01*
X166301736Y-74021375D01*
X166041394Y-74160531D01*
X165813203Y-74347803D01*
X165625931Y-74575995D01*
X165608000Y-74609541D01*
X165590069Y-74575994D01*
X165402797Y-74347803D01*
X165174605Y-74160531D01*
X164914263Y-74021375D01*
X164631776Y-73935684D01*
X164338000Y-73906749D01*
X164044223Y-73935684D01*
X163761736Y-74021375D01*
X163501394Y-74160531D01*
X163273203Y-74347803D01*
X163085931Y-74575995D01*
X163068000Y-74609541D01*
X163050069Y-74575994D01*
X162862797Y-74347803D01*
X162634605Y-74160531D01*
X162374263Y-74021375D01*
X162091776Y-73935684D01*
X161798000Y-73906749D01*
X161504223Y-73935684D01*
X161221736Y-74021375D01*
X160961394Y-74160531D01*
X160733203Y-74347803D01*
X160545931Y-74575995D01*
X160528000Y-74609541D01*
X160510069Y-74575994D01*
X160322797Y-74347803D01*
X160094605Y-74160531D01*
X159834263Y-74021375D01*
X159551776Y-73935684D01*
X159258000Y-73906749D01*
X158964223Y-73935684D01*
X158681736Y-74021375D01*
X158421394Y-74160531D01*
X158193203Y-74347803D01*
X158005931Y-74575995D01*
X157988000Y-74609541D01*
X157970069Y-74575994D01*
X157782797Y-74347803D01*
X157554605Y-74160531D01*
X157294263Y-74021375D01*
X157011776Y-73935684D01*
X156718000Y-73906749D01*
X156424223Y-73935684D01*
X156141736Y-74021375D01*
X155881394Y-74160531D01*
X155653203Y-74347803D01*
X155465931Y-74575995D01*
X155326775Y-74836337D01*
X155241084Y-75118824D01*
X155219400Y-75338982D01*
X154152600Y-75338982D01*
X154152600Y-75338981D01*
X154130916Y-75118823D01*
X154045225Y-74836336D01*
X153906069Y-74575994D01*
X153718797Y-74347803D01*
X153490605Y-74160531D01*
X153230263Y-74021375D01*
X152947776Y-73935684D01*
X152654000Y-73906749D01*
X152360223Y-73935684D01*
X152077736Y-74021375D01*
X151817394Y-74160531D01*
X151589203Y-74347803D01*
X151401931Y-74575995D01*
X151384000Y-74609541D01*
X151366069Y-74575994D01*
X151178797Y-74347803D01*
X150950605Y-74160531D01*
X150690263Y-74021375D01*
X150407776Y-73935684D01*
X150114000Y-73906749D01*
X149820223Y-73935684D01*
X149537736Y-74021375D01*
X149277394Y-74160531D01*
X149049203Y-74347803D01*
X148861931Y-74575995D01*
X148844000Y-74609541D01*
X148826069Y-74575994D01*
X148638797Y-74347803D01*
X148410605Y-74160531D01*
X148150263Y-74021375D01*
X147867776Y-73935684D01*
X147574000Y-73906749D01*
X147280223Y-73935684D01*
X146997736Y-74021375D01*
X146737394Y-74160531D01*
X146509203Y-74347803D01*
X146321931Y-74575995D01*
X146304000Y-74609541D01*
X146286069Y-74575994D01*
X146098797Y-74347803D01*
X145870605Y-74160531D01*
X145610263Y-74021375D01*
X145327776Y-73935684D01*
X145034000Y-73906749D01*
X144740223Y-73935684D01*
X144457736Y-74021375D01*
X144197394Y-74160531D01*
X143969203Y-74347803D01*
X143781931Y-74575995D01*
X143764000Y-74609541D01*
X143746069Y-74575994D01*
X143558797Y-74347803D01*
X143330605Y-74160531D01*
X143070263Y-74021375D01*
X142787776Y-73935684D01*
X142494000Y-73906749D01*
X142200223Y-73935684D01*
X141917736Y-74021375D01*
X141657394Y-74160531D01*
X141429203Y-74347803D01*
X141241931Y-74575995D01*
X141224000Y-74609541D01*
X141206069Y-74575994D01*
X141018797Y-74347803D01*
X140790605Y-74160531D01*
X140530263Y-74021375D01*
X140247776Y-73935684D01*
X139954000Y-73906749D01*
X139660223Y-73935684D01*
X139377736Y-74021375D01*
X139117394Y-74160531D01*
X138889203Y-74347803D01*
X138701931Y-74575995D01*
X138680576Y-74615947D01*
X138532486Y-74413271D01*
X138316035Y-74214267D01*
X138064919Y-74061314D01*
X137788789Y-73960291D01*
X137773026Y-73957642D01*
X137541000Y-74078783D01*
X137287000Y-74078783D01*
X137054974Y-73957642D01*
X137039211Y-73960291D01*
X136763081Y-74061314D01*
X136511965Y-74214267D01*
X136295514Y-74413271D01*
X136147424Y-74615947D01*
X136126069Y-74575994D01*
X135938797Y-74347803D01*
X135710605Y-74160531D01*
X135450263Y-74021375D01*
X135167776Y-73935684D01*
X134874000Y-73906749D01*
X134580223Y-73935684D01*
X134297736Y-74021375D01*
X134037394Y-74160531D01*
X133809203Y-74347803D01*
X133621931Y-74575995D01*
X133604000Y-74609541D01*
X133586069Y-74575994D01*
X133398797Y-74347803D01*
X133170605Y-74160531D01*
X132910263Y-74021375D01*
X132627776Y-73935684D01*
X132334000Y-73906749D01*
X132040223Y-73935684D01*
X131757736Y-74021375D01*
X131497394Y-74160531D01*
X131269203Y-74347803D01*
X131081931Y-74575995D01*
X131064000Y-74609541D01*
X131046069Y-74575994D01*
X130858797Y-74347803D01*
X130630605Y-74160531D01*
X130370263Y-74021375D01*
X130087776Y-73935684D01*
X129794000Y-73906749D01*
X129500223Y-73935684D01*
X129217736Y-74021375D01*
X128957394Y-74160531D01*
X128729203Y-74347803D01*
X128657001Y-74435781D01*
X128601464Y-74301702D01*
X128309594Y-73864887D01*
X128179707Y-73735000D01*
X175219909Y-73735000D01*
X176328001Y-74843093D01*
X176328000Y-85944125D01*
X176324565Y-85979000D01*
X176328000Y-86013875D01*
X176328000Y-86013876D01*
X176338273Y-86118183D01*
X176378872Y-86252019D01*
X176444800Y-86375362D01*
X176533525Y-86483474D01*
X176560617Y-86505708D01*
X178868001Y-88813093D01*
X178868001Y-88863294D01*
X178738113Y-88733406D01*
X178301298Y-88441536D01*
X177815935Y-88240492D01*
X177300677Y-88138000D01*
X176775323Y-88138000D01*
X176260065Y-88240492D01*
X175774702Y-88441536D01*
X175337887Y-88733406D01*
X174966406Y-89104887D01*
X174674536Y-89541702D01*
X174473492Y-90027065D01*
X174371000Y-90542323D01*
X174371000Y-91067677D01*
X174473492Y-91582935D01*
X174674536Y-92068298D01*
X174966406Y-92505113D01*
X175337887Y-92876594D01*
X175774702Y-93168464D01*
X176260065Y-93369508D01*
X176775323Y-93472000D01*
X177300677Y-93472000D01*
X177815935Y-93369508D01*
X178301298Y-93168464D01*
X178738113Y-92876594D01*
X178868001Y-92746706D01*
X178868000Y-116803293D01*
X178738113Y-116673406D01*
X178301298Y-116381536D01*
X177815935Y-116180492D01*
X177300677Y-116078000D01*
X176775323Y-116078000D01*
X176260065Y-116180492D01*
X175774702Y-116381536D01*
X175337887Y-116673406D01*
X174966406Y-117044887D01*
X174674536Y-117481702D01*
X174473492Y-117967065D01*
X174371000Y-118482323D01*
X174371000Y-119007677D01*
X174473492Y-119522935D01*
X174674536Y-120008298D01*
X174966406Y-120445113D01*
X175337887Y-120816594D01*
X175774702Y-121108464D01*
X176260065Y-121309508D01*
X176775323Y-121412000D01*
X177300677Y-121412000D01*
X177815935Y-121309508D01*
X178301298Y-121108464D01*
X178738113Y-120816594D01*
X178868000Y-120686707D01*
X178868000Y-120990908D01*
X176560617Y-123298292D01*
X176533526Y-123320525D01*
X176511293Y-123347616D01*
X176444801Y-123428637D01*
X176378872Y-123551981D01*
X176338274Y-123685816D01*
X176324565Y-123825000D01*
X176328001Y-123859885D01*
X176328000Y-125655000D01*
X126909707Y-125655000D01*
X127039594Y-125525113D01*
X127331464Y-125088298D01*
X127532508Y-124602935D01*
X127635000Y-124087677D01*
X127635000Y-123598982D01*
X137439400Y-123598982D01*
X137439400Y-124051019D01*
X137461084Y-124271177D01*
X137546775Y-124553664D01*
X137685931Y-124814006D01*
X137873203Y-125042197D01*
X138101395Y-125229469D01*
X138361737Y-125368625D01*
X138644224Y-125454316D01*
X138938000Y-125483251D01*
X139231777Y-125454316D01*
X139514264Y-125368625D01*
X139774606Y-125229469D01*
X140002797Y-125042197D01*
X140190069Y-124814006D01*
X140208000Y-124780459D01*
X140225931Y-124814006D01*
X140413203Y-125042197D01*
X140641395Y-125229469D01*
X140901737Y-125368625D01*
X141184224Y-125454316D01*
X141478000Y-125483251D01*
X141771777Y-125454316D01*
X142054264Y-125368625D01*
X142314606Y-125229469D01*
X142542797Y-125042197D01*
X142730069Y-124814006D01*
X142748000Y-124780459D01*
X142765931Y-124814006D01*
X142953203Y-125042197D01*
X143181395Y-125229469D01*
X143441737Y-125368625D01*
X143724224Y-125454316D01*
X144018000Y-125483251D01*
X144311777Y-125454316D01*
X144594264Y-125368625D01*
X144854606Y-125229469D01*
X145082797Y-125042197D01*
X145270069Y-124814006D01*
X145288000Y-124780459D01*
X145305931Y-124814006D01*
X145493203Y-125042197D01*
X145721395Y-125229469D01*
X145981737Y-125368625D01*
X146264224Y-125454316D01*
X146558000Y-125483251D01*
X146851777Y-125454316D01*
X147134264Y-125368625D01*
X147394606Y-125229469D01*
X147622797Y-125042197D01*
X147810069Y-124814006D01*
X147828000Y-124780459D01*
X147845931Y-124814006D01*
X148033203Y-125042197D01*
X148261395Y-125229469D01*
X148521737Y-125368625D01*
X148804224Y-125454316D01*
X149098000Y-125483251D01*
X149391777Y-125454316D01*
X149674264Y-125368625D01*
X149934606Y-125229469D01*
X150162797Y-125042197D01*
X150350069Y-124814006D01*
X150371424Y-124774053D01*
X150519514Y-124976729D01*
X150735965Y-125175733D01*
X150987081Y-125328686D01*
X151263211Y-125429709D01*
X151278974Y-125432358D01*
X151511000Y-125311217D01*
X151511000Y-123952000D01*
X151765000Y-123952000D01*
X151765000Y-125311217D01*
X151997026Y-125432358D01*
X152012789Y-125429709D01*
X152288919Y-125328686D01*
X152540035Y-125175733D01*
X152756486Y-124976729D01*
X152908000Y-124769367D01*
X153059514Y-124976729D01*
X153275965Y-125175733D01*
X153527081Y-125328686D01*
X153803211Y-125429709D01*
X153818974Y-125432358D01*
X154051000Y-125311217D01*
X154051000Y-123952000D01*
X151765000Y-123952000D01*
X151511000Y-123952000D01*
X151491000Y-123952000D01*
X151491000Y-123698000D01*
X151511000Y-123698000D01*
X151511000Y-122338783D01*
X151765000Y-122338783D01*
X151765000Y-123698000D01*
X154051000Y-123698000D01*
X154051000Y-122338783D01*
X154305000Y-122338783D01*
X154305000Y-123698000D01*
X154325000Y-123698000D01*
X154325000Y-123952000D01*
X154305000Y-123952000D01*
X154305000Y-125311217D01*
X154537026Y-125432358D01*
X154552789Y-125429709D01*
X154828919Y-125328686D01*
X155080035Y-125175733D01*
X155296486Y-124976729D01*
X155444576Y-124774053D01*
X155465931Y-124814006D01*
X155653203Y-125042197D01*
X155881395Y-125229469D01*
X156141737Y-125368625D01*
X156424224Y-125454316D01*
X156718000Y-125483251D01*
X157011777Y-125454316D01*
X157294264Y-125368625D01*
X157554606Y-125229469D01*
X157782797Y-125042197D01*
X157970069Y-124814006D01*
X158109225Y-124553663D01*
X158194916Y-124271176D01*
X158216600Y-124051018D01*
X158216600Y-123598982D01*
X160299400Y-123598982D01*
X160299400Y-124051019D01*
X160321084Y-124271177D01*
X160406775Y-124553664D01*
X160545931Y-124814006D01*
X160733203Y-125042197D01*
X160961395Y-125229469D01*
X161221737Y-125368625D01*
X161504224Y-125454316D01*
X161798000Y-125483251D01*
X162091777Y-125454316D01*
X162374264Y-125368625D01*
X162634606Y-125229469D01*
X162862797Y-125042197D01*
X163050069Y-124814006D01*
X163068000Y-124780459D01*
X163085931Y-124814006D01*
X163273203Y-125042197D01*
X163501395Y-125229469D01*
X163761737Y-125368625D01*
X164044224Y-125454316D01*
X164338000Y-125483251D01*
X164631777Y-125454316D01*
X164914264Y-125368625D01*
X165174606Y-125229469D01*
X165402797Y-125042197D01*
X165590069Y-124814006D01*
X165608000Y-124780459D01*
X165625931Y-124814006D01*
X165813203Y-125042197D01*
X166041395Y-125229469D01*
X166301737Y-125368625D01*
X166584224Y-125454316D01*
X166878000Y-125483251D01*
X167171777Y-125454316D01*
X167454264Y-125368625D01*
X167714606Y-125229469D01*
X167942797Y-125042197D01*
X168130069Y-124814006D01*
X168148000Y-124780459D01*
X168165931Y-124814006D01*
X168353203Y-125042197D01*
X168581395Y-125229469D01*
X168841737Y-125368625D01*
X169124224Y-125454316D01*
X169418000Y-125483251D01*
X169711777Y-125454316D01*
X169994264Y-125368625D01*
X170254606Y-125229469D01*
X170482797Y-125042197D01*
X170670069Y-124814006D01*
X170688000Y-124780459D01*
X170705931Y-124814006D01*
X170893203Y-125042197D01*
X171121395Y-125229469D01*
X171381737Y-125368625D01*
X171664224Y-125454316D01*
X171958000Y-125483251D01*
X172251777Y-125454316D01*
X172534264Y-125368625D01*
X172794606Y-125229469D01*
X173022797Y-125042197D01*
X173210069Y-124814006D01*
X173228000Y-124780459D01*
X173245931Y-124814006D01*
X173433203Y-125042197D01*
X173661395Y-125229469D01*
X173921737Y-125368625D01*
X174204224Y-125454316D01*
X174498000Y-125483251D01*
X174791777Y-125454316D01*
X175074264Y-125368625D01*
X175334606Y-125229469D01*
X175562797Y-125042197D01*
X175750069Y-124814006D01*
X175889225Y-124553663D01*
X175974916Y-124271176D01*
X175996600Y-124051018D01*
X175996600Y-123598981D01*
X175974916Y-123378823D01*
X175889225Y-123096336D01*
X175750069Y-122835994D01*
X175562797Y-122607803D01*
X175334605Y-122420531D01*
X175074263Y-122281375D01*
X174791776Y-122195684D01*
X174498000Y-122166749D01*
X174204223Y-122195684D01*
X173921736Y-122281375D01*
X173661394Y-122420531D01*
X173433203Y-122607803D01*
X173245931Y-122835995D01*
X173228000Y-122869541D01*
X173210069Y-122835994D01*
X173022797Y-122607803D01*
X172794605Y-122420531D01*
X172534263Y-122281375D01*
X172251776Y-122195684D01*
X171958000Y-122166749D01*
X171664223Y-122195684D01*
X171381736Y-122281375D01*
X171121394Y-122420531D01*
X170893203Y-122607803D01*
X170705931Y-122835995D01*
X170688000Y-122869541D01*
X170670069Y-122835994D01*
X170482797Y-122607803D01*
X170254605Y-122420531D01*
X169994263Y-122281375D01*
X169711776Y-122195684D01*
X169418000Y-122166749D01*
X169124223Y-122195684D01*
X168841736Y-122281375D01*
X168581394Y-122420531D01*
X168353203Y-122607803D01*
X168165931Y-122835995D01*
X168148000Y-122869541D01*
X168130069Y-122835994D01*
X167942797Y-122607803D01*
X167714605Y-122420531D01*
X167454263Y-122281375D01*
X167171776Y-122195684D01*
X166878000Y-122166749D01*
X166584223Y-122195684D01*
X166301736Y-122281375D01*
X166041394Y-122420531D01*
X165813203Y-122607803D01*
X165625931Y-122835995D01*
X165608000Y-122869541D01*
X165590069Y-122835994D01*
X165402797Y-122607803D01*
X165174605Y-122420531D01*
X164914263Y-122281375D01*
X164631776Y-122195684D01*
X164338000Y-122166749D01*
X164044223Y-122195684D01*
X163761736Y-122281375D01*
X163501394Y-122420531D01*
X163273203Y-122607803D01*
X163085931Y-122835995D01*
X163068000Y-122869541D01*
X163050069Y-122835994D01*
X162862797Y-122607803D01*
X162634605Y-122420531D01*
X162374263Y-122281375D01*
X162091776Y-122195684D01*
X161798000Y-122166749D01*
X161504223Y-122195684D01*
X161221736Y-122281375D01*
X160961394Y-122420531D01*
X160733203Y-122607803D01*
X160545931Y-122835995D01*
X160406775Y-123096337D01*
X160321084Y-123378824D01*
X160299400Y-123598982D01*
X158216600Y-123598982D01*
X158216600Y-123598981D01*
X158194916Y-123378823D01*
X158109225Y-123096336D01*
X157970069Y-122835994D01*
X157782797Y-122607803D01*
X157554605Y-122420531D01*
X157294263Y-122281375D01*
X157011776Y-122195684D01*
X156718000Y-122166749D01*
X156424223Y-122195684D01*
X156141736Y-122281375D01*
X155881394Y-122420531D01*
X155653203Y-122607803D01*
X155465931Y-122835995D01*
X155444576Y-122875947D01*
X155296486Y-122673271D01*
X155080035Y-122474267D01*
X154828919Y-122321314D01*
X154552789Y-122220291D01*
X154537026Y-122217642D01*
X154305000Y-122338783D01*
X154051000Y-122338783D01*
X153818974Y-122217642D01*
X153803211Y-122220291D01*
X153527081Y-122321314D01*
X153275965Y-122474267D01*
X153059514Y-122673271D01*
X152908000Y-122880633D01*
X152756486Y-122673271D01*
X152540035Y-122474267D01*
X152288919Y-122321314D01*
X152012789Y-122220291D01*
X151997026Y-122217642D01*
X151765000Y-122338783D01*
X151511000Y-122338783D01*
X151278974Y-122217642D01*
X151263211Y-122220291D01*
X150987081Y-122321314D01*
X150735965Y-122474267D01*
X150519514Y-122673271D01*
X150371424Y-122875947D01*
X150350069Y-122835994D01*
X150162797Y-122607803D01*
X149934605Y-122420531D01*
X149674263Y-122281375D01*
X149391776Y-122195684D01*
X149098000Y-122166749D01*
X148804223Y-122195684D01*
X148521736Y-122281375D01*
X148261394Y-122420531D01*
X148033203Y-122607803D01*
X147845931Y-122835995D01*
X147828000Y-122869541D01*
X147810069Y-122835994D01*
X147622797Y-122607803D01*
X147394605Y-122420531D01*
X147134263Y-122281375D01*
X146851776Y-122195684D01*
X146558000Y-122166749D01*
X146264223Y-122195684D01*
X145981736Y-122281375D01*
X145721394Y-122420531D01*
X145493203Y-122607803D01*
X145305931Y-122835995D01*
X145288000Y-122869541D01*
X145270069Y-122835994D01*
X145082797Y-122607803D01*
X144854605Y-122420531D01*
X144594263Y-122281375D01*
X144311776Y-122195684D01*
X144018000Y-122166749D01*
X143724223Y-122195684D01*
X143441736Y-122281375D01*
X143181394Y-122420531D01*
X142953203Y-122607803D01*
X142765931Y-122835995D01*
X142748000Y-122869541D01*
X142730069Y-122835994D01*
X142542797Y-122607803D01*
X142314605Y-122420531D01*
X142054263Y-122281375D01*
X141771776Y-122195684D01*
X141478000Y-122166749D01*
X141184223Y-122195684D01*
X140901736Y-122281375D01*
X140641394Y-122420531D01*
X140413203Y-122607803D01*
X140225931Y-122835995D01*
X140208000Y-122869541D01*
X140190069Y-122835994D01*
X140002797Y-122607803D01*
X139774605Y-122420531D01*
X139514263Y-122281375D01*
X139231776Y-122195684D01*
X138938000Y-122166749D01*
X138644223Y-122195684D01*
X138361736Y-122281375D01*
X138101394Y-122420531D01*
X137873203Y-122607803D01*
X137685931Y-122835995D01*
X137546775Y-123096337D01*
X137461084Y-123378824D01*
X137439400Y-123598982D01*
X127635000Y-123598982D01*
X127635000Y-123562323D01*
X127532508Y-123047065D01*
X127331464Y-122561702D01*
X127039594Y-122124887D01*
X126668113Y-121753406D01*
X126231298Y-121461536D01*
X125745935Y-121260492D01*
X125230677Y-121158000D01*
X124705323Y-121158000D01*
X124190065Y-121260492D01*
X123704702Y-121461536D01*
X123267887Y-121753406D01*
X122896406Y-122124887D01*
X122604536Y-122561702D01*
X122403492Y-123047065D01*
X122301000Y-123562323D01*
X122301000Y-124087677D01*
X122403492Y-124602935D01*
X122604536Y-125088298D01*
X122896406Y-125525113D01*
X123026293Y-125655000D01*
X111708000Y-125655000D01*
X111708000Y-112302911D01*
X129113000Y-112302911D01*
X129113000Y-112487089D01*
X129148932Y-112667729D01*
X129219414Y-112837889D01*
X129321738Y-112991028D01*
X129451972Y-113121262D01*
X129605111Y-113223586D01*
X129775271Y-113294068D01*
X129955911Y-113330000D01*
X130140089Y-113330000D01*
X130320729Y-113294068D01*
X130490889Y-113223586D01*
X130644028Y-113121262D01*
X130774262Y-112991028D01*
X130876586Y-112837889D01*
X130913405Y-112749000D01*
X133021049Y-112749000D01*
X133161111Y-112842586D01*
X133331271Y-112913068D01*
X133511911Y-112949000D01*
X133696089Y-112949000D01*
X133876729Y-112913068D01*
X134046889Y-112842586D01*
X134200028Y-112740262D01*
X134330262Y-112610028D01*
X134432586Y-112456889D01*
X134503068Y-112286729D01*
X134539000Y-112106089D01*
X134539000Y-111921911D01*
X137876000Y-111921911D01*
X137876000Y-112106089D01*
X137911932Y-112286729D01*
X137982414Y-112456889D01*
X138084738Y-112610028D01*
X138214972Y-112740262D01*
X138368111Y-112842586D01*
X138538271Y-112913068D01*
X138718911Y-112949000D01*
X138903089Y-112949000D01*
X139083729Y-112913068D01*
X139253889Y-112842586D01*
X139393951Y-112749000D01*
X144190963Y-112749000D01*
X144134932Y-112884271D01*
X144099000Y-113064911D01*
X144099000Y-113249089D01*
X144134932Y-113429729D01*
X144143328Y-113450000D01*
X144125740Y-113450000D01*
X143838842Y-113507068D01*
X143568589Y-113619010D01*
X143325368Y-113781525D01*
X143118525Y-113988368D01*
X142956010Y-114231589D01*
X142844068Y-114501842D01*
X142787000Y-114788740D01*
X142787000Y-115081260D01*
X142844068Y-115368158D01*
X142956010Y-115638411D01*
X143118525Y-115881632D01*
X143325368Y-116088475D01*
X143499760Y-116205000D01*
X143325368Y-116321525D01*
X143118525Y-116528368D01*
X142956010Y-116771589D01*
X142844068Y-117041842D01*
X142787000Y-117328740D01*
X142787000Y-117621260D01*
X142844068Y-117908158D01*
X142956010Y-118178411D01*
X143118525Y-118421632D01*
X143325368Y-118628475D01*
X143568589Y-118790990D01*
X143838842Y-118902932D01*
X144125740Y-118960000D01*
X144418260Y-118960000D01*
X144705158Y-118902932D01*
X144975411Y-118790990D01*
X145218632Y-118628475D01*
X145425475Y-118421632D01*
X145542000Y-118247240D01*
X145658525Y-118421632D01*
X145865368Y-118628475D01*
X146108589Y-118790990D01*
X146186489Y-118823257D01*
X146110414Y-118937111D01*
X146039932Y-119107271D01*
X146004000Y-119287911D01*
X146004000Y-119472089D01*
X146039932Y-119652729D01*
X146110414Y-119822889D01*
X146212738Y-119976028D01*
X146342972Y-120106262D01*
X146496111Y-120208586D01*
X146666271Y-120279068D01*
X146846911Y-120315000D01*
X146907866Y-120315000D01*
X146910367Y-120316337D01*
X147048915Y-120358365D01*
X147156895Y-120369000D01*
X147156904Y-120369000D01*
X147192999Y-120372555D01*
X147229094Y-120369000D01*
X152228574Y-120369000D01*
X152262932Y-120541729D01*
X152333414Y-120711889D01*
X152435738Y-120865028D01*
X152565972Y-120995262D01*
X152719111Y-121097586D01*
X152889271Y-121168068D01*
X153054485Y-121200931D01*
X153124746Y-121271192D01*
X153147762Y-121299238D01*
X153259680Y-121391087D01*
X153387367Y-121459337D01*
X153525915Y-121501365D01*
X153633895Y-121512000D01*
X153633904Y-121512000D01*
X153669999Y-121515555D01*
X153706094Y-121512000D01*
X173186879Y-121512000D01*
X173263738Y-121627028D01*
X173393972Y-121757262D01*
X173547111Y-121859586D01*
X173717271Y-121930068D01*
X173897911Y-121966000D01*
X174082089Y-121966000D01*
X174262729Y-121930068D01*
X174432889Y-121859586D01*
X174586028Y-121757262D01*
X174716262Y-121627028D01*
X174818586Y-121473889D01*
X174889068Y-121303729D01*
X174925000Y-121123089D01*
X174925000Y-120938911D01*
X174889068Y-120758271D01*
X174818586Y-120588111D01*
X174716262Y-120434972D01*
X174586028Y-120304738D01*
X174432889Y-120202414D01*
X174262729Y-120131932D01*
X174082089Y-120096000D01*
X174021134Y-120096000D01*
X174018633Y-120094663D01*
X173880085Y-120052635D01*
X173880084Y-120052635D01*
X173736000Y-120038444D01*
X173699895Y-120042000D01*
X171875426Y-120042000D01*
X171841068Y-119869271D01*
X171770586Y-119699111D01*
X171668262Y-119545972D01*
X171538028Y-119415738D01*
X171384889Y-119313414D01*
X171214729Y-119242932D01*
X171034089Y-119207000D01*
X170849911Y-119207000D01*
X170669271Y-119242932D01*
X170499111Y-119313414D01*
X170359049Y-119407000D01*
X167038685Y-119407000D01*
X167051000Y-119345089D01*
X167051000Y-119160911D01*
X167015068Y-118980271D01*
X166944586Y-118810111D01*
X166842262Y-118656972D01*
X166712028Y-118526738D01*
X166558889Y-118424414D01*
X166388729Y-118353932D01*
X166208089Y-118318000D01*
X166023911Y-118318000D01*
X165843271Y-118353932D01*
X165673111Y-118424414D01*
X165519972Y-118526738D01*
X165389738Y-118656972D01*
X165287414Y-118810111D01*
X165216932Y-118980271D01*
X165181000Y-119160911D01*
X165181000Y-119345089D01*
X165216932Y-119525729D01*
X165287414Y-119695889D01*
X165385487Y-119842666D01*
X165391635Y-119905085D01*
X165433168Y-120042000D01*
X161371037Y-120042000D01*
X161427068Y-119906729D01*
X161463000Y-119726089D01*
X161463000Y-119541911D01*
X161427068Y-119361271D01*
X161356586Y-119191111D01*
X161254262Y-119037972D01*
X161124028Y-118907738D01*
X160970889Y-118805414D01*
X160800729Y-118734932D01*
X160620089Y-118699000D01*
X160435911Y-118699000D01*
X160317974Y-118722459D01*
X160458632Y-118628475D01*
X160665475Y-118421632D01*
X160782000Y-118247240D01*
X160898525Y-118421632D01*
X161105368Y-118628475D01*
X161348589Y-118790990D01*
X161618842Y-118902932D01*
X161905740Y-118960000D01*
X162198260Y-118960000D01*
X162485158Y-118902932D01*
X162755411Y-118790990D01*
X162998632Y-118628475D01*
X163205475Y-118421632D01*
X163367990Y-118178411D01*
X163479932Y-117908158D01*
X163537000Y-117621260D01*
X163537000Y-117328740D01*
X163479932Y-117041842D01*
X163367990Y-116771589D01*
X163205475Y-116528368D01*
X163073620Y-116396513D01*
X163146180Y-116374502D01*
X163256494Y-116315537D01*
X163353185Y-116236185D01*
X163432537Y-116139494D01*
X163491502Y-116029180D01*
X163527812Y-115909482D01*
X163540072Y-115785000D01*
X163540072Y-114712909D01*
X163595485Y-114723931D01*
X163665746Y-114794192D01*
X163688762Y-114822238D01*
X163800680Y-114914087D01*
X163928367Y-114982337D01*
X164066915Y-115024365D01*
X164174895Y-115035000D01*
X164174904Y-115035000D01*
X164210999Y-115038555D01*
X164247094Y-115035000D01*
X168327049Y-115035000D01*
X168467111Y-115128586D01*
X168637271Y-115199068D01*
X168817911Y-115235000D01*
X169002089Y-115235000D01*
X169182729Y-115199068D01*
X169352889Y-115128586D01*
X169506028Y-115026262D01*
X169636262Y-114896028D01*
X169738586Y-114742889D01*
X169809068Y-114572729D01*
X169845000Y-114392089D01*
X169845000Y-114207911D01*
X169809068Y-114027271D01*
X169739629Y-113859629D01*
X169907271Y-113929068D01*
X170087911Y-113965000D01*
X170272089Y-113965000D01*
X170452729Y-113929068D01*
X170622889Y-113858586D01*
X170776028Y-113756262D01*
X170906262Y-113626028D01*
X171008586Y-113472889D01*
X171079068Y-113302729D01*
X171115000Y-113122089D01*
X171115000Y-112937911D01*
X171079068Y-112757271D01*
X171008586Y-112587111D01*
X170906262Y-112433972D01*
X170776028Y-112303738D01*
X170622889Y-112201414D01*
X170452729Y-112130932D01*
X170272089Y-112095000D01*
X170087911Y-112095000D01*
X169907271Y-112130932D01*
X169737111Y-112201414D01*
X169597049Y-112295000D01*
X166376642Y-112295000D01*
X166380068Y-112286729D01*
X166416000Y-112106089D01*
X166416000Y-111921911D01*
X166380068Y-111741271D01*
X166309586Y-111571111D01*
X166207262Y-111417972D01*
X166077028Y-111287738D01*
X165923889Y-111185414D01*
X165774359Y-111123477D01*
X165781000Y-111090089D01*
X165781000Y-110905911D01*
X165745068Y-110725271D01*
X165717814Y-110659474D01*
X165880729Y-110627068D01*
X166050889Y-110556586D01*
X166204028Y-110454262D01*
X166334262Y-110324028D01*
X166436586Y-110170889D01*
X166507068Y-110000729D01*
X166541426Y-109828000D01*
X170392879Y-109828000D01*
X170469738Y-109943028D01*
X170599972Y-110073262D01*
X170753111Y-110175586D01*
X170923271Y-110246068D01*
X171103911Y-110282000D01*
X171288089Y-110282000D01*
X171468729Y-110246068D01*
X171638889Y-110175586D01*
X171792028Y-110073262D01*
X171922262Y-109943028D01*
X172024586Y-109789889D01*
X172095068Y-109619729D01*
X172131000Y-109439089D01*
X172131000Y-109254911D01*
X172095068Y-109074271D01*
X172024586Y-108904111D01*
X171922262Y-108750972D01*
X171792028Y-108620738D01*
X171638889Y-108518414D01*
X171468729Y-108447932D01*
X171288089Y-108412000D01*
X171227134Y-108412000D01*
X171224633Y-108410663D01*
X171086085Y-108368635D01*
X171066824Y-108366738D01*
X170942000Y-108354444D01*
X170905895Y-108358000D01*
X167927685Y-108358000D01*
X167940000Y-108296089D01*
X167940000Y-108111911D01*
X167904068Y-107931271D01*
X167833586Y-107761111D01*
X167731262Y-107607972D01*
X167601028Y-107477738D01*
X167447889Y-107375414D01*
X167277729Y-107304932D01*
X167097089Y-107269000D01*
X166912911Y-107269000D01*
X166732271Y-107304932D01*
X166562111Y-107375414D01*
X166422049Y-107469000D01*
X165136094Y-107469000D01*
X165099999Y-107465445D01*
X165063904Y-107469000D01*
X165063895Y-107469000D01*
X164955915Y-107479635D01*
X164817367Y-107521663D01*
X164814866Y-107523000D01*
X164753911Y-107523000D01*
X164573271Y-107558932D01*
X164403111Y-107629414D01*
X164249972Y-107731738D01*
X164234900Y-107746810D01*
X164221068Y-107677271D01*
X164150586Y-107507111D01*
X164048262Y-107353972D01*
X163918028Y-107223738D01*
X163824134Y-107161000D01*
X168492895Y-107161000D01*
X168529000Y-107164556D01*
X168565105Y-107161000D01*
X168673085Y-107150365D01*
X168811633Y-107108337D01*
X168939320Y-107040087D01*
X169051238Y-106948238D01*
X169074258Y-106920188D01*
X169144515Y-106849932D01*
X169309729Y-106817068D01*
X169479889Y-106746586D01*
X169633028Y-106644262D01*
X169763262Y-106514028D01*
X169865586Y-106360889D01*
X169936068Y-106190729D01*
X169972000Y-106010089D01*
X169972000Y-105891000D01*
X171248049Y-105891000D01*
X171388111Y-105984586D01*
X171558271Y-106055068D01*
X171738911Y-106091000D01*
X171923089Y-106091000D01*
X172103729Y-106055068D01*
X172273889Y-105984586D01*
X172427028Y-105882262D01*
X172557262Y-105752028D01*
X172659586Y-105598889D01*
X172730068Y-105428729D01*
X172766000Y-105248089D01*
X172766000Y-105063911D01*
X172730068Y-104883271D01*
X172659586Y-104713111D01*
X172557262Y-104559972D01*
X172427028Y-104429738D01*
X172273889Y-104327414D01*
X172103729Y-104256932D01*
X171923089Y-104221000D01*
X171738911Y-104221000D01*
X171558271Y-104256932D01*
X171388111Y-104327414D01*
X171248049Y-104421000D01*
X169078121Y-104421000D01*
X169001262Y-104305972D01*
X168871028Y-104175738D01*
X168717889Y-104073414D01*
X168547729Y-104002932D01*
X168367089Y-103967000D01*
X168182911Y-103967000D01*
X168002271Y-104002932D01*
X167832111Y-104073414D01*
X167678972Y-104175738D01*
X167548738Y-104305972D01*
X167446414Y-104459111D01*
X167375932Y-104629271D01*
X167340000Y-104809911D01*
X167340000Y-104994089D01*
X167375932Y-105174729D01*
X167446414Y-105344889D01*
X167548738Y-105498028D01*
X167678972Y-105628262D01*
X167772866Y-105691000D01*
X161872951Y-105691000D01*
X161732889Y-105597414D01*
X161562729Y-105526932D01*
X161382089Y-105491000D01*
X161197911Y-105491000D01*
X161017271Y-105526932D01*
X160847111Y-105597414D01*
X160693972Y-105699738D01*
X160563738Y-105829972D01*
X160461414Y-105983111D01*
X160390932Y-106153271D01*
X160355000Y-106333911D01*
X160355000Y-106518089D01*
X160390932Y-106698729D01*
X160461414Y-106868889D01*
X160563738Y-107022028D01*
X160693972Y-107152262D01*
X160847111Y-107254586D01*
X161017271Y-107325068D01*
X161197911Y-107361000D01*
X161382089Y-107361000D01*
X161562729Y-107325068D01*
X161732889Y-107254586D01*
X161872951Y-107161000D01*
X162819866Y-107161000D01*
X162725972Y-107223738D01*
X162595738Y-107353972D01*
X162493414Y-107507111D01*
X162457086Y-107594816D01*
X162433000Y-107592444D01*
X162288915Y-107606635D01*
X162150366Y-107648663D01*
X162088441Y-107681763D01*
X162022680Y-107716913D01*
X161910762Y-107808762D01*
X161887746Y-107836807D01*
X161493554Y-108231000D01*
X157434037Y-108231000D01*
X157490068Y-108095729D01*
X157526000Y-107915089D01*
X157526000Y-107730911D01*
X157490068Y-107550271D01*
X157419586Y-107380111D01*
X157317262Y-107226972D01*
X157187028Y-107096738D01*
X157033889Y-106994414D01*
X156863729Y-106923932D01*
X156683089Y-106888000D01*
X156498911Y-106888000D01*
X156318271Y-106923932D01*
X156148111Y-106994414D01*
X155994972Y-107096738D01*
X155864738Y-107226972D01*
X155762414Y-107380111D01*
X155691932Y-107550271D01*
X155659068Y-107715485D01*
X155651554Y-107723000D01*
X150404105Y-107723000D01*
X150368000Y-107719444D01*
X150223915Y-107733635D01*
X150085366Y-107775663D01*
X149970974Y-107836807D01*
X149957680Y-107843913D01*
X149845762Y-107935762D01*
X149822746Y-107963807D01*
X149625485Y-108161068D01*
X149460271Y-108193932D01*
X149290111Y-108264414D01*
X149136972Y-108366738D01*
X149006738Y-108496972D01*
X148904414Y-108650111D01*
X148833932Y-108820271D01*
X148798000Y-109000911D01*
X148798000Y-109185089D01*
X148833932Y-109365729D01*
X148904414Y-109535889D01*
X149006738Y-109689028D01*
X149136972Y-109819262D01*
X149290111Y-109921586D01*
X149460271Y-109992068D01*
X149640911Y-110028000D01*
X149825089Y-110028000D01*
X150005729Y-109992068D01*
X150175889Y-109921586D01*
X150329028Y-109819262D01*
X150459262Y-109689028D01*
X150561586Y-109535889D01*
X150632068Y-109365729D01*
X150664932Y-109200515D01*
X150672447Y-109193000D01*
X152405866Y-109193000D01*
X152311972Y-109255738D01*
X152181738Y-109385972D01*
X152079414Y-109539111D01*
X152008932Y-109709271D01*
X151973000Y-109889911D01*
X151973000Y-110074089D01*
X152008932Y-110254729D01*
X152079414Y-110424889D01*
X152181738Y-110578028D01*
X152311972Y-110708262D01*
X152405866Y-110771000D01*
X149007105Y-110771000D01*
X148971000Y-110767444D01*
X148826914Y-110781635D01*
X148784886Y-110794384D01*
X148688367Y-110823663D01*
X148560680Y-110891913D01*
X148448762Y-110983762D01*
X148425746Y-111011807D01*
X147847485Y-111590068D01*
X147682271Y-111622932D01*
X147512111Y-111693414D01*
X147358972Y-111795738D01*
X147228738Y-111925972D01*
X147126414Y-112079111D01*
X147055932Y-112249271D01*
X147021574Y-112422000D01*
X145616951Y-112422000D01*
X145613660Y-112419801D01*
X145687729Y-112405068D01*
X145857889Y-112334586D01*
X146011028Y-112232262D01*
X146141262Y-112102028D01*
X146243586Y-111948889D01*
X146314068Y-111778729D01*
X146350000Y-111598089D01*
X146350000Y-111413911D01*
X146314068Y-111233271D01*
X146243586Y-111063111D01*
X146141262Y-110909972D01*
X146011028Y-110779738D01*
X145857889Y-110677414D01*
X145687729Y-110606932D01*
X145507089Y-110571000D01*
X145322911Y-110571000D01*
X145142271Y-110606932D01*
X144972111Y-110677414D01*
X144818972Y-110779738D01*
X144688738Y-110909972D01*
X144586414Y-111063111D01*
X144515932Y-111233271D01*
X144506836Y-111279000D01*
X139393951Y-111279000D01*
X139253889Y-111185414D01*
X139083729Y-111114932D01*
X138903089Y-111079000D01*
X138718911Y-111079000D01*
X138538271Y-111114932D01*
X138368111Y-111185414D01*
X138214972Y-111287738D01*
X138084738Y-111417972D01*
X137982414Y-111571111D01*
X137911932Y-111741271D01*
X137876000Y-111921911D01*
X134539000Y-111921911D01*
X134503068Y-111741271D01*
X134432586Y-111571111D01*
X134330262Y-111417972D01*
X134200028Y-111287738D01*
X134046889Y-111185414D01*
X133876729Y-111114932D01*
X133696089Y-111079000D01*
X133511911Y-111079000D01*
X133331271Y-111114932D01*
X133161111Y-111185414D01*
X133021049Y-111279000D01*
X130465094Y-111279000D01*
X130428999Y-111275445D01*
X130392904Y-111279000D01*
X130392895Y-111279000D01*
X130284915Y-111289635D01*
X130146367Y-111331663D01*
X130018680Y-111399913D01*
X129942122Y-111462743D01*
X129775271Y-111495932D01*
X129605111Y-111566414D01*
X129451972Y-111668738D01*
X129321738Y-111798972D01*
X129219414Y-111952111D01*
X129148932Y-112122271D01*
X129113000Y-112302911D01*
X111708000Y-112302911D01*
X111708000Y-104374740D01*
X114963000Y-104374740D01*
X114963000Y-104667260D01*
X115020068Y-104954158D01*
X115132010Y-105224411D01*
X115294525Y-105467632D01*
X115501368Y-105674475D01*
X115744589Y-105836990D01*
X116014842Y-105948932D01*
X116301740Y-106006000D01*
X116594260Y-106006000D01*
X116881158Y-105948932D01*
X117151411Y-105836990D01*
X117394632Y-105674475D01*
X117601475Y-105467632D01*
X117763990Y-105224411D01*
X117875932Y-104954158D01*
X117933000Y-104667260D01*
X117933000Y-104374740D01*
X121963000Y-104374740D01*
X121963000Y-104667260D01*
X122020068Y-104954158D01*
X122132010Y-105224411D01*
X122294525Y-105467632D01*
X122501368Y-105674475D01*
X122744589Y-105836990D01*
X123014842Y-105948932D01*
X123301740Y-106006000D01*
X123594260Y-106006000D01*
X123881158Y-105948932D01*
X124151411Y-105836990D01*
X124394632Y-105674475D01*
X124601475Y-105467632D01*
X124763990Y-105224411D01*
X124875932Y-104954158D01*
X124933000Y-104667260D01*
X124933000Y-104374740D01*
X124875932Y-104087842D01*
X124763990Y-103817589D01*
X124748169Y-103793911D01*
X135971000Y-103793911D01*
X135971000Y-103978089D01*
X136006932Y-104158729D01*
X136077414Y-104328889D01*
X136179738Y-104482028D01*
X136309972Y-104612262D01*
X136463111Y-104714586D01*
X136502429Y-104730872D01*
X136514932Y-104793729D01*
X136585414Y-104963889D01*
X136687738Y-105117028D01*
X136817972Y-105247262D01*
X136971111Y-105349586D01*
X137141271Y-105420068D01*
X137321911Y-105456000D01*
X137506089Y-105456000D01*
X137686729Y-105420068D01*
X137856889Y-105349586D01*
X137996951Y-105256000D01*
X144324049Y-105256000D01*
X144464111Y-105349586D01*
X144634271Y-105420068D01*
X144814911Y-105456000D01*
X144999089Y-105456000D01*
X145179729Y-105420068D01*
X145349889Y-105349586D01*
X145503028Y-105247262D01*
X145633262Y-105117028D01*
X145735586Y-104963889D01*
X145806068Y-104793729D01*
X145842000Y-104613089D01*
X145842000Y-104428911D01*
X145806068Y-104248271D01*
X145735586Y-104078111D01*
X145633262Y-103924972D01*
X145503028Y-103794738D01*
X145349889Y-103692414D01*
X145179729Y-103621932D01*
X144999089Y-103586000D01*
X144814911Y-103586000D01*
X144634271Y-103621932D01*
X144464111Y-103692414D01*
X144324049Y-103786000D01*
X138299447Y-103786000D01*
X138410515Y-103674932D01*
X138575729Y-103642068D01*
X138745889Y-103571586D01*
X138899028Y-103469262D01*
X139029262Y-103339028D01*
X139131586Y-103185889D01*
X139202068Y-103015729D01*
X139238000Y-102835089D01*
X139238000Y-102650911D01*
X139202068Y-102470271D01*
X139131586Y-102300111D01*
X139029262Y-102146972D01*
X138899028Y-102016738D01*
X138745889Y-101914414D01*
X138575729Y-101843932D01*
X138395089Y-101808000D01*
X138210911Y-101808000D01*
X138030271Y-101843932D01*
X137860111Y-101914414D01*
X137706972Y-102016738D01*
X137576738Y-102146972D01*
X137474414Y-102300111D01*
X137403932Y-102470271D01*
X137371068Y-102635485D01*
X137046020Y-102960534D01*
X136998089Y-102951000D01*
X136813911Y-102951000D01*
X136633271Y-102986932D01*
X136463111Y-103057414D01*
X136309972Y-103159738D01*
X136179738Y-103289972D01*
X136077414Y-103443111D01*
X136006932Y-103613271D01*
X135971000Y-103793911D01*
X124748169Y-103793911D01*
X124601475Y-103574368D01*
X124394632Y-103367525D01*
X124151411Y-103205010D01*
X123881158Y-103093068D01*
X123594260Y-103036000D01*
X123301740Y-103036000D01*
X123014842Y-103093068D01*
X122744589Y-103205010D01*
X122501368Y-103367525D01*
X122294525Y-103574368D01*
X122132010Y-103817589D01*
X122020068Y-104087842D01*
X121963000Y-104374740D01*
X117933000Y-104374740D01*
X117875932Y-104087842D01*
X117763990Y-103817589D01*
X117601475Y-103574368D01*
X117394632Y-103367525D01*
X117151411Y-103205010D01*
X116881158Y-103093068D01*
X116594260Y-103036000D01*
X116301740Y-103036000D01*
X116014842Y-103093068D01*
X115744589Y-103205010D01*
X115501368Y-103367525D01*
X115294525Y-103574368D01*
X115132010Y-103817589D01*
X115020068Y-104087842D01*
X114963000Y-104374740D01*
X111708000Y-104374740D01*
X111708000Y-98459911D01*
X145242000Y-98459911D01*
X145242000Y-98644089D01*
X145277932Y-98824729D01*
X145348414Y-98994889D01*
X145450738Y-99148028D01*
X145580972Y-99278262D01*
X145734111Y-99380586D01*
X145904271Y-99451068D01*
X146084911Y-99487000D01*
X146192725Y-99487000D01*
X146166932Y-99549271D01*
X146131000Y-99729911D01*
X146131000Y-99914089D01*
X146166932Y-100094729D01*
X146237414Y-100264889D01*
X146339738Y-100418028D01*
X146469972Y-100548262D01*
X146623111Y-100650586D01*
X146793271Y-100721068D01*
X146973911Y-100757000D01*
X147158089Y-100757000D01*
X147338729Y-100721068D01*
X147508889Y-100650586D01*
X147648951Y-100557000D01*
X152222554Y-100557000D01*
X152357068Y-100691515D01*
X152389932Y-100856729D01*
X152460414Y-101026889D01*
X152562738Y-101180028D01*
X152692972Y-101310262D01*
X152846111Y-101412586D01*
X153016271Y-101483068D01*
X153196911Y-101519000D01*
X153381089Y-101519000D01*
X153561729Y-101483068D01*
X153731889Y-101412586D01*
X153885028Y-101310262D01*
X154015262Y-101180028D01*
X154117586Y-101026889D01*
X154188068Y-100856729D01*
X154224000Y-100676089D01*
X154224000Y-100491911D01*
X154188068Y-100311271D01*
X154117586Y-100141111D01*
X154015262Y-99987972D01*
X153885028Y-99857738D01*
X153731889Y-99755414D01*
X153561729Y-99684932D01*
X153396515Y-99652068D01*
X153072258Y-99327812D01*
X153049238Y-99299762D01*
X153033688Y-99287000D01*
X154268895Y-99287000D01*
X154305000Y-99290556D01*
X154341105Y-99287000D01*
X154449085Y-99276365D01*
X154587633Y-99234337D01*
X154715320Y-99166087D01*
X154827238Y-99074238D01*
X154850258Y-99046188D01*
X155047515Y-98848932D01*
X155212729Y-98816068D01*
X155382889Y-98745586D01*
X155536028Y-98643262D01*
X155666262Y-98513028D01*
X155701753Y-98459911D01*
X159466000Y-98459911D01*
X159466000Y-98644089D01*
X159501932Y-98824729D01*
X159572414Y-98994889D01*
X159674738Y-99148028D01*
X159804972Y-99278262D01*
X159958111Y-99380586D01*
X160128271Y-99451068D01*
X160308911Y-99487000D01*
X160493089Y-99487000D01*
X160673729Y-99451068D01*
X160843889Y-99380586D01*
X160983951Y-99287000D01*
X161596049Y-99287000D01*
X161736111Y-99380586D01*
X161906271Y-99451068D01*
X162086911Y-99487000D01*
X162271089Y-99487000D01*
X162451729Y-99451068D01*
X162621889Y-99380586D01*
X162775028Y-99278262D01*
X162905262Y-99148028D01*
X163007586Y-98994889D01*
X163078068Y-98824729D01*
X163114000Y-98644089D01*
X163114000Y-98459911D01*
X163078068Y-98279271D01*
X163007586Y-98109111D01*
X162905262Y-97955972D01*
X162775028Y-97825738D01*
X162621889Y-97723414D01*
X162451729Y-97652932D01*
X162271089Y-97617000D01*
X162086911Y-97617000D01*
X161906271Y-97652932D01*
X161736111Y-97723414D01*
X161596049Y-97817000D01*
X160983951Y-97817000D01*
X160843889Y-97723414D01*
X160673729Y-97652932D01*
X160493089Y-97617000D01*
X160308911Y-97617000D01*
X160128271Y-97652932D01*
X159958111Y-97723414D01*
X159804972Y-97825738D01*
X159674738Y-97955972D01*
X159572414Y-98109111D01*
X159501932Y-98279271D01*
X159466000Y-98459911D01*
X155701753Y-98459911D01*
X155768586Y-98359889D01*
X155839068Y-98189729D01*
X155875000Y-98009089D01*
X155875000Y-97824911D01*
X155839068Y-97644271D01*
X155768586Y-97474111D01*
X155666262Y-97320972D01*
X155536028Y-97190738D01*
X155382889Y-97088414D01*
X155212729Y-97017932D01*
X155032089Y-96982000D01*
X154847911Y-96982000D01*
X154667271Y-97017932D01*
X154497111Y-97088414D01*
X154343972Y-97190738D01*
X154213738Y-97320972D01*
X154111414Y-97474111D01*
X154040932Y-97644271D01*
X154008068Y-97809485D01*
X154000554Y-97817000D01*
X146759951Y-97817000D01*
X146619889Y-97723414D01*
X146449729Y-97652932D01*
X146269089Y-97617000D01*
X146084911Y-97617000D01*
X145904271Y-97652932D01*
X145734111Y-97723414D01*
X145580972Y-97825738D01*
X145450738Y-97955972D01*
X145348414Y-98109111D01*
X145277932Y-98279271D01*
X145242000Y-98459911D01*
X111708000Y-98459911D01*
X111708000Y-94776911D01*
X141432000Y-94776911D01*
X141432000Y-94961089D01*
X141467932Y-95141729D01*
X141538414Y-95311889D01*
X141640738Y-95465028D01*
X141770972Y-95595262D01*
X141924111Y-95697586D01*
X141940000Y-95704167D01*
X141940000Y-95723089D01*
X141975932Y-95903729D01*
X142046414Y-96073889D01*
X142148738Y-96227028D01*
X142278972Y-96357262D01*
X142432111Y-96459586D01*
X142602271Y-96530068D01*
X142782911Y-96566000D01*
X142967089Y-96566000D01*
X143147729Y-96530068D01*
X143317889Y-96459586D01*
X143457951Y-96366000D01*
X144036780Y-96366000D01*
X144126271Y-96403068D01*
X144306911Y-96439000D01*
X144491089Y-96439000D01*
X144671729Y-96403068D01*
X144841889Y-96332586D01*
X144995028Y-96230262D01*
X145125262Y-96100028D01*
X145227586Y-95946889D01*
X145298068Y-95776729D01*
X145310571Y-95713872D01*
X145349889Y-95697586D01*
X145503028Y-95595262D01*
X145633262Y-95465028D01*
X145735586Y-95311889D01*
X145806068Y-95141729D01*
X145842000Y-94961089D01*
X145842000Y-94776911D01*
X145806068Y-94596271D01*
X145735586Y-94426111D01*
X145633262Y-94272972D01*
X145503028Y-94142738D01*
X145349889Y-94040414D01*
X145179729Y-93969932D01*
X144999089Y-93934000D01*
X144814911Y-93934000D01*
X144634271Y-93969932D01*
X144464111Y-94040414D01*
X144324049Y-94134000D01*
X142949951Y-94134000D01*
X142809889Y-94040414D01*
X142639729Y-93969932D01*
X142459089Y-93934000D01*
X142274911Y-93934000D01*
X142094271Y-93969932D01*
X141924111Y-94040414D01*
X141770972Y-94142738D01*
X141640738Y-94272972D01*
X141538414Y-94426111D01*
X141467932Y-94596271D01*
X141432000Y-94776911D01*
X111708000Y-94776911D01*
X111708000Y-81314911D01*
X152608000Y-81314911D01*
X152608000Y-81499089D01*
X152643932Y-81679729D01*
X152714414Y-81849889D01*
X152808001Y-81989952D01*
X152808000Y-89714049D01*
X152714414Y-89854111D01*
X152643932Y-90024271D01*
X152608000Y-90204911D01*
X152608000Y-90389089D01*
X152643932Y-90569729D01*
X152714414Y-90739889D01*
X152816738Y-90893028D01*
X152946972Y-91023262D01*
X153100111Y-91125586D01*
X153270271Y-91196068D01*
X153450911Y-91232000D01*
X153635089Y-91232000D01*
X153815729Y-91196068D01*
X153985889Y-91125586D01*
X154139028Y-91023262D01*
X154269262Y-90893028D01*
X154371586Y-90739889D01*
X154442068Y-90569729D01*
X154478000Y-90389089D01*
X154478000Y-90204911D01*
X154442068Y-90024271D01*
X154371586Y-89854111D01*
X154278000Y-89714049D01*
X154278000Y-89696911D01*
X169753000Y-89696911D01*
X169753000Y-89881089D01*
X169788932Y-90061729D01*
X169859414Y-90231889D01*
X169953000Y-90371951D01*
X169953001Y-95683048D01*
X169859414Y-95823111D01*
X169788932Y-95993271D01*
X169753000Y-96173911D01*
X169753000Y-96358089D01*
X169788932Y-96538729D01*
X169859414Y-96708889D01*
X169961738Y-96862028D01*
X170091972Y-96992262D01*
X170245111Y-97094586D01*
X170415271Y-97165068D01*
X170595911Y-97201000D01*
X170780089Y-97201000D01*
X170960729Y-97165068D01*
X171130889Y-97094586D01*
X171284028Y-96992262D01*
X171414262Y-96862028D01*
X171516586Y-96708889D01*
X171587068Y-96538729D01*
X171623000Y-96358089D01*
X171623000Y-96173911D01*
X171587068Y-95993271D01*
X171516586Y-95823111D01*
X171423000Y-95683049D01*
X171423000Y-90371951D01*
X171516586Y-90231889D01*
X171587068Y-90061729D01*
X171623000Y-89881089D01*
X171623000Y-89696911D01*
X171587068Y-89516271D01*
X171516586Y-89346111D01*
X171414262Y-89192972D01*
X171284028Y-89062738D01*
X171130889Y-88960414D01*
X170960729Y-88889932D01*
X170780089Y-88854000D01*
X170595911Y-88854000D01*
X170415271Y-88889932D01*
X170245111Y-88960414D01*
X170091972Y-89062738D01*
X169961738Y-89192972D01*
X169859414Y-89346111D01*
X169788932Y-89516271D01*
X169753000Y-89696911D01*
X154278000Y-89696911D01*
X154278000Y-81989951D01*
X154371586Y-81849889D01*
X154442068Y-81679729D01*
X154478000Y-81499089D01*
X154478000Y-81314911D01*
X154442068Y-81134271D01*
X154371586Y-80964111D01*
X154269262Y-80810972D01*
X154139028Y-80680738D01*
X153985889Y-80578414D01*
X153815729Y-80507932D01*
X153635089Y-80472000D01*
X153450911Y-80472000D01*
X153270271Y-80507932D01*
X153100111Y-80578414D01*
X152946972Y-80680738D01*
X152816738Y-80810972D01*
X152714414Y-80964111D01*
X152643932Y-81134271D01*
X152608000Y-81314911D01*
X111708000Y-81314911D01*
X111708000Y-73735000D01*
X124296293Y-73735000D01*
X124166406Y-73864887D01*
G37*
G04 #@! TD.AperFunction*
M02*
