M48
; DRILL file {KiCad (5.1.8)-1} date 03/26/21 14:13:00
; FORMAT={-:-/ absolute / inch / decimal}
; #@! TF.CreationDate,2021-03-26T14:13:00-05:00
; #@! TF.GenerationSoftware,Kicad,Pcbnew,(5.1.8)-1
; #@! TF.FileFunction,Plated,1,2,PTH
FMAT,2
INCH
T1C0.0118
T2C0.0394
T3C0.0400
T4C0.1200
%
G90
G05
T1
X4.495Y-4.34
X4.54Y-4.34
X4.59Y-4.34
X4.855Y-4.66
X5.04Y-4.64
X5.12Y-3.965
X5.12Y-4.425
X5.225Y-3.075
X5.225Y-4.33
X5.26Y-4.41
X5.265Y-4.33
X5.31Y-3.05
X5.33Y-3.075
X5.34Y-4.19
X5.39Y-3.945
X5.39Y-4.09
X5.41Y-4.115
X5.445Y-4.045
X5.465Y-4.41
X5.5Y-3.05
X5.5Y-3.845
X5.535Y-3.075
X5.605Y-3.735
X5.625Y-3.765
X5.685Y-3.76
X5.705Y-3.735
X5.705Y-4.115
X5.71Y-4.455
X5.725Y-4.39
X5.755Y-3.88
X5.78Y-3.825
X5.785Y-4.7
X5.79Y-3.93
X5.815Y-4.25
X5.825Y-4.43
X5.83Y-3.525
X5.885Y-4.255
X5.895Y-4.295
X5.98Y-3.07
X6.02Y-4.33
X6.03Y-4.735
X6.035Y-3.96
X6.045Y-3.205
X6.045Y-3.555
X6.045Y-3.84
X6.1Y-3.855
X6.16Y-4.29
X6.165Y-4.245
X6.21Y-4.415
X6.315Y-3.88
X6.32Y-4.71
X6.335Y-4.015
X6.35Y-4.19
X6.385Y-3.88
X6.385Y-4.085
X6.405Y-4.295
X6.41Y-3.805
X6.43Y-4.25
X6.445Y-4.48
X6.48Y-3.865
X6.49Y-4.27
X6.49Y-4.37
X6.49Y-4.465
X6.515Y-4.41
X6.52Y-4.32
X6.54Y-4.695
X6.575Y-4.26
X6.625Y-4.13
X6.65Y-4.5
X6.655Y-4.17
X6.675Y-4.34
X6.7Y-4.45
X6.72Y-3.125
X6.72Y-3.535
X6.72Y-3.79
X6.72Y-4.175
X6.73Y-4.73
X6.74Y-4.305
X6.765Y-4.14
X6.785Y-3.84
X6.81Y-4.305
X6.85Y-4.765
T2
X5.68Y-4.525
X5.68Y-4.625
X5.78Y-4.525
X5.78Y-4.625
X5.88Y-4.525
X5.88Y-4.625
X5.98Y-4.525
X5.98Y-4.625
X6.08Y-4.525
X6.08Y-4.625
X6.18Y-4.525
X6.18Y-4.625
X6.28Y-4.525
X6.28Y-4.625
X6.38Y-4.525
X6.38Y-4.625
T3
X6.17Y-2.975
X6.27Y-2.975
X6.37Y-2.975
X6.47Y-2.975
X6.57Y-2.975
X6.67Y-2.975
X6.77Y-2.975
X6.87Y-2.975
X5.47Y-4.875
X5.57Y-4.875
X5.67Y-4.875
X5.77Y-4.875
X5.87Y-4.875
X5.97Y-4.875
X6.07Y-4.875
X6.17Y-4.875
X6.37Y-4.875
X6.47Y-4.875
X6.57Y-4.875
X6.67Y-4.875
X6.77Y-4.875
X6.87Y-4.875
X5.11Y-2.975
X5.21Y-2.975
X5.31Y-2.975
X5.41Y-2.975
X5.51Y-2.975
X5.61Y-2.975
X5.71Y-2.975
X5.81Y-2.975
X5.91Y-2.975
X6.01Y-2.975
T4
X6.97Y-3.575
X4.92Y-4.875
X4.97Y-2.975
X6.97Y-4.675
T0
M30
